<?xml version="1.0" encoding="utf-8"?>
<!-- Generator: Adobe Illustrator 21.1.0, SVG Export Plug-In . SVG Version: 6.00 Build 0)  -->
<svg version="1.1" xmlns="http://www.w3.org/2000/svg" xmlns:xlink="http://www.w3.org/1999/xlink" x="0px" y="0px"
	 viewBox="0 0 3000 3000" style="enable-background:new 0 0 3000 3000;" xml:space="preserve">
<g id="fill">
	<g>
		<path style="fill:#FFDA00;" d="M1463.9,1228.7c19.2,1.5,37.4,3,56.2-15.8c19.2-15.8,31.5-40.1,35.5-70.2l0.2-1.9l-1.7,0.9
			c-26.3,13.2-48.3,16.4-67.4,9.6c-20.5-7.2-37.3-26.2-51.6-57.8l-0.3-0.6h-252.1l0.3,1.3c7.9,29.3,1.7,53.3-4.2,76.5
			c-5,19.5-10.2,39.7-6.7,62.5c4.5,29.5,21.5,54.7,46.8,69.3c13.7,7.9,28.8,12,43.3,12c9,0,17.8-1.6,25.9-4.8
			c37.1-14.6,66.6-15.9,93-3.8l1.5,0.7l-0.1-1.7c-1.3-18.7-0.9-37.1,19.2-57.2C1423.8,1225.5,1444.2,1227.1,1463.9,1228.7z"/>
		<path style="fill:#FFDA00;" d="M1823.7,1820.1c-79.7,23.7-106.2,1.2-139.7-27.2c-16.3-13.9-34.9-29.6-62-42.4l-0.2-0.1l-0.2,0
			c-53.8-3.4-98,12-124.4,43.2c-23.9,28.3-31.1,66.4-20.8,110.4c2.1,8.9,10,15.1,19.2,15.1h392.5c10.9,0,19.7-8.8,19.7-19.7v-45.3
			l-0.2-0.3C1888.2,1825.7,1852.9,1811.4,1823.7,1820.1z"/>
		<path style="fill:#FFDA00;" d="M1897,1352.7c-10.2-5-20.7-8.7-31.2-11.1l-1.1-0.2l-0.1,1.1c-2.4,26.1-14.8,40.5-27.8,55.7
			c-13.7,15.9-27.8,32.4-33.6,63.7c-6,32.7,5.8,64.9,31.7,86.1c15,12.3,32.7,18.8,49.7,18.8c7.8,0,15.5-1.4,22.7-4.3l0.6-0.3v-192.2
			C1907.8,1362.7,1903.6,1355.9,1897,1352.7z"/>
		<path style="fill:#FFDA00;" d="M1243.2,1620c-81.8,0-148.3,66.5-148.3,148.3c0,19,3.5,37.4,10.5,54.9l0.6,1.5l1.1-1.2
			c17.8-20,46.6-32.2,77.1-45.1l5.4-2.3l-0.1-0.8c-0.3-2.3-0.5-4.6-0.5-7c0-29.9,24.3-54.2,54.2-54.2c11.7,0,22.7,3.6,32.1,10.5
			l0.7,0.5l0.6-0.6c22.5-22.3,35.4-50,39.4-84.7l0.1-0.7l-0.6-0.3C1293.5,1626.5,1268.5,1620,1243.2,1620z"/>
		<path style="fill:#FFDA00;" d="M1387.7,1734.9l-1.2,1c-20.9,16-36.3,38.1-44.6,64c-8.1,25.4-8.8,52.7-2,78.9l0.4,1.6l1.2-1.1
			c31.8-28.1,50-68.6,50-111c0-10.7-1.2-21.4-3.4-31.8L1387.7,1734.9z"/>
		<path style="fill:#FFDA00;" d="M1834.1,1222.4l0.9-0.5c38.9-23.2,64.9-62.1,71.3-106.8c0.8-5.6-0.9-11.2-4.6-15.5
			c-3.8-4.3-9.2-6.8-14.9-6.8h-73.8l-0.2,0.7c-14.5,48.8,3.4,96.6,20.9,128L1834.1,1222.4z"/>
		<path style="fill:#FFDA00;" d="M1510.3,1365.5l0.3-0.5c8.5-13,23.9-19.9,39.3-17.5c6.5,1,12.6,3.6,17.8,7.4l0.5,0.4l0.6-0.3
			c19.3-10.7,32.4-28.3,38.9-52.5l0.2-0.7l-0.5-0.4c-13.7-10.2-30.1-17.1-47.2-19.7c-47.4-7.3-94,18.2-113.4,62l-0.4,0.8l0.8,0.4
			c19.3,11.1,41.6,18.3,62.6,20.4L1510.3,1365.5z"/>
		<path style="fill:#FFDA00;" d="M2236.1,2035.4c-1.7-1.3-4-1.3-5.7,0.1l-33.7,28.1c-12.3,10.3-21.2,20.7-27.2,31.9
			c-1.2,2.2-2.8,4.2-4.8,5.8c-4.1,3.4-9.3,5.1-14.7,4.5c-5.3-0.5-10.2-3.1-13.5-7.3c-3.3-4.1-4.8-9.5-4.2-14.9
			c0.7-5.4,3.4-10.3,7.6-13.5c1.6-1.2,3.3-2.1,5.1-2.8c13.8-5.1,24.2-10.8,32.7-17.9l37.9-31.7c1.7-1.4,2.1-3.6,1.1-5.6
			c-1-1.9-3.1-2.9-5.2-2.4l-94.7,23.9c-9.5,2.4-17.6,8.3-22.8,16.5l-28.4,45.1c-4.8,7.5-4.1,17.2,1.6,24l36.6,43.8
			c4,4.8,9.8,7.4,15.7,7.4c2.6,0,5.2-0.5,7.7-1.5l49.4-19.9c9-3.7,16.3-10.6,20.3-19.5l40.4-88.9
			C2238.4,2039,2237.8,2036.8,2236.1,2035.4z"/>
	</g>
	<g>
		<path style="fill:#1FAAFF;" d="M1722.1,1629.1c0-37.7-30.7-68.4-68.4-68.4s-68.4,30.7-68.4,68.4s30.7,68.4,68.4,68.4
			S1722.1,1666.9,1722.1,1629.1z"/>
		<path style="fill:#1FAAFF;" d="M1649.1,1403.1c6-39.1-10-78-41.7-101.6l-1.2-0.9l-0.4,1.4c-6.4,23.6-19.1,40.8-37.9,51.2l-1.4,0.8
			l1.2,0.9c11.9,8.8,17.9,23.4,15.6,38c-3.3,21.7-23.7,36.7-45.5,33.4c-21.7-3.4-36.7-23.8-33.4-45.5c0.9-5.8,3-11.1,6.1-15.9
			l0.9-1.4l-1.7-0.2c-20.8-2-42.7-9.2-61.8-20.1l-1-0.6l-0.4,1c-3.8,8.5-6.4,17.6-7.9,27c-8.9,58,31,112.4,89,121.3
			c5.5,0.8,11,1.3,16.4,1.3c22.4,0,44.2-7.1,62.7-20.6C1629.8,1455.9,1644.8,1431.2,1649.1,1403.1z"/>
		<path style="fill:#1FAAFF;" d="M1416.2,1542.8c-10.4-1.6-20.7,0.9-29.2,7.2c-8.5,6.2-14,15.3-15.6,25.7
			c-3.3,21.4,11.5,41.5,32.9,44.8c2,0.3,4,0.5,6.1,0.5c8.3,0,16.3-2.6,23.2-7.6c8.5-6.2,14-15.3,15.6-25.7
			c1.6-10.4-0.9-20.7-7.2-29.2C1435.7,1550,1426.6,1544.4,1416.2,1542.8z"/>
		<path style="fill:#1FAAFF;" d="M1315.4,1638.8l-1.3-0.7l-0.2,1.5c-4,34.3-16.7,61.6-38.8,83.5l-0.8,0.8l0.9,0.7
			c13.9,10.2,22.2,26.5,22.2,43.7c0,29.9-24.3,54.2-54.2,54.2c-27.2,0-50.3-20.3-53.8-47.2l-0.2-1.3l-5.9,2.5
			c-30.7,13-59.7,25.3-77.8,45.6l-0.4,0.5l0.2,0.6c10.9,27.2,29.4,50.5,53.6,67.2c24.8,17.1,53.9,26.2,84.2,26.2
			c36.2,0,71.1-13.2,98.3-37.2l0.5-0.4l-0.2-0.6c-13.8-53.7,4.2-109,45.9-140.8l0.5-0.4l-0.1-0.6
			C1379,1695.1,1352.5,1659.5,1315.4,1638.8z"/>
		<path style="fill:#1FAAFF;" d="M1906.4,1560.8c-22,8.8-48.9,3.3-70.4-14.2c-25.3-20.8-36.9-52.2-30.9-84.2
			c5.7-30.8,19.7-47.1,33.2-62.8c13.3-15.5,25.8-30.1,28.3-56.8l0.1-0.9l-0.9-0.2c-52.8-11.8-106.7,11.3-134.2,57.4
			c-12.5,20.9-18,44.5-16,68.1c2.2,26.3,13.4,51.1,33.1,73.9c42.1,48.6,52.2,107.8,26.2,154.7c-24.4,44.1-74.3,66-130.2,57.3
			c-8.1-1.2-15.9-2.1-23.2-2.6l-5.2-0.3l4.7,2.2c26.9,12.7,45.3,28.3,61.6,42.1c24,20.4,44.4,37.7,82.8,37.7c16,0,35.1-3,58.8-10.1
			c28.4-8.4,62.7,5.5,81.7,33l1.8,2.7v-297.5L1906.4,1560.8z"/>
		<path style="fill:#1FAAFF;" d="M1114.8,1553.5c44.4-2.3,76.9-13.6,99.3-34.6c18.9-18.9,17.4-37,15.9-56.2
			c-1.6-19.7-3.2-40,18.8-62.1c22-22,42.4-20.4,62.1-18.9c19.2,1.5,37.4,3,56.2-15.9c18.9-18.9,17.4-37,15.9-56.3
			c-0.1-1.6-0.3-3.3-0.4-4.9l0-0.6l-0.5-0.2c-26.9-12.2-57-11-94.6,3.8c-20.5,8.1-45.8,5.5-67.5-7.1c-24.7-14.2-41.4-39-45.8-67.8
			c-3.4-22.4,1.5-41.5,6.7-61.7c6-23.5,12.3-47.7,4.2-77.5l-0.2-0.7h-71.1c-10.9,0-19.7,8.8-19.7,19.7v421.3
			c0,5.4,2.2,10.5,6.1,14.2c3.7,3.5,8.5,5.5,13.6,5.5C1114.1,1553.5,1114.4,1553.5,1114.8,1553.5z"/>
		<path style="fill:#1FAAFF;" d="M1486,1153.1c6.6,2.3,13.6,3.5,21,3.5c14.5,0,30.5-4.4,48-13.2l0.5-0.2l0.1-0.5
			c1.3-10,1.8-20.5,1.2-31.3c-0.5-10.4-9.1-18.6-19.7-18.6h-104.5l0.6,1.4C1447.8,1126.4,1465,1145.6,1486,1153.1z"/>
		<path style="fill:#1FAAFF;" d="M1660.7,1206.2c27.1,23.7,61.9,36.7,98,36.7c26.9,0,53.3-7.3,76.3-21l0.8-0.5l-0.5-0.8
			c-17.3-31.1-35-78.3-20.7-126.5l0.4-1.3h-184.4c-5.7,0-11.1,2.5-14.8,6.8c-3.8,4.4-5.5,10.1-4.6,15.9
			C1616.2,1150.5,1633.8,1182.8,1660.7,1206.2z"/>
		<path style="fill:#1FAAFF;" d="M924.3,1486.8l-148.1-102.7c-3.5-2.4-6.8-1-7.7-0.5c-0.9,0.5-4,2.3-4.1,6.5l-2.1,180.2
			c0,3.6,2.2,5.6,3.6,6.4c1.1,0.7,4,2,7.3,0.3l26.9-13.9c5.4-2.8,11.8-3.3,17.5-1.5c5.8,1.9,10.6,5.9,13.4,11.3l23.5,45.6
			c0.9,1.8,2.5,3.1,4.4,3.7c0.7,0.2,1.5,0.4,2.3,0.4c1.2,0,2.3-0.3,3.4-0.8l42.5-21.9c1.8-0.9,3.1-2.4,3.7-4.3
			c0.6-1.9,0.4-3.9-0.5-5.7l-23.5-45.6c-5.8-11.2-1.4-25.1,9.8-30.8l26.9-13.9c3.5-1.8,4-5.2,4-6.2v-0.4
			C927.5,1491.5,927.1,1488.8,924.3,1486.8z"/>
	</g>
	<g>
		<path style="fill:#FF5777;" d="M2779.1,2018.5l-353-235.3c-3.2-2.2-7.1-2.9-11-2.2c-3.8,0.8-7.1,3-9.3,6.2
			c-2.2,3.2-2.9,7.1-2.2,11c0.8,3.8,3,7.1,6.2,9.3l353,235.3c2.5,1.7,5.3,2.5,8.1,2.5c4.7,0,9.4-2.3,12.2-6.5
			C2787.6,2032.1,2785.8,2023,2779.1,2018.5z"/>
		<path style="fill:#FF5777;" d="M2719.3,2108.1l-353-235.3c-2.4-1.6-5.2-2.5-8.1-2.5c-4.9,0-9.4,2.4-12.2,6.5
			c-4.5,6.7-2.7,15.8,4,20.3l353,235.3c2.4,1.6,5.2,2.5,8.1,2.5c1,0,1.9-0.1,2.9-0.3c3.8-0.8,7.1-3,9.3-6.2
			C2727.9,2121.7,2726,2112.6,2719.3,2108.1z"/>
		<path style="fill:#FF5777;" d="M2537.9,1406.1v-68c0-14.3-11.6-25.9-25.9-25.9h-488.8c-14.3,0-25.9,11.6-25.9,25.9v68
			c0,14.3,11.6,25.9,25.9,25.9h488.8C2526.2,1432,2537.9,1420.3,2537.9,1406.1z M2489.7,1370.8c0,10.6-8.6,19.2-19.2,19.2
			s-19.2-8.6-19.2-19.2s8.6-19.2,19.2-19.2S2489.7,1360.2,2489.7,1370.8z M2408.4,1370.8c0,10.6-8.6,19.2-19.2,19.2
			s-19.2-8.6-19.2-19.2s8.6-19.2,19.2-19.2S2408.4,1360.2,2408.4,1370.8z M2327.2,1370.8c0,10.6-8.6,19.2-19.2,19.2
			s-19.2-8.6-19.2-19.2s8.6-19.2,19.2-19.2S2327.2,1360.2,2327.2,1370.8z"/>
		<path style="fill:#FF5777;" d="M1246,739.3h-758c-14.3,0-25.9,11.6-25.9,25.9v63.7c0,14.3,11.6,25.9,25.9,25.9h633.3
			c28.6,0,55.9-10.9,76.7-30.6l59.3-56.3c5-4.8,6.6-11.7,4-18.2C1258.8,743.3,1253,739.3,1246,739.3z M710.5,794.8
			c0,10.6-8.6,19.2-19.2,19.2s-19.2-8.6-19.2-19.2s8.6-19.2,19.2-19.2S710.5,784.2,710.5,794.8z M629.3,794.8
			c0,10.6-8.6,19.2-19.2,19.2s-19.2-8.6-19.2-19.2s8.6-19.2,19.2-19.2S629.3,784.2,629.3,794.8z M548,794.8
			c0,10.6-8.6,19.2-19.2,19.2s-19.2-8.6-19.2-19.2s8.6-19.2,19.2-19.2S548,784.2,548,794.8z"/>
		<path style="fill:#FF5777;" d="M588.1,1293.5c-2.7-1.1-5.8-0.5-7.9,1.6l-103.8,103.8c-2.5,2.5-4,5.9-4,9.5c0,3.6,1.4,7,4,9.6
			l103.8,103.8c1.4,1.4,3.2,2.1,5.1,2.1c0.9,0,1.9-0.2,2.8-0.6c2.7-1.1,4.5-3.7,4.5-6.7v-216.5
			C592.6,1297.2,590.9,1294.6,588.1,1293.5z"/>
		<path style="fill:#FF5777;" d="M441.2,1382.7c2.5,2.6,5.9,4,9.5,4c3.6,0,7-1.4,9.5-4L564,1278.9c2.1-2.1,2.7-5.1,1.6-7.9
			c-1.1-2.7-3.7-4.5-6.7-4.5H342.5c-3,0-5.5,1.7-6.7,4.5c-1.1,2.7-0.5,5.8,1.6,7.9L441.2,1382.7z"/>
		<path style="fill:#FF5777;" d="M460.2,1434.1c-2.5-2.5-5.9-3.9-9.5-3.9c-3.6,0-7,1.4-9.5,3.9l-103.8,103.8
			c-2.1,2.1-2.7,5.1-1.6,7.9c1.1,2.7,3.7,4.5,6.7,4.5h216.5c3,0,5.5-1.7,6.7-4.5c1.1-2.7,0.5-5.8-1.6-7.9L460.2,1434.1z"/>
		<path style="fill:#FF5777;" d="M428.9,1408.4c0-3.6-1.4-7-4-9.5l0,0l-103.8-103.8c-2.1-2.1-5.1-2.7-7.9-1.6
			c-2.7,1.1-4.5,3.7-4.5,6.7v216.5c0,3,1.7,5.5,4.5,6.7c0.9,0.4,1.9,0.6,2.8,0.6c1.9,0,3.7-0.7,5.1-2.1L425,1417.9
			C427.5,1415.4,428.9,1412,428.9,1408.4z"/>
	</g>
</g>
<g id="outline">
	<g>
		<path d="M2811.7,654.9c-26.9-33.3-70.9-48-112.3-37.4l-46.9,12c-76.8,19.7-157.4,17.3-232.9-6.8l-844.9-269.9
			c-13-4.1-26.9-2-38,5.9c-11.1,7.9-17.8,20.2-18.2,33.9c-1.5,51.4,16.3,87.9,49.4,117.2c4.5,4,1.2,11.4-4.8,10.8l-94.8-9.1
			c-14.8-1.4-29.1,4.8-38.2,16.5c-9.1,11.7-11.5,27-6.5,40.9c24,66.4,79.6,95.4,180.6,111c4.3,0.7,4.2,6.9-0.1,7.5l-84.6,12.1
			c-13.9,2-26.4,10.2-32.8,22.6c-7.1,13.8-6.1,30,2.5,42.7c31.6,46.6,78.2,64.5,150.2,64.5c22.1,0,46.5-1.7,73.7-4.7
			c5-0.6,6.8,6.4,2.1,8.3l-32.4,13.2c-14.7,6-25.5,19.2-27.5,34.9c-2,15.7,4.5,30.7,17.2,40.2c21.8,16.3,45.8,23.9,74.4,23.9
			c52.7,0,120.9-25.7,219.5-69.6c0.7-0.2,1.4-0.4,2.2-0.8c2-1,4-1.9,6-2.9c12.5-5.6,25.5-11.5,39-17.6
			c37.7-15.8,76.7-28.7,116.4-38.5c47.9-11.7,124.5-22.1,144.3,38.6c0.2,0.6,0.5,1.2,0.8,1.7c1.2,9.1,0.9,18.6-1,28.6
			c-7.4,40.9-44,60.5-86.3,83.3c-58,31.2-123.8,66.5-118.2,167.1c0.9,16.7,9.4,31.7,23.1,41.1c8.9,6.1,19.2,9.2,29.7,9.2
			c5.5,0,11.1-0.9,16.5-2.6l658.3-215.1c39.5-12.9,68.6-47.6,74.2-88.4C2882.9,793.9,2862.9,718.3,2811.7,654.9z M2119.2,728.6
			C2119.2,728.5,2119.2,728.5,2119.2,728.6c0-0.1,0.1-0.1,0.1,0C2119.3,728.5,2119.2,728.6,2119.2,728.6z M2846.6,875.9
			c-4.3,31.4-26.7,58.2-57.2,68.1l-336,109.8c-5.4,1.8-11.3-1.1-13-6.5c-0.7-2-1.4-4-2.1-5.9c-1.7-4.2-3.5-8.3-5.5-12.2
			c-2.1-4-4.1-7.6-6.7-11.6c-2.9-4.5-9.2-5.9-13.8-2.2c-3.4,2.7-4.3,7.5-2.4,11.5l0.1,0.2c1.5,3.1,3.1,6.9,4.3,10.4
			c1.3,3.6,2.4,7.2,3.4,10.8c0.2,1,0.4,2,0.7,3c-0.2,6.8-2.4,13.2-9.7,15.7c-10.4,3.6-16.2-5.2-20.1-13.4c-0.1-0.3-0.2-0.6-0.3-0.9
			c-2.1-5.4-4.4-10.6-6.9-15.6c-2.6-5.1-5.2-9.9-8.4-15c-3.1-5-10.3-6.2-14.9-1.3c-2.6,2.8-3.1,7-1.4,10.4l0.2,0.3
			c2.1,4.2,4.2,9.1,6,13.7c1.8,4.7,3.4,9.5,4.7,14.3c0.3,1,0.5,2,0.7,3c0.2,2.1,0.5,4.2,0.7,6.4c0.7,8-2.4,12.1-8.2,15.2l-48.3,15.8
			c-6,1.8-12.1,4-18.3,5.2c-10.7,2-16.8-2-24.2-9.1c-0.6-0.6-1.3-1-2-1.2c-3.5-2.7-7.3-5-11.1-6.7c-6.8-3-13.7-4.7-20.4-5.6
			c-6.8-1-13.4-1.2-19.8-1c-13,0.4-25.4,2.5-37.5,5.3c-6,1.4-12,3.1-17.9,4.9c-5.9,1.9-11.6,3.9-17.7,6.3c-5.5,2.2-7.9,9.3-3.8,14.6
			c2.4,3,6.5,4.1,10.1,2.9l0.3-0.1c10.6-3.4,22.1-6.1,33.2-8.2c11.2-2,22.5-3.2,33.4-3c8.5,0.1,16.8,1.3,23.9,3.8
			c3.1,1.5,5.5,3.5,5.1,6.8c-0.6,4.8-5.2,7.7-9.3,9.8l-104.4,34.1c-8.4,2.7-17.7,1.9-25-3c-7.5-5-12-13-12.5-22.1
			c-4.7-84.8,48.6-113.5,105.1-143.8c19.1-10.3,38.5-20.7,55.1-33.5c13.8-7.9,27.3-16.8,39.8-27.3c12.7-10.6,24.4-23,33.6-37.5
			l3.4-5.4c1-1.9,2-3.8,3-5.8l2.9-5.8l2.3-6.1c0.7-2,1.5-4,2.2-6.1l1.6-6.3c0.5-2.1,1.1-4.2,1.5-6.3l0.9-6.4
			c2.3-17.2,0.3-34.3-3.9-50.4c-1.5-5.8-8.2-9-14-5.6c-3.3,1.9-4.9,5.9-4.2,9.7l0.1,0.3c2.7,14.3,3.2,28.7,0.7,42.4
			c-1.4,4.3-3.1,8.5-5,12.6c-2.3,4.9-5.4,10.1-11.3,9c-5.3-1-7.4-6.2-8.7-11.1c-6.3-42.7-38-75.7-87.8-104.8
			c-1.3-1.2-2.8-2.1-4.5-2.6c-33.9-19.2-75.7-36.8-123.3-54.4c-0.4-0.2-0.7-0.3-1.1-0.4c-37.6-13.9-78.8-27.8-122.6-42.5
			c-41-13.8-83.3-28.1-127.9-44c-13.4-4.8-26.4-9.4-39.1-13.9c-58.9-20.8-109.2-38.5-148.8-58c-0.3-0.2-0.6-0.3-0.9-0.5
			c-65.4-32.4-101.6-69.8-100.2-134.5c0.1-6,2.6-11.8,7.5-15.4c3.2-2.3,6.9-3.5,10.7-3.5c1.9,0,3.7,0.3,5.6,0.9l94.2,30.1
			c0.3,0.1,0.6,0.2,0.9,0.4c3.1,1.3,9.6,3.4,11.2,6.8c4.3,9-10.5,13-16.3,14.5c-1.4,0.2-2.9,0.3-4.3,0.5
			c-10.6,0.8-21.6,0.1-32.5-1.7c-5.5-0.9-10.9-2.1-16.4-3.5c-5.4-1.4-11-3.1-15.8-4.9l-0.4-0.2c-4.6-1.7-10,0.5-11.9,5.4
			c-1.8,4.6,0.5,9.8,5,12c5.9,3,11.3,5.1,17.1,7.2c5.9,2.1,11.9,3.9,18.1,5.4c12.2,3,25,4.6,38.1,4.3c6.6-0.2,13.2-0.9,19.8-2.2
			c6.6-1.4,13.1-3.6,19.4-6.4c5.4-2.4,10.6-5.5,15.3-9.1c8-6,18.4-7.5,27.9-4.5l58.6,18.7c4.1,1.3,6,6.1,3.9,9.9
			c-0.2,0.4-0.5,0.8-0.7,1.3c-1.8,3.4-3.6,6.9-5.3,10.4c-1.7,3.5-3.3,6.9-4.9,10.9c-2,4.9,0.4,10.8,6,12.5c4.1,1.3,8.6-0.7,10.8-4.5
			l0.1-0.2c1.6-2.7,3.6-5.9,5.5-8.8c2-2.9,4-5.9,6.1-8.7l0.1-0.1c5.7-7.6,15.5-10.8,24.6-7.9l150.7,48.1c4.2,1.3,6,6.4,3.6,10.1
			l-0.1,0.2c-2.5,3.7-4.8,7.6-6.9,11.6c-2,3.7-3.6,7.2-5.4,11.6c-1.8,4.5,0.2,9.9,4.9,12c4.5,2,9.7-0.1,12.1-4.3l0.1-0.2
			c1.5-2.7,3.7-6.1,5.8-9c2.1-3,4.4-5.9,6.9-8.7c0.7-0.9,1.5-1.7,2.2-2.6c5.7-6.3,14.5-8.7,22.6-6.1l1.4,0.4
			c7.8,2.5,11,11.7,6.4,18.5l-0.1,0.2c-3.2,4.8-6.3,9.7-9,14.7c-2.6,4.8-4.9,9.4-7.2,14.9c-2.1,5,0.6,11.1,6.2,12.6
			c4.2,1.2,8.7-1,10.8-4.9l0.1-0.2c2.1-3.9,4.8-8.3,7.6-12.3c2.8-4,5.8-8,9-11.8c1.6-2,3.3-3.9,5-5.8c7.2-7.8,18.4-10.8,28.6-7.5
			L2412,646.4c80,25.6,165.3,28.1,246.7,7.2l46.9-12c31.9-8.2,65.9,3.2,86.7,28.9C2839,728.4,2857.3,797.6,2846.6,875.9z"/>
		<path d="M2814,2013.1l-238.4-159c-8.7-5.8-13.9-15.5-13.9-25.9v-527.5c0-6.9-5.6-12.5-12.5-12.5h-526.2
			c-13.8,0-24.9-11.1-24.9-24.9v-249.1c0-6.9-5.6-12.5-12.5-12.5h-632.1c-13.8,0-24.9-11.1-24.9-24.9V727.8c0-0.3-0.1-0.6-0.1-0.9
			c0-0.5-0.1-0.9-0.1-1.4c-0.1-0.4-0.2-0.7-0.3-1.1c-0.1-0.4-0.2-0.8-0.4-1.2c-0.2-0.4-0.4-0.7-0.6-1.1c-0.2-0.3-0.3-0.7-0.6-1
			c-0.2-0.4-0.6-0.7-0.9-1.1c-0.2-0.2-0.3-0.5-0.5-0.7c0-0.1-0.1-0.1-0.1-0.1c-0.3-0.3-0.7-0.7-1.1-1c-0.2-0.2-0.5-0.4-0.7-0.6
			c-0.3-0.2-0.7-0.4-1.1-0.6c-0.3-0.2-0.7-0.4-1-0.5c-0.3-0.2-0.7-0.2-1-0.3c-0.4-0.2-0.9-0.3-1.3-0.4c-0.3-0.1-0.6-0.1-0.9-0.1
			c-0.5-0.1-1-0.1-1.5-0.1c-0.1,0-0.1,0-0.2,0H450.7c-6.9,0-12.5,5.6-12.5,12.5v489.9c0,13.8-11.1,24.9-24.9,24.9h-116
			c-0.1,0-0.1,0-0.2,0c-0.8,0-1.5,0.1-2.3,0.2c-0.4,0.1-0.7,0.2-1.1,0.3c-0.4,0.1-0.8,0.2-1.2,0.4c-0.4,0.2-0.8,0.4-1.2,0.6
			c-0.3,0.2-0.7,0.3-1,0.5c-0.6,0.4-1.2,0.9-1.7,1.4c-0.1,0-0.1,0.1-0.2,0.1c-0.1,0-0.1,0.1-0.1,0.2c-0.5,0.5-1,1.1-1.4,1.7
			c-0.2,0.3-0.4,0.7-0.5,1c-0.2,0.4-0.4,0.7-0.6,1.2c-0.2,0.4-0.2,0.8-0.4,1.3c-0.1,0.3-0.2,0.7-0.3,1c-0.2,0.8-0.2,1.6-0.2,2.5
			v306.6c0,0.8,0.1,1.7,0.2,2.4c0.1,0.4,0.2,0.7,0.3,1c0.2,0.4,0.2,0.9,0.4,1.3c0.2,0.4,0.4,0.8,0.6,1.2c0.2,0.3,0.3,0.7,0.5,1
			c0.5,0.7,1,1.3,1.6,1.9v0c0.6,0.6,1.2,1.1,1.9,1.6c0.3,0.2,0.7,0.3,1,0.5c0.4,0.2,0.8,0.4,1.2,0.6c0.4,0.2,0.8,0.3,1.3,0.4
			c0.3,0.1,0.7,0.2,1,0.3c0.8,0.2,1.7,0.2,2.5,0.2h116c13.8,0,24.9,11.1,24.9,24.9v100.2c0,6.9,5.6,12.5,12.5,12.5h526.2
			c13.8,0,24.9,11.1,24.9,24.9v249.1c0,6.9,5.6,12.5,12.5,12.5h632.1c13.8,0,24.9,11.1,24.9,24.9v249.1c0,0.3,0.1,0.6,0.1,0.8
			c0,0.5,0.1,1,0.1,1.4c0.1,0.4,0.2,0.7,0.3,1.1c0.1,0.4,0.2,0.8,0.4,1.2c0.2,0.4,0.3,0.7,0.6,1.1c0.2,0.4,0.3,0.7,0.6,1.1
			c0.2,0.4,0.6,0.7,0.8,1.1c0.2,0.2,0.3,0.5,0.6,0.7c0,0.1,0.1,0.1,0.1,0.1c0.4,0.4,0.9,0.8,1.3,1.1c0.2,0.2,0.4,0.3,0.6,0.5
			c0.7,0.5,1.4,0.8,2.1,1.2c0.2,0.1,0.4,0.1,0.6,0.2c0.6,0.2,1.2,0.4,1.8,0.6c0.8,0.2,1.6,0.2,2.3,0.2c0.1,0,0.1,0,0.2,0h865.6
			c6.9,0,12.5-5.6,12.5-12.5v-182c0-10,11.1-15.9,19.4-10.4l130.4,86.9c2.1,1.4,4.5,2.1,6.9,2.1c4,0,8-2,10.4-5.6l59.7-89.6
			l28.9-43.4C2821.3,2024.7,2819.8,2016.9,2814,2013.1z M1998.2,1338.1c0-13.8,11.1-24.9,24.9-24.9h488.8
			c13.8,0,24.9,11.1,24.9,24.9v68c0,13.8-11.1,24.9-24.9,24.9h-488.8c-13.8,0-24.9-11.1-24.9-24.9V1338.1z M463.2,765.2
			c0-13.8,11.1-24.9,24.9-24.9h758c14.1,0,20.9,17.2,10.7,26.9l-59.3,56.3c-20.5,19.5-47.7,30.3-76,30.3H488.1
			c-13.8,0-24.9-11.1-24.9-24.9V765.2z M342.5,1267.5h108.1c0,0,0.1,0,0.1,0s0.1,0,0.1,0h108.1c5.5,0,8.3,6.7,4.4,10.6L459.5,1382
			c-4.9,4.9-12.8,4.9-17.6,0l-103.8-103.8C334.2,1274.2,336.9,1267.5,342.5,1267.5z M580.9,1295.8c3.9-3.9,10.6-1.2,10.6,4.4v216.5
			c0,5.5-6.7,8.3-10.6,4.4l-103.8-103.8c-4.9-4.9-4.9-12.8,0-17.6L580.9,1295.8z M309.8,1516.6v-216.5c0-5.5,6.7-8.3,10.6-4.4
			l103.8,103.8c4.9,4.9,4.9,12.7,0,17.6L320.5,1521C316.5,1524.9,309.8,1522.2,309.8,1516.6z M342.5,1549.3c-5.5,0-8.3-6.7-4.4-10.6
			l103.8-103.8c4.9-4.9,12.8-4.9,17.6,0l103.8,103.8c3.9,3.9,1.2,10.6-4.4,10.6H342.5z M1005.7,1005.2c-0.1,0-0.1,0.1-0.1,0.1
			c-0.3,0.3-0.7,0.7-1,1.1c-0.2,0.2-0.4,0.5-0.6,0.7c-0.2,0.4-0.4,0.8-0.6,1.2c-0.2,0.3-0.4,0.6-0.5,1c-0.2,0.3-0.2,0.7-0.4,1.1
			c-0.1,0.4-0.3,0.8-0.4,1.2c-0.1,0.3-0.1,0.7-0.1,1c-0.1,0.5-0.1,1-0.1,1.5c0,0.1,0,0.1,0,0.2v647.9c0,13.6-11,24.7-24.7,24.7
			H488.1c-13.8,0-24.9-11.1-24.9-24.9V1598c0-13.2,10.7-23.9,23.9-23.9h117c0.8,0,1.7-0.1,2.5-0.2c0.3-0.1,0.7-0.2,1-0.3
			c0.4-0.1,0.9-0.2,1.3-0.4c0.4-0.2,0.8-0.4,1.2-0.6c0.3-0.2,0.7-0.3,1-0.5c0.7-0.5,1.3-1,1.9-1.6v0c0.6-0.6,1.1-1.2,1.6-1.9
			c0.2-0.3,0.3-0.7,0.5-1c0.2-0.4,0.4-0.7,0.6-1.2c0.2-0.4,0.2-0.9,0.4-1.3c0.1-0.3,0.2-0.7,0.3-1c0.2-0.8,0.2-1.6,0.2-2.4v-306.6
			c0-0.8-0.1-1.7-0.2-2.5c-0.1-0.3-0.2-0.7-0.3-1c-0.1-0.4-0.2-0.9-0.4-1.3c-0.2-0.4-0.4-0.8-0.6-1.2c-0.2-0.3-0.3-0.7-0.5-1
			c-0.4-0.6-0.9-1.2-1.4-1.7c0-0.1-0.1-0.1-0.1-0.2c-0.1-0.1-0.1-0.1-0.2-0.1c-0.5-0.5-1.1-1-1.7-1.4c-0.3-0.2-0.7-0.3-1-0.5
			c-0.4-0.2-0.8-0.4-1.2-0.6c-0.4-0.2-0.8-0.2-1.2-0.4c-0.3-0.1-0.7-0.2-1.1-0.3c-0.7-0.2-1.5-0.2-2.3-0.2c-0.1,0-0.1,0-0.2,0H489.4
			c-14.5,0-26.2-11.7-26.2-26.2V903.6c0-13.8,11.1-24.9,24.9-24.9h613.1c13.7,0,20.3,16.7,10.4,26.1L1005.7,1005.2z M1051.6,1973.3
			c-13.8,0-24.9-11.1-24.9-24.9v-896.7c0-13.8,11.1-24.9,24.9-24.9h896.7c13.8,0,24.9,11.1,24.9,24.9v896.7
			c0,13.8-11.1,24.9-24.9,24.9H1051.6z M2536.9,2234.8c0,13.8-11.1,24.9-24.9,24.9h-758c-14.1,0-20.9-17.2-10.7-26.9l251-238.1
			c0.1,0,0.1-0.1,0.1-0.1c0.3-0.3,0.6-0.7,0.9-1.1c0.2-0.3,0.5-0.5,0.7-0.8c0.2-0.3,0.4-0.7,0.6-1.1c0.2-0.3,0.4-0.7,0.6-1
			c0.2-0.3,0.2-0.7,0.3-1c0.2-0.4,0.3-0.8,0.4-1.3c0.1-0.3,0.1-0.6,0.1-0.9c0.1-0.5,0.1-1,0.1-1.5c0-0.1,0-0.1,0-0.2v-504.9
			c0-13.7,11.1-24.9,24.9-24.9h488.8c13.8,0,24.9,11.2,24.9,24.9V1805c0,9.9-11.1,15.9-19.4,10.3l-99.8-66.5c-0.6-0.4-1.3-0.7-2-1.1
			c-0.2-0.1-0.3-0.1-0.4-0.2c-0.7-0.2-1.3-0.4-2-0.6c-0.2,0-0.3,0-0.5-0.1c-0.2-0.1-0.5-0.1-0.8-0.1l-169.6-17c-0.2,0-0.4,0-0.6,0
			c-3.8-0.2-7.5,1.3-10,4.1c-0.4,0.4-0.7,0.9-1,1.4c-0.3,0.5-0.6,1-0.9,1.5c0,0.1,0,0.2-0.1,0.2c-0.2,0.5-0.4,0.9-0.6,1.4
			c0,0.1-0.1,0.3-0.1,0.4c-0.1,0.4-0.2,0.8-0.3,1.2c0,0.2-0.1,0.5-0.1,0.7c0,0.3-0.1,0.6-0.1,0.9c0,0.3,0,0.7,0,1c0,0.2,0,0.5,0,0.7
			c0,0.3,0.1,0.7,0.2,1.1c0,0.2,0,0.4,0.1,0.6c0.1,0.4,0.2,0.7,0.3,1.1c0.1,0.2,0.1,0.3,0.2,0.5c0.1,0.4,0.3,0.7,0.5,1.1
			c0.1,0.1,0.1,0.3,0.2,0.4l0,0v0l0.2,0.3l80.7,149.6c0.1,0.1,0.2,0.2,0.2,0.3c0.3,0.6,0.7,1.1,1.2,1.7c0.2,0.2,0.3,0.4,0.5,0.6
			c0.6,0.7,1.3,1.3,2.1,1.8l207.8,138.5c8.7,5.8,13.9,15.5,13.9,25.9V2234.8z M2381.3,1780.9l-9.9,14.8l-30.8,46.2c0,0,0,0,0,0
			l-9.8,14.8c-3.4,5.1-11.1,4.8-14-0.7l-13.3-24.7c-4-7.5-3.6-16.5,1.1-23.6l21.5-32.3c4.7-7,13-10.9,21.4-10.1l27.9,2.8
			C2381.5,1768.8,2384.8,1775.7,2381.3,1780.9z M2722.6,2127.8c-4.2,6.3-12.6,7.9-18.9,3.8l-353-235.3c-6.3-4.2-7.9-12.6-3.8-18.9
			c2.6-3.9,6.9-6.1,11.3-6.1c2.6,0,5.2,0.7,7.5,2.3l353,235.3C2725,2113.1,2726.7,2121.6,2722.6,2127.8z M2753.4,2081.6l-1.9,2.9
			c-4.2,6.3-12.6,7.9-18.9,3.8l-353-235.3c-6.3-4.2-7.9-12.6-3.8-18.9l1.9-2.9c4.2-6.2,12.6-7.9,18.9-3.8l353,235.3
			C2755.9,2066.9,2757.6,2075.4,2753.4,2081.6z M2782.3,2038.2c-4.2,6.3-12.6,7.9-18.9,3.8l-353-235.3c-6.3-4.2-8-12.6-3.8-18.9
			c4.2-6.3,12.6-7.9,18.9-3.8l353,235.3C2784.8,2023.5,2786.5,2032,2782.3,2038.2z"/>
		<path d="M2780.6,765c-1.5-3.7-3.2-7.3-4.8-10.9c-0.8-1.8-1.6-3.6-2.5-5.4l-2.9-5.2c-7.3-14.1-17.6-26.4-28.6-37.6
			c-3.1-3.1-8.1-3.7-11.9-1.2c-4.3,2.9-5.4,8.7-2.6,13l0.4,0.7c7.9,11.8,15.8,23.3,21.5,36.1l2.3,4.7c0.8,1.6,1.3,3.2,2,4.9l3.9,9.7
			c2.1,6.6,4.4,13.2,6,20.1c3.5,13.5,5.7,27.5,6.7,41.5l0.6,10.6c0,3.5,0.2,7.1,0.1,10.6c0,3.5-0.1,7.1-0.3,10.6
			c-0.2,3.5-0.4,7.2-0.7,10.2l-0.1,0.7c-0.4,4.4,2.5,8.7,6.9,9.8c5,1.3,10.1-1.7,11.4-6.6c1.1-4.2,1.9-7.9,2.6-11.8
			c0.7-3.9,1.2-7.8,1.7-11.6c0.5-3.9,0.6-7.8,0.9-11.7c0.2-3.9,0.2-7.8,0.2-11.7c-0.1-15.7-2.2-31.4-6-46.7
			C2786,779.9,2783.1,772.5,2780.6,765z"/>
		<circle cx="2470.4" cy="1370.8" r="20.2"/>
		<path d="M2398.4,772.4l-3.1-6.8c-1.2-2.2-2.3-4.4-3.6-6.5c-1.3-2.1-2.6-4.2-4.1-6.2c-1.5-2.1-3-3.9-5-6.1c-2.6-2.9-6.8-4-10.6-2.4
			c-4.8,2-7,7.5-5,12.3l0.5,1.2l2.3,5.4c0.8,1.9,1.6,3.8,2.3,5.7c1.5,3.9,2.8,7.8,4,11.6c2.5,7.8,4.2,15.8,5.2,23.7
			c0.7,4,0.6,8,1,12c-0.2,4,0.1,8-0.4,12c-0.4,8.1-2.3,15.9-4.1,24.2l-0.2,0.9c-0.8,4,1,8.3,4.8,10.2c4.6,2.4,10.2,0.6,12.6-4
			c4.5-8.7,8.3-18.2,9.9-28.2c1.2-4.9,1.3-10,1.7-15c0-5,0-10.1-0.7-15.1C2404.8,791.3,2402.3,781.5,2398.4,772.4z"/>
		<circle cx="2389.2" cy="1370.8" r="20.2"/>
		<path d="M2089,1663.6c11,6.4,23.6,10.2,36.4,11c11.9,0.7,23.8-1.2,34.7-5.4c7.3-1.6,12.9-0.7,20.5,3.3c0.6,0.3,1.1,0.6,1.7,0.9
			c8.6,5.2,18.4,8.6,28.1,9.7c12.6,1.5,24.9-0.1,36.4-3.6c6.5-1.2,13.1-3,19.2,0.6c1,0.5,1.9,1.1,2.7,1.6c0.5,0.4,1.1,0.8,1.6,1.2
			c11.6,8.1,26,10.8,38.9,9.2c13-1.7,24.9-7.3,34.3-15.2c3.4-2.8,4.4-7.8,2.1-11.7c-2.5-4.5-8.3-6.1-12.7-3.6l-0.2,0.1
			c-8.1,4.6-16.9,7.4-25.5,7.7c-6.4,0.2-12.5-1-17.7-3.5c-1.1-0.9-2.1-1.9-2.8-3c-1.2-1.8-0.6-3.7,0.7-5.6c6.9-5.7,13.3-12,18.9-19
			c7.5-9.2,13.8-19.5,18.7-30.3c4.8-10.9,8.6-22.1,10-35.1c0.5-6.5,0.5-13.5-1.8-21.1c-0.6-1.9-1.5-3.9-2.4-5.8
			c-1.2-1.9-2.2-3.8-3.8-5.6c-2.9-3.7-7.3-6.8-12-8.4c-2.4-0.9-4.7-1.3-7.1-1.6c-1.2-0.1-2.3-0.1-3.5-0.1c-1.2,0-2.3,0.1-3.3,0.2
			c-1.1,0.2-2.1,0.3-3.2,0.5l-2.9,0.8c-2,0.5-3.7,1.4-5.5,2.1c-6.9,3.3-12.1,7.8-16.6,12.6c-8.9,9.7-14.7,20.7-18.9,31.9
			c-4.2,11.3-6.8,22.6-8.2,34.4c-1.1,9.7-1.2,19.8,0.6,30c0.1,2.4-0.1,4.8-1.1,6.5c-1.5,2.6-4.2,4.1-7.1,5.1
			c-8.2,2.3-16.6,3.2-24.5,2.2c-2.2-0.3-4.3-0.8-6.4-1.4c-1.1-0.4-2.2-0.8-3.3-1.2c-2.2-0.9-5-2.1-6.3-4.2c-1.6-2.5-0.6-5.2,0.9-7.6
			c6.5-7.1,12.2-14.8,16.8-23l2.2-3.8l2-3.9c1.3-2.6,2.6-5.2,3.9-7.9l3.3-8.1l1.6-4l1.4-4c3.8-10.7,6.7-21.9,8.7-33.5
			c1.9-11.6,2.7-23.8,0.2-36.9l-0.4-2.4l-0.7-2.5c-0.5-1.7-1-3.3-1.6-5l-2.2-5c-0.7-1.7-1.9-3.3-2.9-4.9c-0.9-1.7-2.4-3.2-3.8-4.7
			c-1.3-1.6-3-3-4.7-4.3c-1.6-1.4-3.6-2.5-5.6-3.5c-1.9-1.1-4.1-1.7-6.3-2.3c-8.9-2.2-17.8-0.4-24.6,2.9
			c-6.8,3.4-12.4,7.9-16.8,12.9c-8.9,10-14.4,21.4-18.2,32.8c-3.9,11.5-5.9,23.1-7,34.7c-1.1,11.6-0.9,23,0,34.7
			c1.1,11.5,3.5,23.1,8,34.4c0.2,0.7,0.3,1.5,0.4,2.2c0.9,6.7-6.4,9.1-11.9,10.4c-13.1,2.3-26.8,0.1-38.3-6.7
			c-15.5-8.8-26.3-25-30.7-43.2c-2.4-9.1-3.2-18.7-3.2-28.6c0-9.8,1.6-19.8,3.2-29.9l0.1-0.6c0.7-4.3-1.8-8.7-6-10.2
			c-4.9-1.8-10.2,0.7-12,5.6c-3.9,10.7-7.1,22-8.2,33.7c-1.1,11.7-0.7,23.8,1.8,35.7C2051.8,1627.9,2066.8,1650.8,2089,1663.6z
			 M2270.8,1615.8c1.2-9.6,3.4-19.5,6.9-28.4c1.7-4.5,3.7-8.8,6-12.8c2.3-3.9,5-7.6,7.8-10.7c2.9-3.1,6.1-5.6,9-6.9
			c2.9-1.3,5.3-1.5,5.9-1c0.4,0.1,0.6,0.2,1,0.8c0.2,0.1,0.4,0.7,0.7,1c0.2,0.5,0.5,1.1,0.7,1.7c0.8,2.7,1.1,6.7,0.7,10.9
			c-0.4,4.3-1.5,8.8-2.8,13.3c-0.7,2.3-1.5,4.6-2.4,6.8l-2.8,6.7c-4,8.8-9.2,17.1-15.3,24.6c-3.1,3.7-6.4,7.3-9.9,10.6
			c-2.3,2.1-5.9,0.5-6-2.6C2269.9,1625.3,2270.2,1620.6,2270.8,1615.8z M2170.3,1568.6c0.9-9.9,2.6-19.6,5.6-28.6
			c3-8.9,7.2-17.3,12.7-23.5c2.7-3.1,5.7-5.4,8.5-6.8c2.8-1.4,5.2-1.6,6.8-1.2c1.6,0.4,3.3,1.5,5,4c0.4,0.7,0.9,1.2,1.2,2
			s0.7,1.6,1.1,2.4c0.3,0.9,0.5,1.9,0.8,2.8l0.4,1.4l0.3,1.5c1.6,8.2,1.2,17.9-0.3,27.5c-1.6,9.7-4,19.5-7.5,29.1l-1.2,3.6l-1.4,3.5
			l-2.8,6.9l-3.2,6.7l-1.7,3.3l-1.9,3.1c-1.9,3.5-4.1,6.8-6.5,10.1c-4.2,3.7-10.4,7.5-12.8,0c-1.5-5.8-2.6-11.8-3.2-18
			C2169.6,1588.8,2169.4,1578.5,2170.3,1568.6z"/>
		<circle cx="2308" cy="1370.8" r="20.2"/>
		<path d="M2288.3,1976.7c-1.2-2.6-3.2-4.8-6-6.1c0,0,0,0,0,0c-0.1-0.1-0.3-0.1-0.4-0.2h0c-2.6-1.2-5.4-1.3-8.1-0.6l-181.8,45.8
			c-3.1,0.8-5.8,2.7-7.5,5.4l-50.2,79.8l-30.4,25.3c-2.5,2.1-4.1,5.1-4.4,8.4c-0.3,3.3,0.7,6.6,2.8,9.1l66.4,79.5
			c2.1,2.5,5.2,4.1,8.4,4.4c0.4,0,0.7,0,1.1,0c2.9,0,5.7-1,8-2.9l30.4-25.3l87.5-35.2c3-1.2,5.4-3.5,6.7-6.4l77.5-170.7
			c0.2-0.3,0.3-0.6,0.4-0.9c0.8-2.1,1-4.3,0.7-6.4C2289,1978.8,2288.7,1977.7,2288.3,1976.7z M2236.6,2040.6l-40.4,88.9
			c-3.9,8.6-11,15.4-19.8,19l-49.4,19.9c-7.8,3.2-16.8,0.9-22.2-5.6l-36.6-43.8c-5.4-6.5-6-15.7-1.5-22.9l28.4-45.1
			c5-8,13-13.8,22.2-16.1l94.7-23.9c3.7-0.9,6.1,3.8,3.2,6.2l-37.9,31.7c-9.6,8-20.8,13.4-32.4,17.7c-1.9,0.7-3.7,1.7-5.4,2.9
			c-9.2,7-10.9,20.8-3.6,29.8c7.3,9.1,20.7,10.4,29.6,2.9c2.1-1.8,3.8-3.9,5-6.1c6.6-12.3,16.3-22.7,27-31.6l33.7-28.1
			C2234,2033.9,2238.1,2037.1,2236.6,2040.6z"/>
		<path d="M2233.2,2449.6c-3-1.4-6-2.1-9.1-2.6c-3-0.5-6-0.6-9.1-0.5s-6,0.3-9.1,0.7c-3,0.5-6,1.1-9.1,2.3c-2.5,1-4.5,3-5.6,5.6
			c-2.1,5.1,0.4,11,5.6,13.1c3,1.2,6,1.8,9.1,2.4c3,0.5,6,0.7,9.1,0.7c3,0,6-0.1,9.1-0.6c3-0.5,6-1.2,9.1-2.6c2.1-1,4-2.7,5-5
			C2240.7,2458.1,2238.4,2452,2233.2,2449.6z"/>
		<path d="M2175.3,1911.1c-3.8-0.8-7.6-1.3-11.5-1.7c-3.7-0.7-7.6-1.6-10.2-4.5c-3.2-3.6-4.1-8.9-5.1-13.5c-0.1-0.3-0.2-0.6-0.3-0.9
			c-0.3-2.7-0.7-5.4-1.3-8.1c-0.8-4-4.1-7.2-8.5-7.7c-5-0.4-9.4,3.3-10.3,8.2c-0.5,2.5-0.9,5.1-1.2,7.6c-0.1,0.2-0.2,0.5-0.3,0.8
			c-1,4.6-1.9,9.8-5.1,13.5c-2.9,3.3-7.3,4.1-11.5,4.8c-3.5,0.4-7.1,0.9-10.6,1.6c-4,0.8-7.2,4.1-7.6,8.5c-0.5,5,3.3,9.3,8.2,10.3
			c2.6,0.5,5.1,0.8,7.6,1.2c0.3,0.2,0.7,0.2,1.2,0.3c4.5,0.7,9.6,1.3,12.8,5c3.2,3.6,4.1,8.9,5.1,13.5c0.1,0.2,0.1,0.4,0.2,0.6
			c0.3,2.7,0.8,5.4,1.3,8.1c0.8,3.9,4.1,7.2,8.5,7.6c5,0.5,9.3-3.2,10.3-8.1c0.5-2.5,0.9-5,1.2-7.5c0.1-0.2,0.2-0.5,0.2-0.7
			c1-4.6,1.9-9.8,5.1-13.5c3.2-3.6,8.3-4.2,12.9-5c0.3-0.1,0.6-0.2,0.8-0.2c2.8-0.4,5.7-0.8,8.5-1.4c3.9-0.8,7.1-4.1,7.5-8.5
			C2183.9,1916.5,2180.2,1912.1,2175.3,1911.1z"/>
		<path d="M2177.4,2487.9c-1-2.1-2.7-4-5-5c-5.2-2.4-11.3-0.1-13.7,5c-1.4,3-2.1,6-2.6,9.1c-0.4,3-0.6,6-0.5,9.1s0.3,6,0.7,9.1
			c0.5,3,1.1,6,2.3,9.1c1,2.5,3,4.5,5.6,5.6c5.1,2.1,11-0.4,13.1-5.6c1.2-3,1.8-6,2.4-9.1c0.5-3,0.7-6,0.7-9.1s-0.1-6-0.6-9.1
			S2178.8,2490.9,2177.4,2487.9z"/>
		<path d="M2177.4,2393.8c-1-2.1-2.7-4-5-5c-5.2-2.4-11.3-0.1-13.7,5c-1.4,3-2.1,6-2.6,9.1c-0.4,3.1-0.6,6.1-0.5,9.1s0.3,6,0.7,9.1
			c0.5,3,1.1,6,2.3,9.1c1,2.4,3,4.5,5.6,5.6c5.1,2.1,11-0.4,13.1-5.6c1.2-3,1.8-6,2.4-9.1c0.5-3,0.7-6,0.7-9.1s-0.1-6-0.6-9.1
			C2179.5,2399.9,2178.8,2396.9,2177.4,2393.8z"/>
		<path d="M2161.8,2697.1c-3.9-1.4-7.7-2.1-11.5-2.6c-3.9-0.5-7.7-0.6-11.6-0.6c-3.8,0.1-7.7,0.3-11.5,0.7
			c-3.8,0.5-7.7,1.2-11.5,2.4c-2.9,0.9-5.4,3.2-6.4,6.4c-1.6,5.1,1.2,10.6,6.4,12.3c3.9,1.2,7.7,1.8,11.5,2.3
			c3.9,0.5,7.7,0.7,11.5,0.7c3.9,0.1,7.7-0.1,11.6-0.5c3.8-0.5,7.7-1.2,11.5-2.6c2.6-1,4.9-3.1,5.9-6
			C2169.6,2704.7,2166.9,2699,2161.8,2697.1z"/>
		<path d="M2121.1,2471.4c3,0,6-0.1,9.1-0.6c3-0.5,6-1.2,9.1-2.6c2.1-1,4-2.7,5-5c2.4-5.2,0.1-11.3-5-13.7c-3-1.4-6-2.1-9.1-2.6
			c-3-0.5-6-0.6-9.1-0.5s-6,0.3-9.1,0.7c-3.1,0.5-6.1,1.1-9.1,2.3c-2.4,1-4.5,3-5.6,5.6c-2.1,5.1,0.4,11,5.6,13.1
			c3,1.2,6,1.8,9.1,2.4C2115.1,2471.2,2118.1,2471.4,2121.1,2471.4z"/>
		<path d="M2093.1,2738.4c-1-2.6-3.1-4.9-5.9-5.9c-5.1-1.9-10.8,0.8-12.7,5.9c-1.4,3.9-2.1,7.7-2.6,11.5c-0.4,3.9-0.6,7.7-0.5,11.6
			c0.1,3.8,0.3,7.7,0.7,11.5c0.5,3.8,1.1,7.7,2.3,11.5c1,2.9,3.3,5.4,6.4,6.4c5.2,1.6,10.7-1.2,12.3-6.4c1.2-3.9,1.8-7.7,2.4-11.5
			c0.5-3.9,0.7-7.7,0.7-11.5c0.1-3.9-0.1-7.7-0.6-11.6C2095.2,2746.1,2094.5,2742.2,2093.1,2738.4z"/>
		<path d="M2093.1,2628.5c-1-2.6-3.1-4.9-5.9-5.9c-5.1-1.9-10.8,0.8-12.7,5.9c-1.4,3.9-2.1,7.7-2.6,11.6c-0.4,3.8-0.6,7.7-0.5,11.5
			c0.1,3.8,0.3,7.7,0.7,11.5c0.5,3.8,1.1,7.7,2.3,11.5c1,2.9,3.3,5.4,6.4,6.4c5.2,1.6,10.7-1.2,12.3-6.4c1.2-3.8,1.8-7.7,2.4-11.5
			c0.5-3.9,0.7-7.7,0.7-11.5c0.1-3.9-0.1-7.7-0.6-11.5C2095.2,2636.1,2094.5,2632.3,2093.1,2628.5z"/>
		<path d="M2051.9,2697.1c-3.9-1.4-7.7-2.1-11.5-2.6c-3.9-0.5-7.7-0.6-11.6-0.6c-3.8,0.1-7.7,0.3-11.5,0.7
			c-3.8,0.5-7.7,1.2-11.5,2.4c-2.9,0.9-5.4,3.2-6.4,6.4c-1.6,5.1,1.2,10.6,6.4,12.3c3.9,1.2,7.7,1.8,11.5,2.3
			c3.9,0.5,7.7,0.7,11.5,0.7c3.9,0.1,7.7-0.1,11.6-0.5c3.8-0.5,7.7-1.2,11.5-2.6c2.6-1,4.9-3.1,5.9-6
			C2059.7,2704.7,2057,2699,2051.9,2697.1z"/>
		<path d="M1950.6,2525.8c-5-1.4-10-2.1-15-2.6c-5-0.4-10-0.6-15-0.5c-5,0.1-10,0.3-15,0.8c-5,0.5-10,1.1-14.9,2.3
			c-3.4,0.8-6.2,3.5-7.1,7.1c-1.2,5.1,1.9,10.3,7.1,11.6c5,1.2,10,1.8,14.9,2.3c5,0.5,10,0.7,15,0.8c5,0.1,10-0.2,15-0.6
			c5-0.5,10-1.2,15-2.6c3.1-0.9,5.8-3.3,6.7-6.7C1958.8,2532.6,1955.8,2527.2,1950.6,2525.8z"/>
		<path d="M1861.8,2449.7c-0.5-5-1.1-10-2.3-15c-0.8-3.4-3.5-6.2-7.1-7.1c-5.2-1.2-10.4,1.9-11.6,7.1c-1.2,5-1.8,10-2.3,15
			c-0.5,5-0.7,10-0.7,15c-0.1,5,0.1,10,0.5,15c0.5,5,1.2,10,2.6,15c0.9,3.1,3.4,5.8,6.7,6.7c5.2,1.4,10.5-1.6,12-6.7
			c1.4-5,2.1-10,2.6-15c0.4-5,0.6-10,0.5-15C1862.5,2459.7,1862.3,2454.7,1861.8,2449.7z"/>
		<path d="M1861.8,2590.6c-0.5-5-1.1-10-2.3-15c-0.8-3.4-3.5-6.2-7.1-7.1c-5.2-1.2-10.4,1.9-11.6,7.1c-1.2,5-1.8,10-2.3,15
			c-0.5,5-0.7,10-0.7,14.9c-0.1,5,0.1,10,0.5,15c0.5,5,1.2,10,2.6,15c0.9,3.1,3.4,5.8,6.7,6.8c5.2,1.4,10.5-1.6,12-6.8
			c1.4-5,2.1-10,2.6-15c0.4-5,0.6-10,0.5-15C1862.5,2600.6,1862.3,2595.6,1861.8,2590.6z"/>
		<path d="M1809.6,2525.8c-5-1.4-10-2.1-14.9-2.6c-5-0.4-10-0.6-15-0.5c-5,0.1-10,0.3-15,0.8c-5,0.5-10,1.1-15,2.3
			c-3.4,0.8-6.2,3.5-7.1,7.1c-1.2,5.1,1.9,10.3,7.1,11.6c5,1.2,10,1.8,15,2.3c5,0.5,10,0.7,15,0.8c5,0.1,10-0.2,15-0.6
			c5-0.5,10-1.2,14.9-2.6c3.2-0.9,5.8-3.3,6.8-6.7C1817.8,2532.6,1814.8,2527.2,1809.6,2525.8z"/>
		<path d="M1395.2,2319.9c-4.2-0.6-4.1-6.7,0.1-7.3l86.6-12.4c14.5-2.1,26.7-11.3,32.6-24.7c5.9-13.3,4.5-28.4-3.6-40.4
			c-41.6-61.5-109.3-73-227.2-59.4c-4.5,0.5-6.1-5.7-1.9-7.4l35.5-14.4c14.7-6,25.5-19.2,27.5-34.9c2-15.7-4.5-30.7-17.2-40.2
			c-62.1-46.4-141.7-21.9-293.9,45.7c-0.7,0.2-1.4,0.4-2.2,0.8c-2,1-4.1,1.9-6.1,2.9c-12.5,5.5-25.4,11.4-38.8,17.5
			c-37.8,15.8-76.7,28.8-116.5,38.5c-47.9,11.7-124.5,22.1-144.3-38.6c-0.2-0.6-0.5-1.2-0.8-1.7c-1.2-9.1-0.9-18.6,1-28.6
			c7.4-40.9,44-60.5,86.3-83.3c58-31.2,123.8-66.5,118.2-167.1c-0.9-16.7-9.4-31.7-23.1-41.1c-13.6-9.3-30.5-11.7-46.2-6.6
			l-658.3,215.1c-39.5,12.9-68.6,47.6-74.2,88.4c-11.6,85.4,8.4,160.9,59.6,224.4c26.9,33.3,70.9,48,112.3,37.4l46.9-12.1
			c76.8-19.7,157.4-17.3,232.9,6.8l844.9,269.9c4.4,1.4,8.8,2.1,13.2,2.1c8.7,0,17.4-2.7,24.8-7.9c11.6-8.3,18-22,18.2-36.2
			c0.9-50.6-17.2-86.7-50.3-115.6c-4.3-3.7-1.2-10.7,4.4-10.2l95.9,9.2c1.4,0.2,2.8,0.2,4.2,0.2c13.3,0,25.8-6.1,34-16.8
			c9.1-11.7,11.5-27,6.5-40.9C1552.3,2364.5,1496.6,2335.6,1395.2,2319.9z M880.8,2271.4C880.8,2271.5,880.8,2271.5,880.8,2271.4
			c0,0.1-0.1,0.1-0.2,0C880.7,2271.5,880.8,2271.4,880.8,2271.4z M1456.7,2606.2c-0.2,5.5-2.6,10.9-7,14.3c-4.8,3.8-11,4.9-16.8,3
			l-109-34.8c-0.3-0.1-0.5-0.3-0.8-0.4c-3.2-1.6-7.8-4.6-4.5-8.4c0.9-1.1,2.1-2,3.4-2.9c7.8-3.1,16.4-5,25.3-5.7
			c10.6-0.8,21.6-0.1,32.5,1.7c5.5,0.9,10.9,2.1,16.4,3.5c5.4,1.4,11,3.1,15.8,4.9l0.4,0.2c4.6,1.7,10-0.5,11.9-5.4
			c1.8-4.6-0.5-9.8-5-12c-5.9-3-11.3-5.1-17.1-7.2c-5.9-2.1-11.9-3.9-18.1-5.4c-12.2-3-25-4.6-38.1-4.3c-6.6,0.2-13.2,0.9-19.8,2.2
			c-6.6,1.4-13.1,3.6-19.4,6.4c-3.2,1.5-6.4,3.2-9.4,5c-1.2,0.6-2.4,1.2-3.6,1.8c-12.8,6.4-23.7,6.9-36.7,4.7l-50.7-16.2
			c-4.8-1.5-7.1-7.1-4.6-11.6l0.1-0.1c1.8-3.4,3.6-6.9,5.3-10.4c1.7-3.5,3.3-6.9,4.9-10.9c2-4.9-0.4-10.8-6-12.5
			c-4.1-1.3-8.6,0.7-10.8,4.5l-0.1,0.2c-1.6,2.7-3.6,5.9-5.5,8.8c-2,2.9-4,5.9-6.1,8.7c-1.2,1.6-2.4,3.1-3.6,4.7
			c-3.9,4.9-10.4,6.8-16.3,4.9l-155.4-49.6c-4.3-1.4-5.9-6.4-3.5-10.2c0,0,0-0.1,0-0.1c2.4-3.6,4.6-7.3,6.6-11.1
			c2.1-3.9,3.8-7.5,5.6-12c1.8-4.5-0.2-9.9-4.9-12c-4.5-2-9.7,0.1-12.1,4.3l-0.1,0.2c-1.5,2.7-3.7,6.1-5.8,9c-2.1,3-4.4,5.9-6.9,8.7
			c-0.6,0.7-1.2,1.4-1.9,2.1c-5.9,6.5-15.1,9-23.5,6.4l-0.9-0.3c-7.8-2.5-11-11.7-6.4-18.5l0.1-0.2c3.2-4.8,6.2-9.7,9-14.7
			c2.6-4.8,4.9-9.4,7.2-14.9c2.1-5-0.6-11.1-6.2-12.6c-4.2-1.2-8.7,1-10.8,4.9l-0.1,0.2c-2.1,3.9-4.8,8.3-7.6,12.3
			c-2.8,4-5.8,8-9,11.8c-2.6,3.2-5.4,6.2-8.2,9.1c-5.6,5.7-14.1,7.8-21.8,5.3l-319-101.9c-44.2-14.1-89.9-21.2-135.8-21.2
			c-37.2,0-74.4,4.7-110.9,14l-46.9,12c-31.9,8.2-65.9-3.2-86.7-28.9c-46.7-57.9-65-127.1-54.3-205.4c4.3-31.4,26.7-58.2,57.2-68.1
			l336.2-109.9c2.2-0.2,4.4-0.1,6.4,0.7c4.2,1.6,6,5.9,7.8,9.7c0.2,0.7,0.5,1.4,0.8,2.1c1.7,4.2,3.5,8.3,5.5,12.2
			c2.1,4,4.1,7.6,6.7,11.6c2.9,4.5,9.2,5.9,13.8,2.2c3.4-2.7,4.3-7.5,2.4-11.5l-0.1-0.2c-1.5-3.1-3.1-6.9-4.3-10.4
			c-1-2.8-1.9-5.6-2.7-8.4c-1-6.1-1.5-11.6,2.6-16.8c5.7-7.3,15.8-8.7,20.9,0.2c1.7,3,3.2,5.9,4.8,8.5c0.2,0.4,0.3,0.9,0.4,1.3
			c2.1,5.4,4.4,10.6,6.9,15.6c2.6,5.1,5.2,9.9,8.4,15c3.1,5,10.3,6.2,14.9,1.3c2.6-2.8,3.1-7,1.4-10.4l-0.2-0.3
			c-2.1-4.2-4.2-9.1-6-13.7c-1.8-4.7-3.4-9.5-4.7-14.3c-0.5-1.8-0.9-3.6-1.3-5.4c-0.4-6.1-3-11.8,3.2-16.2c1.5-1.1,3.1-2.1,4.8-3.1
			l53.5-17.5c0.6,0.1,1.2,0,1.9-0.2c5.3-1.7,10.9-3.5,16.6-3.5c7.6,0,12.4,4.1,18.1,8.5c0.9,0.7,1.9,1.4,2.8,2.1
			c3.5,2.7,7.2,5,11.1,6.6c6.8,3,13.7,4.7,20.4,5.6c6.8,1,13.4,1.2,19.8,1c13-0.4,25.4-2.5,37.5-5.3c6-1.4,12-3.1,17.9-4.9
			c5.9-1.9,11.6-3.9,17.7-6.3c5.5-2.2,7.9-9.3,3.8-14.6c-2.4-3-6.5-4.1-10.1-2.9l-0.3,0.1c-10.6,3.4-22.1,6.1-33.2,8.2
			c-11.2,2-22.5,3.2-33.4,3c-6.4-0.1-12.6-0.8-18.3-2.1c-3.8-1.1-8-2.3-9.7-6.1c-2.1-4.9,2.2-8.7,6.2-11.4l107.4-35.1
			c8.3-2.7,17.2-1.4,24.4,3.5c7.3,5,11.8,13,12.3,21.9c4.7,84.8-48.6,113.5-105.1,143.8c-19.1,10.3-38.5,20.7-55.1,33.5
			c-13.8,7.9-27.3,16.8-39.9,27.3c-12.7,10.6-24.4,23-33.6,37.5l-3.4,5.4c-1,1.9-2,3.8-3,5.8l-2.9,5.8l-2.3,6.1
			c-0.7,2-1.5,4-2.2,6.1l-1.6,6.3c-0.5,2.1-1.1,4.2-1.5,6.3l-0.9,6.4c-2.3,17.2-0.3,34.3,3.9,50.4c1.5,5.8,8.2,9,14,5.6
			c3.3-1.9,4.9-5.9,4.2-9.7l-0.1-0.3c-2.7-14.4-3.2-29-0.7-42.8c1-5.1,2.3-10.2,4.1-15c1.2-2.4,2.8-4.5,4.9-6.4
			c3.2-2.9,5.4-4,9.7-2.6c4.1,1.3,4.5,2.6,5.4,6.3c3.5,46.4,35.9,81.6,88.6,112.4c1.3,1.2,2.9,2.1,4.6,2.6
			c33.8,19.2,75.6,36.7,123.1,54.3c0.4,0.1,0.8,0.3,1.2,0.4c37.6,13.9,78.8,27.8,122.6,42.5c40.9,13.8,83.3,28.1,127.9,44
			c13.4,4.8,26.4,9.4,39.1,13.9c58.9,20.8,109.2,38.5,148.8,58c0.3,0.2,0.6,0.3,0.9,0.5C1422.1,2503.4,1458.4,2541,1456.7,2606.2z"
			/>
		<path d="M1190.4,474.2c5,1.4,10,2.1,14.9,2.6c5,0.4,10,0.6,15,0.5c5-0.1,10-0.3,15-0.8c5-0.5,10-1.1,15-2.3
			c3.4-0.8,6.2-3.5,7.1-7.1c1.2-5.1-1.9-10.3-7.1-11.6c-5-1.2-10-1.8-15-2.3c-5-0.5-10-0.7-15-0.8c-5-0.1-10,0.2-15,0.6
			c-5,0.5-10,1.2-14.9,2.6c-3.2,0.9-5.8,3.3-6.8,6.7C1182.2,467.4,1185.2,472.8,1190.4,474.2z"/>
		<path d="M1138.2,409.4c0.5,5,1.1,10,2.3,15c0.8,3.4,3.5,6.2,7.1,7.1c5.2,1.2,10.4-1.9,11.6-7.1c1.2-5,1.8-10,2.3-15
			c0.5-5,0.7-10,0.7-14.9c0.1-5-0.1-10-0.5-15c-0.5-5-1.2-10-2.6-15c-0.9-3.1-3.4-5.8-6.7-6.8c-5.2-1.4-10.5,1.6-12,6.8
			c-1.4,5-2.1,10-2.6,15c-0.4,5-0.6,10-0.5,15C1137.5,399.4,1137.7,404.4,1138.2,409.4z"/>
		<path d="M1138.2,550.3c0.5,5,1.1,10,2.3,15c0.8,3.4,3.5,6.2,7.1,7.1c5.2,1.2,10.4-1.9,11.6-7.1c1.2-5,1.8-10,2.3-15
			c0.5-5,0.7-10,0.7-15c0.1-5-0.1-10-0.5-15c-0.5-5-1.2-10-2.6-15c-0.9-3.1-3.4-5.8-6.7-6.7c-5.2-1.4-10.5,1.6-12,6.7
			c-1.4,5-2.1,10-2.6,15c-0.4,5-0.6,10-0.5,15C1137.5,540.3,1137.7,545.3,1138.2,550.3z"/>
		<path d="M1049.4,474.2c5,1.4,10,2.1,15,2.6c5,0.4,10,0.6,15,0.5c5-0.1,10-0.3,15-0.8c5-0.5,10-1.1,14.9-2.3
			c3.4-0.8,6.2-3.5,7.1-7.1c1.2-5.1-1.9-10.3-7.1-11.6c-5-1.2-10-1.8-14.9-2.3c-5-0.5-10-0.7-15-0.8c-5-0.1-10,0.2-15,0.6
			c-5,0.5-10,1.2-15,2.6c-3.1,0.9-5.8,3.3-6.7,6.7C1041.2,467.4,1044.3,472.8,1049.4,474.2z"/>
		<path d="M948.1,302.9c3.9,1.4,7.7,2.1,11.5,2.6c3.9,0.5,7.7,0.6,11.6,0.6c3.8-0.1,7.7-0.3,11.5-0.7c3.8-0.5,7.7-1.2,11.5-2.4
			c2.9-0.9,5.4-3.2,6.4-6.4c1.6-5.1-1.2-10.6-6.4-12.3c-3.9-1.2-7.7-1.8-11.5-2.3c-3.9-0.5-7.7-0.7-11.5-0.7
			c-3.9-0.1-7.7,0.1-11.6,0.5c-3.8,0.5-7.7,1.2-11.5,2.6c-2.6,1-4.9,3.1-5.9,6C940.3,295.3,943,301,948.1,302.9z"/>
		<path d="M937.1,1466.6l-147.3-102.1c-10.8-7.5-25.2-7.5-36.1,0.3c-8.4,5.9-13,15.8-13.1,26.1l-2.1,179.2
			c-0.1,11.6,6,22.2,16.2,27.8c9.4,5.2,20.8,4.9,30.4,0l16.9-8.7c4.6-2.4,10.2-0.6,12.5,4l18.8,36.4c5.5,10.8,16.5,17,27.9,17
			c4.8,0,9.7-1.1,14.3-3.5l42.5-21.9c15.4-7.9,21.4-26.9,13.5-42.3l-18.8-36.4c-2.3-4.6-0.6-10.2,4-12.5l17.7-9.2
			c10.3-5.3,16.8-15.6,17-27.4C951.6,1482.7,945.9,1472.7,937.1,1466.6z M926.5,1493.3c-0.1,1.1-0.6,3.8-3.5,5.3l-26.9,13.9
			c-11.7,6-16.3,20.5-10.3,32.2l23.5,45.6c1.7,3.2,0.4,7.1-2.8,8.7l-42.5,21.9c-3.1,1.7-7.1,0.4-8.7-2.8l-23.5-45.6
			c-2.9-5.7-7.9-9.8-14-11.8c-2.4-0.8-4.9-1.2-7.3-1.2c-3.8,0-7.5,0.9-10.9,2.7l-26.9,13.9c-2.9,1.5-5.4,0.3-6.4-0.2
			c-0.9-0.6-3.1-2.3-3.1-5.6l2.1-180.2c0.1-3.5,2.5-5.1,3.5-5.7c1-0.6,3.8-1.6,6.6,0.4l148.1,102.7c2.4,1.7,2.8,4.1,2.8,5.4
			C926.5,1493.1,926.5,1493.2,926.5,1493.3z"/>
		<path d="M906.9,371.5c1,2.6,3.1,4.9,5.9,5.9c5.1,1.9,10.8-0.8,12.7-5.9c1.4-3.9,2.1-7.7,2.6-11.6c0.4-3.8,0.6-7.7,0.5-11.5
			c-0.1-3.8-0.3-7.7-0.7-11.5c-0.5-3.8-1.1-7.7-2.3-11.5c-1-2.9-3.3-5.4-6.4-6.4c-5.2-1.6-10.7,1.2-12.3,6.4
			c-1.2,3.8-1.8,7.7-2.4,11.5c-0.5,3.9-0.7,7.7-0.7,11.5c-0.1,3.9,0.1,7.7,0.6,11.5C904.8,363.9,905.5,367.7,906.9,371.5z"/>
		<path d="M906.9,261.6c1,2.6,3.1,4.9,5.9,5.9c5.1,1.9,10.8-0.8,12.7-5.9c1.4-3.9,2.1-7.7,2.6-11.5c0.4-3.9,0.6-7.7,0.5-11.6
			c-0.1-3.8-0.3-7.7-0.7-11.5c-0.5-3.8-1.1-7.7-2.3-11.5c-1-2.9-3.3-5.4-6.4-6.4c-5.2-1.6-10.7,1.2-12.3,6.4
			c-1.2,3.9-1.8,7.7-2.4,11.5c-0.5,3.9-0.7,7.7-0.7,11.5c-0.1,3.9,0.1,7.7,0.6,11.6C904.8,253.9,905.5,257.8,906.9,261.6z"/>
		<path d="M717.7,1153.3c5.1,0,9.3,4.1,9.3,9.3v12.9c0,6.9,5.6,12.5,12.5,12.5h36.6c6.9,0,12.5-5.6,12.5-12.5V1162
			c0-5.1,4.1-9.3,9.2-9.3c5.7-0.1,11.4-0.1,17.1-0.2c28.8-0.3,57.6-0.9,86.3-3.3c4.8-0.4,8.7-4.5,8.6-9.6c-0.1-4.9-4.2-8.7-9-9.1
			c-28.6-2.4-57.3-2.9-85.9-3.2c-5.7-0.1-11.4-0.2-17.1-0.2c-5.1-0.1-9.2-4.2-9.2-9.3v-13.5c0-6.9-5.6-12.5-12.5-12.5h-36.6
			c-6.9,0-12.5,5.6-12.5,12.5v12.9c0,5.2-4.2,9.3-9.3,9.3c-25.2,0-50.3,0-75.5,0.2c-28.8,0.2-57.5,0.1-86.3,3.9
			c-4.7,0.7-8.5,4.8-8.2,10c0.3,4.5,4,8.2,8.5,8.7c28.7,3.8,57.4,3.6,86,3.8C667.3,1153.3,692.5,1153.3,717.7,1153.3z"/>
		<path d="M556.3,1031.4c20.1,1.5,40.3,2.3,60.4,2.7c5.1,0.1,9.2,4.2,9.2,9.3v14.2c0,6.9,5.6,12.5,12.5,12.5h36.6
			c6.9,0,12.5-5.6,12.5-12.5v-13.3c0-5.2,4.2-9.4,9.4-9.3l31.8,0.1c28.8,0,57.6-0.2,86.3-0.5c28.8-0.3,57.6-0.8,86.3-3.2
			c4.8-0.4,8.7-4.5,8.6-9.7c-0.1-4.8-4.2-8.7-9-9.1c-28.6-2.4-57.3-2.9-85.9-3.2c-28.8-0.3-57.5-0.5-86.3-0.5l-31.8,0.1
			c-5.2,0-9.4-4.1-9.4-9.3v-13.3c0-6.9-5.6-12.5-12.5-12.5h-36.6c-6.9,0-12.5,5.6-12.5,12.5v14.2c0,5.1-4.1,9.2-9.2,9.3
			c-20.3,0.4-40.5,1.2-60.8,2.7c-4.9,0.4-8.8,4.5-8.7,9.7C547.3,1027.2,551.5,1031.1,556.3,1031.4z"/>
		<path d="M878.9,528.6c-3,0-6,0.1-9.1,0.6c-3,0.5-6,1.2-9.1,2.6c-2.1,1-4,2.7-5,5c-2.4,5.2-0.1,11.3,5,13.7c3,1.4,6,2.1,9.1,2.6
			c3,0.5,6,0.6,9.1,0.5c3-0.1,6-0.3,9.1-0.7c3.1-0.5,6.1-1.1,9.1-2.3c2.4-1,4.5-3,5.6-5.6c2.1-5.1-0.4-11-5.6-13.1
			c-3-1.2-6-1.8-9.1-2.4C884.9,528.8,881.9,528.6,878.9,528.6z"/>
		<path d="M838.2,302.9c3.9,1.4,7.7,2.1,11.5,2.6c3.9,0.5,7.7,0.6,11.6,0.6c3.8-0.1,7.7-0.3,11.5-0.7c3.8-0.5,7.7-1.2,11.5-2.4
			c2.9-0.9,5.4-3.2,6.4-6.4c1.6-5.1-1.2-10.6-6.4-12.3c-3.9-1.2-7.7-1.8-11.5-2.3c-3.9-0.5-7.7-0.7-11.5-0.7
			c-3.9-0.1-7.7,0.1-11.6,0.5c-3.8,0.5-7.7,1.2-11.5,2.6c-2.6,1-4.9,3.1-5.9,6C830.4,295.3,833.1,301,838.2,302.9z"/>
		<path d="M822.6,606.2c1,2.1,2.7,4,5,5c5.2,2.4,11.3,0.1,13.7-5c1.4-3,2.1-6,2.6-9.1c0.4-3.1,0.6-6.1,0.5-9.1c-0.1-3-0.3-6-0.7-9.1
			c-0.5-3-1.1-6-2.3-9.1c-1-2.4-3-4.5-5.6-5.6c-5.1-2.1-11,0.4-13.1,5.6c-1.2,3-1.8,6-2.4,9.1c-0.5,3-0.7,6-0.7,9.1
			c-0.1,3,0.1,6,0.6,9.1C820.5,600.1,821.2,603.1,822.6,606.2z"/>
		<path d="M822.6,512.1c1,2.1,2.7,4,5,5c5.2,2.4,11.3,0.1,13.7-5c1.4-3,2.1-6,2.6-9.1c0.4-3,0.6-6,0.5-9.1c-0.1-3-0.3-6-0.7-9.1
			c-0.5-3-1.1-6-2.3-9.1c-1-2.5-3-4.5-5.6-5.6c-5.1-2.1-11,0.4-13.1,5.6c-1.2,3-1.8,6-2.4,9.1c-0.5,3-0.7,6-0.7,9.1
			c-0.1,3,0.1,6,0.6,9.1S821.2,509.1,822.6,512.1z"/>
		<path d="M766.8,550.4c3,1.4,6,2.1,9.1,2.6c3,0.5,6,0.6,9.1,0.5c3-0.1,6-0.3,9.1-0.7c3-0.5,6-1.1,9.1-2.3c2.5-1,4.5-3,5.6-5.6
			c2.1-5.1-0.4-11-5.6-13.1c-3-1.2-6-1.8-9.1-2.4c-3-0.5-6-0.7-9.1-0.7c-3,0-6,0.1-9.1,0.6s-6,1.2-9.1,2.6c-2.1,1-4,2.7-5,5
			C759.3,541.9,761.6,548,766.8,550.4z"/>
		<path d="M797.7,1288.4c-4.3-3.7-10.8-3.2-14.5,1.1c-2,2.3-3.4,4.8-4.6,7.3c-1.2,2.5-2.2,5.1-3,7.8c-0.8,2.6-1.4,5.4-1.7,8.2
			c-0.3,2.8-0.4,5.6,0.1,8.7c0.4,2.2,1.5,4.4,3.3,6c4.3,3.8,10.8,3.5,14.7-0.8c2.1-2.3,3.5-4.8,4.7-7.3c1.2-2.5,2.2-5.1,2.9-7.8
			s1.3-5.4,1.6-8.2c0.3-2.8,0.4-5.6,0-8.7C800.8,1292.3,799.6,1290.1,797.7,1288.4z"/>
		<path d="M740.9,1336.8c5.4-0.7,9.2-5.6,8.5-10.9c-0.6-4.4-1.7-8.5-3.1-12.5c-1.3-4-2.9-8-4.7-11.8c-1.8-3.8-3.8-7.6-5.9-11.2
			c-2.2-3.6-4.5-7.2-7.4-10.5c-2.1-2.4-5.4-3.7-8.7-3.2c-5.3,0.7-9,5.7-8.3,11c0.6,4.4,1.8,8.5,3.1,12.5s2.9,8,4.6,11.8
			c1.7,3.9,3.7,7.6,5.9,11.3c2.2,3.6,4.5,7.2,7.5,10.5C734.4,1335.9,737.6,1337.2,740.9,1336.8z"/>
		<path d="M715.6,1351.2c-2.6-2.1-5.3-3.6-8.1-5c-2.8-1.3-5.7-2.3-8.7-3.1c-2.9-0.8-5.9-1.5-9-1.9c-3.1-0.4-6.2-0.6-9.5-0.2
			c-2.6,0.3-5,1.6-6.8,3.7c-3.5,4.4-2.8,10.7,1.6,14.2c2.6,2.1,5.4,3.5,8.2,4.9c2.8,1.3,5.7,2.3,8.6,3.2c2.9,0.9,5.9,1.6,9,2
			s6.2,0.6,9.5,0.2c2.5-0.3,4.8-1.5,6.5-3.6C720.5,1361.3,719.9,1354.8,715.6,1351.2z"/>
		<circle cx="691.2" cy="794.8" r="20.2"/>
		<path d="M632.5,2242.1l-2.3-5.4c-0.8-1.9-1.6-3.8-2.3-5.7c-1.5-3.9-2.8-7.8-4-11.6c-2.5-7.8-4.2-15.8-5.2-23.7c-0.7-4-0.6-8-1-12
			c0.2-4-0.1-8,0.4-12c0.4-8.1,2.3-15.9,4.1-24.2l0.2-0.9c0.8-4-1-8.3-4.8-10.2c-4.6-2.4-10.2-0.6-12.6,4
			c-4.5,8.7-8.3,18.2-9.9,28.2c-1.2,4.9-1.3,10-1.7,15c0,5,0,10.1,0.7,15.1c1.1,10,3.6,19.8,7.5,29l3.1,6.8c1.2,2.2,2.3,4.4,3.6,6.5
			c1.3,2.1,2.6,4.2,4.1,6.2c1.5,2.1,3,3.9,5,6.1c2.6,2.9,6.9,4,10.6,2.4c4.8-2,7-7.5,5-12.3L632.5,2242.1z"/>
		<circle cx="610" cy="794.8" r="20.2"/>
		<circle cx="528.8" cy="794.8" r="20.2"/>
		<path d="M272.2,2281.7c-7.9-11.8-15.8-23.3-21.5-36.1l-2.3-4.7c-0.8-1.6-1.3-3.2-2-4.9l-3.9-9.7c-2.1-6.6-4.4-13.2-6-20.1
			c-3.5-13.5-5.7-27.5-6.7-41.5l-0.6-10.6c0-3.5-0.2-7.1-0.1-10.6c0-3.5,0.1-7.1,0.3-10.6c0.2-3.5,0.4-7.2,0.7-10.2l0.1-0.7
			c0.4-4.4-2.5-8.7-6.9-9.8c-5-1.3-10.1,1.7-11.4,6.6c-1.1,4.2-1.9,7.9-2.6,11.8c-0.7,3.9-1.2,7.8-1.7,11.6s-0.6,7.8-0.9,11.7
			c-0.2,3.9-0.2,7.8-0.2,11.7c0.1,15.7,2.2,31.4,6,46.7c1.7,7.7,4.5,15.1,7,22.6c1.5,3.7,3.2,7.3,4.8,10.9c0.8,1.8,1.6,3.6,2.5,5.4
			l2.9,5.2c7.3,14.1,17.6,26.4,28.6,37.6c3.1,3.1,8.1,3.7,11.9,1.2c4.3-2.9,5.4-8.7,2.6-13L272.2,2281.7z"/>
	</g>
</g>
</svg>
