<?xml version="1.0" encoding="utf-8"?>
<!-- Generator: Adobe Illustrator 21.1.0, SVG Export Plug-In . SVG Version: 6.00 Build 0)  -->
<svg version="1.1" xmlns="http://www.w3.org/2000/svg" xmlns:xlink="http://www.w3.org/1999/xlink" x="0px" y="0px"
	 viewBox="0 0 3000 3000" style="enable-background:new 0 0 3000 3000;" xml:space="preserve">
<g id="fill">
	<g>
		<path style="fill:#1FAAFF;" d="M2519.7,2241.4l-171.4-318.9c-14.3-26.7-42-43.2-72.3-43.2H842.8c-30.3,0-58,16.6-72.3,43.2
			l-171.4,318.9c-3.1,5.9-4.8,12.2-5,18.9c0.1,2.1,0.2,4,0.3,6.1c0.9,7,3.3,13.4,7.4,19.1c7.8,11.1,21.1,17.8,35.6,17.8h1844
			c14.3,0,27.6-6.6,35.5-17.7c4-5.6,6.5-12,7.4-19.1c0.1-2.1,0.2-4.1,0.3-6.3C2524.5,2253.5,2522.8,2247.1,2519.7,2241.4z
			 M1795.1,2251.8L1795.1,2251.8c-2.1,3.5-5.7,5.6-9.8,5.6h-523.8c-4,0-7.7-2.1-9.8-5.6c-2-3.4-2.1-7.7-0.2-11.2l54-99.4
			c2-3.7,5.8-5.9,10-5.9h415.6c4.2,0,8,2.3,10,5.9l54.1,99.4C1797.2,2244.1,1797.1,2248.4,1795.1,2251.8z M2366.6,2086.4
			L2366.6,2086.4c-2,3.4-5.8,5.6-9.8,5.6H767.4c-4,0-7.7-2.1-9.8-5.6c-2-3.4-2.1-7.7-0.2-11.2l77.2-142c2-3.7,5.8-5.9,10-5.9h1434.9
			c4.2,0,8,2.3,10,5.9l77.2,142C2368.7,2078.7,2368.6,2083,2366.6,2086.4z"/>
		<path style="fill:#1FAAFF;" d="M861.9,1856.6H2276c24.5,0,44.5-20,44.5-44.5v-725.6c0-32-26-58-58-58h-170.9
			c-5.8,0-11.2,2.6-14.9,7.1c-3.7,4.6-5.2,10.7-3.9,16.5c2.5,11.6,3.7,23.6,3.7,35.5c0,2.7-0.1,5.5-0.2,8.6
			c-0.3,5.4,1.6,10.5,5.3,14.4c3.7,3.9,8.7,6,14.1,6h82.2c29.8,0,54,24.2,54,54v549c0,26.5-19.7,49.4-45.9,53.3l-0.2,0
			c-1.5,0.5-2.8,0.6-4.2,0.5c-0.2,0-0.3,0-0.5,0l-0.1,0l-0.8,0.1c-0.8,0.1-1.6,0.1-2.3,0.1h-406.5l-0.2,0.1
			c-2.7,0.9-4.9,0.8-7.3-0.1l-0.2-0.1H942.2c-0.1,0-0.2,0-0.3,0c-0.3,0-0.6,0-0.8,0c-0.3,0-0.6,0-0.9-0.1c-0.2,0-0.4,0-0.6-0.1
			c-28.8-1.4-51.3-25.1-51.3-53.9v-457.9c0-10.8-8.8-19.5-19.5-19.5h-50.9c-10.8,0-19.5,8.8-19.5,19.5V1793
			C798.3,1828.1,826.8,1856.6,861.9,1856.6z"/>
		<path style="fill:#1FAAFF;" d="M1182.3,483.3l120.9,70.8c4.5,2.6,6.6,8,5.2,13c-0.7,2.5-2.4,4.7-4.8,6.4l-115.3,78.9
			c-3.3,2.2-3.7,5.9-2.6,8.6c1.1,2.7,3.9,5.1,7.8,4.4l138.2-23.5c5.2-0.9,10.2,1.9,12.3,6.7c1,2.3,1.1,5.1,0.4,8l-36.4,130.3
			c-0.7,2.5-0.3,5,1.2,7c1.6,2.1,4.1,3.3,6.7,3.3c2.3,0,4.5-1,6.1-2.9c12.7-14.9,23.5-32,32.1-50.7c3.6-7.8,8-15.5,13.1-22.8
			c12.4-18,28.3-33.2,47-45.4c18.4-11.9,39.3-20.3,60.6-24.3c10.3-2,21.1-3,32.1-3c1.1,0,2.3,0,3.4,0c4.2,0,8.5,0,13.3,0.3
			c0.3,0,0.6,0,0.9,0h55.5c2.8,0,5.3-1.6,6.5-4.1c1.2-2.5,0.8-5.5-1-7.6l-22.5-27.1c-3.3-4-3.5-9.8-0.4-14c1.5-2.1,3.9-3.6,6.7-4.3
			l135.3-34.7c3.9-1,5.5-4.3,5.4-7.2c-0.1-2.9-2-6.1-5.9-6.8l-137.4-25.1c-2-0.4-4.9-1.4-7-3.9c-3.4-4-3.6-9.8-0.6-14l81.6-113.9
			c2.3-3.3,1.4-6.9-0.5-9c-1.9-2.1-5.4-3.4-8.8-1.4l-121.8,69.3c-4.5,2.6-10.2,1.7-13.9-2c-1.7-1.8-2.8-4.4-3.1-7.3l-10.6-139.3
			c-0.3-4-3.3-6.2-6.2-6.5c-2.8-0.4-6.3,0.9-7.7,4.6l-48.6,130.9c-1,2.7-2.8,4.9-5,6.3c-4.5,2.7-10.2,1.9-13.9-1.8l-98-100.1
			c-2.8-2.9-6.5-2.6-8.9-1.1c-2.4,1.5-4.3,4.7-3,8.5l47,131.6c1,2.7,1.1,5.5,0.2,8c-1.8,4.9-6.6,8-11.8,7.5L1186.6,470
			c-4-0.4-6.6,2.2-7.5,4.9C1178.2,477.7,1178.8,481.3,1182.3,483.3z"/>
		<path style="fill:#1FAAFF;" d="M1111.2,1116.8h210.4c10.8,0,19.5-8.8,19.5-19.5l0-49.3c0-10.8-8.8-19.5-19.5-19.5h-210.4
			c-10.8,0-19.5,8.8-19.5,19.5v49.3C1091.7,1108,1100.5,1116.8,1111.2,1116.8z"/>
	</g>
	<g>
		<path style="fill:#FFDA00;" d="M2756.4,1908.4L2756.4,1908.4l-168.3-38.8c-2.8-0.6-5.2-2.1-6.8-4.1c-3.2-4.2-3.2-9.9,0-14
			l107.2-136c2.5-3.1,1.7-6.7-0.1-9c-1.8-2.2-5.3-3.7-8.8-1.9l-154.2,78.7c-4.7,2.4-10.3,1.2-13.8-2.7c-1.7-1.9-2.6-4.6-2.7-7.5
			l-5.3-172.6c-0.1-4-3-6.3-5.9-6.8c-2.8-0.5-6.3,0.6-7.9,4.3l-67.6,159.4c-2,4.8-7.1,7.6-12.3,6.8c-2.5-0.4-5-1.8-6.9-4l-47.3-53
			c-2-2.3-5-3-7.9-1.9c-2.9,1.1-4.6,3.7-4.6,6.7v77.5c0,49.5,12.4,98.7,35.8,142.3l109.2,203.3c1.3,2.4,3.6,3.8,6.2,3.8
			c0.5,0,1.1-0.1,1.6-0.2c3.2-0.7,5.5-3.3,5.6-6.6l4.1-79.6c0.2-2.9,1.2-5.5,2.9-7.4c3.6-3.9,9.2-4.9,13.8-2.4l152.6,82
			c3.5,1.9,7,0.5,8.8-1.6c1.9-2.2,2.7-5.8,0.3-9L2580,1975.7c-2.4-3.1-2.9-7.2-1.6-10.8c1.4-3.6,4.5-6.3,8.3-7.1l169.5-35.3
			c3.9-0.8,5.7-4.1,5.7-7C2762,1912.6,2760.3,1909.3,2756.4,1908.4z"/>
		<path style="fill:#FFDA00;" d="M2616.3,868.5V444.6c0-10.8-8.8-19.5-19.5-19.5h-423.9c-10.8,0-19.5,8.8-19.5,19.5v423.9
			c0,10.8,8.8,19.5,19.5,19.5h423.9C2607.5,888,2616.3,879.2,2616.3,868.5z M2546.8,781.6L2546.8,781.6c-2,3.5-5.8,5.7-9.8,5.7
			h-304.3c-4,0-7.8-2.2-9.8-5.7c-2-3.5-2-7.8,0-11.3L2375,506.8c2-3.5,5.8-5.7,9.8-5.7c4,0,7.8,2.2,9.8,5.7l152.2,263.6
			C2548.8,773.8,2548.8,778.2,2546.8,781.6z"/>
		<path style="fill:#FFDA00;" d="M1902.8,939.1h-167.5c-18.7,0-36.4,7.4-48.7,20.2c-15.7,16.4-21.6,38.7-16.2,61.3
			c6.9,28.8,33,49,63.4,49.2h146c3.2,0,6.2,1.4,8.4,3.7c2.2,2.4,3.2,5.5,2.9,8.8c-0.6,5.7-5.7,10.2-11.8,10.2l-145.5,0
			c-20.2,0.6-36.5,2.1-51.1,4.6c-18.4,3.3-33.8,8.4-46.9,15.5c-14,7.5-26.3,18-36.7,31.2c-9,11.3-16.8,25.2-24.7,43.9l-0.1,0.1
			c-1.3,3.2-4.4,5.3-7.7,5.1c-2.7-0.1-5.1-1.3-6.6-3.4c-1.5-2-2-4.6-1.3-7c5.2-19.5,12.9-36.8,23-51.3c6.2-8.8,12.5-15.9,19.2-21.9
			l5.4-4.8l5.9-4.3c0.7-0.5,1.4-1,2.1-1.5c1.3-1,2.5-1.9,3.9-2.6l6.3-3.7c4.9-2.8,10-5.3,15.6-7.6c7.7-3.2,13.7-9.4,16.5-17.1
			c2.8-7.7,2.4-16-1.4-23.4c-0.3-0.6-0.6-1.2-0.9-1.8c-6.5-13.5-21.8-20.2-35.6-15.7c-15.6,5.2-31.6,6-47.6,2.5
			c-23-5.1-43.6-19-56.5-38.2c-6.5-9.7-11.2-20.7-13.6-32c-1.2-5.5-1.9-11.4-2-17.3c0-1.5,0-2.8,0-4.1v-11.5c0-7.5,0-15,0-22.5
			c0-32.6-0.1-66.3,3.1-99.4c0.4-4.3,3.9-7.8,8-7.9c4.4-0.1,8.1,3.2,8.5,7.5c3.1,32.9,3.1,66.5,3.1,98.9c0,7.8,0,15.6,0,23.3v11.5
			c0,1.3,0,2.6,0,3.6c0.1,4.4,0.6,8.7,1.5,13c1.8,8.6,5.3,16.7,10.2,23.9c9.9,14.7,25.4,25.1,42.4,28.7c17.1,3.7,35.5,0.5,50.4-8.7
			c15-9.2,26-24.2,30.3-41.1c2.3-8.6,2.4-16.4,2.3-27.5l-0.1-91.8l0-17.2c0-4.4,0-9-0.3-13c-0.1-1.1-0.1-2.2-0.2-3.3
			c-0.2-3.5-0.3-7.2-1.1-10.8c-0.2-1.1-0.3-2.1-0.5-3.2c-0.5-3.5-1.1-7.2-2.1-10.7c-4.3-18.1-12.5-35.7-23.8-50.8
			c-11.1-15.1-25.6-28.1-41.7-37.6c-16.1-9.6-34.4-15.9-52.9-18.4c-3.4-0.7-6.9-0.9-10.3-1c-1.3-0.1-2.6-0.1-3.8-0.2
			c-3.7-0.3-8-0.3-12.2-0.3l-2.7,0c-9.9,0-19.1,0.8-28.2,2.6c-18.3,3.5-36.4,10.8-52.2,21c-16,10.3-29.9,23.8-40.4,39
			c-11,15.8-18.1,33.5-20.6,51.2c-0.6,3.9-0.9,8.2-1,13.7v45.8l0.2,428.2l-0.5,325.5c-0.1,40.7,15.8,79,44.5,107.8
			c28.8,28.8,67,44.7,107.8,44.7h87.2c84,0,152.3-68.3,152.3-152.3V1313c0-42.4,34.5-76.9,76.9-76.9h72c39.7,0,77-15.4,105-43.5
			c27.9-27.9,43.3-64.9,43.5-104.3c0.1-38.9-15.3-75.8-43.4-104.1C1981.9,955.6,1942.7,939.1,1902.8,939.1z"/>
		<path style="fill:#FFDA00;" d="M1840.5,818.5v48c0,27.6,22.4,50,50,50h14.9c4.1,0,8.2,0.2,12.2,0.5c1.3,0.1,2.6,0.1,3.9,0.1
			c13.8,0,26.8-5.2,37.1-14.7c11.4-10.6,17.9-25.7,17.9-41.2v-42.6c0-81.3-66.1-147.4-147.4-147.4h-3.1c-10.4,0-19.7,5.8-24.2,15.2
			c-4.5,9.2-3.4,19.9,2.8,28C1828.1,744.3,1840.5,780.4,1840.5,818.5z"/>
		<path style="fill:#FFDA00;" d="M1649.5,714.8l0.2,0.2c0,0,0,0,0,0l0,0c13,17.6,22.6,38,27.7,59.2c1.2,4.1,1.8,8.4,2.5,12.6
			c0.2,1.2,0.3,2.4,0.5,3.6c0.8,4.3,1,8.7,1.2,13c0.1,1.1,0.1,2.2,0.2,3.3c0.3,4.7,0.3,9,0.3,13.1l0,46.5c0,13.3,5.2,25.8,14.6,35.2
			c9.6,9.6,22.5,14.8,36.3,14.8c0.1,0,0.2,0,0.4,0h28.3c31,0,56.3-25.3,56.3-56.3v-41.7c0-81.3-66.1-147.4-147.4-147.4
			c-10.4,0-19.3,5.5-24,14.8c-4.6,9.2-3.6,20.1,2.6,28.5C1649.3,714.5,1649.4,714.7,1649.5,714.8z"/>
		<path style="fill:#FFDA00;" d="M1049.5,916.8H570.3c-10.8,0-19.5,8.8-19.5,19.5V1200c0,10.8,8.8,19.5,19.5,19.5h479.2
			c10.8,0,19.5-8.8,19.5-19.5V936.3C1069,925.6,1060.3,916.8,1049.5,916.8z M629.3,1027.7l46.9-52.3c2.3-2.5,5.3-4,8.4-4.3
			c3.3-0.2,6,0.7,8.1,2.9l30,30.3c3.2,3.2,7.5,5,12,5c0,0,0.1,0,0.1,0c4.6,0,8.9-1.8,12.1-5.1l9.9-10.1c6.5-6.7,13.1-13.4,19.6-20.1
			c2.2-2.3,5.2-3.6,8.4-3.6c3.2,0,6.2,1.2,8.4,3.4l29.5,30.3c3.2,3.3,7.5,5.1,12.1,5.1c0,0,0,0,0,0c4.6,0,8.9-1.8,12.1-5l29.4-29.8
			l0.1-0.2c4.5-4.4,11.7-4.5,16.3-0.1c0.1,0.1,0.2,0.2,0.2,0.3l24.9,25.7l5.1,5.3c6.5,6.7,17.2,6.9,24,0.4c1.9-1.9,3.8-3.6,5-4.8
			l0.1-0.1c3.9-3.7,8.1-7.6,13.1-12.1c1.4-1.2,2.8-2.5,4.1-3.7c2.9-2.6,6-5.4,9.1-8c3.2-2.7,7.9-2.8,10.9-0.2c3.5,3,4,8,1.1,11.5
			c-2.5,3.1-5.1,6.2-7.7,9.1c-1.3,1.5-2.6,3-3.9,4.5c-4,4.7-8,9.2-11.8,13.4c-3.8,4.2-7.7,8.5-12.1,13.1c-2.7,3-5.5,5.9-8.2,8.8
			c-1.4,1.5-2.8,2.9-4.2,4.4c-2,2.1-4.8,3.3-7.7,3.4c-2.9,0-5.7-1-7.8-3.1l-30-30.4c-3.2-3.3-7.5-5.1-12.1-5.1c0,0-0.1,0-0.1,0
			c-4.6,0-8.9,1.9-12.1,5.2l-29.5,30.4c-2.2,2.3-5.2,3.6-8.3,3.6c-3.2,0-6.2-1.2-8.5-3.5l-0.1-0.1l-29.3-30
			c-3.2-3.3-7.5-5.1-12.1-5.1c-4.6,0-8.9,1.8-12.1,5.1l-0.1,0.1c-9.6,9.8-19.4,19.9-29.2,29.7l-0.2,0.2c-2.2,2.2-5.2,3.5-8.3,3.5
			c-3.1,0-6-1.2-8.3-3.3c-0.1-0.1-0.2-0.2-0.2-0.3l-30.2-31.4c-6.4-6.7-17.1-6.9-23.9-0.6l-31,29.1c-3.3,3.1-8.4,3.3-11.5,0.5
			C626.6,1036.3,626.3,1031,629.3,1027.7z M983.2,1159.2H636.7c-22.1,0-40.1-18-40.1-40.1s18-40.1,40.1-40.1h346.5
			c22.1,0,40.1,18,40.1,40.1S1005.3,1159.2,983.2,1159.2z"/>
	</g>
	<g>
		<path style="fill:#FF5777;" d="M2753.1,1181.7h-44c-6.3,0-11.3-5.1-11.3-11.3v-48.9c0-10.8-8.8-19.5-19.5-19.5h-90.1
			c-10.8,0-19.5,8.8-19.5,19.5v221.6c0,10.8,8.8,19.5,19.5,19.5h165c10.8,0,19.5-8.8,19.5-19.5v-141.9
			C2772.6,1190.5,2763.8,1181.7,2753.1,1181.7z"/>
		<path style="fill:#FF5777;" d="M2178,1139.4h-82c-15.5,0-29.9,8.9-36.5,22.6c-8.4,17.3-19.5,33-33.2,46.6
			c-32.3,32.3-75.3,50.1-121,50.1h-72c-29.9,0-54.2,24.3-54.2,54.2v121.7c0,2.9,1.7,5.4,4.3,6.6c2.7,1.1,5.7,0.6,7.8-1.4l169-161.6
			c4.1-3.9,10.5-4.2,14.9-0.7c4.4,3.5,5.6,9.8,2.7,14.7l-173.5,290.4c-1.6,2.6-1.4,5.8,0.5,8.1c1.9,2.4,5,3.3,7.8,2.4l321.8-104.6
			c5.4-1.8,11.3,0.8,13.7,5.9c2.5,5.1,0.8,11.3-4,14.4l-282.3,186.3c-2.5,1.6-3.7,4.6-3,7.6c0.7,2.9,3,5.1,6,5.5l309.3,41.5
			c1.4,0.2,2.8,0.3,4.2,0.3c12.6,0,24.3-7.5,28.8-19c1.4-3.7,2.1-7.4,2.1-11.3v-549C2209.3,1153.5,2195.3,1139.4,2178,1139.4z"/>
		<path style="fill:#FF5777;" d="M1341.1,1158.9L1341.1,1158.9c0-10.8-8.8-19.5-19.5-19.5h-210.4c-10.8,0-19.5,8.8-19.5,19.5v71.9
			c0,6.3-5.1,11.3-11.3,11.3H930.4c-10.8,0-19.5,8.8-19.5,19.5v457.9c0,12.1,7.1,23.2,18.1,28.4c3.6,1.7,7.6,2.5,11.9,2.5
			c1.6,0,3.2-0.1,4.8-0.3l310.8-44.3c3-0.4,5.3-2.6,6-5.5c0.7-3-0.5-5.9-3.1-7.5l-282.8-186.6c-4.7-3.1-6.4-9.3-4-14.4
			c2.5-5.1,8.4-7.6,13.7-5.8l321.8,104.5c2.9,1,5.9,0.1,7.8-2.3c1.9-2.4,2.1-5.6,0.5-8.1l-173.5-290.4c-2.9-4.9-1.7-11.2,2.7-14.7
			c4.4-3.5,10.8-3.2,14.9,0.6l168.5,161.1c2.1,2,5.1,2.6,7.8,1.4c2.7-1.2,4.4-3.7,4.3-6.6L1341,1273L1341.1,1158.9z"/>
		<path style="fill:#FF5777;" d="M920.7,2481.9c-29.5-26.9-67.8-41.7-107.7-41.7h-57.1c-95.7,0-176.5-74.8-183.9-170.3
			c-0.5-3.9-0.7-7.7-0.5-11.6c0-0.3,0-0.6,0-1c0-0.6-0.1-1.2-0.1-1.7c0-1.2,0.2-2.5,0.7-3.9l0-0.2c1.2-7.4,3.5-14.4,7-20.9
			l57.1-106.3c18.1-33.6,23.5-72.7,15.3-109.9l-14.9-68c-0.9-3.9-4.1-5.6-7-5.6s-6.1,1.7-7,5.6L575.5,2162c-0.7,2.9-2.1,5.3-4.1,6.9
			c-4.1,3.3-9.9,3.3-14,0.1l-175.1-135c-3.1-2.4-6.7-1.7-8.9,0.2c-2.2,1.8-3.6,5.3-1.8,8.9l102.6,195.9c2.4,4.6,1.4,10.3-2.6,13.8
			c-1.9,1.7-4.5,2.7-7.5,2.8l-220.5,9.1c-4,0.2-6.3,3.1-6.8,5.9c-0.5,2.8,0.7,6.3,4.3,7.8l204.5,84.1c3.6,1.5,6.2,4.7,6.9,8.5
			c0.7,3.8-0.7,7.7-3.5,10.3l-163.4,149c-3,2.7-2.8,6.4-1.4,8.9c1.4,2.5,4.6,4.5,8.4,3.2l210.7-67c5-1.6,10.4,0.4,13.1,4.9
			c1.3,2.2,1.9,4.9,1.5,7.8l-29.3,218.7c-0.5,4,2,6.7,4.7,7.7c2.7,1,6.4,0.4,8.5-2.9l118.3-186.8c2.8-4.4,8.2-6.3,13.2-4.7
			c2.4,0.8,4.6,2.5,6.2,5l118.1,186.4c1.5,2.4,3.8,3.4,6,3.4c0.9,0,1.7-0.2,2.5-0.4c2.7-1,5.2-3.7,4.7-7.7l-29.4-218.7
			c-0.4-2.9,0.2-5.7,1.5-7.8c2.8-4.5,8.2-6.5,13.1-4.9l210.8,67c3.8,1.2,6.9-0.8,8.4-3.2c1.4-2.5,1.6-6.2-1.4-8.9L920.7,2481.9z"/>
		<path style="fill:#FF5777;" d="M306.4,1647.7h234.4c10.8,0,19.5-8.8,19.5-19.5v-142.7c0-10.8-8.8-19.5-19.5-19.5H306.4
			c-10.8,0-19.5,8.8-19.5,19.5v142.7C286.9,1639,295.6,1647.7,306.4,1647.7z"/>
	</g>
</g>
<g id="outline">
	<g>
		<path d="M2800.4,576.4H2709c-6.8,0-12.3,5.5-12.3,12.3V680c0,6.8,5.5,12.3,12.3,12.3h91.3c6.8,0,12.3-5.5,12.3-12.3v-91.3
			C2812.7,581.9,2807.2,576.4,2800.4,576.4z M2788,655.7c0,6.6-5.4,12-12,12h-42.7c-6.6,0-12-5.4-12-12V613c0-6.6,5.4-11.9,12-11.9
			h42.7c6.6,0,12,5.3,12,11.9V655.7z"/>
		<path d="M2726.5,484.1c-6.4,7-12.6,14.1-18.3,21.7c-2.9,3.7-2.6,9.3,1.3,12.7c3.3,3,8.5,3,12,0.2c7.5-5.7,14.6-11.9,21.5-18.2
			c2-1.8,4-3.6,5.9-5.5c3.3-3.1,8.4-3.1,11.7,0c1.9,1.9,3.9,3.7,5.9,5.5c7,6.4,14.2,12.5,21.7,18.3c3.4,2.6,8.3,2.6,11.7-0.3
			c3.8-3.3,4.1-9.1,1.1-13.1c-5.7-7.5-11.8-14.5-18-21.4c-1.8-2-3.6-3.9-5.5-5.9c-3.1-3.3-3.1-8.4,0-11.6c2-2.2,4.2-4.5,5.5-6
			c6.4-7,12.6-14.1,18.3-21.7c2.6-3.4,2.6-8.3-0.3-11.7c-3.2-3.8-9.1-4.1-13.1-1.1c-7.5,5.7-14.5,11.8-21.4,18
			c-1.5,1.3-3.8,3.5-6,5.6c-3.3,3.1-8.3,3-11.6,0c-2-1.9-3.9-3.7-6-5.5c-7-6.4-14.1-12.6-21.7-18.4c-3.7-2.8-9.3-2.6-12.7,1.3
			c-3,3.4-2.9,8.5-0.2,12.1c5.7,7.5,11.9,14.5,18.2,21.5c1.8,2,3.6,4,5.5,6c3.1,3.3,3.1,8.4,0,11.7
			C2730.1,480.2,2728.3,482.1,2726.5,484.1z"/>
		<path d="M2796,1168c0-0.2-0.1-0.4-0.1-0.6c-0.1-0.5-0.3-1-0.5-1.6c-0.1-0.2-0.2-0.4-0.3-0.6c-0.2-0.5-0.5-1.1-0.8-1.6
			c-0.1-0.1-0.1-0.2-0.2-0.3c-0.3-0.5-0.7-1-1.2-1.5l-74.9-79.7c-0.1-0.1-0.2-0.1-0.2-0.2c-0.1-0.1-0.1-0.1-0.2-0.2
			c-0.5-0.4-1-0.9-1.5-1.2c-0.1-0.1-0.3-0.2-0.4-0.3c-0.6-0.3-1.1-0.6-1.7-0.9c-0.1,0-0.2-0.1-0.3-0.1c-0.7-0.3-1.4-0.5-2.2-0.7
			c0,0,0,0,0,0c-0.8-0.2-1.5-0.2-2.3-0.3h-152c-6.8,0-12.3,5.5-12.3,12.3v283.3c0,6.8,5.5,12.3,12.3,12.3h226.7
			c6.8,0,12.3-5.5,12.3-12.3v-203.7C2796.2,1169.5,2796.2,1168.8,2796,1168z M2771.6,1343.1c0,10.2-8.3,18.5-18.5,18.5h-165
			c-10.2,0-18.5-8.3-18.5-18.5v-221.6c0-10.2,8.3-18.5,18.5-18.5h90.1c10.2,0,18.5,8.3,18.5,18.5v48.9c0,6.8,5.5,12.3,12.3,12.3h44
			c10.2,0,18.5,8.3,18.5,18.5V1343.1z"/>
		<path d="M2732.3,1427.8c-10.3-1.3-20.6-1.9-30.8-2.4c-10.3-0.5-20.6-0.6-30.8-0.7c-10.3,0-20.6,0.2-30.8,0.6
			c-10.3,0.5-20.6,1.1-30.8,2.4c-4.1,0.5-7.6,3.8-8.1,8.1c-0.6,5.1,3,9.8,8.1,10.4c10.3,1.3,20.6,2,30.8,2.4
			c10.3,0.5,20.6,0.6,30.8,0.6c10.3-0.1,20.6-0.2,30.8-0.7c10.3-0.5,20.6-1.1,30.8-2.4c4.1-0.5,7.6-3.8,8.1-8.1
			C2741,1433.1,2737.4,1428.4,2732.3,1427.8z"/>
		<path d="M2732.3,1473c-10.3-1.3-20.6-1.9-30.8-2.4c-10.3-0.5-20.6-0.6-30.8-0.7c-10.3,0-20.6,0.2-30.8,0.6
			c-10.3,0.4-20.6,1.1-30.8,2.4c-4.1,0.5-7.6,3.8-8.1,8.1c-0.6,5.1,3,9.7,8.1,10.4c10.3,1.3,20.6,2,30.8,2.4
			c10.3,0.5,20.6,0.6,30.8,0.6c10.3-0.1,20.6-0.2,30.8-0.7c10.3-0.5,20.6-1.1,30.8-2.4c4.1-0.5,7.6-3.8,8.1-8.1
			C2741,1478.3,2737.4,1473.7,2732.3,1473z"/>
		<path d="M2627.6,401.4h-220.2c-6.8,0-12.3-5.5-12.3-12.3v-85.3c0-6.8-5.5-12.3-12.3-12.3h-357.4c-6.8,0-12.3,5.5-12.3,12.3v257
			c0,6.8,5.5,12.3,12.3,12.3h92c6.8,0,12.3,5.5,12.3,12.3v313.8c0,6.8,5.5,12.3,12.3,12.3h485.5c6.8,0,12.3-5.5,12.3-12.3V413.8
			C2640,407,2634.4,401.4,2627.6,401.4z M2615.3,868.5c0,10.2-8.3,18.5-18.5,18.5h-423.9c-10.2,0-18.5-8.3-18.5-18.5V444.6
			c0-10.2,8.3-18.5,18.5-18.5h423.9c10.2,0,18.5,8.3,18.5,18.5V868.5z"/>
		<path d="M2621.2,2608.4l-46.5-1c-5.7-0.1-10.8-3.8-12.6-9.2l-15.3-43.9c-2.3-6.8-11.9-6.8-14.3,0l-15.3,43.9
			c-1.9,5.4-6.9,9-12.6,9.2l-46.5,1c-7.2,0.2-10.1,9.2-4.4,13.5l37,28.1c4.5,3.5,6.5,9.4,4.8,14.8l-13.4,44.5
			c-2.1,6.8,5.6,12.5,11.5,8.4l38.2-26.6c4.7-3.2,10.9-3.2,15.6,0l38.1,26.6c5.9,4.1,13.6-1.5,11.5-8.4l-13.4-44.5
			c-1.7-5.5,0.3-11.4,4.8-14.8l37-28.1C2631.3,2617.6,2628.3,2608.5,2621.2,2608.4z"/>
		<path d="M2547.7,769.8l-152.1-263.6c-2.2-3.8-6.3-6.2-10.7-6.2c-4.4,0-8.5,2.4-10.7,6.2L2222,769.8c-2.2,3.8-2.2,8.5,0,12.3
			c2.2,3.8,6.3,6.2,10.7,6.2H2537c4.4,0,8.5-2.4,10.7-6.2C2549.9,778.3,2549.9,773.6,2547.7,769.8z M2494.3,763.6h-218.8
			c-9.5,0-15.4-10.3-10.7-18.5l109.4-189.5c4.8-8.2,16.6-8.2,21.4,0L2505,745.1C2509.7,753.4,2503.8,763.6,2494.3,763.6z"/>
		<path d="M2394.1,2608.4l-46.5-1c-5.7-0.1-10.8-3.8-12.6-9.2l-15.3-43.9c-2.3-6.8-11.9-6.8-14.2,0l-15.3,43.9
			c-1.9,5.4-6.9,9-12.6,9.2l-46.5,1c-7.2,0.2-10.1,9.2-4.4,13.5l37,28.1c4.5,3.5,6.5,9.4,4.8,14.8l-13.4,44.5
			c-2.1,6.8,5.6,12.5,11.5,8.4l38.2-26.6c4.7-3.2,10.9-3.2,15.6,0l38.2,26.6c5.9,4.1,13.6-1.5,11.5-8.4l-13.4-44.5
			c-1.7-5.5,0.3-11.4,4.8-14.8l37-28.1C2404.2,2617.6,2401.3,2608.5,2394.1,2608.4z"/>
		<path d="M2384.4,690.7c5.1,0.2,9.5-3.7,9.7-8.8l3.1-64.9c0-0.4,0-0.8,0-1.2c-0.3-6.8-6.1-12.1-12.9-11.8
			c-6.8,0.3-12.1,6.1-11.8,12.9l3.1,64.9C2375.8,686.6,2379.6,690.5,2384.4,690.7z"/>
		<path d="M2384.9,741.5c8.5,0,15.4-6.9,15.4-15.4s-6.9-15.4-15.4-15.4c-8.5,0-15.4,6.9-15.4,15.4S2376.3,741.5,2384.9,741.5z"/>
		<path d="M2290.4,1932.7c-2.2-3.9-6.3-6.4-10.9-6.4H844.6c-4.5,0-8.7,2.5-10.9,6.4l-77.2,142c-2.1,3.8-2,8.5,0.2,12.2
			c2.2,3.8,6.3,6,10.6,6h1589.5c4.3,0,8.4-2.3,10.6-6c2.2-3.7,2.3-8.4,0.2-12.2L2290.4,1932.7z"/>
		<path d="M2167,2608.4l-46.5-1c-5.7-0.1-10.8-3.8-12.6-9.2l-15.3-43.9c-2.3-6.8-11.9-6.8-14.2,0l-15.3,43.9
			c-1.9,5.4-6.9,9-12.6,9.2l-46.5,1c-7.2,0.2-10.1,9.2-4.4,13.5l37,28.1c4.5,3.5,6.5,9.4,4.8,14.8l-13.4,44.5
			c-2.1,6.8,5.6,12.5,11.5,8.4l38.2-26.6c4.7-3.2,10.9-3.2,15.6,0l38.2,26.6c5.9,4.1,13.6-1.5,11.5-8.4l-13.4-44.5
			c-1.7-5.5,0.3-11.4,4.8-14.8l37-28.1C2177.1,2617.6,2174.2,2608.5,2167,2608.4z"/>
		<path d="M1940,2608.4l-46.5-1c-5.7-0.1-10.8-3.8-12.6-9.2l-15.3-43.9c-2.3-6.8-11.9-6.8-14.2,0l-15.3,43.9
			c-1.9,5.4-6.9,9-12.6,9.2l-46.5,1c-7.2,0.2-10.1,9.2-4.4,13.5l37,28.1c4.5,3.5,6.5,9.4,4.8,14.8l-13.4,44.5
			c-2.1,6.8,5.6,12.5,11.5,8.4l38.2-26.6c4.7-3.2,10.9-3.2,15.6,0l38.2,26.6c5.9,4.1,13.6-1.5,11.5-8.4l-13.4-44.5
			c-1.7-5.5,0.3-11.4,4.8-14.8l37-28.1C1950.1,2617.6,1947.1,2608.5,1940,2608.4z"/>
		<path d="M1742.1,2140.7c-2.2-4-6.3-6.4-10.9-6.4h-207.8h-207.8c-4.5,0-8.7,2.5-10.9,6.4l-54,99.4c-2.1,3.8-2,8.5,0.2,12.2
			c2.2,3.8,6.3,6,10.6,6h261.9h261.9c4.4,0,8.4-2.3,10.6-6c2.2-3.7,2.3-8.4,0.2-12.2L1742.1,2140.7z"/>
		<path d="M1712.9,2608.4l-46.5-1c-5.7-0.1-10.8-3.8-12.6-9.2l-15.3-43.9c-2.3-6.8-11.9-6.8-14.2,0l-15.3,43.9
			c-1.9,5.4-6.9,9-12.6,9.2l-46.5,1c-7.2,0.2-10.1,9.2-4.4,13.5l37,28.1c4.5,3.5,6.5,9.4,4.8,14.8l-13.4,44.5
			c-2.1,6.8,5.6,12.5,11.5,8.4l38.2-26.6c4.7-3.2,10.9-3.2,15.6,0l38.2,26.6c5.9,4.1,13.6-1.5,11.5-8.4l-13.4-44.5
			c-1.7-5.5,0.3-11.4,4.8-14.8l37-28.1C1723,2617.6,1720.1,2608.5,1712.9,2608.4z"/>
		<path d="M1463.8,2689.7c-48.8-2.3-97.6-2.9-146.4-3.1c-24.4-0.1-48.8,0.1-73.2,0.6c-24.4,0.4-48.8,1.2-73.2,2.5
			c-4.7,0.2-8.5,4-8.8,8.8c-0.2,5.1,3.7,9.5,8.8,9.7c24.4,1.3,48.8,2.1,73.2,2.5c24.4,0.4,48.8,0.6,73.2,0.6
			c48.8-0.2,97.6-0.8,146.4-3.1c4.7-0.2,8.6-4,8.8-8.8C1472.9,2694.3,1468.9,2689.9,1463.8,2689.7z"/>
		<path d="M1463.8,2578.7c-38.3-2.3-76.6-2.9-114.8-3.1c-19.2-0.1-38.3,0.1-57.4,0.6c-19.1,0.4-38.3,1.2-57.4,2.5
			c-4.6,0.3-8.3,3.9-8.6,8.6c-0.3,5.1,3.5,9.5,8.6,9.9c19.1,1.3,38.3,2.1,57.4,2.5c19.2,0.4,38.3,0.6,57.4,0.6
			c38.3-0.2,76.6-0.8,114.8-3.1c4.6-0.3,8.4-4,8.7-8.7C1472.8,2583.4,1468.9,2579,1463.8,2578.7z"/>
		<path d="M1463.8,2634.2c-12.2-1.2-24.4-1.9-36.6-2.3c-12.2-0.5-24.4-0.6-36.6-0.7s-24.4,0.1-36.6,0.6c-12.2,0.4-24.4,1.1-36.6,2.5
			c-4.2,0.5-7.7,3.8-8.2,8.2c-0.6,5.1,3.1,9.7,8.2,10.3c12.2,1.4,24.4,2,36.6,2.5c12.2,0.4,24.4,0.6,36.6,0.6
			c12.2-0.1,24.4-0.2,36.6-0.7c12.2-0.5,24.4-1.1,36.6-2.3c4.3-0.4,7.9-3.9,8.3-8.4C1472.7,2639.2,1468.9,2634.7,1463.8,2634.2z"/>
		<path d="M2844,1904.3l-222.6-51.3c-4.4-1-6.3-6.3-3.4-9.8l141.4-179.4c3.6-4.6,3.5-11-0.1-15.5c-3.7-4.5-10-5.8-15.1-3.2
			L2540.6,1749c-4,2-8.9-0.8-9-5.3l-7-228.3c-0.2-5.8-4.4-10.7-10.1-11.8c-5.7-1.1-11.4,2-13.6,7.3l-89.2,210.3
			c-1.8,4.2-7.3,5.1-10.3,1.7l-21.9-24.5c-22.8-25.6-35.4-58.6-35.4-92.8v-519.1c0-45.1-36.6-81.7-81.7-81.7h-183.2
			c-13.5,0-26.2-6.5-34.1-17.5c-6.2-8.7-13.3-16.8-21-24.1c-15.6-14.9-24-35.6-24-57.1v-87.7c0-94.4-76.6-171-171-171h-181.4
			c-14.4,0-28-6.4-37.1-17.5l-10.8-13c-2.9-3.5-1.2-8.8,3.2-9.9l189.3-48.5c6.4-1.7,10.6-8.2,8.9-15c-1.2-4.8-5.4-8.3-10.2-9.2
			l-191.7-35c-4.4-0.8-6.5-6-3.9-9.6l113.8-158.8c3.4-4.7,3-11.2-0.9-15.5c-3.9-4.3-10.2-5.3-15.3-2.5l-169.8,96.7
			c-3.9,2.3-8.8-0.4-9.2-4.9l-14.9-194.4c-0.4-4.9-3.4-9.4-8-11.1c-6.6-2.3-13.5,1-15.9,7.3l-67.9,183.2c-1.6,4.3-7,5.4-10.2,2.2
			l-136.6-139.6c-4.7-4.8-12.4-5.1-17.5-0.2c-3.6,3.4-4.5,8.8-2.8,13.5l65.6,183.5c1.5,4.3-1.9,8.7-6.4,8.2l-194.4-19.1
			c-5.8-0.6-11.1,2.9-12.9,8.5c-1.8,5.5,0.5,11.5,5.5,14.5l168.6,98.7c3.9,2.3,4.1,7.8,0.4,10.4l-160.8,110
			c-4.1,2.8-6.5,7.7-5.6,12.5c1.2,6.9,7.7,11.2,14.2,10.1l192.6-32.8c4.5-0.8,8.2,3.4,7,7.8L1261.2,866c-1.6,5.6,1,11.5,6.1,14.2
			c1.8,1,3.8,1.4,5.8,1.4c3.5,0,7-1.5,9.4-4.3l44.4-52.2c4.6-5.4,13.4-2.2,13.4,4.9v14.8l0,61.2l0,80.4c0,10.2-8.3,18.5-18.5,18.5
			h-210.5c-10.2,0-18.5-8.3-18.5-18.5V817.6c0-6.8-5.5-12.3-12.3-12.3h-63.6c-6.8,0-12.3-5.5-12.3-12.3v-59.7
			c0-6.8-5.5-12.3-12.3-12.3h-61.7c-6.8,0-12.3-5.5-12.3-12.3v-59.2c0-6.8-5.5-12.3-12.3-12.3H364.8c-6.8,0-12.3,5.5-12.3,12.3
			v413.3c0,6.8,5.5,12.3,12.3,12.3h61.7c6.8,0,12.3,5.5,12.3,12.3v59.2c0,6.8,5.5,12.3,12.3,12.3h63.6c6.8,0,12.3,5.5,12.3,12.3
			v59.7c0,6.8,5.5,12.3,12.3,12.3h216.7c10.2,0,18.5,8.3,18.5,18.5v527.7c0,49.5-12.2,98.2-35.7,141.8l-49.9,92.8
			c-2.7,5.1-10.2,4-11.5-1.6l-35.8-163.6c-1.5-6.5-7.8-10.9-14.7-9.4c-4.9,1-8.5,5.1-9.5,9.9l-59.1,269.5c-1,4.4-6.2,6.3-9.8,3.6
			l-218.8-168.8c-4.6-3.5-11-3.4-15.5,0.3c-4.4,3.7-5.7,10-3,15.2L439.6,2224c2.1,4-0.7,8.8-5.2,9l-276.1,11.4
			c-6.7,0.3-12.1,5.8-11.8,12.8c0.1,4.9,3.5,9.2,8.1,11.1l255.1,105c4.2,1.7,5.1,7.2,1.8,10.2l-204.2,186.2
			c-4.3,3.9-5.2,10.3-2.3,15.3c2.9,5,8.9,7.3,14.4,5.6l263.3-83.7c4.3-1.4,8.6,2.2,8,6.7L454,2787.5c-0.8,5.7,2.6,11.3,8,13.2
			c1.4,0.5,2.8,0.7,4.2,0.7c4.1,0,8.1-2.1,10.4-5.7l147.9-233.4c2.4-3.8,8-3.8,10.4,0l147.9,233.4c3.6,5.6,11.1,7.5,17,3.9
			c4.2-2.6,6.3-7.6,5.6-12.6l-36.7-273.4c-0.6-4.5,3.7-8.1,8-6.7l263.4,83.7c5.5,1.8,11.5-0.6,14.4-5.6c2.9-5,1.9-11.4-2.4-15.3
			l-129.3-117.8c-4.2-3.8-1.4-10.7,4.2-10.7h1435.9c97.4,0,177.5-75.5,184.9-171.1c0.5-3.9,0.7-7.8,0.6-11.8c0-0.9,0.1-1.8,0.1-2.7
			c0-1.5-0.3-2.9-0.8-4.2c-1.1-7.3-3.5-14.5-7.1-21.3c-11-20.4-16.6-43-16.6-66c0-2.4,0.1-4.9,0.2-7.3l3.9-74.6
			c0.2-4.5,5.1-7.3,9.1-5.1l201.2,108.1c5.1,2.7,11.4,1.5,15.2-2.8c3.8-4.4,3.9-10.9,0.5-15.5l-137.5-182.4
			c-2.7-3.6-0.8-8.8,3.7-9.8l223.2-46.4c4.8-1,8.9-4.6,10-9.4C2854.8,1912.3,2850.5,1905.8,2844,1904.3z M2096,1140.4h81.9
			c16.8,0,30.4,13.6,30.4,30.4v548.9c0,3.9-0.7,7.5-2,10.9c-5,12.7-18.5,19.9-32,18.1l-309.3-41.5c-5.6-0.8-7.3-8.1-2.6-11.3
			l282.3-186.3c5.1-3.4,7-10.1,4.3-15.6c-2.7-5.5-9.1-8.3-14.9-6.4l-321.8,104.6c-5.4,1.8-10.1-4.1-7.2-9l173.5-290.4
			c3.2-5.3,1.9-12.1-2.9-16c-4.8-3.9-11.8-3.6-16.2,0.7l-169,161.6c-3.9,3.7-10.4,1-10.4-4.5V1313c0-29.4,23.8-53.2,53.2-53.2h72
			c46,0,89.3-17.9,121.7-50.4c13.9-13.9,25-29.7,33.3-46.9C2067,1148.9,2081,1140.4,2096,1140.4z M1826.1,672.1h3.1
			c80.8,0,146.4,65.5,146.4,146.4v42.6c0,31.5-26.5,57.1-57.9,54.8c-4-0.3-8.1-0.5-12.3-0.5h-14.9c-27.1,0-49-21.9-49-49v-48
			c0-39.5-13.4-75.8-36-104.8C1792.4,696.7,1804.7,672.1,1826.1,672.1z M1670.5,672.1c80.8,0,146.4,65.5,146.4,146.4v41.7
			c0,30.6-24.8,55.3-55.3,55.3h-28.3c-27.6,0.2-50.3-21.4-50.3-49l0-28.7v-15.3c0-5.1,0.1-10-0.3-15.7c-0.3-5.5-0.4-11-1.4-16.5
			c-0.9-5.5-1.5-11-3-16.3c-5.2-21.5-14.7-41.9-27.8-59.6c-0.2-0.3-0.4-0.5-0.6-0.8C1637.1,696.5,1649,672.1,1670.5,672.1z
			 M1630.2,729.5c11.1,15,19.3,32.3,23.6,50.4c1.4,4.5,1.8,9.2,2.6,13.8c0.9,4.6,0.9,9.3,1.2,14c0.4,4.5,0.3,9.7,0.3,14.8v15.3
			l0,61.2l0,30.6c0.1,10.9,0,18.8-2.3,27.2c-4.2,16.6-15.2,31.5-29.9,40.5c-14.6,9-32.8,12.3-49.7,8.6
			c-16.9-3.5-32.1-13.9-41.8-28.3c-4.8-7.1-8.3-15.2-10-23.6c-0.9-4.2-1.4-8.5-1.5-12.8c0-1,0-2.3,0-3.6v-11.5
			c-0.2-40.8,0.8-81.6-3.1-122.3c-0.5-4.7-4.5-8.5-9.5-8.4c-4.8,0.1-8.6,4.1-9,8.8c-3.8,40.6-2.9,81.3-3.1,121.9v11.5
			c0,1.2,0,2.5,0,4.1c0.1,5.9,0.8,11.8,2,17.5c2.4,11.5,7.2,22.6,13.8,32.4c13.1,19.5,34,33.6,57.1,38.6c18.9,4.2,35.4,1.7,48.1-2.5
			c13.6-4.5,28.2,2.2,34.4,15.2c0.3,0.6,0.6,1.2,0.9,1.8c7.5,14.9,0.7,32.8-14.7,39.2c-5.3,2.3-10.6,4.8-15.7,7.7l-6.3,3.7
			c-2.2,1.2-4,2.8-6.1,4.2l-6,4.3l-5.5,4.9c-7.4,6.5-13.7,14.1-19.3,22c-11.1,15.9-18.4,33.7-23.1,51.6c-1.4,5.5,2.3,11.4,8.8,11.7
			c3.8,0.2,7.2-2.2,8.7-5.7l0-0.1c6.7-15.8,14.4-30.9,24.6-43.7c10-12.8,22.2-23.3,36.4-31c14.2-7.7,30.1-12.4,46.6-15.4
			c16.6-2.9,33.7-4.1,50.9-4.6c0,0,0,0,0,0h145.5c6.4,0,12.2-4.7,12.8-11.1c0.7-7.4-5-13.6-12.3-13.6h-146c0,0,0,0,0,0h0
			c-29.3-0.2-55.6-19.9-62.4-48.4c-5.3-22.4,0.8-44.6,16-60.4c12.4-13,30-19.9,48-19.9h167.4c81.4,0,150.4,66.6,150.1,148.1
			c-0.2,39.1-15.5,75.9-43.2,103.6c-27.8,27.9-64.9,43.2-104.3,43.2h-72c-43,0-77.9,34.9-77.9,77.9v285.7
			c0,83.6-67.7,151.3-151.3,151.3h-87.2c-83.6,0-151.4-67.9-151.3-151.5l0.5-325.5l-0.1-244.7l-0.1-122.4l0-61.2V799
			c0.1-4.5,0.3-9,1-13.5c2.5-18,9.8-35.5,20.5-50.8c10.6-15.3,24.4-28.6,40.2-38.8c15.8-10.2,33.5-17.4,51.8-20.9
			c9.3-1.8,18.5-2.6,28-2.6c5.1,0,10.4-0.1,14.8,0.3c4.7,0.3,9.4,0.2,14,1.2c18.5,2.5,36.5,8.7,52.6,18.3
			C1604.9,701.7,1619.1,714.5,1630.2,729.5z M1321.2,793.6c-1.5,1.8-3.4,2.6-5.3,2.6c-4.3,0-8.4-4-6.9-9.1l36.4-130.3
			c0.8-2.8,0.8-5.9-0.4-8.6c-2.3-5.4-8-8.3-13.4-7.3l-138.2,23.5c-6.5,1.1-10-7.5-4.5-11.2l115.3-78.9c2.4-1.7,4.4-4.1,5.2-6.9
			c1.6-5.7-0.8-11.4-5.6-14.2l-120.9-70.8c-5.7-3.3-2.9-12.1,3.7-11.4l139.4,13.7c5.5,0.6,10.9-2.6,12.9-8.2c1-2.8,0.8-5.9-0.2-8.6
			l-47-131.6c-2.2-6.2,5.6-11.1,10.2-6.4l98.1,100.2c3.9,3.9,10,5,15.1,2c2.6-1.5,4.4-4,5.4-6.8l48.6-130.9
			c2.3-6.2,11.4-4.9,11.9,1.7l10.6,139.3c0.3,2.9,1.3,5.8,3.4,8c4.1,4.2,10.3,5,15.1,2.2l121.8-69.3c5.7-3.3,11.9,3.5,8,9
			l-81.6,113.9c-3.2,4.5-3.1,10.7,0.7,15.2c1.9,2.3,4.7,3.6,7.6,4.2l137.4,25.1c6.5,1.2,6.8,10.4,0.4,12l-135.3,34.7
			c-2.9,0.7-5.5,2.3-7.3,4.7c-3.5,4.8-3.1,11,0.4,15.2l22.5,27.1c3.3,4,0.5,10.1-4.8,10.1h-55.5c-0.3,0-0.5,0-0.8,0
			c-5.9-0.4-11-0.3-16.3-0.3c-10.8,0-22,0.9-32.8,3c-21.7,4.1-42.5,12.5-61,24.4c-18.5,12-34.7,27.5-47.3,45.6
			c-5,7.2-9.5,14.9-13.2,23C1344.8,761.3,1334.1,778.4,1321.2,793.6z M1353.1,1774.7C1353.1,1774.7,1353.1,1774.7,1353.1,1774.7
			h410.6c1.3,0.5,2.7,0.7,4.1,0.7c1.4,0,2.7-0.3,3.9-0.7H2178c1.1,0,2.1-0.1,3.2-0.2c0.5,0,0.9,0.1,1.4,0.1c1.3,0,2.5-0.2,3.7-0.6
			c26.4-4,46.8-26.8,46.8-54.3v-548.9c0-30.4-24.6-55-55-55h-82.2c-10.6,0-19-8.9-18.5-19.4c0.1-2.9,0.3-5.8,0.3-8.7
			c0-12.2-1.3-24.2-3.8-35.7c-2.4-11.5,6.1-22.4,17.9-22.4h170.9c31.5,0,57,25.5,57,57v725.6c0,24-19.5,43.5-43.5,43.5H861.9
			c-34.5,0-62.5-28-62.5-62.5v-531.4c0-10.2,8.3-18.5,18.5-18.5h50.9c10.2,0,18.5,8.3,18.5,18.5v457.9c0,29.4,23.2,53.4,52.3,54.9
			c0.5,0,1,0.1,1.5,0.1c0.2,0,0.3,0,0.5,0c0.2,0,0.5,0,0.7,0H1353.1z M1092.7,1048c0-10.2,8.3-18.5,18.5-18.5h210.4
			c10.2,0,18.5,8.3,18.5,18.5l0,49.3c0,10.2-8.3,18.5-18.5,18.5h-210.4c-10.2,0-18.5-8.3-18.5-18.5V1048z M1092.7,1230.9v-71.9
			c0-10.2,8.3-18.5,18.5-18.5h210.4c10.2,0,18.5,8.3,18.5,18.5l-0.1,114l0.2,158.6c0,5.4-6.5,8.2-10.4,4.5l-168.5-161.1
			c-4.4-4.3-11.4-4.6-16.2-0.7c-4.8,3.8-6,10.7-2.9,16l173.5,290.4c2.9,4.9-1.8,10.8-7.2,9L986.8,1485c-5.9-1.9-12.2,0.8-14.9,6.4
			c-2.7,5.6-0.8,12.2,4.3,15.7l282.8,186.6c4.8,3.1,3.1,10.5-2.5,11.3l-310.8,44.3c-5.5,0.8-11.1,0.2-16.1-2.1
			c-10.3-4.8-17.5-15.3-17.5-27.5v-457.9c0-10.2,8.3-18.5,18.5-18.5h149.9C1087.2,1243.2,1092.7,1237.7,1092.7,1230.9z
			 M1049.5,829.9c10.2,0,18.5,8.3,18.5,18.5v26.3c0,10.2-8.3,18.5-18.5,18.5H570.3c-10.2,0-18.5-8.3-18.5-18.5v-26.3
			c0-10.2,8.3-18.5,18.5-18.5H1049.5z M451.2,720.9c-6.8,0-12.3,5.5-12.3,12.3v287.5c0,16.4-13.2,29.6-29.6,29.6h-13.5
			c-10.2,0-18.6-8.3-18.6-18.5V681.1c0-10.7,8.7-19.4,19.5-19.4h478.2c10.2,0,18.5,8.3,18.5,18.6v11c0,16.4-13.2,29.6-29.6,29.6
			H451.2z M570.3,1218.5c-10.2,0-18.5-8.3-18.5-18.5V936.3c0-10.2,8.3-18.5,18.5-18.5h479.2c10.2,0,18.5,8.3,18.5,18.5V1200
			c0,10.2-8.3,18.5-18.5,18.5H570.3z M973.2,2531.1c4.9,4.5,0.3,12.5-6,10.5l-210.8-67c-5.3-1.7-11.2,0.3-14.3,5.3
			c-1.5,2.5-2,5.6-1.6,8.5l29.4,218.8c0.9,6.5-7.8,9.7-11.4,4.1l-118.1-186.4c-1.6-2.5-3.9-4.5-6.7-5.4c-5.6-1.9-11.4,0.4-14.4,5.1
			l-118.3,186.8c-3.5,5.6-12.2,2.4-11.3-4.1l29.3-218.8c0.4-2.9-0.1-6-1.6-8.5c-3.1-5-9-7-14.3-5.3l-210.7,67c-6.3,2-10.9-6-6-10.5
			l163.4-149c3.1-2.8,4.6-7.1,3.8-11.2c-0.7-4.2-3.5-7.7-7.5-9.3l-204.5-84.2c-6.1-2.5-4.5-11.6,2.1-11.8l220.5-9.1
			c3-0.1,5.9-1.1,8.1-3c4.4-4,5.4-10.1,2.8-15l-102.6-195.9c-3-5.9,4-11.8,9.2-7.8l175.1,135c4.4,3.4,10.6,3.5,15.2-0.1
			c2.3-1.8,3.8-4.6,4.4-7.4l47.3-215.5c1.4-6.5,10.6-6.5,12,0l14.9,68c8.1,37.1,2.7,75.8-15.2,109.2l-57.1,106.3
			c-3.6,6.8-6,14-7.1,21.3c-0.5,1.3-0.8,2.7-0.8,4.2c0,0.9,0.1,1.8,0.1,2.7c-0.2,3.9,0,7.8,0.5,11.7
			c7.4,95.6,87.5,171.1,184.9,171.1H813c39.6,0,77.8,14.8,107,41.5L973.2,2531.1z M2523.4,2266.4c-0.9,6.5-3.2,12.9-7.3,18.6
			c-7.9,11.1-21.1,17.3-34.7,17.3H960.1c0,0-0.1,0-0.1,0H637.4c-13.7,0-26.9-6.2-34.8-17.4c-4-5.7-6.4-12.1-7.2-18.6
			c-0.1-2-0.2-4-0.3-6.1c0.2-6.3,1.7-12.6,4.8-18.4L771.4,1923c14.1-26.3,41.5-42.7,71.4-42.7h1433.2c29.8,0,57.3,16.4,71.4,42.7
			l171.4,318.9c3.1,5.8,4.6,12.1,4.8,18.3C2523.6,2262.3,2523.5,2264.4,2523.4,2266.4z M2756.1,1921.5l-169.5,35.3
			c-4.2,0.9-7.6,3.8-9,7.7c-1.5,4-0.9,8.4,1.7,11.8l104.3,138.3c4,5.3-2,12.3-7.8,9.1l-152.6-81.9c-4.8-2.6-11-1.7-15,2.6
			c-2,2.2-3,5.1-3.2,8l-4.1,79.6c-0.3,6.2-8.7,8.1-11.6,2.6l-109.2-203.3c-23.4-43.6-35.7-92.3-35.7-141.8V1712
			c0-5.7,7-8.4,10.8-4.1l47.3,53c1.9,2.2,4.6,3.9,7.5,4.3c5.8,0.9,11.2-2.3,13.3-7.4l67.6-159.4c2.6-6.1,11.6-4.4,11.8,2.2
			l5.3,172.6c0.1,3,1,5.9,3,8.2c3.9,4.4,10,5.4,15,3l154.3-78.7c5.9-3,11.8,4.1,7.6,9.3l-107.2,136c-3.4,4.3-3.6,10.6,0,15.2
			c1.8,2.3,4.5,3.9,7.4,4.5l168.3,38.8C2762.6,1910.9,2762.5,1920.1,2756.1,1921.5z"/>
		<path d="M983.2,1078H636.7c-22.7,0-41.1,18.4-41.1,41.1s18.5,41.1,41.1,41.1h346.5c22.7,0,41.1-18.4,41.1-41.1
			S1005.8,1078,983.2,1078z M983.2,1135.6H636.7c-9.1,0-16.4-7.4-16.4-16.4c0-9.1,7.4-16.4,16.4-16.4h346.5
			c9.1,0,16.4,7.4,16.4,16.4C999.6,1128.2,992.2,1135.6,983.2,1135.6z"/>
		<path d="M642.2,1039.6l31-29.1c6.4-6,16.4-5.7,22.5,0.6l30.2,31.4c0.1,0.1,0.2,0.2,0.2,0.2c5,5,13.1,4.9,18-0.1l0.2-0.2
			c9.8-9.9,19.6-19.8,29.3-29.8c6.3-6.4,16.6-6.4,22.9,0l29.2,29.9l0.1,0.1l0.2,0.2c5.1,5,13.2,4.9,18.2-0.2l29.5-30.4
			c6.2-6.4,16.6-6.5,22.9-0.1l4.5,4.5L926,1042l0.2,0.2l0.3,0.2c4.7,4.6,12.4,4.5,16.9-0.3c4.1-4.4,8.3-8.7,12.4-13.1
			c4.1-4.3,8.1-8.7,12.1-13.1c4-4.4,8-8.9,11.8-13.4c3.9-4.6,7.8-9,11.6-13.7c3-3.8,2.7-9.5-1.3-12.9c-3.5-3-8.7-2.7-12.2,0.2
			c-4.5,3.8-8.8,7.8-13.2,11.7c-4.4,4-8.8,8.1-13.1,12.2c-1.3,1.2-3.1,3-5.2,4.9c-6.4,6.1-16.5,5.9-22.6-0.4l-5.1-5.3l-24.9-25.7
			c-0.1-0.1-0.2-0.2-0.2-0.2c-5-4.9-12.9-4.8-17.8,0.1l-0.1,0.1l-29.4,29.8c-6.3,6.4-16.5,6.3-22.8-0.1l-29.3-30l-0.1-0.1L794,973
			c-5.1-5-13.3-4.9-18.3,0.2c-9.8,10.1-19.6,20.1-29.5,30.2c-6.2,6.4-16.5,6.4-22.8,0.1l-29.5-29.8l-0.4-0.5c-2-2-4.8-3.5-8.9-3.2
			c-3.5,0.2-6.8,2-9.1,4.6l-46.9,52.3c-3.3,3.7-3.1,9.6,0.7,13.1C632.9,1043.4,638.6,1042.9,642.2,1039.6z"/>
		<path d="M571.7,1442.3h-96.5c-13.2,0-25.4-7.3-31.5-19l-15.8-29.9c-2.1-4.1-6.3-6.6-10.9-6.6H275.6c-6.8,0-12.3,5.5-12.3,12.3
			v259.9c0,6.8,5.5,12.3,12.3,12.3h296.1c6.8,0,12.3-5.5,12.3-12.3v-204.4C584,1447.8,578.5,1442.3,571.7,1442.3z M559.3,1628.2
			c0,10.2-8.3,18.5-18.5,18.5H306.4c-10.2,0-18.5-8.3-18.5-18.5v-142.7c0-10.2,8.3-18.5,18.5-18.5h139.8c0,0,0,0,0.1,0h94.6
			c10.2,0,18.5,8.3,18.5,18.5V1628.2z"/>
		<path d="M485.3,1714.2c-10.3-1.3-20.6-2-30.8-2.5c-10.3-0.5-20.6-0.6-30.8-0.6c-10.3,0.1-20.6,0.2-30.8,0.7s-20.6,1.1-30.8,2.4
			c-4.2,0.5-7.6,3.8-8.1,8.1c-0.6,5.1,3,9.7,8.1,10.4c10.3,1.2,20.6,1.9,30.8,2.3c10.3,0.5,20.6,0.6,30.8,0.7
			c10.3,0,20.6-0.2,30.8-0.6c10.3-0.4,20.6-1.1,30.8-2.4c4.1-0.5,7.5-3.8,8.1-8.1C494,1719.6,490.4,1714.9,485.3,1714.2z"/>
		<path d="M485.3,1759.5c-10.3-1.4-20.6-2-30.8-2.5c-10.3-0.4-20.6-0.6-30.8-0.6c-10.3,0.1-20.6,0.2-30.8,0.7
			c-10.3,0.5-20.6,1.1-30.8,2.3c-4.2,0.5-7.6,3.8-8.2,8.2c-0.6,5.1,3.1,9.7,8.2,10.3c10.3,1.2,20.6,1.9,30.8,2.3
			c10.3,0.5,20.6,0.6,30.8,0.7s20.6-0.1,30.8-0.6c10.3-0.4,20.6-1.1,30.8-2.5c4.1-0.5,7.5-3.7,8-8
			C494,1764.8,490.4,1760.1,485.3,1759.5z"/>
		<path d="M967.9,219.5H592.6c-6.3,0-11.4,5.1-11.4,11.4v240.6c0,6.3,5.1,11.4,11.4,11.4h273c8.9,0,17.6,3.1,24.5,8.7l68.4,55.2
			c8.3,6.7,20.8,7.2,20.8-9.9c0-23.5,0-53.9,0-53.9v-252C979.3,224.6,974.2,219.5,967.9,219.5z M903.7,291.3l-2.6,58.1
			c-0.2,4.5-3.7,8.4-8.2,8.6c-4.8,0.2-8.7-3.5-8.9-8.1l-1.3-28.7c-0.1-3-3.8-4.5-5.9-2.4l-30.6,29.8l-54.9,52.8l-0.1,0
			c-4.8,4.6-12.5,4.5-17.1-0.3c-1.1-1.1-1.9-2.4-2.4-3.8l-19.9-48.2c-1.5-3.5-6-4.5-8.8-1.9l-6.5,6c-8.2,7.6-16.5,15.1-24.8,22.7
			c-16.5,14.9-33.3,29.6-50.4,43.8c-3.4,2.9-8.6,2.9-11.8-0.2c-3.4-3.4-3.3-8.7-0.2-12c15.4-16.3,31.3-32.1,47.3-47.8
			c8-7.8,16.1-15.6,24.2-23.3l24-22.8c4.4-4.2,11.5-4.7,16.1-0.6c1.3,1.2,2.3,2.6,3,4.1l0.1,0.2l20,47c1.5,3.5,6.1,4.5,8.8,1.8
			l36.4-35.1l29.5-28.2c2.2-2.1,0.8-5.9-2.2-6l-24-1.3c-4.5-0.2-8.4-3.7-8.5-8.2c-0.2-4.8,3.5-8.6,8.1-8.9l58.4-3.1
			c0.5-0.1,1-0.2,1.5-0.2c0.9,0,1.8,0.1,2.6,0.2c5.4,0.7,9.7,5.2,10,10.8C904.7,288,904.4,289.7,903.7,291.3z"/>
	</g>
</g>
</svg>
