<?xml version="1.0" encoding="utf-8"?>
<!-- Generator: Adobe Illustrator 21.1.0, SVG Export Plug-In . SVG Version: 6.00 Build 0)  -->
<svg version="1.1" xmlns="http://www.w3.org/2000/svg" xmlns:xlink="http://www.w3.org/1999/xlink" x="0px" y="0px"
	 viewBox="0 0 3000 3000" style="enable-background:new 0 0 3000 3000;" xml:space="preserve">
<g id="fill">
	<path style="fill:#FFFFFF;" d="M508,1058c0.5,5.4,0.9,10.8,1.4,16.1c-4.6-3.4-7.8-8.8-8.2-14.9l-1.3-16.3l-1.3-16.3
		c-0.3-4,0.5-7.8,2.3-11.2c1,10.4,2.2,20.8,3.5,31.2C506.3,1049.7,507.6,1053.5,508,1058z"/>
	<path style="fill:#FFFFFF;" d="M535.2,919.4c0.6,1.5,1.2,3,1.7,4.4C536.2,922.4,535.6,920.9,535.2,919.4z"/>
	<path style="fill:#FFFFFF;" d="M554.4,1157.1c0.4-1.8,1-3.5,1.9-5.2l18.2-34.7c-5.9-8.9-10.9-18.4-14.9-28.1
		c7.6,4.3,12.7,11.6,14.9,22.8C578.1,1131.3,568.8,1147.2,554.4,1157.1z"/>
	<path style="fill:#FFFFFF;" d="M671.3,817.8c0.2,16.3-5.6,30.8-15.4,42.4l4-26.9C660.9,826.5,665.3,820.7,671.3,817.8z"/>
	<path style="fill:#FFFFFF;" d="M678.6,817.6c-1.9-0.1-3.6-0.3-5.3-0.7c1.7-0.6,3.4-1,5.3-1.1l15-1.2
		C689,816.8,683.8,817.9,678.6,817.6z"/>
	<path style="fill:#FFFFFF;" d="M732.4,827.3c-7.4-4-14.5-8.6-20.7-14C721,812.7,729.5,818.5,732.4,827.3z"/>
	<path style="fill:#FFFFFF;" d="M854.4,1182.3c-2.3,0.9-4.8,1.5-7.3,1.5c-0.5-0.6-1.1-1.2-2-1.5H854.4z"/>
	<g>
		<path style="fill:#FFDA00;" d="M1866.2,1345.3c-39-38.3-91.4-66.3-151.4-81l-0.1,0c-18.6-2.8-38.7-3.5-59.6-2.1
			c-22.2,1.5-43.6,3.7-61.7,13.4c-6.5,3.5-12.6,7.8-18.4,11.9c-5.4,3.8-10.9,7.7-16.7,10.9l-0.1,0.1c-5.9,4.4-12,8.7-19.2,13.9
			l-9.8,7c-29.8,21.6-59.5,41.8-85.6,59.6c-100.6,68.8-187.5,128.1-201.5,193.9c-11.2,52.7,0.6,194,12.4,303.2l0,0.2l0.1,0.2
			c0.8,1.6,1.5,3.3,2.2,4.9c3.1,7.2,6.4,14.6,13.7,18c5,2.3,11.1,3.8,19.9,4.9l0.1,0h155.6l0.1,0c8.2-0.9,16.8-2.4,24.1-6.9
			c11-6.8,13-16.4,12.5-29.7c-0.1-3.1-0.1-6.4,0.1-9.7l0-0.1l-0.4-6.1c-0.3-4.4-0.6-8.8-0.9-13.2l-2.6-38.6l-2.3-38.6
			c-0.4-7.4-0.9-14.7-1.3-22.1c-1.1-18.1-2.2-36.8-3.1-55.2l0-0.6l0-0.2c-0.6-1.8-0.6-3.7-0.2-5.5l0-0.1l-0.6-12.9l-0.7-19.4
			c-0.4-11.6-0.7-24.2-0.9-38.7c-0.1-4.3,3.4-7.9,7.8-8c0,0,0.1,0,0.1,0c4,0,7.3,3,7.8,6.9c0.9,7.1,1.7,14.2,2.4,21.2
			c0.9,4.5,2.2,9.2,4.9,12.8c8.1,10.8,18.1,7.3,26.8,2.4l83.6-56.3l0.1-0.1c3.7-3.5,7.7-6.9,11.6-10.3c10.8-9.3,22-18.8,28.7-31.5
			c4.7-8.9,6.5-18.8,8.3-28.4c0.7-3.6,1.4-7.4,2.2-11.1c2.5-12.6,4.9-23.8,7.4-34.2c0.5-2.1,1.7-3.8,3.5-4.9c1.8-1.1,3.9-1.4,5.9-1
			c3.9,0.9,6.5,4.7,6,8.7c-1.8,13.5-3.6,27.2-5.4,40.5c-3.1,22.8-6.3,46.5-9.2,69.7c-5.1,39.6-9.2,75.8-12.6,110.5
			c-2.9,30.2-6.7,70.1-9.8,110.9c-1.5,19.6-3,39.9-4.5,59.9l0,0.1l0,0.1c0.3,2.2,0.5,4.6,0.7,6.8c1.1,11.8,2.2,24.1,17.1,29
			c6.9,2.2,13.8,2.9,20.6,3.6c1,0.1,2,0.2,3,0.3l0.1,0l155.9,0c19.2-0.7,45.4-4.9,52.1-32.1c0.3-1.2,0.6-2.3,0.8-3.4
			c0.3-1.1,0.5-2.2,0.8-3.3l0-0.2c2.9-38.1,5.6-69.3,8.4-98.1c5.6-56.1,10.9-102.6,16.7-146.6c6.5-48.9,13.7-96.4,21.3-141.2l0-0.1
			l0-0.1C1928.4,1430,1905.3,1383.7,1866.2,1345.3z"/>
		<path style="fill:#FFDA00;" d="M1874.7,2035.9c-0.2-0.8-0.4-1.7-0.6-2.5c-6-23.7-23.7-28-40.1-29l-144.1,0l-0.2,0
			c-6,1-12.1,1.2-18.5,1.5c-1.1,0-2.2,0.1-3.4,0.2c-10.8,0.5-23,1.9-31.3,11.4c-7,8-9.3,18.5-10.6,26.8l0,0.1
			c-3.2,91-4.1,169.2-4.2,218.8c0.7,8,1.4,16.5,2.3,24.8c1.2,10.8,3.2,21,14.5,27.3c2,1.1,4.2,2,6.7,2.9l0.1,0l185.8,12.4l0.1,0
			l0.1,0c1-0.2,2.1-0.4,3.1-0.5c5.1-0.9,10.3-1.8,15-3.7c11.9-4.9,13.4-15.5,14.9-26.7l0-0.1c0.4-2.8,0.7-5.6,1.1-8.4
			c0.4-2.7,0.7-5.4,1.1-8.1l0-0.1c0.8-54.4,2.9-140.9,8.4-244.6l0-0.1l0-0.1C1875,2037.4,1874.8,2036.7,1874.7,2035.9z"/>
		<path style="fill:#FFDA00;" d="M1015.9,2099.8c-16.5-14.1-36.5-24-57.9-28.6c-22.4-4.9-45.5-4-66.9,2.8
			c-21.5,6.7-41,19.1-56.5,35.9c-14.9,16-25.7,35.5-31.3,56.5c-2.2,8.2,1.4,16.9,8.8,21.1c2.9,1.7,6.1,2.5,9.4,2.5
			c1.6,0,3.3-0.2,4.9-0.6c4.9-1.3,8.9-4.4,11.4-8.8l0.4-0.6c8.9-15.3,18.4-27.4,29.2-37c11.4-10.1,24.3-17.5,38.4-21.9
			c14.2-4.3,29-5.6,44-3.8c14.3,1.7,29.1,6.2,45.1,13.7l0.7,0.3c7.6,3.6,16.8,1.6,22.3-4.8c3.3-3.8,4.9-8.7,4.5-13.7
			C1022,2107.6,1019.7,2103.1,1015.9,2099.8z"/>
		<path style="fill:#FFDA00;" d="M989.2,2624.1l-27.6,20.4c-4.8,3.6-11,4.9-16.9,3.8c-5.9-1.2-11-4.8-14.1-10l-18.6-31.3l-0.9-1.4
			c-1.4-2.3-3.1-4.3-5.3-6.1c-9.2-7.5-22.8-6.8-31.6,1.9l-62.1,60.5c-3.6,3.5-5.6,8.2-5.7,13.3c-0.1,5,1.9,9.8,5.5,13.4
			c6.5,6.6,17.2,7.2,25,1.5l27.6-20.4c4.8-3.6,11-4.9,16.9-3.8c5.9,1.2,11,4.8,14.1,10l18.6,31.3l0.9,1.4c1.4,2.3,3.1,4.3,5.3,6.1
			c4.2,3.5,9.3,5.2,14.5,5.2c6.1,0,12.3-2.4,17.1-7l62.1-60.5c3.6-3.5,5.6-8.2,5.7-13.3c0.1-5-1.9-9.8-5.5-13.4
			C1007.7,2619,996.9,2618.3,989.2,2624.1z"/>
		<path style="fill:#FFDA00;" d="M2270.7,901.4c-1.5-4.8-4.9-8.7-9.4-11c-4.5-2.3-9.6-2.7-14.5-1.1c-8.8,2.9-14.1,12.2-12.4,21.7
			l6.6,37c0.9,5.1-0.4,10.4-3.5,14.5c-3.2,4.1-7.9,6.7-13.1,7.1l-39.6,3l-1.7,0.1c-2,0.2-3.9,0.6-5.8,1.2
			c-11.9,4.1-18.3,17.6-14.2,30.1l26.6,82.3c1.5,4.8,4.9,8.7,9.4,11c2.7,1.3,5.5,2,8.5,2c2,0,4-0.3,6-1c8.8-2.9,14.1-12.2,12.4-21.7
			l-6.6-37c-0.9-5.1,0.4-10.4,3.5-14.5c3.2-4.1,7.9-6.7,13.1-7.1l39.6-3l1.7-0.1c2-0.2,3.9-0.6,5.8-1.2
			c11.9-4.2,18.3-17.6,14.2-30.1L2270.7,901.4z"/>
		<path style="fill:#FFDA00;" d="M1245.3,1401.4L1245.3,1401.4c1.2,1.6,2.6,3,4.2,4.2c4.1,3.2,9.1,4.8,14.1,4.8c7,0,14.1-3.1,18.9-9
			l55.1-66.7c3.2-3.9,4.7-8.8,4.2-13.8c-0.5-5-2.9-9.5-6.9-12.8c-7.1-5.8-17.9-5.3-25,1.3l-27.7,25.6c-3.8,3.5-8.9,5.2-14,4.8
			c-5.1-0.5-9.9-3.1-12.9-7.2l-23.9-31.8l-1-1.3c-1.6-2.1-3.6-4-5.9-5.5c-9.9-6.5-23.4-4.2-31.2,5.3l-55.2,66.8
			c-3.2,3.9-4.7,8.8-4.2,13.8c0.5,5,2.9,9.5,6.9,12.8c7.1,5.8,17.9,5.3,25-1.3l27.7-25.6c3.8-3.5,8.9-5.2,14-4.8
			c5.1,0.5,9.9,3.1,12.9,7.2l23.9,31.8L1245.3,1401.4z"/>
		<path style="fill:#FFDA00;" d="M2010.7,2129.4c-4.9-8-15.1-11.1-23.6-7.3c-9.1,4-13.4,14.8-9.8,24.5l6.4,17.1
			c1.1,3,0.9,6.3-0.5,9.1c-1.4,2.9-3.9,5-7,5.9l-22.6,6.6c-2.6,0.8-5,2-7.1,3.6c-9.4,7-11.7,20.6-5.4,30.9l31.1,50.5
			c3.5,5.7,9.7,8.9,16.1,8.9c2.5,0,5.1-0.5,7.6-1.6c9.1-4,13.4-14.8,9.8-24.5l-6.4-17.1c-1.1-3-0.9-6.3,0.5-9.1s3.9-5,7-5.9
			l22.6-6.6c2.6-0.8,5-2,7.1-3.6c9.4-7,11.8-20.6,5.4-30.9L2010.7,2129.4z"/>
		<path style="fill:#FFDA00;" d="M2405.5,1754.3l-13.4-8.7c-3.2-2.1-5.3-5.3-6-9.1c-0.7-3.8,0.3-7.5,2.6-10.5l12.8-16.9
			c1.6-2.1,2.8-4.5,3.6-7.1c3.4-11.2-2.8-23.5-14.1-28.1l-55-22.1c-8.7-3.5-18.7,0-23.4,8.2c-4.9,8.6-2,19.8,6.7,25.5l13.4,8.7
			c3.2,2.1,5.3,5.3,6,9.1c0.7,3.8-0.3,7.5-2.6,10.5l-12.8,16.9c-1.6,2.1-2.8,4.5-3.6,7.1c-3.4,11.2,2.8,23.5,14.1,28.1l55,22.1
			c2.3,0.9,4.6,1.3,6.9,1.3c6.6,0,13-3.5,16.4-9.5C2417.2,1771.2,2414.2,1760,2405.5,1754.3z"/>
		<path style="fill:#FFDA00;" d="M553.3,669.9L553.3,669.9c-5.3-5.7-13.7-7.6-21-4.7c-4.7,1.9-8.3,5.5-10.3,10.1
			c-2,4.6-2,9.8-0.1,14.5l0.5,1.2c4.3,10.7,6.8,20,7.4,28.4c0.8,9.2-0.1,18-2.7,26.2c-2.7,8.1-7,15.8-12.8,22.9
			c-5.1,6.3-11.7,12.5-21.5,19.9l-1.3,1c-5.8,4.4-8.6,11.7-7.1,18.8c1,5,3.9,9.3,8.1,12.1c3.2,2.1,6.8,3.2,10.5,3.2
			c1.3,0,2.5-0.1,3.8-0.4c15.1-3,29.4-10.5,41.5-21.6c12.1-11.1,21.2-25.9,25.8-41.7c4.6-15.7,5-33,1-48.9
			C571.4,695.4,563.8,681.2,553.3,669.9z"/>
		<path style="fill:#FFDA00;" d="M2016.2,572.6c-16.3,0-29.5,13.2-29.5,29.5s13.2,29.5,29.5,29.5s29.5-13.2,29.5-29.5
			S2032.5,572.6,2016.2,572.6z"/>
		<path style="fill:#FFDA00;" d="M1173.1,2426.7c-16.3,0-29.5,13.2-29.5,29.5s13.2,29.5,29.5,29.5s29.5-13.2,29.5-29.5
			S1189.3,2426.7,1173.1,2426.7z"/>
		<path style="fill:#FFDA00;" d="M1429.3,2667.8c-16.3,0-29.5,13.2-29.5,29.5s13.2,29.5,29.5,29.5s29.5-13.2,29.5-29.5
			S1445.6,2667.8,1429.3,2667.8z"/>
		<path style="fill:#FFDA00;" d="M1282.7,526l0.6-0.4c14-10.9,27.4-18.5,41-23.4c14.3-5.1,29-7.1,43.8-6c14.8,1.3,29,5.6,42.3,12.9
			c12.7,7,24.7,16.6,36.7,29.6l0.5,0.6c3.6,3.9,8.7,6,13.8,6c3,0,6-0.7,8.7-2.1c9.2-4.8,12.8-16.2,8-25.4
			c-10-19.2-24.9-35.9-43-48.2c-18.8-12.9-40.6-20.7-63-22.5c-22.4-1.8-45.1,2.4-65.8,12.1c-19.8,9.2-37.2,23.3-50.2,40.7
			c-5.1,6.8-5,16.2,0.2,22.8C1262.7,530.9,1274.5,532.3,1282.7,526z"/>
	</g>
	<g>
		<path style="fill:#FF5777;" d="M2176.1,1285.8L2176.1,1285.8c-0.7-4.1-1.8-9.3-4.3-13.8c-5.1-9.3-18-11.9-28.7-13.2l-0.1,0h-322.8
			l-0.2,0c-7.8,1.7-11.7,4.1-12.2,7.5c-0.9,7.2,7.4,13.3,14.9,18.7c39.4,23.6,72.3,54.3,95,88.9l0.2,0.2l0.3,0.1
			c0.8,0.4,1.4,0.9,1.9,1.7c6.6,9.9,12.8,15.1,18.5,15.4c3.6,0.2,6.9-1.5,9.9-5.1c1.4-1.7,2.7-3.8,3.7-6.2l0.1-0.2
			c4.2-18.4,8.3-34.7,12.5-49.8c0.6-2,1.9-3.7,3.7-4.7c1.8-1,4-1.3,6-0.7c3.9,1.1,6.3,4.8,5.7,8.8c-1.8,11.7-3.9,23.9-5.6,33.7
			c-0.5,5.2-1,10.5-1.5,15.7c-0.5,5.2-1,10.5-1.5,15.8c0,9.4,0.2,19.5,0.7,30.1l0,0.2c2.8,13.7,7,27.9,18.7,38.5
			c4.9,4.4,10.9,8.3,18.5,11.8l0.1,0c15.8,5.5,33.4,8.2,51.4,8.2c19.3,0,39.1-3.1,57.4-9.3c18.7-6.4,34.4-15.6,45.4-26.7l0.1-0.1
			c10.7-14.4,13.8-33.1,15.6-51.4C2179.6,1353.4,2178.6,1318.2,2176.1,1285.8z"/>
		<path style="fill:#FF5777;" d="M2117.4,1159.7c12.8-1.5,25-4.8,27.5-19.1c0.5-2.7,0.6-5.5,0.4-8.6l-0.1-0.3
			c-12.7-34-29-63.5-49.7-90l-0.1-0.1c-2.8-2.4-5.3-5.2-8-8.1c-2.4-2.6-4.8-5.2-7.5-7.8c-9.8-9.1-22.2-8.6-34.3-8
			c-3,0.1-6.1,0.3-9.3,0.3c-5.5,0.5-10.9,0.8-16.1,0.8c-28.7,0-56.4-7.2-80-20.7c-30.5-17.5-53.7-45-67-79.6l-0.1-0.1
			c-0.7-1.2-1.5-2.6-2.3-4c-4.8-8.1-13.1-11-21.1-13.9c-3.1-1.1-6.2-2.2-9.2-3.6l-0.2-0.1c-21.7-5.3-43.3-9.9-64.2-14.2l-0.9-0.2
			c-17.4-3.6-35.9-7.5-54.1-11.8l-0.2,0c-4.3-0.2-7.8,0.1-10.8,1c-10.7,3.3-16.7,12.3-18.4,27.5l0,0.1l0,22.7l0.1,1.5
			c0,0.6,0,1.1-0.1,1.6l0,0.1v133.7l0,0.3c1,3,2.6,7,6.2,7.6c2.6,0.5,5-1,7.5-4.5l6.6-14.2l0.2-0.3c1.8-3.9,6.5-5.6,10.4-3.8
			c3.8,1.7,5.5,6.1,4,10l-8.5,21.8c-0.8,1.9-1.5,3.9-2.3,5.9c-1.2,3-2.3,6-3.6,9l-0.1,0.2l0,0.2c0,1-0.2,2-0.6,3
			c-5.2,11.4-16.1,35.1-12.8,51.6c1.6,8,10.3,12.7,26.6,14.4L2117.4,1159.7L2117.4,1159.7z"/>
		<path style="fill:#FF5777;" d="M1569.8,858c-6.7-2.6-13.5-1.6-20.8,2.9l-0.1,0.1c-15.9,14.1-29,32.5-36.8,51.9
			c-7.6,18.7-10,38-7,55.8l0,0.1c3,10.3,6.8,18.1,12.1,24.6c2.4,3,5.2,6.1,9,10.1l0.2,0.2c5.5,3,11.2,6,17.4,9.2l0.3,0.1
			c4.8,0.9,10,1.7,14.8,1.7c6.7,0,12.8-1.5,16.1-6.2c2.2-3,3.8-7.2,4.9-12.9l0-0.1v-123l0-0.3C1577.8,864.4,1574.5,859.8,1569.8,858
			z"/>
		<path style="fill:#FF5777;" d="M1186.7,1814.1c-8.3-8-14.4-15.4-18.4-22.8c-4.5-8-7.3-16.4-8.3-25c-0.9-8.5-0.1-17.3,2.2-26.1
			c2-7.9,5.6-16.2,11.4-27l0.8-1.4c3.5-6.4,3-14.1-1.2-20.1c-2.9-4.1-7.3-6.9-12.3-7.7c-5-0.8-10,0.3-14.2,3.3
			c-12.5,8.9-22.5,21.6-29,36.7c-6.4,15.1-8.7,32.3-6.4,48.6c2.2,16.2,9,32.2,19.1,45c10,12.6,22.7,22.5,36.8,28.5
			c2.4,1,4.8,1.5,7.3,1.5c5.1,0,10.1-2,13.7-5.8c3.5-3.6,5.3-8.4,5.2-13.5s-2.2-9.7-5.8-13.2L1186.7,1814.1z"/>
		<path style="fill:#FF5777;" d="M1983.3,1791.4c-16.3,0-29.5,13.2-29.5,29.5c0,16.3,13.2,29.5,29.5,29.5s29.5-13.2,29.5-29.5
			C2012.8,1804.6,1999.5,1791.4,1983.3,1791.4z"/>
		<path style="fill:#FF5777;" d="M1164.2,672.4c-16.3,0-29.5,13.2-29.5,29.5s13.2,29.5,29.5,29.5s29.5-13.2,29.5-29.5
			S1180.4,672.4,1164.2,672.4z"/>
		<path style="fill:#FF5777;" d="M830.3,2307.6c-16.3,0-29.5,13.2-29.5,29.5s13.2,29.5,29.5,29.5s29.5-13.2,29.5-29.5
			S846.6,2307.6,830.3,2307.6z"/>
		<path style="fill:#FF5777;" d="M503.1,491.7c-16.3,0-29.5,13.2-29.5,29.5s13.2,29.5,29.5,29.5s29.5-13.2,29.5-29.5
			S519.3,491.7,503.1,491.7z"/>
		<path style="fill:#FF5777;" d="M1974.1,2578.4L1974.1,2578.4c-9.6-3.9-20.7,0.8-24.6,10.4l-0.3,0.7c-6.9,17-14.5,30.4-23.3,41
			c-9.5,11.7-20.9,21.2-33.9,28.1c-1.7,0.7-3.3,1.4-4.9,2.1c-1.7,0.8-3.5,1.6-5.2,2.3c-1.6,0.5-3.2,1-4.8,1.6
			c-1.9,0.7-3.8,1.3-5.7,1.8l-5.5,1.1c-0.6,0.1-1.2,0.3-1.8,0.4c-1.2,0.3-2.4,0.6-3.6,0.6l-5.7,0.6c-0.5,0.1-1,0.1-1.5,0.2
			c-1.4,0.2-2.7,0.4-4.1,0.3l-0.1,0l-0.1,0c-14.3,0.6-30-1.6-46.7-6.6l-0.7-0.2c-8.3-2.5-17.2,1-21.6,8.4
			c-5.3,8.9-2.3,20.5,6.6,25.8c18.6,11,40,17.5,61.7,18.7c1.3,0.2,2.7,0.2,4,0.2c0.9,0,1.8,0,2.6,0c0.6,0,1.2,0,1.8,0l8.3-0.2
			c2,0,4-0.3,5.9-0.6c0.8-0.1,1.7-0.3,2.5-0.4l8.3-1.3c1.9-0.3,3.8-0.8,5.5-1.3c0.9-0.3,1.8-0.5,2.7-0.7l2.1-0.6
			c2-0.5,4-1.1,6.1-1.7c4.1-1.5,8.1-3.3,12.1-5c1.2-0.5,2.4-1,3.6-1.5c19.9-9.7,37.8-25.3,50.4-44.1c12.4-18.6,19.8-39.7,21.5-61
			C1986.5,2589.1,1981.8,2581.5,1974.1,2578.4z"/>
		<path style="fill:#FF5777;" d="M1469.2,2253.7c-9.8-0.7-18.6,6.8-19.9,16.9l-9.7,72.6c-0.8,5.8-4,11.1-8.9,14.3
			c-4.9,3.3-11,4.3-16.6,2.8l-72.5-18.9l-1.2-0.3c-1.9-0.5-3.9-0.7-5.9-0.7c0,0,0,0,0,0c-12.6,0-23.2,10.6-23.7,23.6l-4.9,125.2
			c-0.4,10.2,7.3,18.8,17.5,19.4c0.4,0,0.8,0,1.2,0c9.3,0,17.4-7.2,18.7-17l9.7-72.6c0.8-5.8,4-11.1,8.9-14.3
			c4.9-3.3,11-4.3,16.6-2.8l72.5,18.9l1.2,0.3c1.9,0.5,3.9,0.7,5.9,0.7c0,0,0,0,0,0c12.6,0,23.2-10.6,23.7-23.7l4.9-125.2
			C1487,2262.9,1479.4,2254.4,1469.2,2253.7z"/>
		<path style="fill:#FF5777;" d="M1741.6,741.7l93.5,83.4c3.4,3,7.9,4.7,12.5,4.7c0.5,0,1,0,1.4-0.1c5.1-0.4,9.7-2.8,13-6.7
			c6-7.2,5.4-18-1.2-25.2l-50.4-54.3c-3.9-4.2-5.8-9.8-5.2-15.4s3.5-10.8,8.1-14.1l61.4-44.5l1-0.7c1.6-1.2,3.1-2.6,4.3-4.1
			c8-9.7,6.5-24.7-3.2-33.3l-93.5-83.4c-3.8-3.4-8.9-5.1-14-4.7c-5.1,0.4-9.7,2.8-13,6.7c-6,7.2-5.4,18,1.2,25.2l50.4,54.3
			c3.9,4.2,5.8,9.8,5.2,15.4c-0.6,5.6-3.5,10.8-8.1,14.1l-61.4,44.5l-1,0.7c-1.6,1.2-3,2.5-4.3,4.1
			C1730.5,718,1731.9,733,1741.6,741.7z"/>
	</g>
	<g>
		<path style="fill:#1FAAFF;" d="M1876.8,2383.4l-0.1-0.2c-6.7-12.6-14.6-20.4-24.8-24.3c-7.6-2.9-15.6-4.1-23.3-5.2
			c-4.5-0.7-9.2-1.3-13.8-2.4l-0.1,0l-142.6-9.5c-3.5,0-7.1-0.2-10.5-0.4c-5.2-0.3-10.5-0.6-15.9-0.2c-18.6,1.2-24.3,14.8-27.2,26.5
			c-0.1,0.4-0.1,0.8-0.2,1.3c-0.1,0.4-0.1,0.8-0.2,1.2l0,0.1l0,0.1c0.8,7.9,2.9,13,6.5,15.5c3.3,2.3,8.3,3.5,12.7,4.5
			c1.8,0.4,3.6,0.8,5,1.3c2.3,0.7,4.7,1.5,7,2.2l0.2,0c5.4,0.6,11.8,1.3,18.2,2.1c12.8,1.6,23.3,3.3,33,5.2c4.3,0.9,7.1,5,6.2,9.3
			c-0.7,3.6-3.9,6.3-7.6,6.4c-12.2,0.3-24.3-0.2-33.5-0.6c-11.7-0.5-23.3-1.4-33.4-2.3c-0.2,0-0.4,0-0.6-0.1c-0.2,0-0.4,0-0.6-0.1
			l-0.1,0l-0.1,0c-10.1,0.9-17,3.3-21.9,7.7c-4.3,3.9-6.1,9.6-5.1,15.6l0,0.2l0.1,0.2c0.5,0.8,1.1,1.6,1.6,2.4c1,1.5,2,3.1,3.1,4.6
			c4.4,6.4,10.1,8,16.5,9.4c0.9,0.1,1.8,0.2,2.7,0.3c1.3,0.1,2.6,0.3,3.9,0.5c9.1,1.2,21.1,2.8,33.1,5.2c4.3,0.8,7.1,5,6.2,9.3
			c-0.7,3.6-3.9,6.3-7.6,6.4c-12.2,0.3-24.3-0.2-33.5-0.6c-6.8-0.3-13.5-0.8-19.8-1.2l-0.1,0l-1.1,0.1c-6.6,0.3-13.4,0.7-19.9,3.1
			c-7.1,2.7-11.2,8.8-14.8,14.9c-23.5,50-43.8,93.2-30.5,145.4c3.1,12,11.3,21.6,22.7,26.5c5,2.1,10.2,3.1,15.4,3.1
			c6.7,0,13.4-1.7,19.5-5.2l277.6-158.6c15.7-9,23.2-27.4,18.3-44.8L1876.8,2383.4z M1579.5,2617.4c9.6-6.3,20-12.9,33.8-21.3
			c10.9-6.8,22.4-13.7,34.2-20.7c22-13,44.6-26.2,69-40.3c20.7-11.8,43.6-24.6,69.7-39.1c11.8-6.5,23.3-12.8,35.2-19
			c11.1-5.9,23.2-12.1,35.6-18.2c1.1-0.5,2.3-0.8,3.4-0.8c2.9,0,5.8,1.6,7.1,4.4c1.7,3.5,0.5,7.8-2.7,10c-9.6,6.4-20,13-33.7,21.5
			c-10.9,6.8-22.1,13.5-33,20l-1.2,0.7c-25.4,14.9-48,28.1-69.1,40.1c-23.5,13.3-46.9,26.4-69.8,39c-11.8,6.5-23.7,12.9-35.2,19
			c-13.5,7.2-24.8,13-35.6,18.3c-1.9,0.9-4,1.1-6,0.4c-2-0.7-3.6-2.1-4.5-4C1575,2623.9,1576.2,2619.5,1579.5,2617.4z"/>
		<path style="fill:#1FAAFF;" d="M1503.9,2030.7l-0.1-0.3c-2.7-5.3-5.4-9.5-8.5-13c-8.6-9.9-20.4-10.6-31.9-11.2
			c-5.1-0.3-10.4-0.6-15.3-1.7l-0.1,0l-151.1,0l-0.2,0c-4.8,0.4-9.8,0.8-14.8,1.6c-5.9,1-12,2.3-17,6.7c-4.5,4-6.8,10-5.8,15.2
			l0,0.2l0.2,0.2c0,0.1,0.1,0.1,0.1,0.2c0.1,0.1,0.2,0.3,0.3,0.4c4.9,5.4,15.2,7,23.7,7.8l0.1,0l0.1,0c9.4-0.2,17.7-0.2,25.3,0.1
			c4.4,0.2,7.8,3.8,7.6,8.2c-0.1,3.7-2.8,6.8-6.4,7.5c-7.7,1.5-15.8,2.7-24.7,3.8l-0.3,0l-0.2,0.1c-0.7,0.5-1.6,0.8-2.5,0.9l-0.6,0
			c-16.4,1.3-34.9,2.7-47.4,14.7c-2.1,2-6.9,7.2-6.8,12.8c0.1,2.7,1.3,5,3.6,7c2.1,1.8,5.7,2.4,8.5,2.9c0.5,0.1,1,0.2,1.4,0.2
			c0.1,0,0.1,0,0.2,0.1c0.1,0,0.2,0,0.3,0.1l0.1,0l0.3,0c2.4-0.1,4.6-0.2,7-0.3c13-0.5,23.6-0.5,33.5-0.2c4.4,0.2,7.8,3.8,7.6,8.2
			c-0.1,3.7-2.8,6.8-6.4,7.5c-9.6,1.8-19.8,3.3-33.1,4.8c-3.5,0.4-7.1,0.8-10.6,1.1c-2,0.2-4,0.4-6,0.6l-10.4,0.9l-0.2,0
			c-3.2,1-6.6,1.8-9.9,2.6c-3.8,0.9-7.8,1.9-11.7,3.1c-13.6,4.5-25.3,13.5-33.7,26.2c-13.1,22.7-18.6,47.5-17.2,78
			c0.4,8.7,4.8,16.6,11.9,21.7c4.9,3.4,10.5,5.2,16.3,5.2c2.7,0,5.5-0.4,8.1-1.2l317.3-95c14.2-4.2,22.5-18.3,19.5-32.8
			L1503.9,2030.7z M1179,2203c13.1-4.6,26.3-9.1,39.2-13.4c13.1-4.4,26.4-8.7,39.4-12.8c22.9-7.4,47.3-15,79-24.5
			c23.1-6.9,47.6-13.9,79.6-22.8c12-3.4,25.1-7,39.9-11c12.2-3.3,25.3-6.7,40.1-10.5c0.6-0.2,1.3-0.2,1.9-0.2c1.4,0,2.8,0.4,4,1.1
			c1.8,1.1,3.1,2.8,3.6,4.8c1,3.9-1.2,8-5,9.4c-15,5.2-27.5,9.5-39.2,13.3c-11.9,3.9-25.7,8.5-39.4,12.8
			c-31.8,10.2-56.2,17.8-79,24.7c-31.2,9.3-56.4,16.6-79.5,23c-13.1,3.7-26.6,7.4-39.9,10.9c-13.2,3.6-26.7,7-40.1,10.4
			c-2,0.5-4.2,0.2-6-0.9c-1.8-1.1-3.1-2.8-3.6-4.9C1173,2208.5,1175.2,2204.4,1179,2203z"/>
		<path style="fill:#1FAAFF;" d="M1174.6,1530.5c0-16.3-13.2-29.5-29.5-29.5s-29.5,13.2-29.5,29.5s13.2,29.5,29.5,29.5
			S1174.6,1546.8,1174.6,1530.5z"/>
		<path style="fill:#1FAAFF;" d="M2004.6,2398.2c-16.3,0-29.5,13.2-29.5,29.5s13.2,29.5,29.5,29.5s29.5-13.2,29.5-29.5
			S2020.8,2398.2,2004.6,2398.2z"/>
		<path style="fill:#1FAAFF;" d="M2379.8,1316.5c-3.6-9.7-14.5-14.7-24.2-11.1c-20.4,7.5-38.8,20.2-53.2,36.6
			c-1.8,1.8-3.3,3.8-4.8,5.8l-5.5,7.5c-1.3,1.6-2.3,3.4-3.2,5.1c-0.4,0.7-0.8,1.4-1.3,2.2l-4.1,7.3c-1,1.7-1.7,3.5-2.4,5.2
			c-0.4,0.9-0.7,1.7-1.1,2.6l-3.2,7.9c-1.8,5.6-3.2,11.3-4.5,16.4c-4.5,22.1-3.1,45.2,4,66.8c6.7,20.8,18.5,39.7,34.1,54.8
			c3.6,3.5,8.3,5.3,13.1,5.3c3.3,0,6.7-0.9,9.7-2.7c8.9-5.4,11.8-17,6.4-25.8l-0.4-0.6c-9.1-15.2-15.1-29.4-18.2-43.5
			c-3.3-15-3.5-29.8-0.5-44.2c3.2-14.5,9.3-28.1,18.1-40.3c8.5-11.7,19.5-22.4,33.9-32.8l0.6-0.5
			C2380,1333.3,2382.7,1324.4,2379.8,1316.5z"/>
		<path style="fill:#1FAAFF;" d="M1302.9,1061.3l39-5.2c4.7-0.6,9.4,0.8,13.1,3.8c3.6,3.1,5.8,7.5,5.9,12.3l1.2,41.4l0,1.7
			c0.1,2.7,0.7,5.3,1.7,7.8c3.6,9,12.4,14.6,21.9,14.6c2.2,0,4.4-0.3,6.6-0.9l83.6-22.8c4.8-1.3,8.9-4.5,11.4-8.9
			c2.5-4.4,3.1-9.5,1.7-14.4c-2.5-8.9-11.6-14.6-21.1-13.4l-39,5.2c-4.7,0.6-9.4-0.8-13-3.8c-3.6-3.1-5.8-7.5-5.9-12.3l-1.2-41.4
			l0-1.7c-0.1-2-0.4-3.9-1-5.9c-3.6-12.1-16.8-19.1-29.4-15.6l-83.5,22.8c-4.8,1.3-8.9,4.5-11.4,8.9c-2.5,4.4-3.1,9.5-1.7,14.4
			C1284.3,1056.8,1293.3,1062.6,1302.9,1061.3z"/>
		<path style="fill:#1FAAFF;" d="M2257.7,715.5l-1.1-0.6c-10-5.6-17.7-11.4-23.5-17.5c-6.3-6.7-11.1-14.1-14.2-22.2
			c-3-8-4.4-16.7-4.3-25.9c0-8.1,1.4-17.1,4.4-29l0.4-1.5c1.8-7.1-0.6-14.5-6.2-19.2c-3.9-3.3-8.8-4.8-13.9-4.4
			c-5.1,0.4-9.6,2.8-12.9,6.7c-9.9,11.7-16.5,26.5-19,42.8c-2.5,16.2-0.4,33.5,5.8,48.7c6.2,15.1,16.7,28.9,29.7,38.8
			c12.8,9.8,27.6,16.2,42.8,18.5c0.9,0.1,1.8,0.2,2.8,0.2c6.8,0,13.2-3.7,16.5-9.6C2270,732.2,2266.7,720.6,2257.7,715.5z"/>
		<path style="fill:#1FAAFF;" d="M1025.9,2324.2L1025.9,2324.2c-4.1-6.7-11.9-10.2-19.6-8.8c-10.2,1.9-17,11.8-15.1,22l0.2,1.3
			c2.1,11.3,2.6,20.9,1.6,29.3c-1,9.1-3.7,17.6-7.9,25.1c-4.3,7.4-10,14.1-17.1,19.9c-6.2,5.2-14,9.9-25.1,15.2l-1.4,0.7
			c-6.6,3.2-10.7,9.7-10.8,17c-0.1,10.5,8.4,19,18.9,19.1c0.1,0,0.3,0,0.4,0c15.2,0,30.7-4.4,44.7-12.8c14-8.4,26-21.1,33.7-35.6
			c7.7-14.4,11.5-31.4,10.8-47.7C1038.5,2352.8,1033.9,2337.4,1025.9,2324.2z"/>
		<path style="fill:#1FAAFF;" d="M1263.9,2688.6l-1.2-0.4c-10.8-4-19.3-8.5-26-13.7c-7.3-5.6-13.2-12.2-17.5-19.7
			c-4.2-7.5-7-15.8-8.3-24.9c-1.3-8-1.3-17.1-0.2-29.3l0.1-1.6c0.7-7.3-2.8-14.2-9.1-18c-9-5.4-20.7-2.5-26.1,6.5
			c-7.9,13.1-12.1,28.8-12.1,45.2c0.1,16.4,4.8,33.1,13.4,47.2c8.5,14,21,26,35.4,33.7c14,7.6,29.4,11.6,44.5,11.6
			c0.2,0,0.4,0,0.6,0c7.8-0.1,14.9-5,17.6-12.3c1.8-4.7,1.6-9.9-0.5-14.4C1272.4,2693.9,1268.6,2690.4,1263.9,2688.6z"/>
	</g>
	<path style="fill:#FFFFFF;" d="M508,1058c0.5,5.4,0.9,10.8,1.4,16.1c-4.6-3.4-7.8-8.8-8.2-14.9l-1.3-16.3l-1.3-16.3
		c-0.3-4,0.5-7.8,2.3-11.2c1,10.4,2.2,20.8,3.5,31.2C506.3,1049.7,507.6,1053.5,508,1058z"/>
	<path style="fill:#FFFFFF;" d="M535.2,919.4c0.6,1.5,1.2,3,1.7,4.4C536.2,922.4,535.6,920.9,535.2,919.4z"/>
	<path style="fill:#FFFFFF;" d="M554.4,1157.1c0.4-1.8,1-3.5,1.9-5.2l18.2-34.7c-5.9-8.9-10.9-18.4-14.9-28.1
		c7.6,4.3,12.7,11.6,14.9,22.8C578.1,1131.3,568.8,1147.2,554.4,1157.1z"/>
	<path style="fill:#FFFFFF;" d="M671.3,817.8c0.2,16.3-5.6,30.8-15.4,42.4l4-26.9C660.9,826.5,665.3,820.7,671.3,817.8z"/>
	<path style="fill:#FFFFFF;" d="M678.6,817.6c-1.9-0.1-3.6-0.3-5.3-0.7c1.7-0.6,3.4-1,5.3-1.1l15-1.2
		C689,816.8,683.8,817.9,678.6,817.6z"/>
	<path style="fill:#FFFFFF;" d="M732.4,827.3c-7.4-4-14.5-8.6-20.7-14C721,812.7,729.5,818.5,732.4,827.3z"/>
	<path style="fill:#FFFFFF;" d="M854.4,1182.3c-2.3,0.9-4.8,1.5-7.3,1.5c-0.5-0.6-1.1-1.2-2-1.5H854.4z"/>
</g>
<g id="outline">
	<g>
		<path d="M2465.6,1236.2H1068.2c-6.5,0-11.8,5.3-11.8,11.8v667c0,6.5,5.3,11.8,11.8,11.8h1397.4c6.5,0,11.8-5.3,11.8-11.8v-667
			C2477.4,1241.5,2472.1,1236.2,2465.6,1236.2z M2196.8,1259.8c-0.1,0.1-0.2,0.2-0.3,0.3c0-0.1,0-0.2,0-0.3H2196.8z M1145.1,1502
			c15.7,0,28.5,12.8,28.5,28.5c0,15.7-12.8,28.5-28.5,28.5c-15.7,0-28.5-12.8-28.5-28.5C1116.6,1514.8,1129.4,1502,1145.1,1502z
			 M1187.5,1841c-5.3,5.5-13.3,6.9-19.9,4.1c-13.8-5.9-26.5-15.6-36.5-28.2c-9.9-12.6-16.6-28.2-18.9-44.5
			c-2.3-16.3,0-33.3,6.4-48.1c6.4-14.8,16.4-27.5,28.7-36.3c8.1-5.8,19.3-3.9,25.1,4.2c4.1,5.8,4.3,13.2,1.2,19.1l-0.8,1.4
			c-5.2,9.5-9.2,18.3-11.5,27.3c-2.4,8.9-3.2,17.7-2.3,26.5c1,8.7,3.9,17.3,8.4,25.4c4.5,8.2,10.9,15.7,18.6,23.1l0.9,0.9
			C1194.1,1822.6,1194.3,1833.9,1187.5,1841z M1192.7,1365.1l-27.7,25.6c-6.6,6.1-16.7,6.9-23.7,1.2c-7.9-6.5-8.7-17.8-2.6-25.2
			l55.2-66.8c7.3-8.9,20.3-11.4,29.9-5.1c2.2,1.5,4.1,3.3,5.6,5.2l1,1.3l23.9,31.8c6.8,9.1,20.1,10.3,28.5,2.6l27.7-25.6
			c6.6-6.1,16.7-6.8,23.7-1.2c7.9,6.5,8.7,17.8,2.6,25.2l-55.1,66.7c-7.8,9.5-22,11.6-31.6,4c-1.5-1.2-2.9-2.6-4-4.1l-1-1.3
			l-23.9-31.8C1214.3,1358.6,1201.1,1357.4,1192.7,1365.1z M1910.8,1620.4c-6.4,48.8-11.8,97.7-16.7,146.7
			c-3.2,32.7-5.9,65.4-8.5,98.1c-0.5,2.2-1.1,4.4-1.7,6.7c-6.1,25.1-28.8,30.5-51.1,31.3H1677c-7.8-0.8-15.6-1.3-23.4-3.8
			c-17-5.6-15.3-20.7-17.2-34.9c1.5-20,3-39.9,4.5-59.9c2.8-37,6.2-73.9,9.8-110.8c3.6-36.9,7.9-73.7,12.6-110.5
			c4.6-36.8,9.8-73.4,14.6-110.2c0.6-4.5-2.3-8.8-6.8-9.8c-4.8-1.1-9.5,1.8-10.7,6.6c-2.7,11.4-5.1,22.8-7.4,34.2
			c-3,13.2-4,27.1-10.4,39.2c-9,17.1-26.1,28.3-40.1,41.5l-83.6,56.3c-8.4,4.7-17.8,8.1-25.4-2.2c-2.6-3.4-3.8-7.9-4.7-12.4
			c-0.7-7-1.5-14.1-2.4-21.1c-0.5-4.4-4.3-7.9-8.9-7.8c-4.9,0.1-8.8,4.1-8.8,9c0.2,12.9,0.4,25.8,0.9,38.7l0.7,19.3l0.6,12.7
			c-0.4,2-0.3,4,0.3,6l0,0.6c1.2,25.8,2.9,51.5,4.4,77.3l2.3,38.6l2.6,38.6c0.4,6.4,0.9,12.9,1.3,19.3c-0.1,3.2-0.2,6.5-0.1,9.8
			c0.4,12-0.9,22-12.1,28.8c-7,4.4-15.4,5.9-23.7,6.8h-155.5c-7.1-0.9-13.9-2.2-19.6-4.8c-8.7-4-11.3-13.9-15.5-22.5
			c-11.2-103.1-23.8-249.4-12.4-302.9c13.9-65.3,100.7-124.6,201.1-193.3c27.8-19,56.6-38.7,85.6-59.7l9.8-7
			c6.6-4.8,13-9.3,19.2-13.9c12.2-6.9,22.8-16.2,35.2-22.8c18.4-9.9,40.7-11.8,61.2-13.2c19.9-1.3,39.9-0.8,59.4,2.1
			c121.9,29.9,208.1,114.3,217.5,213.8C1924.1,1526.1,1917.1,1573.2,1910.8,1620.4z M1934.7,1402.1c0.2,0,0.3,0.1,0.4,0.1
			c0.1,0.5,0.1,0.9,0.3,1.4C1935.2,1403.1,1935,1402.6,1934.7,1402.1z M1947.7,1385.7c-10,12-21-1.6-26.8-10.3
			c-0.7-1-1.5-1.6-2.3-2.1c-23-35-55.5-65.5-95.3-89.2c-7.2-5.2-15.3-11-14.4-17.7c0.4-3.3,5.2-5.3,11.4-6.6H2143
			c11.9,1.4,23.4,4.4,28,12.7c2.2,4,3.4,8.6,4.2,13.3c2.8,36.8,3.4,75,3.3,114.1c-1.9,18.6-5,36.8-15.4,50.8
			c-10.7,10.8-26.1,20-45,26.4c-31.2,10.6-72.6,13.5-108.2,1.2c-6.6-3.1-12.9-6.8-18.3-11.6c-11.2-10.1-15.5-23.8-18.4-38
			c-0.5-12.1-0.7-22.2-0.6-30.1c1-10.5,2-20.9,3-31.4c1.9-11.2,3.8-22.4,5.6-33.7c0.7-4.4-2-8.7-6.4-9.9c-4.7-1.3-9.6,1.4-10.9,6.2
			c-4.6,16.5-8.8,33.2-12.6,49.9C1950.3,1381.9,1949.2,1383.9,1947.7,1385.7z M1983.3,1849.4c-15.7,0-28.5-12.8-28.5-28.5
			c0-15.7,12.8-28.5,28.5-28.5c15.7,0,28.5,12.8,28.5,28.5C2011.8,1836.6,1999,1849.4,1983.3,1849.4z M2268.4,1806.3
			c-10.5,20.3-32.9,33-59.9,33.9c-24.8,0.8-89.4-8.4-151.7-111.2c-42.8-70.8-64.1-148.3-74.6-212.2c0.6-9.8,4-18.5,14.3-17
			c5.7,0.8,10.9,2.9,16.1,4.1c15.8,4.2,32.2,6.1,48.3,6.1c23.1,0,45.6-3.9,64.6-10.4c8-2.7,15.4-5.9,22.3-9.4c0.9,0,1.9-0.2,2.9-0.8
			c5.5-3,13-7.8,19.6-5.8c7.8,2.4,7.8,10.9,8.8,17.5c6.5,85.4,34.5,167.8,82.3,240.5C2276.1,1763.8,2278.5,1786.8,2268.4,1806.3z
			 M2277.3,1468.3c-6.9-21-8.4-44.2-3.9-66.3c1.4-5.4,2.8-10.9,4.5-16.3l3.2-7.8c1.1-2.6,2-5.3,3.4-7.7l4.1-7.3
			c1.4-2.4,2.7-4.9,4.4-7.1l4.9-6.7c1.7-2.2,3.3-4.5,5.3-6.4c14.6-16.6,33.1-29.1,52.8-36.4c9.2-3.4,19.5,1.3,22.9,10.5
			c2.8,7.7,0.1,16-6.2,20.6l-0.6,0.4c-13.5,9.8-25.1,20.7-34.1,33.1c-9,12.4-15.1,26.2-18.3,40.7c-3,14.5-2.8,29.7,0.5,44.6
			c3.3,15,9.8,29.6,18.3,43.8l0.4,0.6c5.1,8.4,2.4,19.4-6.1,24.5c-7.1,4.3-15.9,3-21.6-2.4
			C2296.1,1508.1,2284.1,1489.4,2277.3,1468.3z M2411.4,1779.3c-4.5,7.9-14.1,11-22.1,7.7l-55-22.1c-10.6-4.3-16.8-15.9-13.5-26.8
			c0.8-2.5,1.9-4.8,3.4-6.8l1.4-1.9l11.4-15c5.1-6.8,3.4-16.4-3.6-21l-13.4-8.7c-8-5.2-11.1-15.8-6.4-24.1c4.5-7.9,14.1-11,22.1-7.7
			l55,22.1c10.6,4.3,16.8,15.9,13.5,26.8c-0.8,2.5-1.9,4.8-3.4,6.8l-1.4,1.9l-11.4,15c-5.1,6.8-3.4,16.4,3.7,21l13.4,8.7
			C2413,1760.4,2416.1,1771,2411.4,1779.3z"/>
		<path d="M2393.6,2317.1c-2.8-23.5-22.8-41.7-46.9-41.7h-118.5c-26.1,0-47.3,21.2-47.3,47.3v118.5c0,24.2,18.3,44.2,41.7,46.9
			c2.8,23.5,22.7,41.7,46.9,41.7h118.5c26.1,0,47.3-21.2,47.3-47.3V2364C2435.3,2339.8,2417.1,2319.8,2393.6,2317.1z M2370.3,2441.1
			c0,13-10.6,23.6-23.6,23.6h-118.5c-13,0-23.6-10.6-23.6-23.6v-118.5c0-13,10.6-23.6,23.6-23.6h118.5c13,0,23.6,10.6,23.6,23.6
			V2441.1z"/>
		<path d="M2392.1,2031.3c-3.2-23.1-22.9-40.9-46.8-40.9h-117.1c-26.1,0-47.3,21.2-47.3,47.3v117.1c0,24.1,18.2,44.1,41.6,46.9
			c2.4,23.8,22.6,42.4,47,42.4h118.5c26.1,0,47.3-21.2,47.3-47.3v-118.5C2435.3,2053.6,2416.3,2033.3,2392.1,2031.3z M2368.9,2154.8
			c0,13-10.6,23.6-23.6,23.6h-117.1c-13,0-23.6-10.6-23.6-23.6v-117.1c0-13,10.6-23.6,23.6-23.6h117.1c13,0,23.6,10.6,23.6,23.6
			V2154.8z"/>
		<path d="M2316.5,2082.9c6.8-7.2,13.4-14.5,19.7-22.2c2.8-3.5,2.7-8.9-1-12.2c-3.2-2.9-8.2-2.9-11.6-0.3
			c-7.9,5.9-15.3,12.3-22.6,18.8c-2.1,1.9-4.2,3.8-6.3,5.7c-3.9,3.5-9.9,3.5-13.7-0.2c-2-1.9-4-3.9-6.1-5.8
			c-7.1-6.8-14.5-13.4-22.2-19.6c-3.5-2.8-8.9-2.7-12.3,1c-2.9,3.2-2.9,8.1-0.3,11.6c5.9,7.9,12.3,15.3,18.8,22.6
			c1.9,2.1,3.8,4.2,5.6,6.3c3.5,3.9,3.5,9.9-0.2,13.6c-2,2-3.9,4-5.9,6.1c-6.8,7.2-13.4,14.5-19.6,22.2c-2.8,3.5-2.7,8.9,1,12.2
			c3.2,2.9,8.1,2.9,11.6,0.3c7.9-5.9,15.3-12.3,22.6-18.8c2.1-1.9,4.2-3.8,6.3-5.6c3.9-3.5,9.9-3.5,13.7,0.2c2,2,4,3.9,6.1,5.8
			c7.2,6.8,14.5,13.4,22.2,19.6c3.5,2.8,8.9,2.7,12.3-1c2.9-3.2,2.9-8.1,0.3-11.6c-5.9-7.9-12.3-15.3-18.8-22.6
			c-1.9-2.1-3.8-4.2-5.6-6.3c-3.5-3.9-3.5-9.9,0.2-13.6C2312.7,2086.9,2314.6,2084.9,2316.5,2082.9z"/>
		<path d="M2325.7,2418.8c-6.4-1.3-12.7-1.9-19.1-2.4c-6.4-0.4-12.7-0.6-19.1-0.5c-6.4,0.1-12.7,0.2-19.1,0.7
			c-6.4,0.4-12.7,1.1-19.1,2.2c-3.6,0.6-6.6,3.5-7.3,7.3c-0.9,4.9,2.4,9.6,7.3,10.5c6.4,1.2,12.7,1.8,19.1,2.2
			c6.4,0.5,12.8,0.6,19.1,0.7c6.4,0.1,12.7-0.1,19.1-0.5s12.7-1.1,19.1-2.4c3.4-0.7,6.3-3.4,7.1-7.1
			C2333.8,2424.6,2330.6,2419.8,2325.7,2418.8z"/>
		<path d="M2100.9,1981.8h-1358c-6.5,0-11.8,5.3-11.8,11.8v718c-0.1,1.8-0.2,3.5-0.3,5.2c-0.1,1.8,0,3.5,0.3,5.1v65.9
			c0,6.5,5.3,11.8,11.8,11.8h1358c6.5,0,11.8-5.3,11.8-11.8v-794.2C2112.7,1987,2107.4,1981.8,2100.9,1981.8z M1627,2044.4
			c1.4-9.5,4-19,10.3-26.3c7.8-9,19.3-10.5,30.5-11.1c7.5-0.3,14.9-0.5,22-1.7h144c18.7,1.2,33.7,6.6,39.2,28.2
			c0.4,1.6,0.7,3.1,1.1,4.7c-5.6,104.1-7.7,190.4-8.4,244.7c-0.7,5.5-1.4,11-2.2,16.4c-1.5,10.9-2.9,21.3-14.4,26.1
			c-5.5,2.3-11.8,3.1-17.9,4.2l-185.7-12.4c-2.3-0.8-4.5-1.7-6.6-2.9c-10.7-5.9-12.8-15.2-14-26.5c-0.9-8.2-1.6-16.5-2.3-24.8
			C1622.9,2212.5,1623.8,2135.1,1627,2044.4z M804.3,2166.6c5.4-20.3,16-39.9,31.1-56.1c15-16.2,34.5-28.8,56-35.6
			c21.5-6.8,44.8-7.5,66.3-2.8c21.6,4.7,41.5,14.8,57.5,28.4c7.5,6.4,8.4,17.7,2,25.1c-5.3,6.2-14,7.9-21.1,4.6l-0.7-0.3
			c-15.1-7.1-30.2-12-45.5-13.8c-15.2-1.8-30.3-0.5-44.4,3.8c-14.1,4.5-27.3,12-38.7,22.2c-11.5,10.2-21.1,22.9-29.4,37.3l-0.4,0.6
			c-4.9,8.5-15.8,11.4-24.4,6.5C805.5,2182.5,802.3,2174.2,804.3,2166.6z M830.3,2308.6c15.7,0,28.5,12.8,28.5,28.5
			s-12.8,28.5-28.5,28.5c-15.7,0-28.5-12.8-28.5-28.5S814.6,2308.6,830.3,2308.6z M1013.2,2651.5l-62.1,60.5
			c-8.2,8-21.4,9.1-30.3,1.8c-2.1-1.7-3.8-3.7-5-5.8l-0.8-1.4l-18.6-31.3c-6.8-11.4-21.8-14.4-32.5-6.6l-27.6,20.4
			c-7.2,5.3-17.4,5-23.7-1.4c-7.2-7.3-6.7-18.6,0.2-25.3L875,2602c8.3-8,21.4-9.1,30.3-1.8c2.1,1.7,3.8,3.7,5,5.8l0.8,1.4l18.6,31.3
			c6.8,11.4,21.8,14.4,32.5,6.6l27.6-20.4c7.2-5.3,17.4-5,23.6,1.4C1020.6,2633.5,1020.1,2644.8,1013.2,2651.5z M1027.4,2416.1
			c-7.7,14.6-19.5,27-33.3,35.2c-13.8,8.3-29.4,12.7-44.5,12.7c-9.9-0.1-18-8.1-17.9-18.1c0-7.1,4.2-13.2,10.2-16.1l1.4-0.7
			c9.7-4.7,18.2-9.4,25.3-15.3c7.1-5.8,12.9-12.5,17.3-20.1c4.3-7.7,7-16.3,8-25.5c1.2-9.3,0.3-19.1-1.6-29.6l-0.2-1.3
			c-1.8-9.7,4.6-19.1,14.4-20.9c7.5-1.4,14.8,2.2,18.6,8.3c7.8,12.8,12.4,28.2,13,44.2C1038.8,2384.9,1035.1,2401.5,1027.4,2416.1z
			 M1144.6,2456.2c0-15.7,12.8-28.5,28.5-28.5s28.5,12.8,28.5,28.5s-12.8,28.5-28.5,28.5S1144.6,2471.9,1144.6,2456.2z
			 M1274.1,2712.6c-2.7,7.2-9.5,11.6-16.7,11.7c-15,0.1-30.6-3.8-44.6-11.4c-14.1-7.6-26.4-19.3-35-33.4
			c-8.6-14.1-13.2-30.5-13.2-46.6c0-16.1,4.1-31.8,11.9-44.7c5.1-8.5,16.2-11.2,24.7-6.1c6.1,3.7,9.2,10.4,8.6,17l-0.2,1.6
			c-1,10.8-1.2,20.5,0.2,29.6c1.4,9.1,4.1,17.5,8.4,25.2c4.4,7.6,10.4,14.3,17.8,20c7.4,5.7,16.2,10.1,26.2,13.8l1.2,0.5
			C1272.8,2693,1277.6,2703.3,1274.1,2712.6z M1429.3,2725.8c-15.7,0-28.5-12.8-28.5-28.5c0-15.7,12.8-28.5,28.5-28.5
			c15.7,0,28.5,12.8,28.5,28.5C1457.8,2713,1445.1,2725.8,1429.3,2725.8z M1480.8,2398.3c-0.5,12.3-10.4,22.7-22.7,22.7
			c-2,0-3.9-0.2-5.7-0.7l-1.2-0.3l-72.5-18.9c-12.5-3.3-25.1,5.2-26.8,18l-9.7,72.6c-1.3,9.4-9.4,16.7-18.9,16.1
			c-9.7-0.7-16.9-9-16.6-18.4l4.9-125.2c0.5-12.3,10.4-22.7,22.7-22.7c2,0,3.9,0.2,5.7,0.7l1.2,0.3l72.5,18.9
			c12.5,3.3,25.1-5.2,26.8-18l9.7-72.6c1.3-9.4,9.4-16.7,18.8-16.1c9.7,0.7,16.9,9,16.6,18.4L1480.8,2398.3z M1503.9,2157.5
			l-317.3,95c-8.1,2.4-16.7,1-23.6-3.9c-6.9-4.9-11-12.5-11.4-20.9c-1.6-33.8,5.5-57.5,17-77.4c8-12,19.1-21.2,33.2-25.8
			c7.2-2.4,14.5-3.5,21.5-5.7l10.4-0.9c5.6-0.6,11.1-1.1,16.6-1.7c11.1-1.3,22.2-2.8,33.2-4.8c4-0.8,7.1-4.2,7.2-8.5
			c0.2-4.9-3.7-9-8.6-9.2c-11.2-0.4-22.4-0.2-33.5,0.2c-2.4,0.1-4.8,0.2-7.2,0.3c-0.1,0-0.3-0.1-0.5-0.1c-2.8-0.5-7.2-1-9.5-3
			c-7-5.9-1.1-14.2,3.2-18.3c12.4-11.9,31.2-13.2,47.4-14.5c1.2-0.1,2.2-0.5,3-1.1c8.3-1,16.5-2.3,24.8-3.8c4-0.7,7.1-4.2,7.2-8.4
			c0.2-4.9-3.7-9.1-8.6-9.3c-8.5-0.3-16.9-0.3-25.4-0.1c-8.6-0.8-18.4-2.4-23-7.5c-0.1-0.1-0.2-0.3-0.4-0.5
			c-1-5.1,1.5-10.7,5.5-14.2c4.7-4.2,10.5-5.5,16.5-6.5c5.1-0.8,10.1-1.2,14.9-1.6h150.9c16.1,3.6,34.7-1.2,46.7,12.6
			c3.4,3.9,6.1,8.3,8.4,12.8l19.7,95C1525.6,2139.8,1517.5,2153.4,1503.9,2157.5z M1567.6,2662.9c-11.1-4.7-19.2-14.1-22.2-25.8
			c-13.1-51.6,7-94.8,30.4-144.8c3.6-6.1,7.6-11.8,14.3-14.4c6.6-2.5,13.6-2.7,20.6-3.1c6.6,0.5,13.2,0.9,19.8,1.2
			c11.2,0.5,22.3,0.9,33.5,0.6c4.1-0.1,7.8-3,8.6-7.2c0.9-4.8-2.2-9.5-7-10.5c-11-2.2-22.1-3.8-33.2-5.2c-2.2-0.3-4.4-0.5-6.6-0.8
			c-5.9-1.3-11.5-2.8-15.8-9c-1.7-2.3-3.1-4.7-4.7-7c-0.9-5.3,0.5-10.7,4.8-14.7c5.4-4.9,13.1-6.8,21.3-7.5c0.4,0,0.8,0.1,1.2,0.1
			c11.1,0.9,22.3,1.8,33.4,2.3c11.1,0.5,22.3,0.9,33.5,0.7c4.1-0.1,7.7-3,8.5-7.2c1-4.9-2.2-9.5-7-10.5c-11-2.2-22-3.8-33.1-5.2
			c-6.1-0.8-12.2-1.5-18.3-2.1c-2.3-0.7-4.7-1.4-7-2.2c-5.2-1.6-13.1-2.6-17.5-5.6c-3.8-2.6-5.4-8.3-6-14.8c0.1-0.8,0.3-1.6,0.4-2.5
			c3.3-13.4,9.5-24.6,26.3-25.7c9-0.6,17.7,0.6,26.4,0.6l142.5,9.5c12.3,2.8,25.1,2.9,37,7.5c11.4,4.4,18.7,13.5,24.2,23.8l21.2,75
			c4.8,17-2.5,34.9-17.8,43.6l-277.6,158.6C1591.1,2666.9,1578.7,2667.6,1567.6,2662.9z M1984.8,2597.3c-1.7,21-9.1,42.1-21.4,60.6
			c-12.3,18.4-29.7,33.9-50,43.8c-5.2,2.2-10.3,4.5-15.6,6.5c-2.7,0.8-5.4,1.5-8.1,2.3c-2.7,0.7-5.4,1.6-8.1,2l-8.3,1.3
			c-2.8,0.3-5.5,1-8.3,1l-8.3,0.2c-2.8,0-5.5,0.2-8.3-0.1c-22-1.2-43.2-7.9-61.3-18.6c-8.5-5-11.3-15.9-6.3-24.4
			c4.3-7.2,12.8-10.3,20.5-8l0.7,0.2c15.9,4.8,31.7,7.4,47.1,6.7c1.9,0.1,3.8-0.3,5.7-0.4l5.7-0.6c1.9-0.1,3.7-0.7,5.6-1l5.5-1.1
			c3.6-0.9,7.1-2.4,10.7-3.4c3.5-1.4,6.8-3,10.2-4.4c13.1-6.9,24.8-16.5,34.3-28.4c9.7-11.8,17.1-25.8,23.4-41.3l0.3-0.8
			c3.7-9.1,14.1-13.5,23.3-9.8C1981.1,2582.3,1985.4,2589.7,1984.8,2597.3z M2004.6,2456.2c-15.7,0-28.5-12.8-28.5-28.5
			c0-15.7,12.8-28.5,28.5-28.5c15.7,0,28.5,12.8,28.5,28.5C2033.1,2443.4,2020.3,2456.2,2004.6,2456.2z M2035.9,2210
			c-2.1,1.6-4.4,2.7-6.8,3.4l-2.3,0.7l-20.3,6c-6.9,2-10.7,9.5-8.2,16.3l6.4,17.1c3.3,9-0.5,19.4-9.2,23.2
			c-8.4,3.7-17.8,0.5-22.4-6.9l-31.1-50.5c-6-9.7-4.1-22.8,5.1-29.6c2.1-1.6,4.4-2.7,6.8-3.4l2.3-0.6l20.3-6
			c6.9-2,10.7-9.5,8.2-16.3l-6.3-17.1c-3.3-8.9,0.5-19.4,9.2-23.2c8.4-3.7,17.8-0.4,22.4,6.9l31.1,50.5
			C2047,2190.1,2045.1,2203.2,2035.9,2210z M2089.1,2776h-0.2c0.1-0.1,0.1-0.1,0.2-0.2V2776z"/>
		<path d="M1856.6,2458c-12,5.8-23.8,12-35.6,18.2c-11.8,6.2-23.5,12.6-35.2,19c-23.3,12.9-46.6,25.9-69.7,39.1
			c-23.1,13.3-46.1,26.7-69,40.3c-11.5,6.8-22.9,13.6-34.2,20.7c-11.3,7-22.7,14-33.8,21.3c-3.7,2.4-5.1,7.3-3.1,11.4
			c2.2,4.4,7.5,6.2,11.9,4c12-5.9,23.8-12.1,35.6-18.3c11.8-6.2,23.5-12.5,35.2-19c23.3-12.9,46.6-25.9,69.8-39
			c23.1-13.2,46.1-26.6,69.1-40.2c11.5-6.8,22.9-13.6,34.2-20.7c11.3-7,22.6-14.1,33.8-21.5c3.6-2.4,5.1-7.2,3.1-11.3
			C1866.4,2457.7,1861,2455.8,1856.6,2458z"/>
		<path d="M2353.6,486.3h-672.4c-6.5,0-11.8,5.3-11.8,11.8v635.1c-0.4,1.8-0.4,3.6,0,5.3v32c0,6.5,5.3,11.8,11.8,11.8h672.4
			c6.5,0,11.8-5.3,11.8-11.8V498.1C2365.4,491.6,2360.1,486.3,2353.6,486.3z M2168.3,644.8c2.5-15.9,9-30.8,18.8-42.3
			c6.4-7.6,17.8-8.6,25.3-2.2c5.4,4.6,7.5,11.7,5.9,18.2l-0.4,1.5c-2.7,10.5-4.4,20-4.4,29.3c-0.1,9.2,1.3,17.9,4.4,26.2
			c3.2,8.2,8,15.8,14.4,22.5c6.4,6.8,14.5,12.5,23.8,17.7l1.1,0.6c8.6,4.8,11.7,15.8,6.8,24.4c-3.8,6.7-11.1,10-18.3,8.9
			c-14.8-2.2-29.6-8.5-42.3-18.3c-12.7-9.7-23.1-23.2-29.4-38.4C2167.8,677.7,2165.8,660.7,2168.3,644.8z M2088.2,755.8
			c29.2,16.5,48.9,47.9,48.9,83.8c0,16.2-4,31.4-11.1,44.8c-8.3,9.4-17.7,15.8-30.5,9.3c-0.6-0.3-1.3-0.5-1.9-0.6
			c-35.3-20.9-33.4-51.6-31.4-86.2c0.8-14.1,1.7-28.9-0.8-42.7C2059.6,744.9,2076.6,751.9,2088.2,755.8z M2016.2,573.6
			c15.7,0,28.5,12.8,28.5,28.5s-12.8,28.5-28.5,28.5s-28.5-12.8-28.5-28.5S2000.5,573.6,2016.2,573.6z M1996.6,754.2
			c10.4-2.5,22.7-5.9,32.4,0.6c4.8,3.2,7.5,8,9.2,13.3c1.9,9.9,1.4,22.2,0.5,37.4c-2,33.3-4.5,76.4,38.6,105c2.7,2.8,4.7,5,4.9,9.4
			c0.2,3.8-1.1,6.1-3.3,8c-11.7,5-24.5,7.8-38,7.8c-53.1,0-96.2-43.2-96.2-96.2C1944.7,802.4,1965.8,770.2,1996.6,754.2z
			 M1739.2,708.9c1.2-1.5,2.6-2.8,4.1-3.9l1-0.7l61.4-44.5c10.1-7.3,11.5-21.9,3-31l-50.4-54.3c-6.2-6.6-7-16.9-1.2-23.9
			c6.6-8,18.2-8.5,25.5-2l93.5,83.4c9.2,8.2,10.9,22.4,3.1,31.9c-1.3,1.5-2.6,2.8-4.1,3.9l-1,0.7l-61.4,44.5
			c-10.1,7.3-11.5,21.9-3,31l50.5,54.3c6.2,6.6,7,17,1.2,23.9c-6.6,8-18.2,8.4-25.5,2l-93.5-83.4
			C1733.1,732.7,1731.4,718.5,1739.2,708.9z M1693,509.9h0.3c-0.1,0.2-0.2,0.3-0.3,0.4V509.9z M2143.9,1140.4
			c-2.4,13.5-14,16.8-26.6,18.3h-391.5c-12.4-1.3-23.9-4.6-25.7-13.6c-3.1-15.4,6.5-37.3,12.7-50.9c0.5-1.2,0.7-2.3,0.7-3.5
			c2-4.9,3.9-9.9,5.9-14.9l8.5-21.8c1.7-4.3-0.3-9.3-4.5-11.3c-4.4-2-9.7-0.1-11.8,4.3l-0.1,0.2l-6.6,14.1c-1.7,2.5-3.9,4.6-6.5,4.1
			c-2.9-0.6-4.4-3.9-5.4-7V924.8c0.1-0.6,0.1-1.2,0.1-1.8c0-0.5-0.1-1-0.1-1.5v-22.5c1.3-11.9,5.6-22.9,17.7-26.6
			c3.2-1,6.8-1.2,10.4-1c17.7,4.2,35.6,8,54.1,11.8c21.3,4.5,43,9,65,14.4c10.7,5.1,23.4,6.3,29.8,17.1c0.8,1.3,1.5,2.7,2.3,4
			c13.4,34.9,36.4,62.4,67.4,80.2c24,13.8,51.9,20.8,80.5,20.8c5.4,0,10.8-0.3,16.2-0.8c15.1,0.1,30.9-3.5,42.8,7.5
			c5.8,5.3,10.2,11.3,15.6,15.9c20.6,26.4,37,56.1,49.5,89.7C2144.5,1134.8,2144.4,1137.6,2143.9,1140.4z M2282.7,1012.8
			c-1.8,0.7-3.7,1-5.6,1.2l-1.7,0.1l-39.6,3c-11.4,0.9-19.6,11.4-17.6,22.7l6.6,37c1.6,8.8-3.2,17.8-11.7,20.6
			c-9.7,3.2-19.6-2.3-22.6-11.4l-26.6-82.3c-3.8-11.7,2-24.8,13.6-28.8c1.8-0.6,3.7-1,5.6-1.2l1.7-0.1l39.6-3
			c11.4-0.9,19.6-11.4,17.6-22.7l-6.6-37c-1.6-8.8,3.2-17.8,11.7-20.6c9.7-3.2,19.6,2.3,22.6,11.4l26.6,82.3
			C2300.1,995.7,2294.3,1008.8,2282.7,1012.8z"/>
		<path d="M1590.8,355.1h-385.5c-3.1-0.5-6.3-0.8-9.5-0.9c-8.8-0.3-17.3,0.7-25.7-2.5c-7.7-3-13.7-8.6-19.5-14.3l-19.7-28.1
			c-8.8-12.5-24.8-17.2-38.9-11.5l-23.7,9.6c-2.5,0.6-5,1.4-7.7,2.2c-12.5,3.6-21.6,3.3-33.2-2.6c-9.2-4.7-17.1-9.8-19.7-20.3
			c-1.3-5.3-1.4-10.5-2.2-15.7l-1.5-29.3c-0.8-15.3-11.8-27.8-26.8-30.4l-58-10.2c-15-2.7-29.7,5.3-35.6,19.4l-12.9,30.5
			c-6.4,9.5-13.1,18-25,21.5c-15.5,4.6-27.4,0.7-39.2-6.9l-24.9-22.6c-11.3-10.3-28-11.3-40.5-2.5L693,274
			c-12.5,8.8-17.2,24.8-11.5,38.9l9.2,22.5c0.9,3.9,2.1,8.5,0.6,12.2c-1.8,4.5-6.3,6.5-11,7.4H429.7c-6.5,0-11.8,5.3-11.8,11.8
			v803.6c0,6.5,5.3,11.8,11.8,11.8h106.9c6.2,0.5,12.2,1.8,17.9,4.5l23.9,20.4c11.6,9.9,28.2,10.4,40.4,1.4l9.6-7.1
			c14.5-7.3,32.8-13.4,42.7,3.7c0.9,1.6,1.7,3.1,2.5,4.6l5.8,18.5c4.3,13.7,16.7,22.7,30.9,22.7c0.9,0,1.7,0,2.6-0.1l32.7-2.6
			c15.2-1.2,27.3-12.5,29.5-27.6l1.4-9.3c0.3-0.6,0.5-1.3,0.5-2c1.6-15.8,15.9-24.4,30.6-24.3c7.2,0.1,13.7,2.5,20.3,4.7l3.8,2
			c8.2,4.3,17.4,4.8,25.6,2c0.9,0,2-0.3,3-1c0.3-0.2,0.7-0.4,1-0.7c1.2-0.6,2.3-1.3,3.4-2c9.8-5.2,20.8-6.5,31.9-7.9h694.3
			c6.5,0,11.8-5.3,11.8-11.8V366.9C1602.7,360.4,1597.4,355.1,1590.8,355.1z M1192.6,701.8c0,15.7-12.8,28.5-28.5,28.5
			c-15.7,0-28.5-12.8-28.5-28.5c0-15.7,12.8-28.5,28.5-28.5C1179.9,673.4,1192.6,686.1,1192.6,701.8z M474.6,521.2
			c0-15.7,12.8-28.5,28.5-28.5c15.7,0,28.5,12.8,28.5,28.5c0,15.7-12.8,28.5-28.5,28.5C487.3,549.7,474.6,536.9,474.6,521.2z
			 M485.5,808.1c-1.4-7,1.5-13.8,6.8-17.9l1.3-1c8.6-6.5,15.9-12.9,21.7-20.1c5.8-7.1,10.1-14.9,12.9-23.2
			c2.7-8.4,3.6-17.3,2.8-26.6c-0.7-9.3-3.5-18.8-7.5-28.7l-0.5-1.2c-3.7-9.2,0.7-19.6,9.8-23.3c7.1-2.9,14.9-0.8,19.8,4.4
			c10.2,11,17.8,25.1,21.7,40.7c3.9,15.5,3.6,32.5-1,48.3c-4.6,15.8-13.7,30.3-25.5,41.2c-11.9,10.9-26.3,18.4-41.1,21.4
			C496.9,824.1,487.4,817.8,485.5,808.1z M906.6,1035.9l-37.4,11.7c-4.1,1.3-7.2,4.7-8.1,9c-2.3,11.4-5.9,22.6-10.8,33.2
			c-1.9,4-1.3,8.8,1.5,12.2l23.1,31.1c2.5,3.3,2.3,7.8-0.4,10.9l-21.3,24.9c-2.7,3.1-7.1,4-10.7,2.1l-34.2-17.9
			c-3.9-2.3-8.7-2.1-12.5,0.4c-9.8,6.5-20.2,11.8-31.1,15.8c-4,1.5-7,5.1-7.6,9.4l-5.7,38.8c-0.6,4.1-3.9,7.1-8,7.5l-32.7,2.6
			c-4.1,0.3-7.8-2.2-9-6.1l-11.7-37.4c-1.3-4.1-4.7-7.2-9-8.1c-11.3-2.3-22.4-5.9-33-10.7c-3-1.4-6.5-1.6-9.8-0.2
			c-1,0.4-1.8,0.9-2.6,1.5l-31.2,23.2c-3.3,2.5-7.8,2.3-10.9-0.4l-24.9-21.3c-3.1-2.7-4-7.1-2.1-10.7l18.2-34.7
			c2.1-4,1.7-8.7-0.8-12.3c-6.4-9.6-11.6-20-15.6-30.8c-1.3-3.5-4.2-6.2-7.8-7.3c-0.5-0.1-1-0.3-1.5-0.3l-38.7-5.7
			c-4.1-0.6-7.1-3.9-7.5-8l-2.6-32.7c-0.3-4.1,2.2-7.8,6.1-9l37.4-11.7c4.1-1.3,7.2-4.7,8.1-9c2.3-11.4,5.9-22.6,10.8-33.2
			c1.9-4.2,1.2-8.9-1.5-12.3l-23.1-31.1c-2.4-3.3-2.3-7.8,0.4-10.9l21.3-24.9c2.7-3.1,7.1-4,10.7-2.1l34.4,18
			c3.6,2,8.1,2.1,11.9-0.2c0.2-0.1,0.4-0.2,0.5-0.3c9.7-6.4,20.1-11.7,31-15.8c4-1.5,6.9-5.1,7.6-9.4l5.7-38.7
			c0.6-4.1,3.9-7.1,8-7.4l32.7-2.6c4.1-0.3,7.8,2.2,9,6.1l11.7,37.3c0.1,0.4,0.3,0.8,0.4,1.2c1.5,3.6,4.7,6.2,8.5,6.9
			c11.2,2.3,22.3,5.8,32.7,10.6c4,2,8.8,1.7,12.4-1l31.4-23.3c3.3-2.5,7.8-2.3,10.9,0.4l24.9,21.3c3.1,2.7,4,7.1,2.1,10.7l-18,34.3
			c-0.4,0.6-0.6,1.3-0.9,2c-1.3,3.7-0.6,7.7,1.6,10.8c6.3,9.6,11.6,19.9,15.6,30.7c1.5,4,5.1,7,9.4,7.6l38.7,5.7
			c4.1,0.6,7.1,3.9,7.5,8l2.6,32.7C913.1,1031,910.5,1034.7,906.6,1035.9z M908.3,733.3c-0.5,0.7-0.9,1.5-1.2,2.2l-23.7,56.2
			c-1.6,3.8-5.6,6-9.8,5.3l-58-10.3c-4.1-0.7-7.1-4.2-7.3-8.3l-3-61.2c-0.2-4.5-3-8.4-7-10.2c-2.9-1.4-5.7-2.9-8.6-4.4
			c-11.7-6.4-22.9-13.9-33.2-22.3c-3-2.5-7.1-3.3-10.9-2.1c-0.4,0.1-0.7,0.2-1.1,0.4l-56.8,23.1c-3.9,1.6-8.3,0.3-10.6-3.2
			l-33.7-48.2c-2.4-3.4-2.1-8,0.7-11.1l41.2-45.5c2.9-3.2,3.8-7.7,2.4-11.8c-5.5-15.8-9.1-32.2-10.8-48.8c-0.5-4.6-3.6-8.3-7.6-9.8
			l-56-23.6c-3.9-1.6-6-5.6-5.3-9.8l10.3-58c0.7-4.1,4.2-7.1,8.3-7.3l60.8-3c4.1-0.1,8-2.3,10.2-6.1c0.1-0.2,0.2-0.5,0.3-0.7
			c6.2-12.7,13.6-24.8,22.2-36.1c1.5-2,3.1-4,4.7-6c2.7-3.3,3.4-7.9,1.8-11.9l-2.3-5.8l-20.8-51c-1.6-3.9-0.3-8.3,3.1-10.6
			l48.2-33.7c3.4-2.4,8-2.1,11.1,0.7l45.4,41.1c0.4,0.4,0.9,0.8,1.4,1.1c3.1,2,6.9,2.5,10.4,1.3c15.6-5.4,31.8-9,48.3-10.8
			c4.5-0.2,8.5-3,10.3-7.2l23.8-56.5c1.6-3.8,5.6-6,9.8-5.3l58,10.2c4.1,0.7,7.1,4.2,7.3,8.3l3,60.8c0,0.7,0.1,1.5,0.3,2.2
			c0.8,3.9,3.4,7,6.9,8.5c14.8,7.3,28.9,16.2,41.7,26.7c3.4,2.8,8.1,3.4,12.2,1.7l56.5-23c3.9-1.6,8.3-0.3,10.7,3.1l22.6,32.4
			l11.1,15.9c2.4,3.4,2.1,8-0.7,11.1l-41.2,45.5c-2.9,3.2-3.8,7.7-2.4,11.8c5.5,15.7,9.1,32.1,10.8,48.8c0.5,4.4,3.4,8.2,7.5,9.8
			l56.1,23.7c3.8,1.6,6,5.6,5.3,9.8l-10.2,58c-0.7,4.1-4.2,7.1-8.3,7.3l-60.6,3h-0.1c-4.5,0-8.6,2.6-10.6,6.6
			c-7.3,15-16.4,29.2-26.9,42.1c-2.7,3.4-3.4,7.9-1.8,11.9l23.1,56.9c1.6,3.9,0.3,8.2-3.1,10.6l-48.2,33.7c-3.4,2.4-8,2.1-11.1-0.7
			L977.8,720c-3.2-3.1-7.8-4.1-12.1-2.7c-15.7,5.4-32,9.1-48.5,10.8C913.7,728.4,910.4,730.2,908.3,733.3z M1254.9,961.8l-4.4,23
			c-0.5,2.7-2.8,4.6-5.4,4.7l-29.1,1c-4.4,0-8.5,2.5-10.6,6.5c-4,8-9,15.5-14.7,22.3c-2.8,3.3-3.5,7.9-1.9,11.9l10.7,27.5
			c1,2.5,0.1,5.3-2.1,6.9l-19.3,13.1c-2.2,1.5-5.2,1.3-7.2-0.6l-21.6-20.1c-3.2-2.9-7.7-3.9-11.8-2.6c-8.4,2.8-17.1,4.6-25.9,5.4
			c-3.8,0.3-7.3,2.3-9.4,5.7c-0.3,0.5-0.5,1-0.8,1.5l-11.8,26.8c-1.1,2.5-3.7,3.8-6.3,3.3l-23-4.4c-2.7-0.5-4.6-2.8-4.7-5.4
			l-1.1-29.5c-0.2-4.5-2.8-8.4-6.8-10.3c-7.9-4-15.3-8.9-22.1-14.6c-2.7-2.2-6.1-3.2-9.5-2.6c-0.8,0.1-1.6,0.3-2.4,0.6l-27.5,10.7
			c-2.5,1-5.3,0.1-6.9-2.1l-13.1-19.3c-1.5-2.2-1.3-5.2,0.5-7.2l20.1-21.6c2.9-3.2,3.9-7.7,2.6-11.8c-2.8-8.5-4.6-17.3-5.4-26.2
			c0-0.4-0.1-0.9-0.2-1.3c-0.8-4.1-3.6-7.2-7.2-8.7l-26.6-11.7c-2.5-1.1-3.8-3.7-3.3-6.4l4.4-22.9c0.5-2.7,2.8-4.6,5.5-4.7l29.2-1
			c4,0,7.8-2.1,10-5.8c0.2-0.3,0.3-0.6,0.5-0.9c4-8,9-15.4,14.7-22.3c2.8-3.3,3.5-7.9,2-11.9l-10.7-27.5c-1-2.5-0.1-5.3,2.1-6.8
			l19.3-13.1c2.2-1.5,5.2-1.3,7.2,0.5l21.6,20.1c0.2,0.2,0.5,0.4,0.7,0.6c3.1,2.5,7.3,3.3,11.1,2c8.3-2.8,17-4.6,25.8-5.4
			c4.4-0.2,8.4-2.9,10.2-7l11.8-27c1.1-2.5,3.7-3.8,6.4-3.3l22.9,4.4c2.7,0.5,4.6,2.8,4.7,5.5l1,29.2c0,0.5,0,1.1,0.1,1.6
			c0.6,4,3.2,7.4,6.8,9c7.8,4,15.2,8.9,22,14.5c3.3,2.8,7.9,3.5,11.9,1.9l27.5-10.7c2.5-1,5.3-0.1,6.9,2.1l13.1,19.3
			c1.5,2.2,1.3,5.2-0.6,7.2l-20.1,21.6c-2.9,3.2-3.9,7.7-2.6,11.8c2.8,8.5,4.6,17.3,5.4,26.2c0.4,4.4,3.2,8.2,7.3,9.9l26.7,11.7
			C1254,956.6,1255.4,959.2,1254.9,961.8z M1257.1,522c-5-6.5-4.9-15.3-0.2-21.6c12.6-16.8,29.8-31.1,49.8-40.4
			c20-9.4,42.8-13.8,65.3-12c22.5,1.8,44.3,9.8,62.5,22.3c18.3,12.4,32.9,29.2,42.7,47.8c4.6,8.7,1.2,19.5-7.5,24.1
			c-7.3,3.8-16,2.1-21.3-3.7l-0.5-0.5c-11.3-12.2-23.6-22.5-37-29.8c-13.4-7.4-27.9-11.8-42.7-13.1c-14.8-1.1-29.8,0.9-44.2,6.1
			c-14.4,5.1-28.1,13.3-41.3,23.5l-0.6,0.5C1274.3,531.2,1263.1,529.8,1257.1,522z M1475.7,1113.1l-83.6,22.8
			c-11.1,3-23.1-2.4-27.4-13.1c-1-2.5-1.5-5-1.6-7.5l0-1.7l-1.3-41.4c-0.3-10.5-9.7-18.4-20.1-17.1l-39,5.2c-8.9,1.2-17.6-4-20-12.6
			c-2.8-9.9,3.2-19.5,12.4-22l83.5-22.8c11.9-3.2,24.6,3.2,28.2,14.9c0.6,1.9,0.9,3.8,0.9,5.6l0,1.7l1.3,41.4
			c0.3,10.5,9.7,18.4,20.1,17.1l39-5.2c8.8-1.2,17.6,4,20,12.6C1490.9,1100.9,1485,1110.6,1475.7,1113.1z M1483.5,930.1
			c-0.6,2.2-0.9,4.5-1.2,6.9c-0.7,4.9-1.1,9.8-1.2,14.6c-2.5,12-13.2,11.8-23.5,8.4c-78.7-55.4-137.2-122.2-174.3-199.1
			c-35.6-74-16.9-126.5,17.5-145.8c37.9-21.2,100-5.8,145.1,64.7c32.9,51.3,69,91.2,109.8,121.1c1.8,1.9,3.5,3.9,4.2,5.7
			c4.3,11.4-5.4,19.9-13.9,27.9c-23.5,17-43.6,41.9-54.9,70C1487.6,913,1485.2,921.6,1483.5,930.1z M1579,995.4
			c-1,4.8-2.4,9.3-4.8,12.5c-5.4,7.5-18.3,6.3-30,4.1c-5.9-3-11.6-6.1-17.3-9.2c-3.1-3.2-6.1-6.5-8.9-10c-6-7.3-9.4-15.6-11.9-24.3
			c-3-17.5-0.7-36.3,6.9-55.2c8-19.9,21-37.8,36.5-51.6c6.1-3.8,12.8-5.6,19.9-2.9c4.9,1.9,7.7,7.1,9.6,13.6V995.4z M1579,610.2
			c0-0.1-0.1-0.3-0.1-0.4c0,0,0.1,0,0.1,0V610.2z"/>
		<path d="M1495.9,2107.1c-13.4,3.4-26.8,6.8-40.1,10.5c-13.3,3.5-26.6,7.2-39.9,11c-26.6,7.4-53.2,14.9-79.6,22.8
			c-26.4,7.9-52.8,16-79.1,24.6c-13.1,4.2-26.3,8.4-39.4,12.8c-13.1,4.3-26.2,8.8-39.2,13.4c-4.2,1.5-6.8,6-5.6,10.5
			c1.2,4.8,6,7.7,10.7,6.5c13.4-3.3,26.8-6.8,40.1-10.4c13.4-3.5,26.6-7.2,39.9-10.9c26.6-7.3,53.1-15.1,79.5-23
			c26.4-7.9,52.7-16.2,79-24.7c13.1-4.1,26.3-8.4,39.4-12.8c13.1-4.3,26.2-8.7,39.2-13.3c4.3-1.5,6.8-6.1,5.7-10.5
			C1505.4,2108.8,1500.6,2105.9,1495.9,2107.1z"/>
		<path d="M978.7,1258.6c-9-4-19.1-2.4-26.5,4.2l-55.5,50c-4.3,3.9-9.8,6-15.6,6H496.2c-36.5,0-67.1,25.4-75.4,59.4
			c-33.3,9.2-56.8,39.3-56.8,74.7v388.9c0,42.8,34.8,77.6,77.5,77.6h419.5c36.1,0,67.1-25,75.4-59.4c32.7-9.1,56.8-39.1,56.8-74.7
			v-504.2C993.3,1271.3,987.7,1262.6,978.7,1258.6z M969.6,1785.3c0,29.7-24.2,53.9-53.9,53.9H496.2c-29.7,0-53.9-24.2-53.9-53.9
			v-388.9c0-29.7,24.2-53.9,53.9-53.9h384.9c11.6,0,22.8-4.3,31.4-12.1l44.7-40.3c2.9-2.1,6.6-4,9.5-1.9c2.8,2,2.2,7.3,2.3,10.1
			c0,6.2,0.1,12.3,0.6,18.4V1785.3z"/>
		<path d="M528.1,1440.7c14.8,0.7,29.7,1.2,44.5,1.6c14.8,0.5,29.6,0.7,44.5,1c29.6,0.6,59.3,0.8,88.9,0.9c29.7-0.1,59.3-0.3,89-0.9
			c14.8-0.2,29.6-0.5,44.5-0.9c14.8-0.4,29.7-0.9,44.5-1.6c4.5-0.2,8.2-3.9,8.5-8.4c0.2-4.9-3.6-9.1-8.5-9.3
			c-14.8-0.7-29.6-1.2-44.5-1.6c-14.8-0.5-29.6-0.7-44.5-1c-29.7-0.6-59.3-0.8-89-0.9c-29.6,0.1-59.3,0.3-88.9,0.9
			c-14.8,0.2-29.7,0.5-44.5,1c-14.8,0.4-29.7,0.9-44.5,1.6c-4.5,0.2-8.2,3.8-8.4,8.4C519.4,1436.3,523.2,1440.4,528.1,1440.7z"/>
		<path d="M883.8,1557.2c-48.7-2.3-97.5-2.8-146.2-2.9l-36.5,0.1c-12.2,0.1-24.4,0.2-36.6,0.5c-24.4,0.4-48.7,1.2-73.1,2.3
			c-4.5,0.2-8.2,3.8-8.4,8.4c-0.2,4.9,3.5,9,8.4,9.3c24.4,1.2,48.7,1.9,73.1,2.3c12.2,0.3,24.4,0.3,36.6,0.5l36.5,0.1
			c48.7-0.1,97.5-0.7,146.2-3c4.5-0.2,8.2-3.8,8.4-8.4C892.5,1561.6,888.7,1557.4,883.8,1557.2z"/>
		<path d="M743.3,1510c15.6,0.5,31.2,0.7,46.9,0.7c15.6,0.1,31.2-0.1,46.8-0.4c15.6-0.5,31.2-1.1,46.8-2.5c4.2-0.4,7.7-3.7,8.1-8.1
			c0.4-4.9-3.2-9.2-8.1-9.7c-15.6-1.4-31.2-2-46.8-2.5c-15.6-0.4-31.2-0.6-46.8-0.4c-15.6,0.1-31.2,0.3-46.9,0.7
			c-15.6,0.4-31.2,1.1-46.8,2.2c-4.4,0.3-7.9,3.8-8.3,8.3c-0.3,4.9,3.4,9.1,8.3,9.5C712.1,1508.8,727.7,1509.5,743.3,1510z"/>
		<path d="M883.8,1766.5c-6.6-1.4-13.3-2-19.9-2.5c-6.6-0.4-13.3-0.6-19.9-0.5c-6.6,0.1-13.3,0.3-19.9,0.7
			c-6.6,0.5-13.3,1.1-19.9,2.2c-3.7,0.6-6.7,3.5-7.4,7.4c-0.8,4.9,2.5,9.5,7.4,10.4c6.6,1.1,13.3,1.7,19.9,2.2
			c6.6,0.5,13.3,0.7,19.9,0.7c6.6,0.1,13.3-0.1,19.9-0.4c6.6-0.5,13.3-1.1,19.9-2.5c3.5-0.7,6.3-3.4,7.1-7.1
			C891.9,1772.3,888.7,1767.5,883.8,1766.5z"/>
		<path d="M775.2,1695.2l-54.1-46.1c-3.7-3.1-9.3-2.8-12.5,1c-3,3.6-2.5,9,0.8,12.3l29.2,29.4c6.6,6.6,6.6,17.4,0,24.1l-29.5,29.7
			c-3.4,3.4-3.5,9,0.1,12.6c3.3,3.3,8.8,3.2,12.4,0.1l53.7-45.8c0.4-0.4,0.9-0.8,1.3-1.3C780.5,1706.5,779.9,1699.3,775.2,1695.2z"
			/>
		<path d="M669.7,1625c-4.5-1.9-9.7,0.2-11.6,4.8c-4.8,11.6-9.1,23.3-13.2,35.1c-4.1,11.8-8,23.6-11.7,35.5
			c-3.7,11.9-7.3,23.9-10.5,35.9c-3.3,12.1-6.4,24.2-8.8,36.5c-0.8,4,1.3,8.3,5.3,10c4.5,1.9,9.7-0.2,11.7-4.7
			c4.9-11.6,9.2-23.3,13.4-35s7.9-23.7,11.6-35.6c3.6-11.9,7.2-23.9,10.4-35.9c3.3-12.1,6.4-24.1,9-36.4
			C675.9,1630.9,673.7,1626.7,669.7,1625z"/>
		<path d="M512.2,1712.6l54.1,46.1c3.7,3.1,9.3,2.8,12.5-1c3-3.6,2.5-9-0.8-12.3l-29.2-29.4c-6.6-6.7-6.6-17.4,0-24.1l29.5-29.7
			c3.4-3.4,3.5-9-0.1-12.6c-3.3-3.3-8.8-3.2-12.4-0.1l-53.7,45.8c-0.4,0.4-0.9,0.8-1.3,1.3C506.9,1701.3,507.5,1708.5,512.2,1712.6z
			"/>
		<ellipse transform="matrix(0.174 -0.9847 0.9847 0.174 235.9361 1302.5037)" cx="894.4" cy="510.6" rx="119.8" ry="119.8"/>
		<ellipse transform="matrix(0.1877 -0.9822 0.9822 0.1877 -33.2759 1848.3657)" cx="1100.9" cy="944.3" rx="67" ry="67"/>
		<ellipse transform="matrix(0.6496 -0.7603 0.7603 0.6496 -530.8985 900.5283)" cx="711.6" cy="1026.2" rx="85.5" ry="85.5"/>
		<path d="M651.9,2255.5l-0.8-3.8c-0.9-5.3-2.8-9.7-4.5-14.3c-1-2.1-2.1-4.1-3.1-6.2c-0.5-1-1-2.1-1.6-3l-1.7-2.8
			c-9.4-14.8-20.4-26.1-31.5-36.7c-11.2-10.5-22.7-20.2-34.4-29.3c-5.8-4.6-11.8-9.1-17.5-13.5c-5.5-4.3-11.1-8.5-16.4-12.9
			c-10.6-8.8-20.8-18-29.4-27.8c-2.1-2.4-4.3-4.9-6.1-7.4c-0.9-1.2-2-2.5-2.8-3.7l-2.5-3.7c-3.1-5-5.6-10-6.9-14.4
			c-1.3-4.5-1.2-8-0.3-11.3c1-3.4,2.9-6.3,5.4-8.6c2.5-2.3,6.2-3.9,10.6-4.9c4.5-0.9,9.9-0.9,15.5-0.3c11.4,1.4,23.7,5.6,36.1,11
			l0.2,0.1c5.9,2.6,13.1,0.8,17.1-4.6c4.7-6.3,3.4-15.3-2.9-20c-12.5-9.3-27.1-17-44.2-21.1c-8.6-1.9-17.9-2.9-27.7-1.5
			c-9.8,1.4-20.2,5.2-28.7,12.3c-8.6,7-14.8,16.8-17.8,27.3c-3.1,10.7-2.6,22.2,0.1,31.6c2.6,9.5,6.9,17.5,11.4,24.8l3.5,5.3
			c1.2,1.8,2.5,3.3,3.7,5c2.5,3.4,5.1,6.4,7.7,9.4c10.5,12,21.9,22.3,33.5,32.1c5.8,4.9,11.7,9.5,17.7,14.1
			c5.7,4.5,11.3,8.7,16.8,13.1c11.1,8.7,21.7,17.8,31.6,27.2c9.8,9.3,18.9,19.2,25,29l1.2,1.8c0.4,0.6,0.6,1.2,0.9,1.8l1.8,3.5
			c0.7,2.2,1.8,4.5,2,6.4c0.8,4,0.5,7-0.7,10.5c-0.5,0.9-0.9,1.8-1.3,2.7c-0.4,0.8-0.7,1.1-0.9,1.5c-0.6,0.6-0.8,0.8-1.5,1.2
			c-1.2,0.7-5.4,1.3-10.6,0.7c-5.3-0.6-11.2-2.1-17.3-4c-6.1-2-12.3-4.4-18.6-7c-12.5-5.4-25-11.6-37.4-18.3
			c-12.5-6.7-24.3-13.8-37.7-21.2c-13.1-7.2-26.6-14.1-40.7-20.2c-14.2-6-28.9-11.5-45.4-14.7c-8.3-1.6-17.1-2.6-26.7-2
			c-4.8,0.3-9.9,1-15.2,2.6c-5.2,1.6-10.7,3.9-15.7,7.5c-5,3.5-9.4,8.1-12.7,13.2c-3.3,5-5.6,10.4-7.1,15.5
			c-1.4,5.2-2.2,9.9-2.5,15.4c-0.2,5.4,0.3,10.9,1.4,16.1c2.4,10.4,6.9,19.1,11.7,26.5c4.9,7.4,10.2,13.7,15.6,19.6
			c10.9,11.7,22.2,21.7,33.7,31.4c11.5,9.6,23.1,18.7,34.8,27.6c23.4,17.8,47.1,34.7,70.9,51.5l35.7,25l17.8,12.4l7.7,5.7
			c2.4,2.1,4.9,4.1,7.3,6.2c9.3,8.5,17.3,18.2,22.9,28.4c0.8,1.3,1.3,2.6,1.9,3.9c0.6,1.3,1.3,2.6,1.8,3.9c0.9,2.6,2,5.2,2.5,7.8
			c1.3,5.1,1.9,10.2,1.2,14.4c-0.3,2.1-0.7,4.1-1.4,5.7c-0.2,1-0.7,1.6-1.1,2.4c-0.3,0.8-0.9,1.5-1.4,2.3c-2.2,2.7-3.8,3.8-7.1,4.7
			c-3.4,0.9-8.4,1-13.9,0.2c-5.6-0.8-11.7-2.3-17.8-4.3c-12.3-4-24.9-9.6-37.3-15.8c-12.4-6.2-24.7-13.1-36.9-20.3
			c-6.1-3.6-12.2-7.2-18.3-10.9l-18.5-10.8c-12.4-7.2-24.9-14.3-37.9-20.7l-0.1-0.1c-5.6-2.7-12.5-1.6-16.9,3.2
			c-5.3,5.8-4.9,14.9,0.9,20.2c10.9,9.9,22.4,19.1,34.3,27.7c2.9,2.2,6,4.3,9,6.4l9.1,6.2c6.2,4,12.4,7.9,18.8,11.8
			c12.7,7.6,25.7,14.9,39.1,21.8c13.5,6.8,27.4,13.2,42.6,18.3c7.6,2.5,15.6,4.7,24.4,6c8.7,1.2,18.5,1.7,29.2-1
			c5.3-1.3,10.8-3.7,15.8-6.9c5-3.2,9.3-7.4,12.7-11.7c1.6-2.2,3.2-4.4,4.5-6.8c1.3-2.4,2.7-4.9,3.6-7.4c2.1-5.1,3.2-10.2,3.9-15.3
			c1.4-10.2,0.2-19.8-1.9-28.7c-1-4.5-2.5-8.7-4.1-12.9c-0.8-2.1-1.8-4-2.6-6c-0.9-2-1.8-4-2.9-5.9c-8.2-15.2-19-28.2-31-39.2
			c-3-2.7-6.2-5.3-9.3-7.9c-3.2-2.5-6.4-4.8-9.7-7.3l-17.8-12.5l-35.4-25c-23.5-16.7-46.9-33.5-69.6-50.8
			c-11.3-8.7-22.5-17.4-33.3-26.4c-10.7-9-21-18.3-29.9-27.8c-4.4-4.8-8.4-9.6-11.5-14.3c-3.1-4.7-5-9.2-5.9-12.9
			c-0.4-1.9-0.5-3.7-0.5-5.5c0.1-1.8,0.5-4.2,1-6c1.1-3.7,2.4-5.2,4.1-6.6c1.8-1.3,5.2-2.5,10-2.8c4.8-0.3,10.5,0.2,16.5,1.3
			c12,2.3,24.7,6.7,37.1,12c12.5,5.4,24.9,11.6,37.2,18.3c12,6.6,25.1,14.4,38.2,21.2c13.1,7,26.6,13.7,40.7,19.7
			c7.1,3,14.4,5.8,22.1,8.2c7.7,2.4,15.9,4.5,25,5.6c4.6,0.5,9.5,0.7,14.9,0.2c5.3-0.5,11.2-1.8,17.1-4.6
			c5.9-2.8,11.4-7.2,15.3-12.2c1.9-2.5,3.7-5.2,4.9-7.6c1.1-2.4,2.2-4.8,3.3-7.2c0.9-2.5,1.6-5.2,2.3-7.9c0.4-1.3,0.6-2.7,0.7-4.1
			l0.4-4.2c0.4-2.8,0.1-5.5,0-8.2L651.9,2255.5z"/>
		<path d="M2679.4,986.6c-0.1-2.1-0.1-4.4-0.5-6.4c-0.4-2-0.8-4.1-1.2-6.1c-0.4-2.1-1.2-3.7-1.7-5.5c-0.6-1.8-1.3-3.7-2-5.3
			l-2.3-4.7c-1.5-3.3-3.2-5.9-5-8.7c-0.9-1.4-1.7-2.8-2.6-4.1l-2.7-3.7c-3.6-5.1-7.3-9.6-11.1-14.2c-3.8-4.4-7.6-8.8-11.5-12.9
			c-7.7-8.3-15.6-16.4-23.5-24.2c-15.8-15.7-32-30.7-48.1-45.6l-24.3-22.2l-12.1-11l-5-4.8l-4.7-5.1c-6-6.9-10.8-14.6-14-22.3
			c-0.9-1.9-1.4-3.9-2.1-5.8l-0.7-2.9l-0.4-1.4l-0.2-1.4c-0.7-3.7-0.7-7.2-0.2-10c0.4-2.9,1.3-4.8,2.3-6.1c0.6-0.8,1-1.2,1.3-1.3
			c0.3-0.2,0.4-0.3,1-0.4c1-0.3,3.9-0.3,7.5,0.6c3.6,0.9,7.7,2.4,11.9,4.4c8.4,3.9,17.1,9.3,25.7,14.9c8.6,5.8,17.2,11.8,25.8,18.1
			c17.2,12.5,34.2,25.9,51.9,38.6l0.1,0c5.3,3.8,12.6,3.5,17.7-0.9c5.8-5.2,6.3-14.1,1.1-20c-14.8-16.6-30.9-31.9-48-46.5
			c-8.6-7.2-17.5-14.3-27-20.8c-9.5-6.6-19.4-12.9-30.8-18.3c-5.7-2.7-11.8-5.2-18.8-7c-7-1.7-15.2-3.1-25-1.1
			c-4.8,1-9.8,3-14.1,5.8c-4.4,2.8-7.9,6.3-10.7,9.8c-5.8,7.3-9,15.9-10.3,23.8c-1.3,8-1.2,15.6,0,22.7l0.4,2.7l0.6,2.6
			c0.4,1.7,0.8,3.4,1.2,5.1c1.1,3.2,2,6.6,3.4,9.7c5.1,12.5,12.1,23.5,20.3,33.3c2.1,2.4,4.2,4.7,6.3,7.1l6.7,6.6l12.1,11.1l24,22.2
			c15.9,14.8,31.8,29.6,47,44.8c7.6,7.6,15,15.2,22.2,22.9c3.5,3.9,6.9,7.7,10.3,11.6c3.1,3.9,6.4,7.8,9.1,11.7
			c5.6,7.7,9.6,15.6,10.4,20.6c0.3,0.7,0.1,1.2,0.1,1.8c0,0.6,0.2,1.1,0,1.7c-0.1,0.6-0.2,1.1-0.2,1.7c-0.1,0.6-0.3,1.4-0.5,1.9
			c-0.4,1.2-0.8,2-1.1,2.4c-0.3,0.4-0.4,0.4-0.4,0.5c-0.1,0-0.1,0.2-0.7,0.3c-0.6,0.1-1.6,0.3-2.9,0.3c-2.7,0-6.4-0.7-10.4-2
			c-8.1-2.5-16.9-6.9-25.5-11.9c-8.6-5.1-17.2-10.9-25.7-17l-12.9-9.6l-6.7-5.1l-6.9-4.9c-9.2-6.6-18.7-13-29-18.9
			c-2.5-1.5-5.2-3-7.9-4.4l-4.1-2.1l-4.3-2c-5.7-2.6-12.1-5-19.6-6.7c-2-0.3-3.9-0.7-6-1c-2.3-0.1-4.5-0.2-6.8-0.2
			c-2.5,0.2-5.1,0.5-7.6,1c-2.7,0.8-5.5,1.6-8.1,2.9c-2.6,1.4-5.3,2.9-7.3,4.8c-1.1,0.9-2.1,1.9-3.2,2.9c-1,1-1.7,2-2.5,3
			c-0.8,1-1.6,2.1-2.2,3.1l-1.6,2.8c-1,1.9-2.1,3.7-2.8,5.9c-0.7,2.1-1.6,4.2-2.1,6.4c-0.5,2.2-0.9,4.4-1.2,6.7
			c-0.1,2.2-0.2,4.4-0.2,6.6c0,2.2,0.4,4.2,0.6,6.3c1.2,8.1,3.8,15.2,6.8,21.2c6,12.2,13.3,21.9,20.8,31c7.5,9,15.3,17.5,23.2,25.5
			c3.9,4,8,8,11.9,11.9c3.7,3.7,7.4,7.4,10.9,11.1c7,7.5,13.6,15.3,19,23.2c5.3,7.8,9.8,16,11.1,22.4c0.7,3.2,0.7,5.5,0.2,7.5
			c-0.5,2.1-1.6,3.7-2.8,4.9c-1.2,1.2-2.9,2.2-5.6,2.6c-2.7,0.5-6.2,0.2-10-0.6c-7.7-1.8-16.3-6.1-24.6-11.4l-0.2-0.1
			c-5.7-3.6-13.3-2.7-18,2.4c-5.3,5.7-4.9,14.7,0.9,19.9c8.9,8.1,19.3,15.4,32.4,20.3c6.7,2.2,14.1,3.9,22.4,3.4
			c8.2-0.4,17.2-3.3,24.6-8.9c7.4-5.6,12.7-13.4,15.4-21.8c2.8-8.5,2.9-17.4,1.5-25c-1.3-7.7-3.9-14.2-6.7-20.2l-2.2-4.4
			c-0.8-1.4-1.6-2.8-2.4-4.2c-1.5-2.8-3.3-5.4-5-7.9c-6.9-10.2-14.5-19.2-22.3-27.7c-3.9-4.3-7.9-8.4-11.9-12.4
			c-3.9-3.9-7.6-7.6-11.3-11.4c-7.4-7.6-14.4-15.3-20.8-23.2c-6.4-7.8-12.1-15.9-15.6-23.4c-1.9-3.8-2.8-7.2-3.3-9.9
			c-0.4-2.8-0.1-4.4,0.6-6.3c0-0.5,0.5-1,0.7-1.5c0.1-0.2,0.2-0.3,0.2-0.5c0.7,0,1.8,0.1,3.3,0.5c3.2,0.8,7.1,2.1,11.3,4.1l3.1,1.5
			l3.2,1.7c2.1,1.1,4.3,2.3,6.4,3.6c8.6,5,17.2,10.9,25.8,17.1l6.4,4.7l6.3,4.8l13.3,10.1c9.2,6.8,18.7,13.3,28.9,19.4
			c10.3,6,21,11.7,33.8,15.8c6.5,2,13.5,3.7,21.7,3.9c4.2,0.1,8.7-0.3,13.4-1.4c4.7-1.2,9.7-3.3,14.1-6.4c4.4-3.1,8.2-7.1,10.9-11.2
			c2.8-4.2,4.5-8.4,5.8-12.4c0.7-2.1,1.1-4,1.6-6c0.3-2.1,0.6-4.3,0.9-6.5C2679.6,991,2679.4,988.8,2679.4,986.6z"/>
	</g>
</g>
</svg>
