<?xml version="1.0" encoding="utf-8"?>
<!-- Generator: Adobe Illustrator 21.1.0, SVG Export Plug-In . SVG Version: 6.00 Build 0)  -->
<svg version="1.1" xmlns="http://www.w3.org/2000/svg" xmlns:xlink="http://www.w3.org/1999/xlink" x="0px" y="0px"
	 viewBox="0 0 3000 3000" style="enable-background:new 0 0 3000 3000;" xml:space="preserve">
<g id="fill">
	<g>
		<path style="fill:#1FAAFF;" d="M1687.7,1480.6c-242.8,172.9-8,218.2,140.9,87.3C1955.5,1456.4,1814.9,1390,1687.7,1480.6z"/>
		<path style="fill:#1FAAFF;" d="M1321.9,1253.9c-35.2,37,1.6,56.6,40.3,30.9C1436.1,1235.7,1360.7,1213.1,1321.9,1253.9z"/>
		<path style="fill:#1FAAFF;" d="M1831.2,1335.5c84.3-56-1.7-81.7-46-35.2C1745.1,1342.5,1787,1364.9,1831.2,1335.5z"/>
		<path style="fill:#1FAAFF;" d="M991.9,1071.9c108.8-72.3,8.5-98.8-59.3-45.4C873.5,1072.9,934.9,1109.8,991.9,1071.9z"/>
		<path style="fill:#1FAAFF;" d="M1669.5,1402.6c24.2-16.1-0.5-23.4-13.2-10.1C1644.8,1404.5,1656.8,1411,1669.5,1402.6z"/>
		<path style="fill:#1FAAFF;" d="M1501.5,966.6c-21.3,22.4,1,34.3,24.4,18.7C1570.6,955.6,1525,941.9,1501.5,966.6z"/>
		<path style="fill:#1FAAFF;" d="M1326.6,1846.1c-38,25.3,0.8,36.9,20.8,15.9C1365.5,1842.9,1346.5,1832.8,1326.6,1846.1z"/>
		<path style="fill:#1FAAFF;" d="M1033.9,1455.1c-246.5,184.5-41.1,292.7,167.7,148.4C1533,1374.6,1263,1283.6,1033.9,1455.1z"/>
		<path style="fill:#1FAAFF;" d="M834.7,2166.8l-29.9-10.2c-25-8.5-44.6-28.1-53.1-53.1l-10.2-29.9c-2.9-8.6-15.1-8.6-18,0
			l-10.2,29.9c-8.5,25-28.1,44.6-53.1,53.1l-29.9,10.2c-8.6,2.9-8.6,15.1,0,18l29.9,10.2c25,8.5,44.6,28.1,53.1,53.1l10.2,29.9
			c2.9,8.6,15.1,8.6,18,0l10.2-29.9c8.5-25,28.1-44.6,53.1-53.1l29.9-10.2C843.3,2181.9,843.3,2169.8,834.7,2166.8z"/>
		<path style="fill:#1FAAFF;" d="M652,348c4-1.4,4-7.1,0-8.5l-14-4.8c-11.7-4-20.9-13.2-24.9-24.9l-4.8-14c-1.4-4-7.1-4-8.5,0
			l-4.8,14c-4,11.7-13.2,20.9-24.9,24.9l-14,4.8c-4,1.4-4,7.1,0,8.5l14,4.8c11.7,4,20.9,13.2,24.9,24.9l4.8,14c1.4,4,7.1,4,8.5,0
			l4.8-14c4-11.7,13.2-20.9,24.9-24.9L652,348z"/>
		<path style="fill:#1FAAFF;" d="M1905.2,732.1l-14-4.8c-11.7-4-20.9-13.2-24.9-24.9l-4.8-14c-1.4-4-7.1-4-8.5,0l-4.8,14
			c-4,11.7-13.2,20.9-24.9,24.9l-14,4.8c-4,1.4-4,7.1,0,8.5l14,4.8c11.7,4,20.9,13.2,24.9,24.9l4.8,14c1.4,4,7.1,4,8.5,0l4.8-14
			c4-11.7,13.2-20.9,24.9-24.9l14-4.8C1909.2,739.1,1909.2,733.4,1905.2,732.1z"/>
		<path style="fill:#1FAAFF;" d="M2717.7,1827.6l-14-4.8c-11.7-4-20.9-13.2-24.9-24.9l-4.8-14c-1.4-4-7.1-4-8.5,0l-4.8,14
			c-4,11.7-13.2,20.9-24.9,24.9l-14,4.8c-4,1.4-4,7.1,0,8.5l14,4.8c11.7,4,20.9,13.2,24.9,24.9l4.8,14c1.4,4,7.1,4,8.5,0l4.8-14
			c4-11.7,13.2-20.9,24.9-24.9l14-4.8C2721.7,1834.7,2721.7,1829,2717.7,1827.6z"/>
	</g>
	<g>
		<path style="fill:#FFDA00;" d="M1199.6,1009.1c-206.5,153-15.9,212,131.3,97.4S1324,916.9,1199.6,1009.1z"/>
		<path style="fill:#FFDA00;" d="M1284.9,1650.4c-109.2,85.1-9.2,164.4,97.5,102.4C1586.2,1634.6,1415.5,1548.6,1284.9,1650.4z"/>
		<path style="fill:#FFDA00;" d="M1449,1389.6c-71.1,65.2,22.4,89.5,97.5,33.7C1665.7,1334.7,1531.4,1314.1,1449,1389.6z"/>
		<path style="fill:#FFDA00;" d="M1249.3,1241.4c14.1-14.8-0.6-22.7-16.2-12.4C1203.5,1248.7,1233.7,1257.7,1249.3,1241.4z"/>
		<path style="fill:#FFDA00;" d="M2488.7,2287.8l-29.9-10.2c-25-8.5-44.6-28.1-53.1-53.1l-10.2-29.9c-2.9-8.6-15.1-8.6-18,0
			l-10.2,29.9c-8.5,25-28.1,44.6-53.1,53.1l-29.9,10.2c-8.6,2.9-8.6,15.1,0,18l29.9,10.2c25,8.5,44.6,28.1,53.1,53.1l10.2,29.9
			c2.9,8.6,15.1,8.6,18,0l10.2-29.9c8.5-25,28.1-44.6,53.1-53.1l29.9-10.2C2497.3,2303,2497.3,2290.8,2488.7,2287.8z"/>
		<path style="fill:#FFDA00;" d="M962.3,799.4l-22.1-7.5c-18.4-6.3-32.8-20.7-39.1-39.1l-7.5-22.1c-2.2-6.3-11.1-6.3-13.3,0
			l-7.5,22.1c-6.3,18.4-20.7,32.8-39.1,39.1l-22.1,7.5c-6.3,2.2-6.3,11.1,0,13.3l22.1,7.5c18.4,6.3,32.8,20.7,39.1,39.1l7.5,22.1
			c2.2,6.3,11.1,6.3,13.3,0l7.5-22.1c6.3-18.4,20.7-32.8,39.1-39.1l22.1-7.5C968.7,810.6,968.7,801.6,962.3,799.4z"/>
		<path style="fill:#FFDA00;" d="M2666.8,1164.7l-14-4.8c-11.7-4-20.9-13.2-24.9-24.9l-4.8-14c-1.4-4-7.1-4-8.5,0l-4.8,14
			c-4,11.7-13.2,20.9-24.9,24.9l-14,4.8c-4,1.4-4,7.1,0,8.5l14,4.8c11.7,4,20.9,13.2,24.9,24.9l4.8,14c1.4,4,7.1,4,8.5,0l4.8-14
			c4-11.7,13.2-20.9,24.9-24.9l14-4.8C2670.8,1171.8,2670.8,1166,2666.8,1164.7z"/>
		<path style="fill:#FFDA00;" d="M1369,2454.7l-14-4.8c-11.7-4-20.9-13.2-24.9-24.9l-4.8-14c-1.4-4-7.1-4-8.5,0l-4.8,14
			c-4,11.7-13.2,20.9-24.9,24.9l-14,4.8c-4,1.4-4,7.1,0,8.5l14,4.8c11.7,4,20.9,13.2,24.9,24.9l4.8,14c1.4,4,7.1,4,8.5,0l4.8-14
			c4-11.7,13.2-20.9,24.9-24.9l14-4.8C1373,2461.8,1373,2456.1,1369,2454.7z"/>
	</g>
	<g>
		<path style="fill:#FF5777;" d="M1048.2,1790.6c-45.6,47.9,2.1,73.3,52.2,40C1196.2,1766.9,1098.6,1737.7,1048.2,1790.6z"/>
		<path style="fill:#FF5777;" d="M1514.5,1543.4c18.1-19-0.8-29.1-20.8-15.9C1455.7,1552.8,1494.5,1564.4,1514.5,1543.4z"/>
		<path style="fill:#FF5777;" d="M997.3,1258.1c-145.4,93-3.4,118.4,80.5,51.7C1153.3,1249.9,1073.5,1209.4,997.3,1258.1z"/>
		<path style="fill:#FF5777;" d="M1530.9,1766.7c-143.8,92-2.8,117.9,79.6,51.2C1688,1755.2,1606.3,1718.5,1530.9,1766.7z"/>
		<path style="fill:#FF5777;" d="M1612.7,1036.8c-320,241-59.4,343.6,190.5,138C2030,988.2,1836.6,868.1,1612.7,1036.8z"/>
		<path style="fill:#FF5777;" d="M2171.4,1595.2l-22.1-7.5c-18.4-6.3-32.8-20.7-39.1-39.1l-7.5-22.1c-2.2-6.3-11.1-6.3-13.3,0
			l-7.5,22.1c-6.3,18.4-20.7,32.8-39.1,39.1l-22.1,7.5c-6.3,2.2-6.3,11.1,0,13.3l22.1,7.5c18.4,6.3,32.8,20.7,39.1,39.1l7.5,22.1
			c2.2,6.3,11.1,6.3,13.3,0l7.5-22.1c6.3-18.4,20.7-32.8,39.1-39.1l22.1-7.5C2177.7,1606.3,2177.7,1597.3,2171.4,1595.2z"/>
		<path style="fill:#FF5777;" d="M390.8,828.1l-22.1-7.5c-18.4-6.3-32.8-20.7-39.1-39.1l-7.5-22.1c-2.2-6.3-11.1-6.3-13.3,0
			l-7.5,22.1c-6.3,18.4-20.7,32.8-39.1,39.1l-22.1,7.5c-6.3,2.2-6.3,11.1,0,13.3l22.1,7.5c18.4,6.3,32.8,20.7,39.1,39.1l7.5,22.1
			c2.2,6.3,11.1,6.3,13.3,0l7.5-22.1c6.3-18.4,20.7-32.8,39.1-39.1l22.1-7.5C397.2,839.3,397.2,830.3,390.8,828.1z"/>
		<path style="fill:#FF5777;" d="M2353.5,470l-22.1-7.5c-18.4-6.3-32.8-20.7-39.1-39.1l-7.5-22.1c-2.2-6.3-11.1-6.3-13.3,0
			l-7.5,22.1c-6.3,18.4-20.7,32.8-39.1,39.1l-22.1,7.5c-6.3,2.2-6.3,11.1,0,13.3l22.1,7.5c18.4,6.3,32.8,20.7,39.1,39.1l7.5,22.1
			c2.2,6.3,11.1,6.3,13.3,0l7.5-22.1c6.3-18.4,20.7-32.8,39.1-39.1l22.1-7.5C2359.9,481.1,2359.9,472.1,2353.5,470z"/>
	</g>
</g>
<g id="outline">
	<g>
		<path d="M1744.5,554.4c-0.2-0.3-0.4-0.5-0.6-0.7c-0.2-0.3-0.5-0.5-0.8-0.8c-0.1-0.1-0.2-0.2-0.3-0.3c-0.1-0.1-0.3-0.2-0.4-0.3
			c-0.3-0.2-0.6-0.4-0.9-0.6c-0.3-0.2-0.6-0.3-0.8-0.5c-0.3-0.1-0.6-0.3-0.9-0.4c-0.3-0.1-0.6-0.2-1-0.3c-0.3-0.1-0.6-0.2-0.9-0.2
			c-0.4-0.1-0.7-0.1-1.1-0.1c-0.2,0-0.3,0-0.5,0h-222c-0.2,0-0.3,0-0.5,0c-0.4,0-0.8,0-1.1,0.1c-0.3,0-0.6,0.1-0.9,0.2
			c-0.3,0.1-0.7,0.2-1,0.3c-0.3,0.1-0.6,0.3-0.9,0.4c-0.3,0.1-0.6,0.3-0.9,0.5c-0.3,0.2-0.6,0.4-0.9,0.6c-0.2,0.1-0.3,0.2-0.5,0.3
			c-0.1,0.1-0.2,0.2-0.3,0.3c-0.3,0.3-0.5,0.5-0.8,0.8c-0.2,0.2-0.4,0.5-0.6,0.7c-0.2,0.3-0.4,0.6-0.5,0.9c-0.2,0.3-0.3,0.6-0.5,0.9
			c-0.1,0.3-0.3,0.6-0.4,0.9c-0.1,0.3-0.2,0.6-0.3,1c-0.1,0.3-0.1,0.6-0.2,0.9c-0.1,0.4-0.1,0.7-0.1,1.1c0,0.1,0,0.3,0,0.4v260.1
			c0,0.1,0,0.3,0,0.4c0,0.4,0,0.7,0.1,1.1c0,0.3,0.1,0.6,0.2,0.9c0.1,0.3,0.2,0.6,0.3,1c0.1,0.3,0.2,0.6,0.4,0.9
			c0.1,0.3,0.3,0.6,0.5,0.9c0.2,0.3,0.3,0.6,0.5,0.8c0.2,0.3,0.4,0.5,0.6,0.7c0.2,0.3,0.5,0.5,0.8,0.8c0.1,0.1,0.2,0.2,0.3,0.3
			c0.2,0.1,0.3,0.2,0.5,0.4c0.2,0.2,0.5,0.4,0.7,0.5c0.3,0.2,0.7,0.4,1,0.5c0.2,0.1,0.5,0.2,0.7,0.3c0.4,0.2,0.8,0.3,1.2,0.4
			c0.2,0.1,0.4,0.1,0.6,0.2c0.6,0.1,1.3,0.2,1.9,0.2h222c0.6,0,1.3-0.1,1.9-0.2c0.2,0,0.4-0.1,0.7-0.2c0.4-0.1,0.8-0.2,1.2-0.4
			c0.3-0.1,0.5-0.2,0.7-0.3c0.3-0.2,0.7-0.3,1-0.5c0.3-0.2,0.5-0.3,0.7-0.5c0.2-0.1,0.3-0.2,0.5-0.4c0.1-0.1,0.2-0.2,0.3-0.3
			c0.3-0.3,0.5-0.5,0.8-0.8c0.2-0.2,0.4-0.5,0.6-0.7c0.2-0.3,0.4-0.6,0.5-0.8c0.2-0.3,0.3-0.6,0.5-0.9c0.1-0.3,0.2-0.6,0.3-0.9
			s0.2-0.6,0.3-1c0.1-0.3,0.1-0.6,0.2-0.9c0-0.4,0.1-0.7,0.1-1.1c0-0.1,0-0.3,0-0.4V560.4c0-0.1,0-0.3,0-0.4c0-0.4-0.1-0.7-0.1-1.1
			c-0.1-0.3-0.1-0.6-0.2-0.9c-0.1-0.3-0.2-0.6-0.3-1s-0.2-0.6-0.3-0.9c-0.1-0.3-0.3-0.6-0.5-0.9
			C1744.8,555,1744.7,554.7,1744.5,554.4z M1547.6,570.7h155c4.4,0,6.8,5.2,3.9,8.5l-75.6,88.5c-3.1,3.6-8.7,3.6-11.8,0l-75.6-88.5
			C1540.9,575.9,1543.2,570.7,1547.6,570.7z M1524.4,778.6V602.3c0-4.8,6-7,9.1-3.3l73.8,86.5c2.5,2.9,2.5,7.1,0,10l-73.8,86.5
			C1530.4,785.6,1524.4,783.4,1524.4,778.6z M1702.7,810.2h-155c-4.4,0-6.8-5.1-3.9-8.5l75.6-88.5c3.1-3.6,8.7-3.6,11.8,0l75.6,88.5
			C1709.4,805.1,1707.1,810.2,1702.7,810.2z M1725.9,778.6c0,4.8-6,7-9.1,3.3l-73.8-86.5c-2.5-2.9-2.5-7.1,0-10l73.8-86.5
			c3.1-3.6,9.1-1.4,9.1,3.3V778.6z"/>
		<path d="M1056.6,630.2h223.8c9.7,0,17.6-7.9,17.6-17.6V578c0-9.7-7.9-17.6-17.6-17.6h-223.8c-9.7,0-17.6,7.9-17.6,17.6v34.6
			C1039,622.3,1046.9,630.2,1056.6,630.2z"/>
		<path d="M1438,630.2c9.7,0,17.6-7.9,17.6-17.6V578c0-9.7-7.9-17.6-17.6-17.6h-92.7c-9.7,0-17.6,7.9-17.6,17.6v34.6
			c0,9.7,7.9,17.6,17.6,17.6H1438z"/>
		<path d="M1458.1,673.2c0-9.7-7.9-17.6-17.6-17.6h-383.8c-9.7,0-17.6,7.9-17.6,17.6v34.6c0,9.7,7.9,17.6,17.6,17.6h383.8
			c9.7,0,17.6-7.9,17.6-17.6V673.2z"/>
		<path d="M1440.5,750.7h-162.2c-9.7,0-17.6,7.9-17.6,17.6v34.6c0,9.7,7.9,17.6,17.6,17.6h162.2c9.7,0,17.6-7.9,17.6-17.6v-34.6
			C1458.1,758.6,1450.2,750.7,1440.5,750.7z"/>
		<path d="M1056.6,750.7c-9.7,0-17.6,7.9-17.6,17.6v34.6c0,9.7,7.9,17.6,17.6,17.6h155.8c9.7,0,17.6-7.9,17.6-17.6v-34.6
			c0-9.7-7.9-17.6-17.6-17.6H1056.6z"/>
		<path d="M1985.5,2141.2h1.4c6.9,0,12.5-5.6,12.5-12.5v-32.5c0-6.9-5.6-12.5-12.5-12.5h-1.4c-6.9,0-12.5,5.6-12.5,12.5v32.5
			C1973,2135.7,1978.6,2141.2,1985.5,2141.2z"/>
		<path d="M1713.1,1717c-3.4,0.5-6.2,3.1-6.7,6.7c-0.6,4.3,2.4,8.2,6.7,8.8c7.9,1.1,15.9,1.6,23.8,2c7.9,0.4,15.9,0.5,23.8,0.6
			c7.9-0.1,15.9-0.2,23.8-0.6c7.9-0.4,15.9-0.9,23.8-2c3.4-0.5,6.2-3.1,6.7-6.7c0.6-4.3-2.4-8.2-6.7-8.8c-7.9-1.1-15.9-1.6-23.8-2
			c-7.9-0.4-15.9-0.5-23.8-0.6c-7.9,0.1-15.9,0.2-23.8,0.6C1729,1715.4,1721,1716,1713.1,1717z"/>
		<path d="M1803,1921.3c4.1,10.5,11,19.8,19.6,27c8.7,7.1,19.1,12.2,30.1,14.3c2.8,0.4,5.5,1,8.3,1l4.2,0.2c1.3,0,2.4,0,3.6,0
			l14.1,0l28.3-0.1l14.1,0l3.5,0c1.2,0,2,0.1,3,0.1c1.9,0,3.8,0.3,5.7,0.6c7.6,1.2,14.7,4.7,20.7,9.3c6,4.8,10.8,11.1,13.8,18.2
			l1,2.7l0.5,1.3l0.4,1.4l0.7,2.8c0.2,0.9,0.3,1.9,0.5,2.8c0.4,1.9,0.4,3.8,0.5,5.8c0.1,0.9,0.1,2.2,0.1,3.3l0,3.5l0,4.4
			c0,7.5-6,13.6-13.5,13.6c-17,0-32.3,6.9-43.4,18c-11.1,11.1-18,26.5-18,43.4v111.1c0,33.9,27.5,61.4,61.4,61.4h47.8
			c33.9,0,61.4-27.5,61.4-61.4V2095c0-33.9-27.5-61.4-61.4-61.4c-7.5,0-13.5-6.1-13.5-13.5v0l0-4.4l0-3.5c0-1.2,0-2.3-0.1-3.8
			c-0.1-2.8-0.2-5.6-0.7-8.3c-0.2-1.4-0.4-2.8-0.7-4.1l-1-4.1l-0.5-2l-0.7-2l-1.4-3.9c-4.3-10.3-11.2-19.5-19.9-26.5
			c-8.7-6.9-19.1-12-30.2-13.8c-2.8-0.5-5.5-0.9-8.3-0.9c-1.4-0.1-2.9-0.2-4.1-0.2l-3.5,0l-14.1,0l-28.3-0.1l-14.1,0
			c-1.2,0-2.4,0-3.5,0l-2.9-0.2c-1,0-1.9-0.1-2.9-0.3l-2.8-0.4c-7.5-1.5-14.5-5-20.4-9.8c-5.7-5-10.5-11.2-13.2-18.3
			c-2.7-7.1-3.9-14.8-2.8-22.4c1.8-15.1,11.7-29.1,25.5-35.5c3.4-1.8,7.1-2.8,10.8-3.7l2.8-0.4c0.9-0.2,1.9-0.3,2.8-0.3l2.9-0.1
			c0.9-0.1,2.3,0,3.4,0l28.3,0l56.6,0l56.6-0.1l28.3-0.1l14.1,0h2.7l1.1,0l4.2-0.2c2.8-0.1,5.6-0.7,8.3-1.1
			c11-2.4,21.4-7.4,29.9-14.6c8.4-7.3,15.3-16.6,19.2-27.1l1.4-4c0.4-1.3,0.7-2.7,1.1-4.1c0.8-2.7,1.1-5.5,1.5-8.3
			c0.4-2.7,0.4-5.6,0.5-8.3c0-0.6,0-1.1,0-1.8l-0.1-2.1l-0.2-4.2c-1.2-11.1-5.1-22-11.4-31.2c-6.4-9.1-14.9-16.9-24.9-21.9l-3.8-1.8
			c-1.3-0.6-2.6-1-3.9-1.5c-2.6-1-5.3-1.7-8-2.4c-2.7-0.7-5.5-1-8.3-1.4l-4.2-0.2l-2.1-0.1c-0.7,0-1.2,0-1.8,0l-56.6,0.1
			c-37.7,0.1-75.4-0.3-113.1,2.6c-4,0.3-7.3,3.7-7.1,8c0.1,4,3.5,7.2,7.5,7.5c37.6,2.9,75.2,2.5,112.8,2.6l56.6,0.1
			c0.6,0,1.2,0,1.7,0l1.4,0.1l2.9,0.1c1.9,0.3,3.8,0.5,5.7,1c1.8,0.5,3.7,0.9,5.5,1.7c0.9,0.4,1.8,0.6,2.7,1l2.6,1.3
			c6.9,3.4,12.7,8.8,17.1,15.1c4.3,6.4,6.9,13.8,7.7,21.4c0.7,8.2-0.2,15.7-3,22.9c-2.6,7.2-7.4,13.5-13.2,18.5
			c-5.9,4.9-12.9,8.3-20.4,9.9c-1.9,0.2-3.8,0.7-5.7,0.7l-2.9,0.1l-0.7,0h-2.7l-14.1,0l-28.3-0.1l-56.6-0.1l-56.6,0l-28.3,0
			c-1.2,0-2.2,0-3.7,0l-4.2,0.2c-1.4,0-2.8,0.2-4.2,0.4l-4.2,0.7c-5.5,1.3-10.9,2.9-16,5.4c-20.4,9.6-35.1,30.1-37.7,52.6
			C1797.3,1899.3,1798.9,1910.8,1803,1921.3z M2010.1,2054.2c22.5,0,40.8,18.3,40.8,40.8v111.1c0,22.5-18.3,40.8-40.8,40.8h-47.8
			c-22.5,0-40.8-18.3-40.8-40.8V2095c0-22.5,18.3-40.8,40.8-40.8H2010.1z"/>
		<path d="M897.9,1999.2v246.5c0,23.6,19.2,42.9,42.8,42.9h753.4c23.6,0,42.9-19.2,42.9-42.9v-246.5c0-23.6-19.2-42.9-42.9-42.9
			H940.8C917.2,1956.3,897.9,1975.6,897.9,1999.2z M918.5,1999.2c0-12.3,10-22.3,22.3-22.3h753.4c12.3,0,22.3,10,22.3,22.3v246.5
			c0,12.3-10,22.3-22.3,22.3H940.8c-12.3,0-22.3-10-22.3-22.3V1999.2z"/>
		<path d="M981.1,2069h30.1c5.3,0,9.6-4.3,9.6-9.6v-30.1c0-5.3-4.3-9.6-9.6-9.6h-30.1c-5.3,0-9.6,4.3-9.6,9.6v30.1
			C971.6,2064.7,975.9,2069,981.1,2069z"/>
		<path d="M1061,2069h30.1c5.3,0,9.6-4.3,9.6-9.6v-30.1c0-5.3-4.3-9.6-9.6-9.6H1061c-5.3,0-9.6,4.3-9.6,9.6v30.1
			C1051.4,2064.7,1055.7,2069,1061,2069z"/>
		<path d="M1140.9,2069h30.1c5.3,0,9.6-4.3,9.6-9.6v-30.1c0-5.3-4.3-9.6-9.6-9.6h-30.1c-5.3,0-9.6,4.3-9.6,9.6v30.1
			C1131.3,2064.7,1135.6,2069,1140.9,2069z"/>
		<path d="M1220.8,2069h30.1c5.3,0,9.6-4.3,9.6-9.6v-30.1c0-5.3-4.3-9.6-9.6-9.6h-30.1c-5.3,0-9.6,4.3-9.6,9.6v30.1
			C1211.2,2064.7,1215.5,2069,1220.8,2069z"/>
		<path d="M1300.7,2069h30.1c5.3,0,9.6-4.3,9.6-9.6v-30.1c0-5.3-4.3-9.6-9.6-9.6h-30.1c-5.3,0-9.6,4.3-9.6,9.6v30.1
			C1291.1,2064.7,1295.4,2069,1300.7,2069z"/>
		<path d="M1380.6,2069h30.1c5.3,0,9.6-4.3,9.6-9.6v-30.1c0-5.3-4.3-9.6-9.6-9.6h-30.1c-5.3,0-9.6,4.3-9.6,9.6v30.1
			C1371,2064.7,1375.3,2069,1380.6,2069z"/>
		<path d="M1460.5,2069h30.1c5.3,0,9.6-4.3,9.6-9.6v-30.1c0-5.3-4.3-9.6-9.6-9.6h-30.1c-5.3,0-9.6,4.3-9.6,9.6v30.1
			C1450.9,2064.7,1455.2,2069,1460.5,2069z"/>
		<path d="M1540.3,2069h30.1c5.3,0,9.6-4.3,9.6-9.6v-30.1c0-5.3-4.3-9.6-9.6-9.6h-30.1c-5.3,0-9.6,4.3-9.6,9.6v30.1
			C1530.8,2064.7,1535.1,2069,1540.3,2069z"/>
		<path d="M1620.2,2069h30.1c5.3,0,9.6-4.3,9.6-9.6v-30.1c0-5.3-4.3-9.6-9.6-9.6h-30.1c-5.3,0-9.6,4.3-9.6,9.6v30.1
			C1610.7,2064.7,1615,2069,1620.2,2069z"/>
		<path d="M981.1,2147.1h48.8h13.9h13.4c5.3,0,9.6-4.3,9.6-9.6v-30.1c0-5.3-4.3-9.6-9.6-9.6h-13.4h-13.9h-48.8
			c-5.3,0-9.6,4.3-9.6,9.6v30.1C971.6,2142.8,975.9,2147.1,981.1,2147.1z"/>
		<path d="M1173.7,2107.4v30.1c0,5.3,4.3,9.6,9.6,9.6h30.1c5.3,0,9.6-4.3,9.6-9.6v-30.1c0-5.3-4.3-9.6-9.6-9.6h-30.1
			C1178,2097.8,1173.7,2102.1,1173.7,2107.4z"/>
		<path d="M1095,2107.4v30.1c0,5.3,4.3,9.6,9.6,9.6h30.1c5.3,0,9.6-4.3,9.6-9.6v-30.1c0-5.3-4.3-9.6-9.6-9.6h-30.1
			C1099.3,2097.8,1095,2102.1,1095,2107.4z"/>
		<path d="M1252.3,2107.4v30.1c0,5.3,4.3,9.6,9.6,9.6h30.1c5.3,0,9.6-4.3,9.6-9.6v-30.1c0-5.3-4.3-9.6-9.6-9.6h-30.1
			C1256.6,2097.8,1252.3,2102.1,1252.3,2107.4z"/>
		<path d="M1331,2107.4v30.1c0,5.3,4.3,9.6,9.6,9.6h30.1c5.3,0,9.6-4.3,9.6-9.6v-30.1c0-5.3-4.3-9.6-9.6-9.6h-30.1
			C1335.3,2097.8,1331,2102.1,1331,2107.4z"/>
		<path d="M1409.7,2107.4v30.1c0,5.3,4.3,9.6,9.6,9.6h30.1c5.3,0,9.6-4.3,9.6-9.6v-30.1c0-5.3-4.3-9.6-9.6-9.6h-30.1
			C1414,2097.8,1409.7,2102.1,1409.7,2107.4z"/>
		<path d="M1488.4,2107.4v30.1c0,5.3,4.3,9.6,9.6,9.6h30.1c5.3,0,9.6-4.3,9.6-9.6v-30.1c0-5.3-4.3-9.6-9.6-9.6h-30.1
			C1492.7,2097.8,1488.4,2102.1,1488.4,2107.4z"/>
		<path d="M1567.5,2107.4v30.1c0,5.3,4.3,9.6,9.6,9.6h13.4h16.8h43.1c5.3,0,9.6-4.3,9.6-9.6v-30.1c0-5.3-4.3-9.6-9.6-9.6h-43.1
			h-16.8h-13.4C1571.8,2097.8,1567.5,2102.1,1567.5,2107.4z"/>
		<path d="M981.1,2225.1h30.1c5.3,0,9.6-4.3,9.6-9.6v-30.1c0-5.3-4.3-9.6-9.6-9.6h-30.1c-5.3,0-9.6,4.3-9.6,9.6v30.1
			C971.6,2220.8,975.9,2225.1,981.1,2225.1z"/>
		<path d="M1091.1,2175.9H1061c-5.3,0-9.6,4.3-9.6,9.6v30.1c0,5.3,4.3,9.6,9.6,9.6h30.1c5.3,0,9.6-4.3,9.6-9.6v-30.1
			C1100.7,2180.2,1096.4,2175.9,1091.1,2175.9z"/>
		<path d="M1171,2175.9h-30.1c-5.3,0-9.6,4.3-9.6,9.6v30.1c0,5.3,4.3,9.6,9.6,9.6h30.1c5.3,0,9.6-4.3,9.6-9.6v-30.1
			C1180.6,2180.2,1176.3,2175.9,1171,2175.9z"/>
		<path d="M1410.7,2175.9h-79.9h-13.4h-5.8h-10.9h-79.9c-5.3,0-9.6,4.3-9.6,9.6v30.1c0,5.3,4.3,9.6,9.6,9.6h79.9h10.9h5.8h13.4h79.9
			c5.3,0,9.6-4.3,9.6-9.6v-30.1C1420.3,2180.2,1416,2175.9,1410.7,2175.9z"/>
		<path d="M1490.6,2175.9h-30.1c-5.3,0-9.6,4.3-9.6,9.6v30.1c0,5.3,4.3,9.6,9.6,9.6h30.1c5.3,0,9.6-4.3,9.6-9.6v-30.1
			C1500.2,2180.2,1495.9,2175.9,1490.6,2175.9z"/>
		<path d="M1570.5,2175.9h-30.1c-5.3,0-9.6,4.3-9.6,9.6v30.1c0,5.3,4.3,9.6,9.6,9.6h30.1c5.3,0,9.6-4.3,9.6-9.6v-30.1
			C1580,2180.2,1575.7,2175.9,1570.5,2175.9z"/>
		<path d="M1650.4,2175.9h-30.1c-5.3,0-9.6,4.3-9.6,9.6v30.1c0,5.3,4.3,9.6,9.6,9.6h30.1c5.3,0,9.6-4.3,9.6-9.6v-30.1
			C1659.9,2180.2,1655.6,2175.9,1650.4,2175.9z"/>
		<path d="M444,1830.4c0,0.3,0,0.5,0.1,0.8c0,0.1,0,0.2,0.1,0.3c0,0.1,0,0.2,0,0.3c0,0.2,0.1,0.4,0.2,0.6c0,0,0,0.1,0,0.1
			c0,0.2,0.1,0.4,0.2,0.6c0,0.1,0,0.1,0,0.2c0,0.1,0.1,0.2,0.1,0.2c0,0.1,0.1,0.2,0.1,0.3c0.1,0.2,0.3,0.4,0.4,0.7
			c0.1,0.2,0.2,0.5,0.4,0.7c0,0,0,0,0,0c0.9,1.4,23.1,36.1,63.8,71.1c54.3,46.7,115.8,71.3,178,71.3s123.7-24.7,178-71.3
			c39.8-34.2,61.8-68,63.7-71c0,0,0,0,0,0c0,0,0,0,0,0c0,0,0.1-0.1,0.1-0.1c0.1-0.2,0.2-0.4,0.3-0.6c0.2-0.3,0.3-0.6,0.5-0.9
			c0-0.1,0-0.1,0.1-0.1c0,0,0-0.1,0-0.1c0.1-0.3,0.2-0.5,0.2-0.8c0.1-0.3,0.2-0.5,0.2-0.8c0-0.1,0-0.1,0-0.2s0-0.1,0-0.1
			c0-0.3,0.1-0.6,0.1-0.9c0-0.3,0.1-0.6,0.1-0.8c0-0.1,0-0.1,0-0.2s0-0.1,0-0.2c0-0.3,0-0.5-0.1-0.8c0-0.3,0-0.6-0.1-0.9
			c0,0,0-0.1,0-0.1s0-0.1,0-0.2c-0.1-0.3-0.2-0.5-0.2-0.8c-0.1-0.3-0.1-0.6-0.3-0.8c0,0,0-0.1,0-0.1c0,0,0-0.1-0.1-0.1
			c-0.1-0.3-0.3-0.5-0.4-0.8c0,0,0-0.1,0-0.1c-0.1-0.2-0.2-0.4-0.3-0.6c0,0,0-0.1-0.1-0.1c0,0,0,0,0,0c0,0,0,0,0,0c0,0,0,0,0,0
			c-1.9-3-24-36.8-63.7-71c-54.3-46.7-115.8-71.3-178-71.3s-123.7,24.7-178,71.3c-40.7,35-62.9,69.7-63.8,71.2c0,0,0,0,0,0
			c-0.1,0.2-0.2,0.5-0.3,0.7s-0.3,0.5-0.4,0.7c0,0.1,0,0.2-0.1,0.3c-0.1,0.3-0.2,0.6-0.3,0.9c-0.1,0.2-0.2,0.5-0.2,0.7
			c0,0.1,0,0.2,0,0.3c0,0.1,0,0.2-0.1,0.3c0,0.2,0,0.5-0.1,0.7c0,0.2-0.1,0.5-0.1,0.7c0,0.1,0,0.2,0,0.3c0,0.1,0,0.2,0,0.3
			C443.9,1830,444,1830.2,444,1830.4z M822.1,1913c-35.8,24.2-81.4,43.9-134.9,43.9c-51.1,0-95-18-130-40.7
			c-5.1-3.3-1.4-11.2,4.4-9.2c36.2,12.1,76.2,18.8,118.1,19.2c1.5,0,3,0,4.4,0c47,0,92.5-7.8,133.3-22.3
			C823.2,1901.9,827.1,1909.6,822.1,1913z M720.5,1804.8c0-12.3,9.9-22.2,22.2-22.2s22.2,9.9,22.2,22.2s-9.9,22.2-22.2,22.2
			S720.5,1817,720.5,1804.8z M890.8,1817.2c8,6.2,8,18.3,0,24.5c-26.7,20.6-59.2,36.8-95.1,47.7c-5.6,1.7-10.3-4.5-7.1-9.5
			c9.3-14.6,14.7-31.9,14.7-50.5c0-18.6-5.4-35.9-14.7-50.4c-3.2-5,1.5-11.2,7.1-9.5C831.6,1780.5,864.1,1796.6,890.8,1817.2z
			 M556.9,1742.9c35.1-22.8,79-40.8,130.4-40.8c53.5,0,99,19.7,134.8,43.9c5,3.4,1,11.1-4.7,9.1c-40.8-14.5-86.3-22.3-133.3-22.3
			c-1.5,0-3,0-4.4,0c-42,0.5-82.1,7.1-118.4,19.3C555.7,1754,551.9,1746.2,556.9,1742.9z M482.4,1817.6
			c39.3-31.9,91.7-53,150.5-60.8c5.8-0.8,9.4,6,5.6,10.4c-14.7,16.6-23.6,38.4-23.6,62.3c0,23.9,8.9,45.7,23.6,62.3
			c3.8,4.3,0.2,11.1-5.6,10.4c-58.7-7.8-111.1-28.9-150.5-60.8C474.8,1835.3,474.8,1823.7,482.4,1817.6z"/>
		<path d="M685.8,1643c4.3,0.8,8.4-2,9.2-6.2c1.1-5.5,1.6-11.1,2-16.6c0.4-5.5,0.5-11.1,0.6-16.6c0-5.5-0.2-11.1-0.6-16.6
			c-0.4-5.5-0.9-11.1-2-16.6c-0.6-3.1-3-5.6-6.2-6.2c-4.3-0.8-8.4,2-9.2,6.2c-1.1,5.5-1.6,11.1-2,16.6c-0.4,5.5-0.5,11.1-0.6,16.6
			c0.1,5.5,0.2,11.1,0.6,16.6c0.4,5.5,0.9,11.1,2,16.6C680.2,1639.9,682.6,1642.4,685.8,1643z"/>
		<path d="M579.7,1632.8c1.5,3.6,3.1,7,5,10.4c1.8,3.4,3.9,6.7,6.4,9.8c1.7,2,4.4,3.3,7.2,2.9c4.4-0.5,7.5-4.5,7-9
			c-0.5-4-1.5-7.8-2.6-11.4c-1.2-3.7-2.5-7.3-4-10.8c-1.5-3.5-3.2-7-5.1-10.4c-1.9-3.4-3.9-6.7-6.3-9.9c-1.7-2.2-4.5-3.4-7.4-3
			c-4.4,0.6-7.4,4.7-6.8,9c0.6,3.9,1.6,7.7,2.7,11.4C576.9,1625.6,578.2,1629.2,579.7,1632.8z"/>
		<path d="M503.1,1681.6c1.6,2.1,3.3,4.1,5.2,5.9c1.9,1.8,4,3.6,6.5,4.9c1.8,1,4.1,1.4,6.3,0.8c4.5-1.2,7.1-5.8,5.9-10.3
			c-0.7-2.8-1.9-5.2-3.2-7.5c-1.3-2.3-2.8-4.5-4.5-6.5c-1.6-2.1-3.4-4-5.3-5.9c-2-1.8-4-3.6-6.4-5c-1.9-1.1-4.3-1.5-6.6-0.8
			c-4.4,1.3-6.9,5.9-5.6,10.3c0.8,2.7,2,5.1,3.3,7.4C500.1,1677.3,501.6,1679.5,503.1,1681.6z"/>
		<path d="M859.7,1692.5c2.5-1.4,4.6-3.1,6.5-4.9c1.9-1.8,3.7-3.8,5.2-5.9c1.6-2.1,3.1-4.3,4.4-6.6c1.3-2.3,2.5-4.7,3.3-7.4
			c0.6-2.1,0.4-4.5-0.8-6.6c-2.3-4-7.4-5.3-11.4-3c-2.4,1.4-4.5,3.2-6.4,5c-1.9,1.8-3.7,3.8-5.3,5.9c-1.6,2.1-3.1,4.2-4.5,6.5
			c-1.3,2.3-2.5,4.7-3.2,7.5c-0.5,2-0.3,4.3,0.8,6.3C850.5,1693.3,855.6,1694.7,859.7,1692.5z"/>
		<path d="M783.5,1653.1c2.5-3.1,4.6-6.4,6.4-9.8c1.8-3.4,3.5-6.9,5-10.4c1.5-3.6,2.8-7.2,4-10.9c1.1-3.7,2.2-7.5,2.7-11.4
			c0.4-2.7-0.7-5.6-3-7.4c-3.5-2.7-8.5-2.1-11.2,1.4c-2.5,3.1-4.5,6.5-6.3,9.9c-1.9,3.4-3.5,6.9-5.1,10.4c-1.6,3.5-2.9,7.1-4,10.8
			c-1.2,3.7-2.1,7.5-2.6,11.4c-0.3,2.6,0.7,5.4,2.9,7.2C775.6,1657,780.7,1656.5,783.5,1653.1z"/>
		<path d="M1967.1,1349.3c0,0.3,0,0.5,0.1,0.8c0,0.1,0.1,0.1,0.1,0.2c0,0.1,0,0.2,0,0.3c0,0.1,0.1,0.3,0.1,0.4
			c0,0.1,0.1,0.2,0.1,0.3c0.1,0.3,0.1,0.5,0.2,0.7c0,0.1,0.1,0.1,0.1,0.2c0.1,0.3,0.3,0.6,0.5,0.9c0.1,0.2,0.2,0.5,0.3,0.7
			c0,0,0,0,0,0c0.9,1.5,23.1,36.1,63.8,71.1c54.3,46.7,115.8,71.3,177.9,71.3c62.1,0,123.7-24.7,178-71.3c39.8-34.2,61.8-68,63.7-71
			h0c0,0,0,0,0,0c0-0.1,0.1-0.1,0.1-0.1c0.1-0.2,0.2-0.4,0.3-0.6c0.1-0.3,0.3-0.6,0.5-0.9c0,0,0.1-0.1,0.1-0.2c0,0,0-0.1,0-0.1
			c0.1-0.3,0.2-0.5,0.2-0.8c0.1-0.3,0.2-0.5,0.2-0.8c0-0.1,0-0.1,0-0.2c0-0.1,0-0.1,0-0.1c0-0.3,0.1-0.6,0.1-0.8
			c0-0.3,0.1-0.6,0.1-0.8c0-0.1,0-0.1,0-0.2c0,0,0-0.1,0-0.2c0-0.3-0.1-0.5-0.1-0.8c0-0.3,0-0.6-0.1-0.9c0,0,0-0.1,0-0.1
			c0-0.1,0-0.1,0-0.2c-0.1-0.3-0.2-0.5-0.2-0.8c-0.1-0.3-0.1-0.6-0.3-0.8c0,0,0-0.1,0-0.1c0-0.1-0.1-0.1-0.1-0.2
			c-0.1-0.3-0.3-0.5-0.4-0.8c0,0,0,0,0,0c-0.1-0.2-0.2-0.4-0.3-0.7c0,0-0.1-0.1-0.1-0.1v0c0,0,0,0,0,0c0,0,0,0,0,0
			c-1.9-3-24-36.8-63.7-71c-54.3-46.7-115.8-71.3-178-71.3c-62.1,0-123.7,24.7-177.9,71.3c-40.7,35-62.9,69.7-63.8,71.1c0,0,0,0,0,0
			c-0.1,0.2-0.2,0.5-0.3,0.7c-0.1,0.2-0.3,0.4-0.4,0.7c0,0.1-0.1,0.2-0.1,0.3c0,0.1-0.1,0.1-0.1,0.2c0,0.1-0.1,0.3-0.1,0.4
			c0,0.1,0,0.2-0.1,0.3c-0.1,0.2-0.2,0.5-0.2,0.7c0,0.1,0,0.2,0,0.3c0,0.1-0.1,0.2-0.1,0.2c0,0.2,0,0.5,0,0.7c0,0.2-0.1,0.5-0.1,0.7
			c0,0.1,0,0.2,0,0.3c0,0.1,0,0.2,0,0.3C1967,1348.8,1967.1,1349.1,1967.1,1349.3z M2345.3,1431.8c-35.8,24.2-81.4,43.9-134.9,43.9
			c-51.1,0-95-18-130-40.7c-5.1-3.3-1.4-11.2,4.4-9.2c36.2,12.1,76.2,18.8,118.1,19.2c1.5,0,3,0,4.4,0c47,0,92.5-7.8,133.3-22.3
			C2346.3,1420.7,2350.3,1428.4,2345.3,1431.8z M2143.6,1318.5c0-12.3,9.9-22.2,22.2-22.2c12.3,0,22.2,9.9,22.2,22.2
			c0,12.3-9.9,22.2-22.2,22.2C2153.6,1340.7,2143.6,1330.8,2143.6,1318.5z M2419.4,1340.4c5,4.1,5,11.7,0,15.8
			c-39.4,32.2-92.5,54.4-151.2,63.5c-5.5,0.8-9.2-5.6-5.5-9.9c14.3-16.5,22.9-38,22.9-61.5c0-23.5-8.6-45-22.9-61.5
			c-3.6-4.2,0-10.7,5.5-9.9C2326.9,1286,2380.1,1308.2,2419.4,1340.4z M2080.4,1261.6c35-22.7,78.9-40.7,130-40.7
			c53.6,0,99.1,19.7,135,44c5,3.4,1.1,11.1-4.6,9.1c-42.1-14.9-89.3-22.8-137.8-22.3c-41.9,0.4-81.9,7.1-118.1,19.2
			C2079,1272.8,2075.4,1264.9,2080.4,1261.6z M2000.5,1340.6c28.9-24.9,65.6-43.6,106.9-55.1c5.4-1.5,9.7,4.6,6.5,9.2
			c-10.6,15.2-16.8,33.7-16.8,53.6s6.2,38.4,16.8,53.6c3.2,4.6-1.1,10.8-6.5,9.2c-41.4-11.5-78-30.3-106.9-55.1
			C1995.8,1352,1995.8,1344.6,2000.5,1340.6z"/>
		<path d="M2208.9,1161.9c4.3,0.8,8.4-2,9.2-6.2c1.1-5.5,1.6-11.1,2-16.6c0.4-5.5,0.5-11.1,0.6-16.6c0-5.5-0.2-11.1-0.6-16.6
			c-0.4-5.5-0.9-11.1-2-16.6c-0.6-3.1-3-5.6-6.2-6.2c-4.3-0.8-8.4,2-9.2,6.2c-1.1,5.5-1.6,11.1-2,16.6c-0.4,5.5-0.5,11.1-0.6,16.6
			c0.1,5.5,0.2,11.1,0.6,16.6c0.4,5.5,0.9,11.1,2,16.6C2203.3,1158.7,2205.7,1161.3,2208.9,1161.9z"/>
		<path d="M2102.8,1151.6c1.5,3.6,3.1,7,5,10.4c1.8,3.4,3.9,6.7,6.4,9.8c1.7,2,4.4,3.3,7.2,2.9c4.4-0.5,7.5-4.5,7-9
			c-0.5-4-1.5-7.8-2.6-11.4c-1.2-3.7-2.5-7.3-4-10.8c-1.5-3.5-3.2-7-5.1-10.4c-1.9-3.4-3.9-6.7-6.3-9.9c-1.7-2.2-4.5-3.4-7.4-3
			c-4.4,0.6-7.4,4.7-6.8,9c0.6,3.9,1.6,7.7,2.7,11.4C2100,1144.5,2101.3,1148.1,2102.8,1151.6z"/>
		<path d="M2026.3,1200.4c1.6,2.1,3.3,4.1,5.2,5.9c1.9,1.8,4,3.6,6.5,4.9c1.8,1,4.1,1.4,6.3,0.8c4.5-1.2,7.1-5.8,5.9-10.3
			c-0.7-2.8-1.9-5.2-3.2-7.5c-1.3-2.3-2.8-4.5-4.5-6.5c-1.6-2.1-3.4-4-5.3-5.9c-2-1.8-4-3.6-6.4-5c-1.9-1.1-4.3-1.5-6.6-0.8
			c-4.4,1.3-6.9,5.9-5.6,10.3c0.8,2.7,2,5.1,3.3,7.4C2023.2,1196.2,2024.7,1198.4,2026.3,1200.4z"/>
		<path d="M2382.8,1211.3c2.5-1.4,4.6-3.1,6.5-4.9c1.9-1.8,3.7-3.8,5.2-5.9c1.6-2.1,3.1-4.3,4.4-6.6c1.3-2.3,2.5-4.7,3.3-7.4
			c0.6-2.1,0.4-4.5-0.8-6.6c-2.3-4-7.4-5.3-11.4-3c-2.4,1.4-4.5,3.2-6.4,5c-1.9,1.8-3.7,3.8-5.3,5.9c-1.6,2.1-3.1,4.2-4.5,6.5
			c-1.3,2.3-2.5,4.7-3.2,7.5c-0.5,2-0.3,4.3,0.8,6.3C2373.7,1212.1,2378.8,1213.6,2382.8,1211.3z"/>
		<path d="M2306.6,1171.9c2.5-3.1,4.6-6.4,6.4-9.8c1.8-3.4,3.5-6.9,5-10.4c1.5-3.6,2.8-7.2,4-10.9c1.1-3.7,2.2-7.5,2.7-11.4
			c0.4-2.7-0.7-5.6-3-7.4c-3.5-2.7-8.5-2.1-11.2,1.4c-2.5,3.1-4.5,6.5-6.3,9.9c-1.9,3.4-3.5,6.9-5.1,10.4c-1.6,3.5-2.9,7.1-4,10.8
			c-1.2,3.7-2.1,7.5-2.6,11.4c-0.3,2.6,0.7,5.4,2.9,7.2C2298.8,1175.9,2303.8,1175.4,2306.6,1171.9z"/>
		<path d="M1952.4,718.3v171.2c0,35.7,28.9,64.7,64.7,64.7c5.3,0,9.4,4.4,9.4,9.4c0,0.7-0.1,1.5-0.3,2.2l-20.4,87.2
			c-1,4.2,0.8,8.6,4.4,11c1.7,1.1,3.7,1.7,5.6,1.7c2.2,0,4.3-0.7,6.2-2l144.8-107.9c1.3-1,2.9-1.5,4.6-1.5c2.1,0,4,0.9,5.4,2.2
			c1.4,1.4,2.2,3.3,2.2,5.4v16.6c0,28.9,23.4,52.4,52.3,52.4h102.5c11,0,21.6,3.5,30.4,10.1l99.4,74.1c1.8,1.4,4,2,6.2,2
			c2.8,0,5.6-1.1,7.7-3.4c2.4-2.6,3.1-6.3,2.3-9.6l-15.7-67c-0.7-3.1,1.6-6.1,4.8-6.1c14.4,0,27.5-5.9,37-15.3
			c9.5-9.5,15.3-22.6,15.3-37V846c0-28.9-23.4-52.3-52.4-52.3h-62.8c-9.6,0-17.3-7.8-17.3-17.4v-57.9c0-35.7-29-64.7-64.7-64.7
			h-307.1C1981.3,653.7,1952.4,682.6,1952.4,718.3z M2368.3,718.3v171.2c0,24.3-19.7,44.1-44.1,44.1h-134.7c-0.1,0-0.1,0-0.1,0
			c0,0-0.1,0-0.1,0h-23.8c-0.1,0-0.1,0-0.2,0c-0.4,0-0.8,0.1-1.2,0.1c-0.3,0-0.6,0.1-0.8,0.1c-0.4,0.1-0.7,0.2-1.1,0.3
			c-0.3,0.1-0.6,0.2-0.8,0.3c-0.3,0.1-0.6,0.3-0.9,0.5c-0.3,0.2-0.6,0.3-0.9,0.5c-0.1,0.1-0.2,0.1-0.2,0.1l-115.1,85.8
			c-4,3-9.6-0.7-8.4-5.5l16.3-69.6c0-0.1,0-0.1,0-0.2c0-0.2,0.1-0.4,0.1-0.7c0.1-0.5,0.1-1,0.2-1.4v-0.1c0-0.1,0-0.3,0-0.4
			c0-0.5-0.1-1.1-0.2-1.6c0-0.2-0.1-0.4-0.2-0.6c-0.1-0.5-0.2-0.9-0.4-1.3c-0.1-0.2-0.2-0.4-0.3-0.6c-0.2-0.4-0.4-0.8-0.6-1.1
			c-0.1-0.2-0.3-0.4-0.4-0.6c-0.3-0.3-0.5-0.7-0.8-1c-0.2-0.2-0.4-0.3-0.5-0.5c-0.3-0.3-0.6-0.6-1-0.8c-0.2-0.2-0.5-0.3-0.7-0.4
			c-0.3-0.2-0.7-0.4-1-0.5c-0.3-0.1-0.7-0.2-1-0.3c-0.3-0.1-0.5-0.2-0.8-0.3c-0.1,0-0.1,0-0.2,0c-0.3-0.1-0.6-0.1-1-0.1
			c-0.4,0-0.7-0.1-1.1-0.1c-0.1,0-0.1,0-0.1,0h-24.9c-24.3,0-44.1-19.7-44.1-44.1V718.3c0-24.3,19.7-44.1,44.1-44.1h307.1
			C2348.5,674.3,2368.3,694,2368.3,718.3z"/>
		<path d="M2061.2,898.6c16.8-5.3,33.2-12.8,48.2-23.1c1.9-1.2,3.7-2.7,5.5-4.1c1.8-1.4,3.7-2.8,5.4-4.3c1.5-1.3,3.4-2,5.4-2
			c1.5,0,3.1,0.4,4.5,1.3c0.2,0.1,0.4,0.2,0.6,0.4c16.8,10.3,36.7,14.5,56,13.2c16.2-1.3,32.1-6.4,45.9-14.7
			c2.8-1.7,6.4-1.4,8.9,0.7c0,0,0,0,0,0c7.2,5.8,14.9,10.7,22.8,14.8c4.1,2.1,9.4,0.3,11.1-4.8c0.9-3-0.2-6.2-2.7-8.2l-0.1-0.1
			c-5.4-4.3-10.7-8.7-15.6-13.2c-2.6-2.5-2.8-6.6-0.3-9.3c1.7-1.8,3.3-3.6,4-4.5c1.5-1.9,3.1-3.6,4.4-5.6l4-5.8
			c1.4-1.9,2.4-4,3.6-5.9c1.2-2,2.3-4,3.4-6.1c4.4-8.2,8-16.9,10.4-26.2c2.4-9.3,3.7-19.2,2.3-29.6c-0.2-2.6-0.9-5.2-1.5-7.8
			c-0.9-2.6-1.7-5.3-3-7.8c-2.5-5.1-6.3-10.3-11.9-14c-5.5-3.8-13-5.5-19.8-4.4c-6.8,1-12.4,4.3-16.7,7.9
			c-8.7,7.5-13.5,16.6-17.1,25.5c-1.8,4.5-3.2,9-4.4,13.5l-1.6,6.8l-1.2,6.9c-1.3,9.3-1.7,19.1,0,28.9c0.9,5.7,4.3,14.2,7,20.3
			c2.1,4.8,0.2,10.6-4.6,12.9c0,0-0.1,0-0.1,0c-9.1,4.3-19,6.9-29,7.6c-11.1,0.8-22.2-1-32.4-4.9c-2-0.8-5.4-2.5-8.2-4
			c-2.4-1.3-3.1-4.4-1.5-6.5c1.6-2.2,3-4.4,4.4-6.6c4.9-7.8,9-16,12.6-24.3c3.5-8.3,6.5-16.7,9.1-25.5c2.5-8.8,4.4-17.9,5-27.5
			c0.6-9.5,0-19.5-3.4-29.6c-1.8-5-4.4-10.1-8.3-14.6c-3.8-4.5-9.2-8.4-15.4-10.3c-6.2-2-13.1-1.7-18.9,0.1
			c-5.9,1.8-10.9,5-15.1,8.7c-4.2,3.7-7.4,7.9-10.1,12.3c-1.3,2.2-2.6,4.4-3.6,6.7c-0.5,1.1-1.1,2.3-1.6,3.4l-1.3,3.4
			c-1.8,4.6-3,9.3-3.9,13.7l-1.5,6.7l-1.1,6.9c-0.9,4.5-1,9.2-1.4,13.9c-0.3,2.3-0.1,4.7-0.1,7.1c0.1,2.4-0.1,4.7,0.2,7.1
			c0.6,9.5,2.6,19,5.8,28.2c3.1,8.7,7.6,16.9,13.3,24.2c1.4,1.9,1.1,4.5-0.6,6.1c-2.9,2.7-6,5.2-9.2,7.6
			c-12.8,9.7-27.3,17.7-42.5,24.5l0,0c-3.7,1.7-5.6,6.1-3.9,10.1C2053,898,2057.3,899.8,2061.2,898.6z M2232.8,791.2
			c1.1-7.7,3.2-15.5,6-22.5c1.4-3.5,3.1-6.8,4.9-9.8c1.9-2.8,3.9-5.6,6.2-7.3c2.2-1.8,4.4-2.9,6.2-3.1c1.8-0.2,3.2,0.1,4.8,1.1
			c3.2,2.1,6.3,7.8,6.9,14.5c0.9,6.7,0.1,14.1-1.9,21.4c-1.9,7.3-4.9,14.6-8.7,21.6c-0.9,1.8-1.9,3.5-2.9,5.2c-1,1.7-2,3.5-3.1,5.1
			l-3.3,4.8c-1.1,1.6-2.4,3-3.6,4.5c0,0,0,0,0,0c-2.3,2.9-6.8,2.1-8.2-1.3c-1.5-3.8-2.6-7.8-3.3-11.8
			C2231.4,806.5,2231.6,798.9,2232.8,791.2z M2110.2,780.4c0.3-3.9,0.4-7.8,1.1-11.8l0.9-5.9l1.3-5.9c0.9-4,1.8-7.6,3.1-11.1l1-2.6
			c0.3-0.8,0.8-1.6,1.1-2.5c0.7-1.7,1.7-3.1,2.5-4.7c1.9-2.9,3.9-5.6,6.2-7.6c2.3-2,4.7-3.5,7-4.2c2.3-0.7,4.5-0.8,6.4-0.2
			c2,0.6,3.9,1.8,5.6,3.9c1.7,2,3.2,4.7,4.3,7.7c2.1,6.2,2.8,13.7,2.3,21.3c-0.5,7.6-2,15.5-4.1,23.2c-2.2,7.6-4.9,15.5-8.1,23.1
			c-3.2,7.5-6.8,14.7-10.9,21.5c-0.3,0.5-0.7,1.1-1,1.6c-1.9,3-6.3,2.9-8.2-0.2c-2.3-3.8-4.3-7.8-5.8-12c-2.4-7.1-4.1-14.5-4.6-22.2
			c-0.3-1.9-0.1-3.9-0.2-5.8C2110.2,784.3,2109.9,782.4,2110.2,780.4z"/>
		<path d="M401.5,1246.8c16.8-5.3,33.2-12.8,48.2-23.1c1.9-1.2,3.7-2.7,5.5-4.1c1.8-1.4,3.7-2.8,5.4-4.3l0.3-0.2
			c2.6-2.3,6.3-2.5,9.2-0.7c0.3,0.2,0.6,0.4,0.9,0.6c16.8,10.3,36.7,14.5,56,13.2c16.2-1.3,32-6.3,45.8-14.7
			c2.9-1.7,6.5-1.5,9.1,0.6l0,0c7.2,5.8,14.9,10.7,22.8,14.8c4,2.1,9.4,0.3,11.1-4.8c1-3-0.2-6.3-2.7-8.2l-0.1-0.1
			c-5.2-4.1-10.3-8.3-15-12.7c-2.7-2.5-3.1-6.7-0.8-9.6c1.4-1.8,2.9-3.5,3.8-4.7c1.5-1.9,3.1-3.6,4.4-5.6l4-5.8
			c1.4-1.9,2.4-3.9,3.6-5.9c1.2-2,2.3-3.9,3.4-6c4.3-8.2,8-16.9,10.4-26.2c2.4-9.3,3.7-19.2,2.3-29.7c-0.2-2.6-0.9-5.2-1.5-7.8
			c-0.9-2.6-1.7-5.3-3-7.8c-2.5-5.1-6.3-10.3-11.9-14c-5.5-3.8-13-5.5-19.8-4.4c-6.8,1-12.4,4.3-16.7,7.9
			c-8.7,7.5-13.5,16.6-17.1,25.5c-1.8,4.5-3.2,9-4.4,13.5l-1.6,6.8l-1.2,6.9c-1.3,9.3-1.7,19.1,0,28.9c1,6.4,5.3,16.4,8.2,22.6
			c1.6,3.5,0.1,7.5-3.3,9.3c-9.8,5.1-20.7,8.1-31.6,8.9c-11.3,0.8-22.6-1-33-5.2c-1.3-0.5-3.2-1.5-5.1-2.5c-3.7-2-4.8-6.7-2.5-10.2
			c1-1.4,1.9-2.9,2.8-4.3c4.9-7.8,9-16,12.6-24.3c3.5-8.3,6.5-16.7,9.1-25.5c2.5-8.8,4.4-17.9,5-27.5c0.6-9.5,0-19.5-3.4-29.6
			c-1.8-5-4.4-10.1-8.2-14.6c-3.8-4.5-9.2-8.4-15.5-10.3c-6.2-2-13.1-1.7-18.9,0.1c-5.9,1.8-10.9,5-15.1,8.7
			c-4.2,3.7-7.4,7.9-10.1,12.3c-1.3,2.2-2.6,4.4-3.6,6.7c-0.5,1.1-1.1,2.3-1.6,3.4l-1.3,3.4c-1.8,4.6-3,9.3-3.9,13.7l-1.5,6.7
			l-1.1,6.9c-0.8,4.5-1,9.2-1.4,13.9c-0.3,2.3-0.1,4.7-0.1,7.1c0.1,2.4-0.1,4.7,0.2,7.1c0.6,9.5,2.6,19,5.8,28.1
			c2.8,7.9,6.9,15.5,11.9,22.4c2.2,3,1.8,7-0.9,9.5c-2.4,2.1-4.9,4.1-7.4,6.1c-12.8,9.7-27.3,17.7-42.5,24.6l0,0
			c-3.7,1.7-5.6,6.1-3.9,10.1C393.3,1246.3,397.7,1248,401.5,1246.8z M573.1,1139.5c1.1-7.7,3.2-15.5,6-22.5c1.4-3.5,3-6.8,4.9-9.8
			c1.9-2.8,3.9-5.6,6.2-7.3c2.2-1.8,4.4-2.9,6.2-3.1c1.8-0.2,3.2,0.1,4.8,1.1c3.2,2.1,6.3,7.8,6.9,14.5c0.9,6.7,0.1,14.1-1.9,21.4
			c-1.9,7.3-4.9,14.6-8.7,21.6c-0.9,1.8-1.9,3.5-2.9,5.2c-1,1.7-2,3.5-3.1,5.1l-3.3,4.8c-1.1,1.6-2.4,3-3.6,4.5c0,0,0,0,0,0.1
			c-2.3,2.9-6.9,2.3-8.2-1.2c-1.5-3.9-2.6-8.1-3.3-11.9C571.8,1154.7,572,1147.1,573.1,1139.5z M450.5,1128.6
			c0.3-3.9,0.4-7.8,1.1-11.8l0.9-5.9l1.3-5.9c0.8-4,1.8-7.7,3.1-11.1l1-2.6c0.4-0.8,0.8-1.6,1.1-2.4c0.7-1.7,1.6-3.1,2.5-4.7
			c1.9-2.9,3.9-5.6,6.2-7.6c2.3-2,4.7-3.5,7-4.2c2.3-0.7,4.5-0.7,6.4-0.2c2,0.6,3.9,1.8,5.6,3.9c1.7,2,3.2,4.7,4.3,7.7
			c2.1,6.2,2.8,13.7,2.3,21.3c-0.5,7.6-2,15.4-4.2,23.2c-2.2,7.7-4.9,15.6-8.1,23.1c-3.2,7.5-6.8,14.7-11,21.5
			c-0.4,0.6-0.7,1.1-1.1,1.7c-1.9,2.9-6.2,2.8-8-0.2c-2.3-3.8-4.3-7.8-5.9-12c-2.4-7.1-4.1-14.5-4.6-22.2c-0.3-1.9-0.1-3.9-0.2-5.8
			C450.5,1132.5,450.3,1130.6,450.5,1128.6z"/>
		<path d="M2498.9,1767.6h-196.1c-22.8,0-41.2,18.4-41.2,41.2v12.6c0,7.4-6,13.4-13.4,13.4h-32c-23.7,0-43,18.2-43,40.6v24.9
			c0,44.1,33.3,81,77.6,90.1c6.2,1.3,10.8,6.7,10.8,13.1c0,32,13,60.9,33.9,81.9c21,21,49.9,33.9,81.9,33.9h46.9
			c64,0,115.8-51.9,115.8-115.8v-194.7C2540.1,1786.1,2521.6,1767.6,2498.9,1767.6z M2261.5,1954.5c0,9.3-9.2,15.7-18,12.5
			c-29.1-10.4-49.7-36.4-49.7-66.7v-24.9c0-11,10-20,22.4-20h32c7.4,0,13.4,6,13.4,13.4V1954.5z M2519.3,1982.2
			c0,15.6-12.7,28.3-28.4,28.3h-180.4c-15.6,0-28.3-12.6-28.4-28.2c0,0,0,0,0,0v0c0,0,0,0,0,0v-137c0,0,0,0,0,0v-36.3
			c0-11.4,9.2-20.6,20.6-20.6h196.1c11.4,0,20.6,9.3,20.6,20.6C2519.5,1808.8,2519.4,1926.7,2519.3,1982.2z"/>
		<path d="M2756.2,1462.1h-51.4c-20.5,0-37.1-16.6-37.1-37.1v-0.2c0-18.3,13.3-33.9,31.3-36.7c11.9-1.8,21.9-4.9,26.4-10
			c8.8-9.8,14.4-22.9,11.2-37.7c-4.2-19.2-21.8-32.4-41.4-32.4h-138.7c-11.3,0-21.6,4.6-29,12.1c-8.1,8.1-14.1,19.7-12,32
			c4.1,23.5,20.7,32.8,43.8,36.3c18,2.7,31.3,18.4,31.3,36.7v0c0,20.5-16.6,37.1-37.1,37.1h-66.9c-11.3,0-21.6,4.6-29,12.1
			c-8.1,8.1-12.9,19.5-12,32c1.5,21.7,20.4,38.1,42.1,38.1h28.2c20,0,36.1,16.2,36.1,36.1c0,20-16.2,36.1-36.1,36.1h-210
			c-11.3,0-21.6,4.6-29,12.1c-7.5,7.5-12.1,17.7-12.1,29c0,22.6,18.5,41.1,41.1,41.1h363.7c11.3,0,21.6-4.6,29-12.1
			c7.5-7.5,12.1-17.7,12.1-29c0-22.6-18.5-41.1-41.1-41.1h-4.3c-20,0-36.1-16.2-36.1-36.1c0-20,16.2-36.1,36.1-36.1h91
			c11.3,0,21.6-4.6,29-12.1c7.5-7.5,12.1-17.8,12.1-29C2797.3,1480.6,2778.8,1462.1,2756.2,1462.1z"/>
		<path d="M2193.3,2374.5h-701.2c-22.7,0-41.2,18.5-41.2,41.2v68.7c0,22.7,18.5,41.2,41.2,41.2h701.2c22.7,0,41.2-18.5,41.2-41.2
			v-68.7C2234.5,2393,2216,2374.5,2193.3,2374.5z M2213.9,2484.4c0,11.4-9.2,20.6-20.6,20.6h-701.2c-11.4,0-20.6-9.2-20.6-20.6
			v-68.7c0-11.4,9.2-20.6,20.6-20.6h38.2c7.5,0,13.7,6,14,13.5l1.7,44c0.2,4.2,3.7,7.6,8.1,7.4c4.1-0.2,7.2-3.8,7.4-7.8l1.7-43.6
			c0.3-7.5,6.5-13.5,14-13.5h50.5c7.4,0,13.5,5.8,14,13.2l1.2,19.5c0.3,4.1,3.7,7.4,8,7.2c4-0.1,7.2-3.6,7.5-7.6l1.2-19.1
			c0.5-7.4,6.6-13.2,14-13.2h50.5c7.5,0,13.7,6,14,13.5l1.7,44c0.2,4.2,3.7,7.6,8.1,7.4c4.1-0.2,7.2-3.8,7.4-7.8l1.7-43.6
			c0.3-7.5,6.5-13.5,14-13.5h50.5c7.4,0,13.5,5.8,14,13.2l1.2,19.5c0.3,4.1,3.7,7.4,8,7.2c4-0.1,7.2-3.6,7.5-7.6l1.2-19.1
			c0.5-7.4,6.6-13.2,14-13.2h50.5c7.6,0,13.7,6,14,13.5l1.7,44c0.2,4.2,3.7,7.6,8.1,7.4c4.1-0.2,7.2-3.8,7.4-7.8l1.7-43.6
			c0.3-7.5,6.5-13.5,14-13.5h50.5c7.4,0,13.5,5.8,14,13.2l1.3,19.5c0.3,4.1,3.7,7.4,8,7.2c4-0.1,7.2-3.6,7.4-7.6l1.2-19.1
			c0.5-7.4,6.6-13.2,14-13.2h50.5c7.5,0,13.7,6,14,13.5l1.7,44c0.2,4.2,3.7,7.6,8.1,7.4c4.1-0.2,7.2-3.8,7.4-7.8l1.7-43.6
			c0.3-7.5,6.5-13.5,14-13.5h34c11.4,0,20.6,9.2,20.6,20.6V2484.4z"/>
		<path d="M2039.9,2660.3l-128.6-43.8c-0.1,0-0.2-0.1-0.3-0.1c-0.2-0.1-0.5-0.1-0.7-0.2c-0.4-0.1-0.8-0.2-1.2-0.2
			c-0.2,0-0.5-0.1-0.7-0.1c-0.2,0-0.3,0-0.5,0H1409c-18.7,0-33.9,15.2-33.9,33.9v40.3c0,18.7,15.2,33.9,33.9,33.9H1908
			c0.6,0,1.1-0.1,1.7-0.1c0.1,0,0.2-0.1,0.3-0.1c0.4-0.1,0.9-0.2,1.3-0.3h0l128.6-43.8c4.2-1.4,7-5.4,7-9.8
			C2046.9,2665.7,2044.1,2661.8,2039.9,2660.3z M1502.7,2690.4c0,7.3-5.9,13.2-13.2,13.2c-3.6,0-6.9-1.5-9.3-3.9s-3.9-5.7-3.9-9.3
			v-40.7c0-7.3,5.9-13.2,13.2-13.2c7.3,0,13.2,5.9,13.2,13.2V2690.4z M1876.7,2703.6h-340.2c-7.3,0-13.2-5.9-13.2-13.2v-40.7
			c0-7.3,5.9-13.2,13.2-13.2H1876c6.4,0,10.8,6.1,9.2,12.2c-4.1,15.3-2.8,30.1,0.7,42.7C1887.6,2697.6,1883,2703.6,1876.7,2703.6z
			 M1956.2,2675.7c0,6.5-4.1,12.3-10.3,14.4l-25.6,8.7c-4.8,1.6-10-0.7-11.9-5.4c-4.8-11.6-8.6-29-0.6-47.2c2-4.5,7.1-6.6,11.7-5.1
			l26.3,8.9c6.2,2.1,10.3,7.9,10.3,14.4V2675.7z"/>
		<path d="M1157.7,2361.7h-38.4c-3.6,0-6.5-2.8-6.7-6.4c0,0,0,0,0-0.1c-0.4-5.8-1-11.6-2.1-17.3c-0.7-3.3-3.4-6-7-6.3
			c-4.1-0.4-7.7,2.7-8.5,6.8c-1.1,5.6-1.6,11.2-2,16.8c0,0,0,0.1,0,0.1c-0.2,3.6-3.1,6.4-6.7,6.4h-58.4c-3.6,0-6.5-2.8-6.7-6.4
			c0,0,0-0.1,0-0.1c-0.4-5.8-0.9-11.6-2-17.3c-0.6-3.3-3.4-6.1-7-6.4c-4.1-0.4-7.8,2.8-8.5,6.9c-1,5.6-1.6,11.2-1.9,16.8
			c0,0,0,0.1,0,0.1c-0.3,3.6-3.2,6.4-6.7,6.4h-58.5c-3.6,0-6.5-2.8-6.7-6.4c0,0,0-0.1,0-0.1c-0.4-5.8-1-11.6-2.1-17.3
			c-0.7-3.3-3.4-6-7-6.3c-4.1-0.4-7.8,2.8-8.5,6.8c-1.1,5.6-1.6,11.2-2,16.8v0.1c-0.2,3.6-3.1,6.4-6.7,6.4h-35.9
			c-22.8,0-41.2,18.4-41.2,41.2v343.4c0,22.8,18.5,41.2,41.2,41.2h290.4c22.8,0,41.2-18.4,41.2-41.2v-343.4
			C1198.9,2380.1,1180.4,2361.7,1157.7,2361.7z M1178.3,2746.2c0,11.4-9.2,20.6-20.6,20.6H867.3c-11.4,0-20.6-9.2-20.6-20.6v-261.5
			c0-8.6,6.9-15.5,15.5-15.5h300.6c8.6,0,15.5,6.9,15.5,15.5V2746.2z M1178.3,2433.1c0,8.6-6.9,15.5-15.5,15.5H862.2
			c-8.6,0-15.5-6.9-15.5-15.5v-30.3c0-11.4,9.2-20.6,20.6-20.6h36c3.6,0,6.5,2.8,6.7,6.4c0,0.4,0,0.8,0.1,1.2
			c0.4,5.8,0.9,11.6,1.9,17.3c0.6,3.4,3.4,6.2,7.2,6.5c4.1,0.3,7.7-2.9,8.4-6.9c1-5.6,1.5-11.2,1.9-16.8c0-0.4,0.1-0.8,0.1-1.2
			c0.2-3.6,3.2-6.4,6.7-6.4h58.5c3.6,0,6.5,2.8,6.7,6.4c0,0.4,0,0.8,0.1,1.2c0.4,5.8,0.9,11.6,2,17.3c0.6,3.4,3.4,6.2,7.2,6.4
			c4.1,0.3,7.7-2.8,8.4-6.9c1-5.6,1.5-11.2,1.9-16.8c0-0.4,0.1-0.8,0.1-1.2c0.2-3.6,3.2-6.4,6.7-6.4h58.5c3.6,0,6.5,2.8,6.7,6.4
			c0,0.4,0.1,0.8,0.1,1.2c0.4,5.8,0.9,11.6,1.9,17.3c0.6,3.4,3.4,6.2,7.2,6.5c4.1,0.3,7.7-2.9,8.4-7c0.9-5.6,1.5-11.2,1.8-16.9
			c0-0.4,0.1-0.8,0.1-1.2c0.2-3.6,3.2-6.4,6.7-6.4h38.5c11.4,0,20.6,9.2,20.6,20.6V2433.1z"/>
		<path d="M1102.8,2533.6H972.2c-5.7,0-10.3,4.6-10.3,10.3s4.6,10.3,10.3,10.3h130.5c5.7,0,10.3-4.6,10.3-10.3
			S1108.5,2533.6,1102.8,2533.6z"/>
		<path d="M1102.8,2609.6H972.2c-5.7,0-10.3,4.6-10.3,10.3c0,5.7,4.6,10.3,10.3,10.3h130.5c5.7,0,10.3-4.6,10.3-10.3
			C1113.1,2614.2,1108.5,2609.6,1102.8,2609.6z"/>
		<path d="M1102.8,2685.5H972.2c-5.7,0-10.3,4.6-10.3,10.3c0,5.7,4.6,10.3,10.3,10.3h130.5c5.7,0,10.3-4.6,10.3-10.3
			C1113.1,2690.2,1108.5,2685.5,1102.8,2685.5z"/>
		<circle cx="909" cy="2543.9" r="23.4"/>
		<circle cx="909" cy="2619.9" r="23.4"/>
		<circle cx="909" cy="2695.8" r="23.4"/>
		<path d="M1039.5,285.6c14.4,0.7,28.8,1.2,43.2,1.5l21.8,0.5l21.8,0.3c6.6,0.1,13.2,0.1,19.8,0.2c7.1,0,12.8,5.8,12.8,12.9v24.7
			c0,9.7,7.8,17.5,17.5,17.5h50c9.7,0,17.5-7.8,17.5-17.5v-24.3c0-7.1,5.8-12.9,12.9-12.9l131.5,0.5l174.7-0.3
			c58.2-0.3,116.5,0.7,174.7-3.1c4.1-0.3,7.4-3.7,7.2-8c-0.1-4-3.6-7.2-7.6-7.5c-58.1-3.8-116.2-2.7-174.3-3.1l-174.7-0.3
			l-131.5,0.5c-7.1,0-12.9-5.7-12.9-12.9v-24.3c0-9.7-7.8-17.5-17.5-17.5h-50c-9.7,0-17.5,7.8-17.5,17.5v24.7
			c0,7.1-5.7,12.8-12.8,12.9c-6.6,0-13.2,0.1-19.8,0.2l-21.8,0.3l-21.8,0.5c-14.6,0.3-29.1,0.8-43.7,1.5c-4.2,0.2-7.6,3.7-7.4,8.1
			C1031.8,282.3,1035.4,285.4,1039.5,285.6z"/>
		<path d="M1737.4,410c-58.1-3.7-116.2-2.8-174.3-3.1l-75.7-0.2c-7.1,0-12.9-5.8-12.9-12.9v-25.1c0-9.7-7.8-17.5-17.5-17.5h-50
			c-9.7,0-17.5,7.8-17.5,17.5v25c0,7.1-5.7,12.9-12.8,12.9l-163,0.6l-87.3,0.4c-14.6,0.1-29.1,0.3-43.7,0.8
			c-14.6,0.4-29.1,0.9-43.7,1.7c-4.1,0.2-7.5,3.7-7.3,8c0.1,4.1,3.6,7.2,7.7,7.4c14.4,0.8,28.9,1.3,43.3,1.7
			c14.6,0.4,29.1,0.7,43.7,0.8l87.3,0.4l163,0.6c7.1,0,12.8,5.8,12.8,12.9v22.6c0,9.7,7.8,17.5,17.5,17.5h50
			c9.7,0,17.5-7.8,17.5-17.5v-22.8c0-7.1,5.7-12.9,12.9-12.9l75.7-0.2c58.2-0.3,116.5,0.6,174.7-3.1c4.1-0.3,7.4-3.7,7.2-8
			C1744.9,413.4,1741.4,410.3,1737.4,410z"/>
		<path d="M249.6,1512.3H345c0,0,0.1,0,0.1,0h389.2c0,0,0.1,0,0.1,0h38.7c25.9,0,46.9-21,46.9-46.9v-324.9c0-0.8-0.1-1.6-0.3-2.3
			c0-0.1-0.1-0.2-0.1-0.3c-0.2-0.6-0.4-1.2-0.7-1.8c-0.1-0.2-0.2-0.3-0.3-0.5c-0.3-0.5-0.6-1-1-1.5c-0.1-0.1-0.2-0.3-0.3-0.4
			c-0.4-0.5-0.9-0.9-1.4-1.3c-0.1,0-0.1-0.1-0.2-0.2l-0.2-0.1c-0.1,0-0.1-0.1-0.2-0.1l-54.3-39.8c-6.2-4.5-9.8-11.7-9.8-19.4v-29.6
			c0-25-20.3-45.3-45.3-45.3h-48.2c-16.5,0-32.6-5.3-45.9-15l-66.5-48.7c-20.3-14.9-47.6-14.9-68,0l-66.5,48.7
			c-13.3,9.8-29.4,15-45.9,15h-48.2c-25,0-45.3,20.3-45.3,45.3v29.6c0,7.6-3.7,14.8-9.8,19.4l-54.7,40c-0.1,0.1-0.2,0.2-0.3,0.3
			c-0.4,0.4-0.9,0.7-1.2,1.2c-0.2,0.2-0.3,0.4-0.5,0.6c-0.3,0.4-0.6,0.8-0.8,1.2c-0.1,0.2-0.3,0.4-0.4,0.7c-0.2,0.5-0.4,1-0.5,1.4
			c-0.1,0.2-0.2,0.4-0.2,0.7c-0.1,0.6-0.2,1.3-0.2,1.9c0,0.1,0,0.2,0,0.4v324.9C202.7,1491.3,223.7,1512.3,249.6,1512.3z
			 M760.9,1491.1c-82.2,0.3-416.8,0.3-499,0c-6,0-8.5-7.6-3.8-11.3l231.2-177.4c13-10,31.2-10,44.3,0l231.2,177.4
			C769.4,1483.5,766.9,1491,760.9,1491.1z M785.1,1171.4c5.9-4.4,14.3-0.1,14.3,7.2V1433c0,0-0.2,7.4-0.6,16.2
			c-0.6,12.6-15,19.3-25,11.6l-166.8-128c-10-7.7-9.8-22.7,0.3-30.2L785.1,1171.4z M292.1,1043.2c0-13.6,11.1-24.7,24.7-24.7H629
			c0,0,0,0,0,0l0,0h77c13.6,0,24.7,11.1,24.7,24.7v109.4c0,21-10,40.7-26.9,53.2l-109.4,80.7c-14.4,10.6-34.1,10.4-48.3-0.5
			c-10.2-7.9-22.5-11.8-34.7-11.8c-12.2,0-24.5,3.9-34.7,11.8c-7.2,5.5-15.8,8.3-24.5,8.3c-8.4,0-16.8-2.6-23.9-7.8l-109.4-80.7
			c-16.9-12.5-26.9-32.2-26.9-53.2V1043.2z M223.3,1178.6c0-7.3,8.4-11.6,14.3-7.2l38.3,28.3c0,0,0,0,0.1,0.1l139.5,102.9
			c10.1,7.5,10.3,22.5,0.3,30.2l-166.9,128.1c-10,7.7-24.4,0.9-25-11.6c-0.4-8-0.6-14.5-0.6-14.5V1178.6z"/>
		<path d="M428.9,640.7l62.6,27.7c3.8,1.7,8.5,0,10.2-4c1.6-3.8-0.2-8.2-3.8-10.1l-23.4-12.7c-7.4-4-7-14.6,0.7-18.1l325.6-146.9
			c3.5-1.6,6.2,3.2,3.1,5.5l-270,193c-0.2,0.2-0.4,0.3-0.6,0.5c-0.1,0.1-0.2,0.1-0.3,0.2c-0.5,0.4-0.9,0.8-1.2,1.3
			c-0.1,0.1-0.2,0.2-0.2,0.3c-0.4,0.5-0.7,1-1,1.6c0,0,0,0,0,0c0,0.1,0,0.1,0,0.1c-0.3,0.5-0.5,1.1-0.6,1.7c0,0.1,0,0.1-0.1,0.2
			c-0.1,0.6-0.2,1.2-0.3,1.8c0,0.1,0,0.3,0,0.4c0,0.1,0,0.3,0,0.4v107.9c0,4,2,7.9,5.5,9.8c1.6,0.9,3.3,1.3,5,1.3
			c2.7,0,5.4-1.1,7.4-3.1L601,746c8.4-8.3,21.1-10.4,31.7-5.2l26.4,13c4.4,2.1,9.8,1,12.9-3l259-334.2c0.2-0.2,0.3-0.4,0.4-0.7
			c0.1-0.1,0.2-0.3,0.3-0.4c0.3-0.5,0.5-1,0.7-1.5c0.1-0.2,0.2-0.4,0.2-0.7c0.1-0.3,0.2-0.7,0.3-1c0-0.2,0.1-0.5,0.1-0.7
			c0.1-0.5,0.1-1,0.1-1.6c0-0.2,0-0.5,0-0.7c0-0.3-0.1-0.7-0.1-1c-0.1-0.3-0.1-0.5-0.2-0.8c-0.1-0.3-0.2-0.6-0.3-1
			c-0.3-0.9-0.7-1.7-1.3-2.5c-3-4.1-8.4-5.5-12.9-3.4l-489.6,221l-0.4,0.2c-2.2,1-4,2.7-5.1,5.1C420.8,632,423.6,638.4,428.9,640.7z
			 M857.3,477.3L668.8,720.5c-4.8,6.2-13.3,8.1-20.3,4.7l-63.4-31.1c-11.2-5.5-12.5-20.9-2.3-28.2l270-193.1
			C855.9,470.7,859.5,474.5,857.3,477.3z"/>
		<path d="M1889.7,483.1c11.8,1.5,22.7-1.9,31.1-8.5c4-3.1,9.6-3.5,14.1-1.2l81.9,41.6c4.9,2.5,7.8,7.7,7.8,13.2
			c0,4.6,0.7,9.5,2.6,14.5c5.9,15.7,20.5,26.8,37.2,27.6c26,1.2,47-21.5,43.2-47.9c-2.4-16.8-19-33-35.8-35.2
			c-11.5-1.5-22.3,1.8-30.6,8.1c-4.4,3.3-10.3,3.8-15.2,1.3l-80.6-40.9c-5.2-2.6-8.5-8-8.5-13.8l0-0.1l0-0.1
			c0-5.8,3.3-11.2,8.5-13.9l80.6-40.9c4.9-2.5,10.8-2,15.2,1.3c8.3,6.3,19.1,9.6,30.6,8.1c19.2-2.5,34.4-18.3,36.1-37.6
			c2.2-25.4-18.3-46.6-43.5-45.5c-16.7,0.7-31.3,11.9-37.2,27.6c-1.9,5-2.7,9.9-2.6,14.5c0.1,5.5-2.8,10.7-7.8,13.2l-81.9,41.6
			c-4.6,2.3-10.1,1.9-14.2-1.3c-7.1-5.5-15.9-8.8-25.5-8.8c-24.6,0-44.3,21.3-41.5,46.5C1855.7,465.3,1870.8,480.7,1889.7,483.1z"/>
		<path d="M576.8,2338.8c-5.9-9.1-15.9-14-26-14h0c0,0,0,0,0,0c-1.5-0.1-3.1-0.1-4.7,0.1c-4.8,0.5-8.5,1.8-13.3-0.1
			c-4.9-1.9-8.5-5.9-11.5-10c-0.4-0.6-0.9-1.1-1.4-1.4l0,0l-8.4-12.9c-5.7-8.7-4.3-20.3,3.4-27.3c28.4-25.8,47.5-60.3,54.1-99.1
			c6.9-40.2-0.6-81.9-21.3-117.1c-25.2-42.9-66.2-72.4-114.5-82.6c-45.5-9.5-92-0.8-130.9,24.6c-39.9,26-66.9,66.4-75.9,113.3
			c-7.8,41.1-0.5,83.9,20.6,120c25.2,43,66.3,72.6,114.6,82.8c12,2.5,24.1,3.8,36.1,3.8c24.2,0,48-5.1,70.2-15
			c9.4-4.2,20.6-0.8,26.2,7.9l13,19.9c1.3,3.5,2,6.8,1.5,9.7c-0.6,3.8-2.8,7-4.7,10.3c0,0,0,0,0,0c0,0,0,0,0,0
			c-7.3,10.1-8.1,24.1-0.9,35.1l108.1,165.6c9.3,14.2,28.5,18.3,42.8,9l21.8-14.3c14.2-9.3,18.3-28.5,9-42.8L576.8,2338.8z
			 M481.5,2273.2c-34.3,22.4-75.3,30.1-115.4,21.7c-40.1-8.4-74.5-32-96.9-66.3c-22.4-34.3-30.1-75.3-21.7-115.4
			c8.4-40.1,32-74.5,66.3-96.9c25.3-16.5,54.1-25,83.6-25c10.6,0,21.3,1.1,31.8,3.3c40.1,8.4,74.5,32,96.9,66.3
			c22.4,34.3,30.1,75.3,21.7,115.4C539.4,2216.4,515.8,2250.8,481.5,2273.2z"/>
		<path d="M247,1699.9c1.1-19.1,8.3-33.3,21.5-42.3c13.7-9.3,33.4-12.1,49.2-6.8c14,4.6,25.8,15.2,31.6,28.3
			c3.8,8.4,6.8,21.8-0.2,37.7c-8.8,20-21.7,25.4-38,32.3c-19.7,8.3-46.7,19.7-54.2,60.6c-2.1,11.2,5.3,21.9,16.5,24
			c1.3,0.2,2.5,0.3,3.8,0.3c9.7,0,18.4-6.9,20.2-16.9c3.5-19.1,11.8-22.5,29.8-30.2c18.7-7.9,44.3-18.8,59.7-53.7
			c10.2-23.1,10.2-48.3,0.1-71c-10.6-23.9-31.2-42.4-56.3-50.7c-28.2-9.3-60.8-4.7-85.3,11.9c-23.7,16.2-37.7,42.5-39.5,74.1
			c-0.6,11.4,8.1,21.1,19.4,21.7C236.6,1719.9,246.3,1711.2,247,1699.9z"/>
		<ellipse transform="matrix(0.1823 -0.9832 0.9832 0.1823 -1646.6022 1805.5706)" cx="262.2" cy="1892.7" rx="25.1" ry="25.1"/>
		<path d="M493.8,2081.9c-34.6-53-106-68-159-33.4c-53,34.6-68,105.9-33.4,159c16.8,25.7,42.5,43.3,72.6,49.6
			c7.9,1.7,15.9,2.5,23.8,2.5c22,0,43.7-6.4,62.6-18.7c25.7-16.8,43.3-42.5,49.6-72.6C516.4,2138.3,510.6,2107.6,493.8,2081.9z
			 M489.9,2164.1c-5.2,24.6-19.6,45.8-40.7,59.6c-43.5,28.4-102.1,16.1-130.5-27.4c-28.4-43.5-16.1-102.1,27.4-130.5
			c15.9-10.4,33.7-15.3,51.4-15.3c15.4,0,30.7,3.8,44.3,11c13.7,7.2,25.7,17.9,34.8,31.7C490.3,2114.3,495.1,2139.5,489.9,2164.1z"
			/>
	</g>
</g>
</svg>
