<?xml version="1.0" encoding="utf-8"?>
<!-- Generator: Adobe Illustrator 21.1.0, SVG Export Plug-In . SVG Version: 6.00 Build 0)  -->
<svg version="1.1" xmlns="http://www.w3.org/2000/svg" xmlns:xlink="http://www.w3.org/1999/xlink" x="0px" y="0px"
	 viewBox="0 0 3000 3000" style="enable-background:new 0 0 3000 3000;" xml:space="preserve">
<g id="fill">
	<g>
		<path style="fill:#FF5777;" d="M990.5,798.4c-4.7-6.4-11.4-11.5-19.6-14.1c-20.9-6.8-43.6,5.6-50.1,26.6l-0.5,1.6l-15.5,50.1
			c-1.4,4.4-6.9,5.7-10,2.4l-90-93.3c-10.1-10.5-26.7-11.8-38.4-2.4c-12.2,9.7-13.9,27.6-4.5,40l127.6,167.3
			c4.8,6.3,11.5,11.2,19.5,13.7c20.8,6.5,43.3-5.9,49.8-26.7l0.5-1.5l15.2-49.1c1.4-4.4,6.9-5.7,10.1-2.3l82.8,87.9
			c9.8,10.4,26,12.1,37.7,3.4c12.7-9.4,15.4-27.2,6-39.9L990.5,798.4z"/>
		<path style="fill:#FF5777;" d="M2111.2,395.3l-1.6-0.3l-19.5-3.8c-4.5-0.9-6.4-6.2-3.5-9.7l40.9-49.2c7.3-8.8,7.1-21.9-1.1-30.5
			c-8.6-8.9-22.8-9.1-32.1-0.9l-97.6,87.1c-5,4.4-8.6,10.5-9.9,17.5c-3.2,17,8.4,33.4,25.4,36.7l1.7,0.3l20.3,4
			c4.4,0.9,6.4,6.2,3.5,9.7l-44.1,54.2c-7.1,8.7-6.9,21.4,0.9,29.9c8.6,9.3,23,9.9,32.3,1.3l100.2-92.4c4.8-4.5,8.3-10.5,9.6-17.5
			C2139.7,414.8,2128.1,398.6,2111.2,395.3z"/>
		<path style="fill:#FF5777;" d="M483.7,1716.6L345,1636.5c-1.9-1.1-4.4-0.4-5.5,1.5l-80.1,138.7c-1.1,1.9-0.4,4.4,1.5,5.5
			l138.7,80.1c1.9,1.1,4.4,0.4,5.5-1.5l80.1-138.7C486.3,1720.1,485.6,1717.7,483.7,1716.6z"/>
		<path style="fill:#FF5777;" d="M2747.4,2071c-0.2-2.2-2.2-3.8-4.4-3.6l-108.8,10.9c-2.2,0.2-3.8,2.2-3.6,4.4l10.9,108.8
			c0.2,2.2,2.2,3.8,4.4,3.6l108.8-10.9c2.2-0.2,3.8-2.2,3.6-4.4L2747.4,2071z"/>
	</g>
	<g>
		<path style="fill:#1FAAFF;" d="M998.9,1200.7l-290.8-104.4c-7.5-2.7-15.8-3.2-24-0.9c-21.2,5.8-33.5,28.6-27.7,49.8l0.2,0.8
			l31.7,114.8c1.2,4.4-2.8,8.6-7.3,7.4l-230.8-59.8c-14.3-3.7-29.3,4.2-34.1,18.4c-5.1,14.9,2.9,31.1,17.8,36.2l303.5,103.8
			c7.4,2.5,15.6,2.9,23.8,0.6c21.2-6,33.2-28.4,27.4-49.7l-0.2-0.8L757,1203.2c-1.2-4.5,2.9-8.6,7.4-7.4l217.5,59.2
			c14.2,3.8,29.3-3.8,34.3-17.9C1021.5,1222.3,1013.8,1206,998.9,1200.7z"/>
		<path style="fill:#1FAAFF;" d="M2636,1676.1l-208.9-72.5c-4.4-1.5-5.5-7.2-2-10.2l81.8-71.2l1.3-1.1c6-5.2,10.5-12.3,12.5-20.6
			c5.2-21.4-7.9-42.9-29.3-48.1l-283.9-68.9c-14.2-3.4-29.1,4.6-33.8,18.7c-5,14.9,3.1,31.1,18,36.1l198,66c4.4,1.5,5.5,7.2,2,10.2
			l-80.9,70.5l-1.2,1.1c-5.9,5.1-10.3,12-12.4,20.1c-5.5,21.3,7.3,43,28.6,48.5l293.6,76c14.2,3.6,29.2-4.1,34.1-18.3
			C2658.7,1697.5,2650.8,1681.2,2636,1676.1z"/>
		<path style="fill:#1FAAFF;" d="M603.4,620.5c0.8,3,4.5,4,6.7,1.9l90.1-87.4c2.2-2.1,1.3-5.9-1.7-6.7l-120.7-34.3
			c-3-0.8-5.7,1.8-5,4.8L603.4,620.5z"/>
		<path style="fill:#1FAAFF;" d="M1602.9,260.2l-71.5-20.3c-2.1-0.6-4.3,0.6-4.9,2.8l-20.3,71.5c-0.6,2.1,0.6,4.3,2.8,4.9l71.5,20.3
			c2.1,0.6,4.3-0.6,4.9-2.8l20.3-71.5C1606.2,263,1605,260.8,1602.9,260.2z"/>
		<path style="fill:#1FAAFF;" d="M2734.4,964.2l-156.5-143c-2.3-2.1-5.9-0.9-6.6,2.1l-45.6,207c-0.7,3,2.2,5.6,5.1,4.7l202.1-64.1
			C2735.9,970.1,2736.7,966.3,2734.4,964.2z"/>
	</g>
	<g>
		<path style="fill:#FFDA00;" d="M989.8,1716.8l-223.2,64.6c-7.6,2.2-14.7,6.7-20,13.4c-13.7,17.2-10.1,42.8,7.3,56.3l1.1,0.8
			l55.7,43.4c3.6,2.8,2.9,8.5-1.4,10.3l-147.1,61.9c-13.3,5.6-20.5,20.6-16.2,34.6c4.6,15.1,20.6,23.5,35.6,18.9l230.6-70.7
			c7.5-2.3,14.4-6.8,19.6-13.5c13.4-17.2,9.7-42.7-7.5-56.1l-1-0.8l-54.9-42.8c-3.6-2.8-2.8-8.5,1.4-10.3l138.5-56.4
			c13.3-5.5,20.7-20.2,16.6-34.4C1020.8,1721.1,1004.9,1712.4,989.8,1716.8z"/>
		<path style="fill:#FFDA00;" d="M2425.8,510.8l-207.5,47c-7.8,1.8-15.1,5.9-20.8,12.2c-14.6,16.4-12.4,42.1,4.1,56.6l1.2,1
			l44.3,38.6c3.4,3,2.4,8.6-1.9,10.2l-131.6,47.9c-13.4,4.9-21.4,19.3-18,33.6c3.7,15.3,19.2,24.7,34.5,21l215.2-52.4
			c7.6-1.9,14.8-6,20.4-12.4c14.4-16.4,12.1-42-4.4-56.3l-1.1-1l-43.5-37.9c-3.5-3-2.4-8.7,2-10.2l123.4-43.3
			c13.7-4.8,21.9-19.4,18.2-33.9C2456.5,516.4,2441,507.4,2425.8,510.8z"/>
		<path style="fill:#FFDA00;" d="M2361.5,2045.5l-77.5-64.7c-3.5-2.9-2.6-8.6,1.7-10.2l36.4-14l2.4-0.9c7.4-2.8,14-7.9,18.6-15
			c12.1-18.2,6.4-43.2-11.9-55.1l-158.5-103.5c-11.7-7.7-27.5-5.7-37,5c-10.6,12-8.9,30.7,3.3,41l82.5,70.5c3.5,3,2.5,8.5-1.7,10.2
			l-37.3,14.4l-2.5,1c-7.6,2.9-14.4,8.3-19.1,15.7c-11.6,18.4-6.1,42.6,12.3,54.2l154.9,97.6c11.9,7.5,27.9,5.3,37.1-5.9
			C2375.3,2073.6,2373.6,2055.6,2361.5,2045.5z"/>
		<path style="fill:#FFDA00;" d="M1183.5,183L902.3,353.4c-2.6,1.6-2.6,5.4,0.1,6.9l288.2,158.3c2.7,1.5,6-0.5,5.9-3.6l-7-328.7
			C1189.5,183.2,1186.1,181.4,1183.5,183z"/>
		<path style="fill:#FFDA00;" d="M842.8,1576l121,21.4c3,0.5,5.5-2.4,4.5-5.3l-41.9-115.5c-1.1-2.9-4.8-3.6-6.8-1.2l-79.1,94.1
			C838.5,1571.8,839.8,1575.5,842.8,1576z"/>
		<path style="fill:#FFDA00;" d="M2741.5,1298.3L2670,1278c-2.1-0.6-4.3,0.6-4.9,2.8l-20.3,71.5c-0.6,2.1,0.6,4.3,2.8,4.9l71.5,20.3
			c2.1,0.6,4.3-0.6,4.9-2.8l20.3-71.5C2744.9,1301.1,2743.6,1298.9,2741.5,1298.3z"/>
		<path style="fill:#FFDA00;" d="M300.5,993.9L229,973.6c-2.1-0.6-4.3,0.6-4.9,2.8l-20.3,71.5c-0.6,2.1,0.6,4.3,2.8,4.9l71.5,20.3
			c2.1,0.6,4.3-0.6,4.9-2.8l20.3-71.5C303.9,996.7,302.7,994.5,300.5,993.9z"/>
	</g>
</g>
<g id="outline">
	<g>
		<path d="M1425.5,1899.3c3.7,4.9,7.7,9.5,12,13.9c4.3,4.4,8.8,8.5,13.6,12.2c4.8,3.8,9.8,7.3,15.3,10.2c3.3,1.7,7.4,1.6,10.6-0.8
			c4.5-3.2,5.5-9.5,2.2-14l-0.1-0.2c-3.5-4.8-7.3-9.1-11.2-13.4c-3.9-4.2-7.8-8.4-11.8-12.4c-4-4.1-8.1-8-12.2-12
			c-4.1-3.9-8.4-7.9-12.7-11.3l-0.6-0.5c-2.9-2.3-6.9-2.8-10.5-1.1c-4.9,2.4-7,8.3-4.6,13.3
			C1418.4,1889.3,1421.8,1894.3,1425.5,1899.3z"/>
		<path d="M1680.8,1707.9c1.6,1.5,3.4,2.8,5.1,4.2c3.4,2.7,6.9,5.2,10.6,7.6c7.3,4.7,15,8.8,23,12.1c4,1.8,8.2,3.1,12.3,4.6
			c4.3,1.1,8.4,2.5,12.8,3.2c8.6,2,17.5,2.6,26.4,2.9c17.8-0.1,35.5-3.6,51.6-10.4c8.1-3.3,15.8-7.4,23.1-12.1
			c3.6-2.4,7.1-4.9,10.5-7.6c1.7-1.4,3.4-2.8,5-4.2c1.7-1.5,3.1-2.9,5-4.8c3.2-3.2,3.8-8.4,1.1-12.3c-3-4.5-9.1-5.6-13.5-2.6
			l-0.8,0.6c-1.2,0.8-2.8,1.9-4.3,2.9c-1.5,1-3.1,2-4.7,2.9c-3.2,1.9-6.5,3.7-9.8,5.4c-6.6,3.4-13.5,6.3-20.4,8.7
			c-3.5,1.3-7,2.2-10.5,3.3c-3.6,0.8-7.1,1.8-10.7,2.3c-7.1,1.5-14.3,1.8-21.5,2.1c-14.4-0.1-28.9-2.5-42.8-7.5
			c-7-2.4-13.8-5.3-20.5-8.8c-3.3-1.7-6.6-3.5-9.8-5.4c-1.6-1-3.2-2-4.7-3c-1.5-1-3.2-2.1-4.3-2.9l-0.8-0.5
			c-3.8-2.7-9.1-2.3-12.5,1.1c-3.8,3.8-3.8,10,0,13.8C1677.6,1705,1679.1,1706.4,1680.8,1707.9z"/>
		<path d="M1312.2,2352.6L1312.2,2352.6c-5.2-4.2-10.6-7.9-16-11.4c-5.4-3.5-10.8-7-16.3-10.3c-5.5-3.3-11-6.6-16.7-9.8
			c-5.6-3.2-11.3-6.3-17.3-9.1l-0.1,0c-3.5-1.6-7.9-1.1-10.9,1.7c-4,3.7-4.3,10-0.5,14.1c4.7,5,9.8,9.5,15.2,13.7
			c5.4,4.2,11,8,16.7,11.6c5.8,3.6,11.8,6.8,17.9,9.7c6.2,2.9,12.5,5.4,19.1,7.2c3.7,1,7.8-0.2,10.3-3.4
			C1317.2,2362.3,1316.5,2356,1312.2,2352.6z"/>
		<path d="M1791.8,2293.3L1791.8,2293.3c-27.3,26.6-58.3,48.7-92.1,65.5c-16.9,8.4-34.5,15.5-52.6,21.1c-18,5.7-36.5,10.1-55.3,13.1
			c-18.7,3.1-37.7,5-56.7,5.6c-19,0.7-38.1,0.2-57.1-1.6c-38-3.5-75.6-11.3-112.6-21.8l0,0c-4.7-1.3-9.7,1-11.7,5.6
			c-2.1,5,0.2,10.7,5.2,12.8c36.9,15.7,76.5,25.4,116.6,29.6c40.1,4.3,80.9,3.4,120.9-3.2c20-3.4,39.7-8.2,59.1-14.4
			c19.3-6.3,38.1-14.2,56.2-23.5c36.1-18.7,69.1-44.1,94.7-75.7c3.1-3.8,2.9-9.4-0.6-13C1801.9,2289.6,1795.7,2289.5,1791.8,2293.3z
			"/>
		<path d="M2425.9,2433.9c-27.2-11.1-57-15.9-86.5-14.4c-14.8,0.8-29.6,2.9-44.1,6.7l-0.4,0.1c-10.1,2.7-20.6-3.4-23.5-13.5
			c-47.1-164.4-170-253.4-472.8-346.1c-12.7-3.9-21.4-15.6-21.4-28.8l0,0c0-13.4,8.9-25.2,21.8-29l3.5-1c5.1-1.5,10-3.6,15-5.4
			l7.4-2.8l7.3-3.3c19.4-8.6,38.2-19.3,55.2-32.4c34.2-26,61.8-60.3,80.8-98.1c2.4-4.7,4.9-9.4,6.9-14.3c2.1-4.8,4.4-9.6,6.3-14.5
			l5.7-14.8c1.9-4.9,3.4-9.9,5.1-14.9c3.5-9.9,5.9-20.1,8.8-30.2l3.5-15.2l1.8-7.6l1.5-7.7c8-40.9,12.2-82.1,13.9-123.3
			c3.3-82.4-2.1-164.4-10.4-245.8l0,0c-0.6-6.5-6.2-11.7-12.9-11.7h-0.1h-666.4c-12.4,0-24.7-2.6-36.1-7.6l-2.8-1.2
			c-3-1.4-5.8-3-8.9-4.1l-9.2-3.4c-12.5-3.9-25.6-6.5-39-6.5c-13.3,0-26.5,2-39.2,5.9c-12.6,4-24.5,10-35.4,17.4
			c-21.8,14.7-39.3,35.7-49.3,60.5c-9.8,24.8-12.2,51.2-9,76.9c3.3,25.6,12.6,50.7,28.2,71.9c7.8,10.6,17.1,20.1,27.8,28l0.2,0.2
			c14,10.2,22.2,26.5,22.2,43.8v358.3c0,16.7-11.1,31.5-27.1,36.2c-23.3,6.8-46,13.4-68.3,19.8c-253.9,73.1-441.7,127.2-506.3,287.2
			c-3,7.4-11.7,10.5-18.6,6.6c-20.1-11.3-42.2-18.5-64.6-22c-30.8-4.7-62.4-2.2-91.8,7c-6.2,2-9.3,9.7-4.5,15.8
			c2.2,2.8,6.1,3.9,9.6,3.1l0,0c27.3-6.1,55.5-6.7,82.5-1.5c27,5.2,52.5,16.4,73.6,33.1c21.2,16.5,37.6,38.7,47.1,64
			c4.7,12.7,7.8,26.1,9.4,39.8c0.1,1.3,0.2,2.6,0.3,3.9c-1.3,2.7-1.7,5.8-0.8,9c0.4,1.3,1,2.5,1.7,3.6c0.3,8.4,0.2,16.8-0.3,25.3
			l0,0.2c-0.3,5.2,3.6,9.9,9.1,10.3c5.1,0.4,9.6-3.6,10.4-8.7c0.5-3,0.9-5.9,1.2-8.9c1-9,7.9-16.2,16.9-17.3
			c37.4-4.7,71.7,9.9,89.3,19.3c7.2,3.8,10.6,12.3,7.9,20c-0.8,2.2-1.4,4.2-1.9,5.9c-4.8,15.4-6.6,31.5-6.1,47.2
			c0.2,6.2,6.2,11.1,13,9c3.8-1.2,6.4-4.8,6.6-8.8l0-0.2c0.6-13.8,3.4-27.3,8-40c4.7-12.6,11.6-24.3,20.2-34.5
			c8.6-10.2,19-18.9,30.4-25.9c11.4-7,24-12.1,36.9-15.7c25.9-7,54-6.8,79.1,2.4c25.3,8.9,46.8,27,61.5,50.4l0.1,0.1
			c2.8,4.5,8.8,5.9,13.4,3.1c4.5-2.8,5.6-8.8,3.2-13.4c-7.2-13.8-16.8-26.6-28.4-37.4c-11.8-11-25.7-19.9-40.7-26
			c-5.7-2.3-11.6-4.3-17.6-5.8c-9.7-2.5-15.6-12.5-12.6-22c2.6-8.4,6.1-16.5,10.5-24.1c9.6-16.8,22.9-31.6,38.7-43.3
			c15.8-11.7,33.9-20.4,52.9-25.7c9.5-2.7,19.3-4.4,29.1-5.3l7.4-0.5c2.5,0,4.9-0.2,7.4-0.2l7.5,0.1l7.5,0.4
			c20,1.4,39.7,5.9,57.9,13.6c18.1,7.8,34.6,19,47.8,33.4c13.4,14.2,23.3,31.5,29.8,50.2c0.9,2.6,1.8,5.3,2.6,7.9
			c-0.3,1.9-0.2,3.9,0.5,5.8c0.5,1.5,1.2,2.7,2.1,3.9c3.2,13.6,4.9,27.7,5.7,41.9l0,0.1c0.3,5.2,4.7,9.4,10.1,9.2
			c5.1-0.2,9.2-4.5,9.5-9.6c0.3-5.4,0-14.6-0.4-22.9c-0.5-10.4,7-19.3,17.2-20.9c16.7-2.5,33.6-2.4,50.1,0.6
			c12.8,2.4,25.2,6.5,36.8,12.3c11.6,5.7,22.4,13.2,31.9,22c9.4,8.8,17.5,19.1,23.8,30.3c6.2,11.3,10.7,23.5,13.2,36.1
			c2.5,12.7,3,25.7,1.5,38.8c-1.5,13-4.8,26-9.6,38.6l0,0.1c-1.9,4.9,0.4,10.5,5.5,12.6c4.7,1.9,10.2-0.4,12.5-4.9
			c6.6-12.8,11.5-26.9,14.2-41.4c2.6-14,12.9-25.3,26.5-29.5c10.4-3.2,21.1-5.2,32-6.1c21-1.5,42.5,0.9,62.5,7.5
			c20,6.7,38.8,17.1,53.6,31.7c1.2,1.2,2.4,2.4,3.6,3.7c1.1,3,3.3,5.5,6.1,7c9.9,12.4,17.1,26.9,20.9,42.6l0,0.1
			c1.2,5.1,6.3,8.4,11.6,7.2c5.1-1.1,8.2-6.3,7.5-11.5c-1.7-12.1-5.3-24.1-10.8-35.2c-0.3-0.7-0.7-1.3-1-2
			c-6.2-12-7.2-26.1-2.6-38.8c21.6-59.9,85.2-95.5,144.4-100.4c67.1-5.6,144.2,26,172.8,96.3c4.1,10.1,1.5,21.7-6.5,29.1l-0.1,0.1
			c-12,11-22.1,24.3-29.5,38.9c-7.5,14.6-11.8,30.6-13.5,46.6c-0.6,6.2,4.7,11.9,11.7,10.6c4-0.7,7-4,7.6-8l0-0.1
			c2.3-13.7,7.1-26.8,13.8-38.7c6.8-11.9,15.8-22.3,26.1-31.3c20.8-17.9,47.3-28.9,74.6-33.8c27.3-5,56.1-4,82.8,4.1
			c4.1,1.2,8.1,2.7,12.1,4.2c1.7,1.6,3.8,2.8,6.2,3.4c0.9,0.2,1.7,0.3,2.5,0.3c18.6,8.5,35.6,20.6,49.6,35.8l0.1,0.1
			c3.6,3.9,9.8,4.3,13.9,0.5c3.8-3.5,3.9-9.6,0.7-13.6c-9.9-12.3-21.6-23.4-34.7-32.4c0,0-0.1-0.1-0.1-0.1c-8.7-6-12.3-17-8.7-26.9
			c5.9-16,13.9-31.2,24.1-44.7c7.7-10.4,16.8-19.8,26.7-28.2c9.9-8.4,20.8-15.7,32.4-21.7c11.6-6,23.9-10.8,36.5-14.3
			c12.7-3.5,25.7-6,38.8-7c26.3-2.1,53.1,0.5,78.7,8.1l0.1,0c5,1.5,10.5-1.3,12.1-6.5C2433.5,2441.1,2430.7,2435.8,2425.9,2433.9z
			 M1153.4,1559.2c-12.3-17.1-19.9-37.8-22.4-59.2c-2.6-21.3-0.4-43.4,7.3-62.7c15.4-38.4,55.7-67.7,97.5-67.4
			c10.4-0.2,20.8,1.8,30.8,4.8l7.5,2.6c2.5,0.9,4.8,2.2,7.3,3.3c4.9,2,9.4,5.1,14,7.8c2.3,1.3,4.4,3.1,6.6,4.7
			c2.1,1.6,4.5,3.1,6.5,4.8c4,3.3,7.9,6.8,11.6,10.7c3.7,3.8,7.2,8,10.6,12.2c1.6,2.2,3.4,4.3,4.9,6.5c1.6,2.1,3.2,4.6,4.5,6.5
			l0.5,0.8c2.5,3.7,7.3,5.3,11.7,3.6c4.9-2,7.2-7.8,5.4-12.8c-1.1-3.3-2.2-5.8-3.5-8.7l0-0.1c-5.5-11.3,2.7-24.4,15.3-24.4
			l413.9-0.4c20.2,0,37.9,13.5,43.3,32.9l0,0c4,14.1,7.9,28.2,12,42.2c8.2,28.1,16.1,56.3,24.5,84.3l0.8,2.6
			c0.2,0.8,0.6,1.9,0.7,2.4c0.2,1.3,0.7,2.5,0.8,3.8c0.1,1.3,0.4,2.5,0.4,3.8l0.1,1.9l-0.2,1.9c-0.4,5.1-2.1,10.2-5,14.5
			c-2.8,4.3-6.6,8.1-11.2,10.6c-2.3,1.2-4.7,2.3-7.2,2.9l-1.9,0.5c-0.6,0.2-1.7,0.4-2.6,0.5l-5.4,1.1c-28.7,5.9-57.3,12.2-85.6,20.1
			c-5,1.4-8.3,6.7-6.8,12.1c1.3,4.7,6.1,7.6,11,7c29-3.3,57.7-8.3,86.4-13.6l5.4-1c1-0.2,1.7-0.3,2.8-0.6l3.4-0.8
			c4.6-1.1,9-3,13.1-5.2c8.3-4.5,15.4-11.2,20.6-19.1c5.3-7.8,8.5-17,9.5-26.5l0.3-3.6l0-3.6c0.1-2.4-0.3-4.7-0.6-7.1
			c-0.2-2.4-0.9-4.6-1.4-7c-0.3-1.3-0.5-1.9-0.8-2.9l-0.7-2.6c-3.2-11.3-10.9-38-19.1-65.9c-12.6-43,19.6-86,64.4-86h36.9
			c8.4,0,15.5,6.4,16.2,14.8c6.3,71.8,9.5,143.8,6.4,215.4c-1.7,40.2-5.8,80.1-13.5,119.1l-1.4,7.3l-1.7,7.3l-3.4,14.5
			c-2.8,9.5-5,19.2-8.3,28.4c-1.6,4.7-2.9,9.4-4.8,14l-5.3,13.8c-1.8,4.6-3.9,9-5.9,13.4c-1.9,4.5-4.2,8.8-6.4,13.2
			c-17.5,34.9-42.1,65.7-72.7,89.1c-15.2,11.8-32,21.5-49.8,29.5l-6.6,3l-6.8,2.6c-4.6,1.7-9,3.7-13.7,5l-14,4.5l-14.2,3.7
			c-38,9.3-77.6,11.9-116.2,6.4c-38.7-5.5-75.6-19-111.8-35.2l-0.1,0c-4.6-2.1-10.2-0.3-12.7,4.4c-2.3,4.4-0.7,10,3.5,12.9
			c17.3,11.7,36.1,21.2,55.8,28.5c19.8,7.3,40.6,12.4,61.5,15.5c12.5,1.8,25.1,2.9,37.7,3.2c38.1,0.9,67.3,34.3,61.9,72
			c-0.3,2.3-0.6,4-1,5.2c-24.8,88.8-101.8,150.7-204.7,161.3c-97.6,10.1-212-27.9-284.5-128.9c-31.4-43.8-47.8-96.6-47.8-150.5
			v-309.9c0-24.5,18.7-44.9,43.1-46.9l0.2,0c6.3-0.2,12.4-1.3,18.6-2.2c5-0.7,8.8-5.2,8.3-10.6c-0.5-5-4.9-8.7-9.9-8.8l-0.4,0
			c-5.7-0.1-11.3,0.2-16.8-0.2c-5.6-0.1-11.1-0.9-16.5-1.4c-10.9-1.5-21.3-4.2-31.3-8C1182.9,1589.3,1165.7,1576.4,1153.4,1559.2z
			 M2235.1,2452.4c-6.7,4.3-13.1,9-19.3,14c-11.6,9.6-22,20.7-31,32.8c-11.2,14.9-19.9,31.6-26.3,49c-3.8,10.4-15,16.1-25.7,13.3
			c-6.6-1.7-13.4-3.3-18-4c-20.3-3-41.1-2.8-61.4,0.9c-11.4,2-22.6,5.2-33.5,9.4c-9.1,3.5-19.4-0.8-23.3-9.8
			c-34.3-79.7-121.5-115.4-197.7-109.1c-64.6,5.4-133.8,43-162.4,106.7c-4.2,9.4-15.7,13-24.3,7.4c-11.2-7.3-23.4-13.2-36-17.5
			c-23.4-8.1-48.4-11.4-73.1-9.4c-11.4,0.9-22.9,3-33.9,6.2c-11.3,3.3-23.3-2.5-27-13.7c-2.6-7.7-5.8-15.2-9.7-22.4
			c-7.5-13.8-17.1-26.3-28.4-37.1c-11.3-10.8-24.2-19.9-38.1-27c-13.9-7-28.9-11.9-44.1-14.7c-16.2-3-42.6-1.1-60.4,0.7
			c-11.1,1.2-21.8-4.8-26.6-14.8c-6.7-14-16.6-33-25.8-43.2c-15.7-17.4-35.3-30.9-56.4-40.2c-21.2-9.3-43.8-14.5-66.4-16.3l-8.5-0.5
			l-8.5-0.2c-2.9,0-5.8,0.1-8.7,0.1l-8.7,0.5c-11.5,1-22.9,3.1-34,6.2c-22.2,6.2-43.3,16.4-61.9,30.2
			c-18.6,13.8-34.5,31.6-45.8,52.1c-6.5,11.7-11.4,24.4-14.5,37.4c-2.3,9.8-10.3,17-20.2,18.4c-5.9,0.8-11.7,2-17.4,3.6
			c-15.6,4.1-30.5,10.9-44.1,19.8c-6.8,4.4-16,13-23.5,20.6c-7.8,7.9-20,9.4-29.6,3.7c-28.4-16.8-62.2-23.8-97.5-20.3
			c-10,1-19-5.7-20.7-15.6l-0.1-0.5c-0.8-3.8-1.6-7.7-2.6-11.5c-1.1-3.8-2.1-7.6-3.3-11.3c-6.3-19.6-16.6-38-30-53.9
			c-6.6-7.9-8.6-18.7-4.9-28.3c53.9-141.9,216-197.7,438.6-262.5c9.5-2.8,19.5,2.2,23.3,11.4c1.3,3.3,2.7,6.5,4.1,9.7
			c5,11.4,10.5,22.6,16.3,33.6c5.9,11,12.2,21.7,19,32.1c6.8,10.4,14,20.5,21.7,30.2c3.7,4.7,11.2,5.2,15.5-0.2
			c2.5-3.1,2.6-7.6,0.5-11l0,0c-6.2-10.2-12.1-20.5-17.7-30.9c-5.6-10.5-10.8-21.1-15.7-31.8c-5-10.7-9.4-21.7-13.7-32.7
			c-1-2.7-2.3-6.3-3.6-9.9c-2.6-7.3,1.5-15.4,9-17.5c24.5-7.1,49.7-14.3,75.4-21.9c6.6-1.9,13.6,1.4,16.1,7.8
			c29.5,73.3,78.2,132.2,142,171.3c53.3,32.6,114.9,49.9,176.5,49.9c11.1,0,22.3-0.6,33.3-1.7c115.5-11.9,201.5-82.5,228.1-183.6
			c2.8-10.8,14-17.2,24.7-13.9c19.9,6.1,39,12.2,57.3,18.3c7.9,2.6,12.9,10.5,11.7,18.7c-0.5,3.6-1,7.2-1.6,10.8
			c-1.8,10.5-3.8,21-6.4,31.3c-2.6,10.3-5.4,20.6-8.9,30.7c-3.3,10.2-7.1,20.1-11.2,30.1l0,0.1c-1.9,4.7,0,10.2,4.8,12.6
			c4.5,2.2,10.1,0.3,12.7-4c6-9.6,11.2-19.7,15.9-30c4.6-10.5,8.8-21.2,12.2-32.2c3.4-11,6.5-22.1,8.8-33.3l0-0.2
			c2.2-10.5,13.3-16.7,23.4-12.9c204.6,76.1,295.2,157,332.8,288.4C2250.1,2433,2245.5,2445.8,2235.1,2452.4z"/>
		<path d="M1844.2,2723.8c-8.5-5.4-18-9.7-28-12.3c-20-5.4-41.8-3.8-61,3.5c-19.3,7.2-36.2,19.9-48.6,36.1
			c-12.5,16.1-20,36.1-20.9,56.3c-0.2,4.8,3.1,9.1,7.9,10c5.3,1,10.4-2.5,11.5-7.8l0-0.1c3.1-16,10.5-30.8,20.8-42.9
			c10.3-12.2,23.7-21.7,38.5-27.3c14.7-5.7,30.8-7.1,46.2-4c15.4,3.1,29.9,11,42.7,21.7l0.1,0.1c3.7,3.1,9.2,3.1,12.8-0.2
			c4-3.6,4.4-9.8,0.8-13.8C1860.4,2735.8,1852.7,2729.3,1844.2,2723.8z"/>
		<path d="M1267.7,2703.2c-5.4-12.7-12.8-24.8-21.9-35.5c-9.1-10.7-20.1-19.9-32.1-27.2c-12.1-7.3-25.1-12.8-38.7-16.2
			c-27.1-6.9-56-6.1-82.5,2.2c-26.5,8.1-50.8,24-68,45.6c-3.1,3.9-2.8,9.6,0.8,13.1c3.9,3.8,10.1,3.7,13.8-0.2l0,0
			c16.5-17,37.6-28.9,60.2-35c22.6-6,46.7-6.3,69.2-0.5c22.4,5.7,43.1,17.7,58.7,34.7c15.7,17,26.2,38.7,31.9,62.1l0,0.1
			c1.2,4.8,5.8,8,10.8,7.3c5.4-0.7,9.1-5.6,8.4-11C1276.6,2729.3,1273,2716,1267.7,2703.2z"/>
		<path d="M776.3,2690.8c-18.3-8-38.4-10.7-57.9-9c-15.3,1.4-30.4,5.5-44.3,12c-2.4-4.3-5-8.5-8-12.5
			c-18.6-25.8-47.2-43.4-77.7-50.4c-30.6-7.1-63.6-3.7-91.9,10.3c-14.1,7-26.9,16.6-37.5,28.1c-10.5,11.6-18.9,24.9-24.8,39
			c-1.9,4.6-0.1,10,4.4,12.4c4.8,2.5,10.7,0.7,13.2-4l0-0.1c12.6-23.5,31.8-42.5,55.2-53c23.3-10.6,50.3-13.1,75.5-7.4
			c25.1,5.7,48.3,19.6,64,39.8c3.7,4.7,7,9.8,9.8,15.1c0,2.4,0.6,4.8,2,6.9c0.7,1.1,1.6,2.1,2.6,2.9c6.1,14.9,9.1,31.3,9.2,48l0,0.1
			c0.1,5,3.9,9.2,9,9.6c5.4,0.4,10.1-3.6,10.5-9c1.2-15.2,0-30.7-3.8-45.9c-0.5-2.1-1.1-4.2-1.8-6.3c11.4-5.9,23.9-9.9,36.7-11.4
			c15.8-1.9,32.1-0.2,46.6,5.7c14.5,5.8,27.1,15.8,35.5,28.9c8.4,13.1,12.5,29.1,13.1,45.5l0,0.1c0.2,5.2,4.5,9.4,9.8,9.4
			c5.4,0,9.7-4.4,9.7-9.8c-0.1-19-4.3-39-14.6-56.2C810.8,2712.4,794.6,2698.7,776.3,2690.8z"/>
		<path d="M2407.3,2665.3c-7.8-6.7-16.7-12.3-26.3-16.5c-19.3-8.5-41.3-10.3-61.8-6.2c-20.5,4.2-39.8,14-55.2,28.1
			c-7.7,7.1-14.5,15.3-20,24.3c-4.3,7.1-7.7,14.7-10.3,22.6c-6.4-0.1-12.7,0.4-19,1.5c-20.7,3.6-40.1,13-55.5,26.8
			c-15.5,13.7-27,32.1-31.9,52.1c-1.1,4.7,1.3,9.6,5.9,11.4c5,2,10.7-0.5,12.7-5.6l0-0.1c6.1-15.6,16.3-29,29.1-39.3
			c12.8-10.2,28.1-17.2,44.1-19.9c15.9-2.7,32.4-1.1,47.1,5.1c14.8,6.2,27.9,16.8,38.7,30.1l0.1,0.1c3,3.7,8.3,4.7,12.6,2.2
			c4.7-2.7,6.2-8.8,3.5-13.4c-5.1-8.6-11.6-16.6-19-23.8c-7.5-7.1-16.2-13.2-25.7-17.7c-5.1-2.5-10.5-4.4-16-6
			c4.9-11.6,12.4-22.2,21.7-30.8c11.8-11,26.6-19,42.4-22.5c15.7-3.8,32.4-2.9,47.5,2.7c15.2,5.5,28.7,16,39.7,29l0.1,0.2
			c3.2,3.8,8.8,4.6,13,1.7c4.5-3,5.6-9.1,2.5-13.6C2421.8,2679.7,2415,2672,2407.3,2665.3z"/>
		<path d="M1218.6,1275.3c0,18,14.6,32.6,32.6,32.6h654.7c18,0,32.6-14.6,32.6-32.6v-116.4c0-11.5,9.3-20.9,20.9-20.9h0
			c8.2,0,15.7,4.7,19,12.2c28.2,64.3,92.8,107.5,164.3,107.5c103.6,0,186.9-88.3,178.8-193.5c-6.8-87.4-77.1-157.8-164.5-164.5
			c-76.8-5.9-146.2,36.3-177.1,103.5c-3.5,7.6-11.2,12.4-19.6,12.4h0c-12,0-21.7-9.7-21.7-21.7V828.2c0-18-14.6-32.6-32.6-32.6
			h-438.7c-5.4,0-9.8-4.4-9.8-9.8v-64.1c0-66.8,54.6-123.4,121.4-123.3c48.5,0.1,92.5,28.3,109.6,70.1c3.4,8.4,6.2,19.3,8.2,32.1
			c4.4,29,29,50,58.4,50c17,0,33.1-7.3,44.3-20.1c11.3-12.8,16.4-29.9,14.2-46.9c-1.6-12-3.2-20.8-5-26.9
			c-14.4-48.5-44.7-92.1-85.3-122.8c-41.6-31.5-91.1-48.2-143.3-48.5c-132.7-0.7-241.2,110.4-241.2,243.1v57.1
			c0,5.4-4.4,9.8-9.8,9.8h-77.7c-18,0-32.6,14.6-32.6,32.6v104.5c0,0,0,0,0,0s0,0,0,0V1275.3z M1983.8,1041.6c0.2,0,0.4,0,0.6-0.1
			c0.5,0,0.9-0.1,1.4-0.1c0.4-0.1,0.8-0.1,1.2-0.2c0.4-0.1,0.8-0.2,1.2-0.4c0.4-0.1,0.8-0.3,1.2-0.5c0.4-0.2,0.7-0.4,1-0.6
			c0.4-0.2,0.7-0.5,1.1-0.7c0.3-0.2,0.6-0.5,0.9-0.8c0.3-0.3,0.6-0.6,0.9-0.9c0.3-0.3,0.5-0.6,0.8-1c0.3-0.3,0.5-0.7,0.7-1.1
			c0.2-0.3,0.4-0.7,0.6-1c0.2-0.4,0.4-0.9,0.6-1.3c0.1-0.2,0.2-0.3,0.2-0.5c20.5-65.4,81.2-109,150.1-107.3
			c80.3,1.9,146.3,67,149.3,147.3c3.3,87.2-66.7,159.1-153.1,159.1c-67.8,0-128.3-45.4-147.2-110.3c-0.1-0.2-0.2-0.4-0.3-0.6
			c-0.2-0.4-0.3-0.9-0.5-1.3c-0.2-0.4-0.4-0.7-0.6-1.1c-0.2-0.4-0.5-0.7-0.7-1.1c-0.2-0.3-0.5-0.6-0.8-1c-0.3-0.3-0.6-0.6-0.9-0.9
			c-0.3-0.3-0.6-0.5-0.9-0.8c-0.4-0.3-0.7-0.5-1.1-0.7c-0.3-0.2-0.7-0.4-1-0.5c-0.4-0.2-0.8-0.4-1.2-0.5c-0.4-0.1-0.8-0.3-1.1-0.4
			c-0.4-0.1-0.8-0.2-1.3-0.3c-0.4-0.1-0.9-0.1-1.3-0.1c-0.2,0-0.5-0.1-0.7-0.1h-132.2c-7.2,0-13,5.8-13,13v26.8
			c0,5.4-4.4,9.8-9.8,9.8h-27.3c-5.4,0-9.8-4.4-9.8-9.8V1125c0-7.2-5.8-13-13-13h-68.4c-7.2,0-13,5.8-13,13v59.5
			c0,5.4-4.4,9.8-9.8,9.8h-27.3c-5.4,0-9.8-4.4-9.8-9.8V1125v-73.6c0-5.4,4.4-9.8,9.8-9.8H1983.8z M1364.7,725.5
			c0-117.9,95.9-213.8,213.8-213.8c93.9,0,178.2,62.8,204.9,152.7c1,3.2,2.5,9.8,4.2,22.8c1.3,9.5-1.7,19.1-8,26.3
			c-6.3,7.2-15.1,11.2-24.8,11.2c-16.4,0-30.2-11.7-32.6-27.9c-2.3-14.9-5.6-27.7-9.8-38c-21-51.6-74.8-86.3-133.9-86.3
			c-81-0.1-147.3,68.9-147.3,149.9v39.9c0,18.4-14.9,33.3-33.3,33.3l0,0c-18.4,0-33.3-14.9-33.3-33.3V725.5z M1244.6,828.2
			c0-3.6,2.9-6.5,6.5-6.5h654.7c3.6,0,6.5,2.9,6.5,6.5v81.7c0,5.4-4.4,9.8-9.8,9.8h-648.2c-5.4,0-9.8-4.4-9.8-9.8V828.2z
			 M1244.6,955.5c0-5.4,4.4-9.8,9.8-9.8h648.2c5.4,0,9.8,4.4,9.8,9.8v50.3c0,5.4-4.4,9.8-9.8,9.8h-266c-7.2,0-13,5.8-13,13v96.3
			v82.2c0,7.2,5.8,13,13,13h72.9c7.2,0,13-5.8,13-13v-59.5c0-5.4,4.4-9.8,9.8-9.8h22.8c5.4,0,9.8,4.4,9.8,9.8v26.8
			c0,7.2,5.8,13,13,13h72.8c7.2,0,13-5.8,13-13v-26.8c0-5.4,4.4-9.8,9.8-9.8h29.1c5.4,0,9.8,4.4,9.8,9.8v127.5
			c0,3.6-2.9,6.5-6.5,6.5h-654.7c-3.6,0-6.5-2.9-6.5-6.5V955.5z"/>
		<path d="M1317,879.9c14.2,0.9,28.4,1.5,42.6,2c14.2,0.6,28.4,0.9,42.6,1.1c28.4,0.5,56.8,0.9,85.2,1.1l42.6,0l42.6-0.4
			c28.4-0.5,56.8-1.3,85.2-3.8c4.7-0.4,8.5-4.1,8.9-8.9c0.5-5.4-3.5-10.2-8.9-10.6c-28.4-2.5-56.8-3.4-85.2-3.8l-42.6-0.4l-42.6,0
			c-28.4,0.2-56.8,0.6-85.2,1.1c-14.2,0.3-28.4,0.6-42.6,1.1c-14.2,0.5-28.4,1.1-42.6,2c-4.8,0.3-8.8,4.2-9.1,9.1
			C1307.5,874.9,1311.6,879.6,1317,879.9z"/>
		<circle cx="1832" cy="870.1" r="21.2"/>
		<circle cx="1740.4" cy="870.1" r="21.2"/>
		<path d="M1380.9,1224.4h60.8h60.8c6.7,0,11.3-7.3,8.8-14.1l-27.9-74.7c-3.6-9.8-1.6-20.8,5.2-28.6c11.1-12.6,17.2-29.6,15.3-48
			c-3-28.9-26.2-52.3-55-55.6c-37.8-4.2-69.9,25.2-69.9,62.2c0,15.7,5.7,30,15.2,41c7,8,9.3,19.1,5.6,29l-27.9,74.7
			C1369.6,1217,1374.1,1224.4,1380.9,1224.4z"/>
		<path d="M2197.3,1133.5c30.4,0,55.1-24.7,55.1-55.1c0-30.4-24.7-55.1-55.1-55.1c-30.4,0-55.1,24.7-55.1,55.1
			C2142.2,1108.8,2166.9,1133.5,2197.3,1133.5z M2197.3,1049.4c16,0,29,13,29,29c0,16-13,29-29,29c-16,0-29-13-29-29
			C2168.3,1062.4,2181.3,1049.4,2197.3,1049.4z"/>
		<path d="M1880.8,711.2c4.2-4.6,7.7-9.4,11-14.4c3.3-5,6.5-10.1,9.3-15.4c2.9-5.3,5.6-10.6,8.1-16.1c2.5-5.5,4.8-11,6.6-16.9
			c1.1-3.6,0.1-7.8-3-10.4c-4.1-3.6-10.5-3.2-14.1,0.9c-4,4.6-7.6,9.5-10.9,14.5c-3.4,5-6.5,10.1-9.4,15.3c-3,5.2-5.7,10.6-8.2,16
			c-2.5,5.5-4.8,11.1-6.5,17c-1,3.5,0,7.5,2.9,10.2C1870.8,715.6,1877.1,715.3,1880.8,711.2z"/>
		<path d="M1900.6,749c0.5,5.5,5.4,9.5,10.9,9c6.1-0.6,12-1.8,17.9-3.2c5.8-1.4,11.6-3,17.3-4.9c5.7-1.8,11.3-4,16.9-6.3
			c5.6-2.3,11-4.8,16.3-8c3.2-1.9,5.2-5.6,4.8-9.5c-0.5-5.5-5.4-9.6-10.9-9c-6.1,0.6-12,1.8-17.9,3.2c-5.8,1.4-11.6,3-17.3,4.9
			c-5.7,1.9-11.3,4-16.9,6.3c-5.6,2.3-11,4.8-16.3,8C1902.3,741.4,1900.3,745.1,1900.6,749z"/>
		<path d="M1219.1,1541.2c4.2-3.4,4.9-9.6,1.5-13.8l-0.4-0.5c-5.2-6.5-9.4-13.1-12.2-20.1c-2.7-7-4.1-14.3-4-21.7
			c0.1-7.4,1.5-14.9,4.2-21.9c2.7-7.1,6.6-13.7,11.7-19.8l0.5-0.6c2.5-3.1,3-7.5,1-11.1c-2.7-4.7-8.7-6.4-13.4-3.7
			c-9.8,5.5-17.7,14.3-22.9,24.2c-5.3,10-8.2,21.3-8.1,32.8c0,11.4,2.8,23,8.4,32.9c5.5,10,13.4,18.3,22.5,24
			C1211.2,1544,1215.8,1543.9,1219.1,1541.2z"/>
	</g>
</g>
</svg>
