<?xml version="1.0" encoding="utf-8"?>
<!-- Generator: Adobe Illustrator 21.1.0, SVG Export Plug-In . SVG Version: 6.00 Build 0)  -->
<svg version="1.1" xmlns="http://www.w3.org/2000/svg" xmlns:xlink="http://www.w3.org/1999/xlink" x="0px" y="0px"
	 viewBox="0 0 3000 3000" style="enable-background:new 0 0 3000 3000;" xml:space="preserve">
<g id="fill">
	<path style="fill:#FFDA00;" d="M2258,839h-129.1c-5.5,0-9.9-4.5-9.9-9.9V704.6c0-9.3-7.6-16.9-16.9-16.9h-611.5
		c-9.3,0-16.9,7.6-16.9,16.9v265c0,29.3,10.8,58,30.4,80.8c28.7,33.4,54.3,69.9,76.1,108.4c28.9,51.3,51.1,106.3,66,163.3
		c13.9,52.8,21.4,107.8,22.4,163.3l0,2H2258c9.3,0,16.9-7.6,16.9-16.9V855.9C2274.9,846.6,2267.3,839,2258,839z M1648.1,890.9
		c21.2-52,61.2-92.9,112.6-115.1c52-22.5,110-23.3,163.3-2.1c26.5,10.5,50.1,25.7,70.1,45.2c20,19.4,35.8,42.4,46.9,68.4
		c19.9,46.4,22.7,98.4,7.9,146.5c-12.3,39.8-10.4,82.5,5.1,120.3l0.3,0.7c2.7,6.6,9.3,10.9,16.7,11c8.9,0.1,17.6,2.8,25,7.7
		c7.6,5.1,13.5,12.3,17,20.8c4.7,11.4,4.7,24-0.1,35.3c-0.2,0.5-0.4,1-0.7,1.5c-3.7,8.1-3.4,17.7,0.9,26.3c0.4,0.9,0.8,1.7,1.1,2.4
		l7,17.1c7.7,18.8-1.3,40.4-20.1,48.2l0,0c-12.5,5.1-22,15.5-26.1,28.5c-6.4,20.2-21.3,36.4-40.8,44.5l-22.7,9.3
		c-19.5,8.1-41.5,7-60.4-2.8c-6.5-3.5-13.9-5.3-21.3-5.3c-6,0-11.8,1.1-17.2,3.4c-4.5,1.8-9.2,2.8-14,2.8c-6,0-11.8-1.4-17.3-4.3
		c-7.6-4-13.7-10.9-17.2-19.5l-6.6-16.2c-0.4-1-0.7-1.8-0.9-2.5c-3-9.2-9.6-16.2-17.9-19.4c-0.4-0.2-0.8-0.3-1.2-0.5l-0.4-0.1
		c-11.4-4.7-20.2-13.6-24.9-25c-4.7-11.4-4.7-24,0.1-35.3c2.3-5.5,5.6-10.4,9.7-14.6c5.2-5.3,6.8-12.9,4-19.5l-0.3-0.7
		c-15.7-38.1-44.1-69.6-80-88.5c-43.9-23.1-78.5-61.2-97.5-107.3C1627,1000.2,1626.9,943,1648.1,890.9z"/>
	<path style="fill:#FF5777;" d="M2050.8,1594.7c9.1-8.4,20.4-14.6,32.6-18c12.3-3.2,25.3-3.3,37.6-0.5c1.2,0.3,2.4,0.6,3.6,1l1,0.3
		c0.4,0.1,0.8,0.2,1.3,0.4c0.9,0.3,2,0.6,2.8,0.9l23,8l30.7,10.8l72.2,25.2c4.5,1.6,9.4,0.9,13.3-1.9c3.9-2.8,6.2-7.1,6.2-11.9
		v-81.8c0-9.3-7.6-16.9-16.8-16.9h-589.7l-0.1,1.9c-1.5,26.9-7.1,51.7-16.5,73.8c-6.9,15.1-15.4,28.3-25.1,39.4
		c-10.4,11.7-23.5,21.6-37.7,28.5c-14.3,7-30.3,11-46,11.5c-15.7,0.6-31.8-2.2-46.7-8l-0.2-0.1c-5-2.1-10.7-1.6-15.2,1.4
		c-4.5,3-7.2,8-7.2,13.4v621c0,9.3,7.6,16.9,16.9,16.9H2102c9.3,0,16.9-7.6,16.9-16.9v-40.9c0-5.5,4.5-9.9,9.9-9.9h25.5
		c6,0,11-4.9,11-11v-19.8c0-5.5,4.5-9.9,9.9-9.9h83.7c7,0,13.4-4.4,15.8-11l0.1-0.3v-91c0-14.7-9.3-27.7-23.1-32.5l-20.1-7l-5.7-2
		l-6.6-2.7c-1-0.4-1.9-0.9-2.9-1.5l-0.2-0.1c-0.3-0.2-0.7-0.4-1.1-0.6c-2.8-1.3-5.4-3.1-7.9-4.8c-9.8-6.7-18.2-16.3-24.3-27.9
		c-5.6-10.6-8.5-23-8.5-36c0.2-22.3,10.6-44,27.9-58.1l0.2-0.2c3-3,4.4-7.1,3.8-11.2c-0.5-4.1-2.8-7.5-6.3-9.6l-0.6-0.4
		c-0.1-0.1-0.2-0.1-0.3-0.2c-15.4-10.1-26.3-25-31.5-43.1c-3-10.4-3.8-21.6-2.1-32.2c3.3-20.6,14.1-38.6,30.6-50.6
		c2.5-1.8,3.8-4.9,3.3-8c-0.5-3.1-2.5-5.6-5.5-6.6l-115.1-39.7c-2.9-1.1-5.9-2.3-8.6-3.5c-11.4-5.4-21.3-13.6-28.8-23.6
		c-7.5-10.3-12.5-22.2-14.4-34.3c-1.8-12.5-0.7-25.4,3.4-37.2C2034.5,1614,2041.6,1603.3,2050.8,1594.7z M1980.3,1977.9
		c-0.1,18.9-0.4,38.1-0.6,56.7l-0.1,10.7c-0.3,24.2-0.6,46.3-1,67.4l-1.4,66.9c-0.1,4.5-3.4,8.1-7.6,8.3c-2.2,0.1-4.2-0.7-5.8-2.1
		c-1.6-1.5-2.5-3.5-2.5-5.6l-1.4-67.4c-0.4-21.6-0.7-43.6-1-67.4l-0.1-8.1c-0.3-19.4-0.5-39.6-0.6-59.3c-0.1-12.3-0.1-25.8,0-42.3
		c0.1-8.2-5-15.5-12.7-18c-31.5-10.3-52.7-39.5-52.7-72.7c0-33.5,21.5-62.9,53.5-72.9c7.4-2.3,12.5-9.3,12.8-17.3l2.2-68.8
		c0.1-4.4,3.5-8,7.6-8.2c0.1,0,0.3,0,0.4,0c2,0,3.9,0.7,5.3,2.1c1.6,1.4,2.5,3.5,2.6,5.6l2.2,69.3c0.3,8,5.4,15,12.8,17.3
		c32,10.1,53.5,39.4,53.5,72.9c0,33.1-21.1,62.3-52.6,72.7c-7.6,2.5-12.8,9.7-12.7,18C1980.4,1952.1,1980.4,1965.5,1980.3,1977.9z
		 M1754.5,1900.5c0.1-24.8,0.4-50,0.7-71.7c0.5-43.2,1.3-90,2.4-142.9c0.1-4.5,3.4-8.1,7.6-8.3c0.1,0,0.3,0,0.4,0
		c2,0,3.9,0.7,5.4,2.1c1.6,1.5,2.5,3.5,2.5,5.6c1.2,51.3,2,98.2,2.5,143.4c0.3,23.5,0.6,47.8,0.7,71.7c0.1,16.2,0.1,31.9,0,46.6
		c0,8.3,5.1,15.5,12.7,18c31.5,10.3,52.7,39.5,52.7,72.7c0,33.6-21.5,62.9-53.6,73h0c-7.4,2.3-12.6,9.3-12.9,17.3l-2,51.7
		c-0.2,4.4-3.5,8-7.6,8.1c-2.2,0.1-4.2-0.7-5.7-2.1c-1.6-1.4-2.5-3.4-2.6-5.5l-2-52.2c-0.3-8-5.5-15-12.9-17.3
		c-32-10.1-53.6-39.4-53.6-73c0-33.1,21.1-62.3,52.6-72.7c7.7-2.5,12.8-9.7,12.7-18C1754.4,1928.9,1754.4,1914.1,1754.5,1900.5z"/>
	<path style="fill:#1FAAFF;" d="M1094.8,1974.1l0.8,0l0.2-0.7c12.2-41.8,36.9-77.9,71.4-104.4c33.6-25.9,76-42,119.4-45.5
		c58.9-4.8,111.9,12.5,149.3,48.7c2.9,2.8,7,3.5,10.7,2c3.8-1.6,6.1-5.1,6.1-9.2v-168.7c0-35.1-8.4-70.2-24.4-101.5l-5.1-11
		c-0.9-2.3-1.7-4.7-2.5-7c-0.4-1.3-0.9-2.7-1.4-4c-0.2-0.6-0.4-1.2-0.6-1.9c-0.4-1.2-0.9-2.4-1.2-3.6l-1.4-5.7
		c-0.3-1.2-0.6-2.3-0.9-3.5c-0.6-2.5-1.3-5.2-1.8-7.7l-1.7-11.4c-0.1-0.7-0.2-1.5-0.3-2.2c-0.2-1.2-0.4-2.3-0.4-3.5l-0.4-5.7
		c-0.4-9.1-7.9-16.2-17-16.2H669.3c-8.7,0-15.8,7.1-15.8,15.9v273.6c0,4.2,1.8,8.2,5,10.9c3.1,2.7,7.2,3.8,11.3,3.2
		c4.5-0.7,9.1-1.2,13.6-1.3c16.5-0.7,32.9,2.4,47.6,8.8c14.7,6.4,28.1,16.4,38.8,29c8.8,10.3,19.1,18,30.5,23.1
		c11.5,5.1,24.5,7.6,37.6,7.2c12.7-0.4,25.5-3.4,38.1-8.9c11.8-5.2,23.1-12.6,33.6-21.9c12.2-10.9,25.4-19.5,39.3-25.6
		c15.3-6.7,30.8-10.3,46.3-10.5c16.1-0.2,32.3,3.2,46.6,10c13.7,6.5,26.4,16.3,36.7,28.4c2.9,3.4,2.9,8.4-0.1,11.3
		c-3.2,3.1-8.1,3.1-11.2,0l-0.1-0.1c-10.1-10.2-21.2-17.8-32.8-22.5c-12-5-25.3-7.3-38.4-6.6c-12.8,0.6-25.7,3.8-38.2,9.6
		c-11.4,5.3-22.6,12.8-33.3,22.5c-12.2,10.9-25.4,19.7-39.2,25.9c-15.1,6.8-30.7,10.6-46.4,11.2c-16.5,0.7-32.9-2.4-47.6-8.8
		c-14.9-6.5-28.3-16.5-38.8-29c-8.5-10.1-19-18.1-30.5-23.1c-11.6-5.1-24.6-7.6-37.6-7.2c-1.9,0.1-4,0.2-6.2,0.4
		c-14,1.4-24.5,13-24.5,27.1v119.6l0.1,0.2c1.3,2.8,3.8,4.9,6.8,5.9c3,1,6.2,0.7,9-0.8c3.5-1.8,6.6-3.4,9.6-4.7
		c15.5-6.8,31-10.3,46.3-10.5c16.1-0.2,32.2,3.2,46.6,9.9c13.8,6.5,26.5,16.3,36.7,28.3c2.9,3.4,2.9,8.4-0.1,11.3
		c-1.5,1.5-3.6,2.3-5.7,2.3c-2.1,0-4.1-0.9-5.6-2.4l-0.2-0.1c-10.1-10.3-21.2-17.9-32.7-22.6c-12-5.1-25.3-7.4-38.5-6.7
		c-13.1,0.7-26,4-38.2,9.7c-3.8,1.8-8.9,4.8-15,9c-11.7,8-18.6,21.2-18.7,35.5l-0.5,140.9l0,0.1c2.1,6.7,8.2,11.2,15.2,11.2h83.4
		c6,0,10.9,4.9,10.9,10.9v82.6c0,8.8,7.1,15.9,15.9,15.9h657.9c8.8,0,15.9-7.1,15.9-15.9V2207c0-8.8-7.1-15.9-15.9-15.9H908.2
		c-5.3,0-9.8-3.7-10.7-8.9c-0.7-3.8-16.8-93,37.3-154.2C968.9,1989.5,1022.7,1971.3,1094.8,1974.1z M1099.7,1745.7
		c-16.5,0.7-32.9-2.4-47.6-8.8c-14.6-6.3-28.1-16.4-38.8-29c-8.5-10-19-18-30.5-23.1c-10.6-4.8-22.6-7.2-34.7-7.2c-1,0-1.9,0-2.9,0
		c-12.7,0.4-25.5,3.4-38.1,9c-11.8,5.2-23.1,12.6-33.6,21.9c-12.4,10.9-25.6,19.5-39.3,25.5c-15.5,6.8-31,10.3-46.3,10.5
		c-16.1,0.3-32.2-3.2-46.6-9.9c-14-6.6-26.8-16.6-37.1-28.8c-1.4-1.6-2-3.7-1.9-5.8c0.2-2.1,1.2-4,2.8-5.4c3.2-2.7,7.9-2.4,10.8,0.5
		l0.1,0.1c10.2,10.4,21.2,18,32.8,22.7c12.1,5.1,25.4,7.4,38.5,6.7c13.2-0.7,26-4,38.2-9.7c11.5-5.3,22.7-12.9,33.3-22.5
		c12.1-10.9,25.3-19.7,39.2-25.9c15.1-6.8,30.7-10.6,46.4-11.2c16.5-0.7,32.9,2.4,47.6,8.8c14.7,6.4,28.1,16.4,38.8,29
		c8.4,10.1,19,18.1,30.5,23.1c11.5,5.1,24.5,7.6,37.6,7.2c12.8-0.4,25.6-3.4,38.1-9c11.8-5.2,23.1-12.6,33.6-21.9
		c12.5-10.9,25.7-19.5,39.3-25.5c15.5-6.8,31-10.3,46.2-10.4c16.2-0.2,32.3,3.2,46.6,9.9c13.9,6.6,26.8,16.5,37.1,28.7
		c2.8,3.4,2.4,8.4-1,11.2l0,0c-3.2,2.7-7.9,2.5-10.8-0.5l-0.1-0.1c-10.2-10.4-21.2-18-32.8-22.7c-12-5-25.3-7.3-38.5-6.7
		c-13.2,0.7-26,4-38.2,9.7c-11.6,5.4-22.8,13-33.3,22.6c-12.1,10.9-25.3,19.6-39.2,25.9C1131,1741.4,1115.4,1745.1,1099.7,1745.7z"
		/>
</g>
<g id="outline">
	<g>
		<path d="M1303.2,1665.4c-14.6-6.8-30.9-10.2-47-10c-16.2,0.1-32.1,4.1-46.6,10.5c-14.6,6.4-27.8,15.4-39.6,25.7
			c-10.1,8.9-21.3,16.4-33.3,21.7c-12,5.3-24.9,8.5-37.7,8.9c-12.8,0.4-25.6-2-37.1-7.1c-11.6-5.1-21.9-13-30.1-22.9
			c-10.6-12.4-24-22.7-39.2-29.2c-15.1-6.7-31.7-9.6-48-8.9c-16.3,0.6-32.2,4.7-46.8,11.3c-14.6,6.6-27.8,15.6-39.5,26.1
			c-10,9.1-21,16.8-33.1,22.4c-12,5.6-24.8,8.9-37.8,9.6c-13,0.7-26-1.6-38.1-6.6c-12.1-4.9-23.1-12.8-32.5-22.4l-0.1-0.1
			c-3.3-3.3-8.5-3.6-12.1-0.5c-3.8,3.2-4.2,8.9-1,12.6c10.1,12,22.9,22.1,37.5,29c14.6,6.8,30.9,10.2,47,10
			c16.2-0.1,32.1-4.1,46.7-10.6c14.6-6.4,27.8-15.3,39.6-25.7c10.1-8.9,21.3-16.4,33.3-21.7c12-5.3,24.9-8.5,37.7-8.9
			c12.8-0.4,25.6,1.9,37.1,7.1c11.6,5.1,21.9,13,30.1,22.8c10.6,12.4,24,22.7,39.2,29.3c15.1,6.6,31.7,9.5,48,8.9
			c16.3-0.6,32.2-4.7,46.7-11.3c14.6-6.6,27.8-15.5,39.5-26c10-9.1,21.1-16.8,33.1-22.4c12-5.6,24.9-8.9,37.8-9.6
			c13-0.7,26,1.6,38.1,6.6c12.1,4.9,23,12.8,32.5,22.4l0.1,0.1c3.3,3.3,8.6,3.6,12.1,0.5c3.8-3.2,4.3-8.8,1.1-12.6
			C1330.6,1682.5,1317.8,1672.3,1303.2,1665.4z"/>
		<path d="M1992.4,1771c-7.1-2.2-11.8-9-12.1-16.4l-2.2-69.3c-0.2-4.9-4.3-8.9-9.4-8.7c-4.8,0.2-8.4,4.4-8.6,9.1l-2.2,68.8
			c-0.2,7.4-5,14.2-12.1,16.4c-31.4,9.9-54.2,39.3-54.2,73.9c0,34.3,22.4,63.5,53.4,73.6c7.3,2.4,12,9.4,12,17
			c-0.1,14.1-0.1,28.2,0,42.3c0.1,22.5,0.4,45,0.8,67.4c0.3,22.5,0.6,45,1,67.4l1.4,67.4c0.1,5,4.3,9,9.4,8.8
			c4.8-0.2,8.4-4.4,8.5-9.3l1.4-66.9c0.4-22.5,0.8-45,1-67.4c0.3-22.5,0.6-45,0.7-67.4c0.1-14.1,0.1-28.2,0-42.3
			c0-7.7,4.8-14.7,12-17c30.9-10.2,53.3-39.3,53.3-73.6C2046.6,1810.3,2023.8,1780.9,1992.4,1771z M1969.2,1898.5
			c-29.5,0-53.6-24-53.6-53.6c0-28.8,22.8-52.2,51.3-53.5c0.9,0.2,1.8,0.3,2.7,0.3c0.6,0,1.3-0.1,1.9-0.3
			c28.5,1.2,51.3,24.7,51.3,53.5C2022.8,1874.5,1998.8,1898.5,1969.2,1898.5z"/>
		<path d="M1789.7,1964.1c-7.3-2.4-12-9.4-12-17c0.1-15.5,0.1-31.1,0-46.6c-0.1-23.9-0.4-47.8-0.7-71.7
			c-0.5-47.8-1.4-95.6-2.5-143.4c-0.1-5-4.3-9-9.4-8.7c-4.8,0.2-8.4,4.4-8.5,9.3c-1.1,47.6-1.9,95.3-2.4,142.9
			c-0.3,23.9-0.6,47.8-0.7,71.7c-0.1,15.5-0.1,31.1,0,46.6c0.1,7.7-4.7,14.7-12,17c-30.9,10.2-53.3,39.3-53.3,73.6
			c0,34.6,22.9,64,54.3,73.9c7.1,2.2,11.9,8.9,12.2,16.4l2,52.1c0.2,4.9,4.3,8.8,9.3,8.6c4.7-0.2,8.4-4.4,8.6-9.1l2-51.6
			c0.3-7.5,5.1-14.1,12.2-16.4c31.4-9.8,54.3-39.3,54.3-73.9C1843.1,2003.5,1820.7,1974.3,1789.7,1964.1z M1768.2,2091.2
			c-1-0.2-2-0.4-3.1-0.4c-0.8,0-1.6,0.1-2.3,0.3c-28.3-1.5-50.8-24.8-50.8-53.4c0-29.6,24-53.6,53.6-53.6c29.5,0,53.6,24,53.6,53.6
			C1819.2,2066.4,1796.6,2089.8,1768.2,2091.2z"/>
		<path d="M877.9,321.6l15.1,8.3c18.4,10,33.4,25.1,43.4,43.4l8.3,15.1c2.1,3.8,6.1,6.2,10.5,6.2c4.4,0,8.4-2.4,10.5-6.2l8.3-15.1
			c10-18.4,25.1-33.4,43.4-43.4l15.1-8.3c3.8-2.1,6.2-6.1,6.2-10.5c0-4.4-2.4-8.4-6.2-10.5l-15.1-8.3c-18.4-10-33.4-25.1-43.4-43.4
			l-8.3-15.1c-2.1-3.8-6.1-6.2-10.5-6.2c-4.4,0-8.4,2.4-10.5,6.2l-8.3,15.1c-10,18.4-25.1,33.4-43.4,43.4l-15.1,8.3
			c-3.8,2.1-6.2,6.1-6.2,10.5C871.7,315.5,874.1,319.5,877.9,321.6z"/>
		<path d="M2484.5,977.3l15.1,8.3c18.4,10,33.4,25.1,43.4,43.4l8.3,15.1c2.1,3.8,6.1,6.2,10.5,6.2s8.4-2.4,10.5-6.2l8.3-15.1
			c10-18.4,25.1-33.4,43.4-43.4l15.1-8.3c3.8-2.1,6.2-6.1,6.2-10.5c0-4.4-2.4-8.4-6.2-10.5l-15.1-8.3c-18.4-10-33.4-25.1-43.4-43.4
			l-8.3-15.1c-2.1-3.8-6.1-6.2-10.5-6.2s-8.4,2.4-10.5,6.2l-8.3,15.1c-10,18.4-25,33.4-43.4,43.4l-15.1,8.3
			c-3.8,2.1-6.2,6.1-6.2,10.5C2478.3,971.1,2480.6,975.2,2484.5,977.3z"/>
		<path d="M1306,2525.4l-15.1-8.3c-18.4-10-33.4-25.1-43.4-43.4l-8.3-15.1c-2.1-3.8-6.1-6.2-10.5-6.2s-8.4,2.4-10.5,6.2l-8.3,15.1
			c-10,18.4-25,33.4-43.4,43.4l-15.1,8.3c-3.8,2.1-6.2,6.1-6.2,10.5s2.4,8.4,6.2,10.5l15.1,8.3c18.4,10,33.4,25.1,43.4,43.4
			l8.3,15.1c2.1,3.8,6.1,6.2,10.5,6.2s8.4-2.4,10.5-6.2l8.3-15.1c10-18.4,25.1-33.4,43.4-43.4l15.1-8.3c3.8-2.1,6.2-6.1,6.2-10.5
			S1309.8,2527.5,1306,2525.4z"/>
		<path d="M1745.4,1160.3c35.7,18.8,63.9,50,79.5,88l0.2,0.6c2.6,6.3,1,13.5-3.8,18.4c-4.2,4.2-7.6,9.3-9.9,15
			c-4.9,11.6-4.9,24.4-0.1,36.1c4.8,11.6,13.8,20.7,25.4,25.5c0.5,0.2,1.1,0.4,1.6,0.6c8.4,3.2,14.5,10.2,17.4,18.7
			c0.3,0.8,0.6,1.7,0.9,2.5l6.7,16.2c3.5,8.4,9.6,15.7,17.7,20c5.6,2.9,11.7,4.4,17.7,4.4c4.9,0,9.8-1,14.4-2.9
			c5.4-2.2,11.1-3.3,16.9-3.3c7.2,0,14.4,1.7,20.9,5.2c18.6,9.8,40.9,11.3,61.2,2.9l11.3-4.6l11.3-4.7c20.3-8.3,35.1-25.1,41.4-45.1
			c4-12.6,13.3-22.8,25.5-27.8c19.3-8,28.5-30.1,20.6-49.5l-7-17.1c-0.3-0.8-0.7-1.7-1.1-2.5c-4-8-4.6-17.3-0.9-25.4
			c0.2-0.5,0.5-1,0.7-1.6c4.9-11.6,4.9-24.4,0.1-36.1c-3.7-9-9.9-16.2-17.4-21.2c-7.5-5-16.4-7.8-25.5-7.9
			c-6.9-0.1-13.2-4-15.8-10.4l-0.3-0.7c-15.5-37.6-17.3-80-5.1-119.6c14.9-48.3,12.1-100.6-7.9-147.2
			c-11.2-26.1-27.2-49.3-47.2-68.7c-19.9-19.3-43.7-34.8-70.5-45.4c-53.5-21.3-111.8-20.5-164.1,2.1
			c-51.7,22.4-91.8,63.5-113.1,115.7c-21.3,52.3-21.1,109.9,0.3,162C1666.5,1098.8,1701.3,1137.1,1745.4,1160.3z M2100.1,1285.6
			c3,7.1-0.5,15.3-7.6,18.3l-188.5,77.6c-3.4,1.4-7.3,1.4-10.7,0c-3.5-1.4-6.2-4.1-7.6-7.6l-7-17.1c-1.4-3.5-1.4-7.3,0-10.7
			c1.4-3.5,4.1-6.1,7.6-7.6l188.5-77.6c1.7-0.7,3.5-1,5.3-1c1.8,0,3.6,0.4,5.4,1.1c3.5,1.4,6.1,4.2,7.6,7.6L2100.1,1285.6z
			 M2061.6,1190.2c2.9-1.2,5.9-1.7,8.8-1.7c9.1,0,17.8,5.4,21.5,14.4c1.2,2.9,1.8,5.8,1.8,8.9c0,3-0.6,6.1-1.8,8.9
			c-2.4,5.7-6.8,10.2-12.6,12.5l-89.9,37l-112.2,46.2l-13.5,5.5c-5.7,2.4-12.1,2.4-17.8,0c-5.7-2.4-10.2-6.9-12.6-12.6
			c-2.4-5.7-2.3-12.1,0.1-17.8c2.4-5.7,6.8-10.1,12.6-12.5l3.8-1.6c0,0,0,0,0,0l58.8-24.2L2061.6,1190.2z M1769.8,796.8
			c23.9-10.4,49.3-15.6,74.8-15.6c23.9,0,47.9,4.6,70.9,13.7c47.5,18.9,84.6,54.9,104.6,101.3c10.2,23.9,15.4,49.4,15.4,75
			c0,18.8-2.8,37.6-8.4,55.7c-13.2,42.9-11.8,88.8,3.7,130.1c0.2,3.9-0.5,7.9-2.3,11.6c-3.7,7.6-11,12.6-18.3,16.9l-112,46.1
			c-6.7,1.8-13.1,4.5-19.8,6.9c-18.8,6.8-29.2-1.5-39.2-16.3c-18.6-35.5-47.4-64.6-82.5-83.2c-39.2-20.7-70.1-54.7-87-95.7
			C1630.4,948.3,1675.3,837.6,1769.8,796.8z"/>
		<path d="M1722.1,1022.6l53.6,24.7c0.1,0,0.2,0.1,0.3,0.1c5.8,2.5,12.4-0.1,14.9-5.9l0.2-0.5l15.5-35.9c1.9-4.4,7.1-6.6,11.6-4.7
			l36.2,14.6c6,2.4,12.8-0.4,15.4-6.3l15.5-35.9c1.9-4.5,7-6.6,11.5-4.8l36.3,14.6l0.6,0.2l0.2,0.1c5.8,2.2,12.4-0.7,14.6-6.6
			l20.9-55.9c1.6-4.5-0.5-9.7-5.2-11.5c-4.4-1.7-9.4,0.6-11.5,4.8l-17.2,35c-2.1,4.2-7,6.1-11.4,4.4l-37.1-15
			c-6-2.4-12.9,0.4-15.4,6.4l-15.5,35.9c-1.9,4.4-7,6.6-11.5,4.7l-36.2-14.6c-6-2.4-12.9,0.4-15.4,6.3l-15.9,36.8
			c-1.8,4.3-6.7,6.4-11.1,4.9l-37.4-12.9c-4.5-1.6-9.7,0.7-11.4,5.5C1715.4,1015.7,1717.8,1020.6,1722.1,1022.6z"/>
		<path d="M2829.4,1798.8l-0.1-8.8c0.1-2.9-0.4-5.9-0.7-8.8l-0.9-8.7l-1.8-8.7c-0.6-2.9-1.1-5.8-2-8.6c-1.8-5.6-3.2-11.3-5.6-16.7
			c-8.7-21.8-22.1-41.8-39.3-57.8c-8.8-7.8-18.1-15.1-28.4-20.8l-7.7-4.3c-2.6-1.3-5.3-2.4-8-3.6c-2.7-1.1-5.4-2.4-8-3.5l-7.8-2.8
			c-20.7-7.5-41.2-13.9-60.6-21.9c-9.7-3.9-19.1-8.3-28.1-13.2c-9-4.9-17.3-10.4-25.6-16.7c-16.5-12.4-31.3-26.9-44.9-42.9
			c-13.7-15.9-25.8-33.3-39.5-50.9c-3.5-4.4-7-8.8-10.9-13.1c-3.9-4.3-8.1-8.6-12.9-12.5c-4.7-4-10.1-7.7-16-10.6
			c-5.9-3-12.6-5-19.2-5.8l-2.5-0.3l-2.3-0.2l-4.7-0.2c-3.1-0.1-6.3,0.2-9.4,0.3c-3.1,0.3-6.3,0.8-9.4,1.3c-3.1,0.8-6.2,1.4-9.3,2.4
			c-12.1,3.9-23.6,11.1-32.3,20.8c-8.8,9.7-14.7,21.7-17.6,33.8c-2.9,12.2-3.2,24.5-2.1,36.3c2.2,23.6,10.2,45.9,20.9,66.1
			c8.1,15,17.5,29,27.8,42.1l0.1,0.2c5.6,7.2-1.6,17.2-10.2,14.2c-20.1-7.2-42.3-15-42.3-15l-52.2-18.3c-11.4-4-19-14.7-19-26.8
			v-759c0-8.2,6.7-14.9,14.9-14.9h36.3c6.6,0,11.9-5.3,11.9-11.9v-20.9c0-5,4-9,8.9-9h25.5c6.6,0,11.9-5.3,11.9-11.9V568.2
			c0-6.6-5.3-11.9-11.9-11.9h-219.1c-6.6,0-11.9,5.3-11.9,11.9v20.9c0,5-4,9-8.9,9h-25.5c-6.6,0-11.9,5.3-11.9,11.9v40.9
			c0,8.2-6.7,14.9-14.9,14.9h-638.2c0,0-0.1,0-0.1,0c-0.1,0-0.1,0-0.1,0h-99.8c-10.4,0-20-5.7-25.3-14.6
			c-14.2-23.8-34.3-43.8-58.9-58.2c-79.3-46.3-181.3-19.4-227.6,59.9l-0.3,0.5c-4.3,7.7-12.5,12.5-21.3,12.5H779
			c-8.3,0-14.9-6.7-14.9-14.9v-82.7c0-6.6-5.3-11.9-11.9-11.9H533c-6.6,0-11.9,5.3-11.9,11.9v20.9c0,5-4,9-8.9,9h-25.5
			c-6.6,0-11.9,5.3-11.9,11.9v219.1c0,6.6,5.3,11.9,11.9,11.9h129.1c8.2,0,14.9,6.7,14.9,14.9v920.7c0,27.5-11.7,53.7-32.2,72.1
			l-1.3,1.2c-10,9.1-21,16.8-33.1,22.4c-12,5.6-24.8,8.9-37.8,9.6c-13,0.7-26-1.5-38.1-6.6c-12.1-4.9-23.1-12.8-32.5-22.4l-0.1-0.1
			c-3.4-3.5-9.1-3.6-12.6-0.1c-3.4,3.4-3.3,9-0.2,12.7c10,11.8,22.7,21.8,37.1,28.5c14.6,6.8,30.9,10.2,47,10
			c16.2-0.2,32.1-4.2,46.7-10.6c14.6-6.4,27.8-15.4,39.6-25.7l0.2-0.2c6.7-5.9,17.3-1.2,17.3,7.8v122.7c-2.5,14-11.5,26.2-24.7,32.1
			c-0.1,0.1-0.2,0.1-0.2,0.1c-12,5.3-24.9,8.5-37.8,8.9c-12.8,0.4-25.6-1.9-37.1-7.1c-11.6-5.1-21.9-13-30.1-22.9
			c-10.6-12.4-24-22.7-39.2-29.2c-15.1-6.6-31.8-9.5-48-8.9c-16.3,0.6-32.2,4.7-46.8,11.3c-14.6,6.6-27.8,15.6-39.5,26.1
			c-10,9.1-21.1,16.8-33.1,22.4c-12,5.6-24.8,8.9-37.8,9.6c-13,0.7-26-1.5-38.1-6.6c-12.2-4.9-23.1-12.8-32.5-22.4l-0.1-0.1
			c-3.4-3.5-9.1-3.6-12.7-0.1c-3.5,3.4-3.3,9-0.1,12.6c10,11.8,22.7,21.8,37,28.6c14.6,6.8,30.9,10.2,47,10
			c16.2-0.1,32.1-4.1,46.7-10.5c14.6-6.4,27.8-15.4,39.6-25.7c10.1-8.9,21.3-16.4,33.3-21.7c12-5.3,24.9-8.5,37.7-8.9
			c12.8-0.4,25.6,2,37.2,7.1c11.6,5.1,21.9,13,30.1,22.8c10.6,12.4,24,22.7,39.2,29.2c15.1,6.6,31.8,9.6,48,8.9
			c16.3-0.6,32.2-4.7,46.8-11.3l0.3-0.1c6.9-3.1,14.8,1.9,14.8,9.5v126.4c-1.8,6.1-7.5,10.6-14.2,10.6H533
			c-6.6,0-11.9,5.4-11.9,11.9v20.9c0,5-4,9-8.9,9h-25.5c-6.6,0-11.9,5.4-11.9,11.9v219.1c0,6.6,5.3,11.9,11.9,11.9h219.1
			c6.6,0,11.9-5.3,11.9-11.9v-20.9c0-4.9,4-8.9,9-8.9h25.5c6.6,0,11.9-5.3,11.9-11.9v-82.7c0-8.2,6.6-14.9,14.9-14.9h684.4
			c0.1,0,0.2,0,0.3,0c0.1,0,0.2,0,0.3,0h638c8.2,0,14.9,6.7,14.9,14.9v124.5c0,6.6,5.3,11.9,11.9,11.9h219.1
			c6.6,0,11.9-5.3,11.9-11.9v-19.8c0-4.9,4-8.9,8.9-8.9h25.5c6.6,0,11.9-5.3,11.9-11.9v-219.1c0-6.6-5.3-11.9-11.9-11.9h-83.6
			c-6.4,0-11.9-4.2-14-9.9v-80.5c0-12.1,11.9-20.6,23.4-16.6l10.6,3.7l61.3,21.3c20.4,7.1,41.2,14.3,62.2,20.5
			c21,6.3,42.3,11.9,64,16.2c21.7,4.4,43.9,7.4,66.5,8.1c22.5,0.6,45.7-1.3,68.1-8.1c11.2-3.5,22.1-8.2,32.4-14.3
			c10.2-6.1,19.5-13.8,27.7-22.4c16.6-17.3,27.6-38.6,35.2-60.1l21.3-61.4l42.7-122.7l5.3-15.3l2.7-7.7c0.4-1.2,0.9-2.6,1.3-4
			l1.2-4.2l2.5-8.5c0.6-2.9,1.1-5.8,1.7-8.6c0.5-2.9,1.2-5.7,1.5-8.7l0.8-8.8l0.4-4.4C2829.5,1801.8,2829.4,1800.3,2829.4,1798.8z
			 M2187.2,595.1c0-8.2,6.7-14.9,14.9-14.9h165.4c8.2,0,14.9,6.7,14.9,14.9v165.4c0,8.2-6.7,14.9-14.9,14.9h-165.4
			c-8.2,0-14.9-6.7-14.9-14.9V595.1z M1475.6,704.6c0-8.2,6.7-14.9,14.9-14.9H2102c8.2,0,14.9,6.7,14.9,14.9v124.4
			c0,6.6,5.3,11.9,11.9,11.9h129.1c8.2,0,14.9,6.7,14.9,14.9v614.7c0,8.2-6.6,14.9-14.8,14.9h-587.5c-1-55.2-8.5-110.4-22.5-163.8
			c-14.9-57.1-37.2-112.4-66.2-163.8c-21.8-38.6-47.4-75.1-76.3-108.8c-19.1-22.2-29.9-50.3-29.9-79.5V704.6z M1094.9,801.1h0.3
			c40.6,0,67.8-25.6,92.7-49c13.1-12.4,25.7-24.2,39.7-32.8c57.7-35.2,125.3,29.8,91.7,88.4c-0.1,0.3-0.3,0.5-0.4,0.8
			c-21.1,36.2-56.3,60.9-98.1,68.5c-28.3,5.1-57.2,1.6-83.3-10.3c-21.7-9.9-40.1-24.4-54-42.3C1075.8,815,1082.9,801.1,1094.9,801.1
			z M559.9,775.4c-8.3,0-14.9-6.7-14.9-14.9V595.1c0-8.2,6.7-14.9,14.9-14.9h165.3c8.2,0,14.9,6.7,14.9,14.9v165.4
			c0,8.2-6.7,14.9-14.9,14.9H559.9z M740.2,2402.7c0,8.3-6.7,14.9-14.9,14.9H559.9c-8.3,0-14.9-6.7-14.9-14.9v-165.4
			c0-8.2,6.7-14.9,14.9-14.9h80c0.9,0.2,1.9,0.4,2.9,0.3c0.9,0,1.7-0.1,2.5-0.3h79.9c8.2,0,14.9,6.7,14.9,14.9V2402.7z
			 M1451.7,2153.3c0,8.2-6.7,14.9-14.9,14.9H918.7c-2.3-23.3-3.8-83.3,33.4-125.2c30.8-34.7,81.5-50,151-45.6
			c5.8,0.3,11-3.5,12.3-9.1c23.4-96.5,107.9-136.8,173.1-142.1c1.8-0.2,3.7-0.3,5.5-0.4c86-4.5,157.7,65.7,157.7,151.9V2153.3z
			 M1451.7,1865c0,7.8-9.5,12-15.1,6.5c-36.9-35.7-90.1-53.8-150.1-49c-43.6,3.5-86.2,19.8-120,45.7
			c-34.9,26.8-59.5,62.9-71.8,104.9c-72.4-2.8-126.4,15.4-160.7,54.2c-54.5,61.5-38.3,151.2-37.6,155c1,5.6,6,9.7,11.7,9.7h528.6
			c8.2,0,14.9,6.7,14.9,14.9v86.1c0,8.2-6.7,14.9-14.9,14.9H779c-8.3,0-14.9-6.7-14.9-14.9v-82.6c0-6.6-5.3-11.9-11.9-11.9h-83.4
			c-6.7,0-12.3-4.4-14.2-10.5l0.5-140.7c0-13.8,6.8-26.8,18.2-34.6c5.2-3.5,10.6-6.9,14.9-8.9c12-5.6,24.9-8.9,37.8-9.6
			c13-0.7,26,1.5,38.1,6.6c12.1,4.9,23.1,12.8,32.5,22.4l0.1,0.1c3.4,3.5,9.1,3.6,12.7,0.1c3.5-3.4,3.3-9,0.1-12.6
			c-10.1-11.8-22.7-21.8-37.1-28.6c-14.6-6.8-30.9-10.2-47-10c-16.2,0.2-32.1,4.2-46.7,10.6c-3.3,1.4-6.5,3-9.6,4.7
			c-5.5,3-12,0.5-14.5-4.6v-119.3c0-13.5,10.2-24.8,23.6-26.1c2-0.2,4.1-0.4,6.1-0.4c12.8-0.4,25.6,2,37.2,7.1
			c11.6,5.1,21.8,13,30.1,22.9c10.5,12.5,24,22.7,39.1,29.3c15.2,6.7,31.8,9.6,48.1,8.9c16.3-0.6,32.2-4.7,46.8-11.3
			c14.6-6.6,27.8-15.6,39.5-26.1c10.1-9,21.1-16.7,33.1-22.3c12-5.6,24.8-8.9,37.8-9.5c12.9-0.7,26,1.5,38,6.5
			c12.1,4.9,23.1,12.7,32.5,22.3l0.1,0.1c3.4,3.4,9,3.6,12.7,0.1c3.4-3.4,3.3-8.9,0.1-12.6c-10-11.8-22.6-21.9-37-28.7
			c-14.6-6.8-30.9-10.3-47.1-10.1c-16.2,0.3-32.1,4.2-46.7,10.6c-14.6,6.4-27.9,15.3-39.6,25.8c-10,8.9-21.3,16.4-33.3,21.7
			c-12,5.3-24.9,8.5-37.7,8.9c-12.8,0.4-25.6-1.9-37.1-7.1c-11.6-5.1-21.8-13-30.2-22.8c-10.6-12.4-24-22.7-39.2-29.2
			c-15.1-6.6-31.8-9.6-48-8.9c-4.6,0.2-9.2,0.6-13.7,1.3c-8,1.3-15.1-5-15.1-13.1v-273.6c0-8.2,6.7-14.9,14.8-14.9h660.2
			c0,0,0,0,0.1,0h64.1c8.5,0,15.6,6.7,16,15.3l0.4,5.7c0.1,1.9,0.5,3.8,0.8,5.7l1.7,11.4c0.7,3.8,1.8,7.6,2.6,11.3l1.4,5.7
			c0.6,1.8,1.3,3.7,1.9,5.6c1.3,3.7,2.4,7.4,3.9,11l4.9,10.7l0.2,0.4c15.9,31.3,24.3,66,24.3,101.1V1865z M1449.3,1583.8l-4.2-9
			c-1.3-3.1-2.2-6.3-3.4-9.4c-0.5-1.6-1.1-3.1-1.6-4.7l-1.2-4.9c-0.8-3.3-1.7-6.5-2.4-9.8l-1.5-10.1c-0.2-1.7-0.6-3.3-0.7-5
			l-0.4-5.1l-0.7-10.2l0.1-10.3l0.3-21.7l0.2-11.2c0.1-3.7,0.2-7.5-0.2-11.2l-1.3-22.4l-0.2-2.8l-0.4-2.8l-0.7-5.6l-1.5-11.2
			c-4.5-29.7-12.8-59.1-26.6-86.4c-1.6-3.5-3.6-6.7-5.5-10c-2-3.3-3.8-6.6-6-9.8l-6.7-9.4c-2.2-3.1-4.9-6-7.3-8.9
			c-1.3-1.4-2.4-3-3.8-4.4l-4.1-4.1c-1.4-1.4-2.7-2.8-4.1-4.1l-4.4-3.8c-2.8-2.6-6-4.9-9.1-7.3c-3.3-2.3-6.3-4.4-10.4-6.6
			c-4.1-2.2-9.3-0.9-11.9,3.3c-2.4,4-1.1,9.1,2.6,11.9l0.4,0.3c2.1,1.6,4.8,4,7.3,6.1c2.4,2.3,4.9,4.5,7.2,7.1l3.5,3.7
			c1.2,1.3,2.3,2.7,3.4,4c2.1,2.5,4.3,5,6.1,7.6c2,2.9,4.3,5.5,6.1,8.5l5.6,8.6c1.8,2.9,3.3,6,5.1,8.9c1.7,3,3.5,5.9,4.8,9.1
			c12.2,24.7,19.9,51.6,24,79.2l1.3,10.4l0.7,5.2l0.1,0.9c1.4,16.5-9.6,45.1-31.5,33.9c-9.2-4.7-13.1-18.2-15.9-30.5
			c-1.7-14.7-5.5-29.3-11.2-43c-13.9-32.1-38.4-59.5-69-76.5c-15.4-8.4-32.1-14.2-49.3-17.2l-6.5-1c-2.1-0.3-4.3-0.7-6.5-0.8
			l-13.1-0.7l-24.3,0h-59.2c-11.6,0-20.1-10.8-17.5-22.1l18.3-77.5c1.1-4.8-1.9-9.7-6.9-10.8c-4.7-1-9.3,2.1-10.6,6.7l-32.7,112.6
			c-0.3,1.1-0.5,2.2-0.5,3.3c0,6.5,5.3,11.7,11.7,11.7h97.3l24.2,0l11.1,0.6c1.8,0,3.7,0.4,5.5,0.7l5.5,0.8
			c14.6,2.6,28.8,7.5,41.8,14.6c26,14.4,46.8,37.7,58.6,64.9c5.7,13.7,9.1,28.3,10.1,43.1l0.3,5.6c0.1,1.8,0.2,3.6,0.2,5.7v24.9
			H859.5c-7.6-1.3-14.8-3.6-21-7.3c-5.2-3.1-9.7-6.9-13.5-11.6c-3.8-4.7-6.8-10.2-9.3-16.1c-4.8-11.9-6.9-25.5-7.5-39.4
			c-0.6-13.9,0.5-28.1,2.3-42.3c3.8-28.3,11-56.6,19.7-84.3c8.8-27.8,19.3-55.1,30.9-81.9c23.2-53.7,50.8-105.7,81.9-155.4
			c15.5-24.8,32.1-49,49.7-72.3c12.1-15.9,24.7-31.5,38.1-46.1c5.5-6,14.8-6.5,20.9-1.1c14.3,12.7,30.2,23.7,47.5,32
			c25.4,12.5,53.2,19.8,81.3,21.7c28.1,1.9,56.5-1.5,83.4-10c20.9-6.6,41.1-16.4,58.9-30.2c4.9-3.8,11.6-4.3,17-1.1
			c43.2,25.7,82.9,57.5,118.1,93.6c39.8,40.7,73.9,86.8,101.8,136.4c27.9,49.6,49.4,102.8,63.8,157.8c14.4,55,21.6,111.9,21.7,168.8
			c-0.1,27.7-4.5,55.1-14.9,79.8c-5.5,12.1-12.4,23.4-21,33.2c-8.6,9.8-19.1,17.6-30.5,23.3c-11.5,5.6-24.1,8.9-36.8,9.4
			s-25.6-1.7-37.5-6.4c-11.9-4.7-23-11.7-32.3-20.8C1462.9,1606.4,1455.3,1595.6,1449.3,1583.8z M2163.3,2211.6v19.8c0,5-4,9-8.9,9
			h-25.5c-6.6,0-11.9,5.3-11.9,11.9v40.9c0,8.2-6.7,14.9-14.9,14.9h-611.5c-8.2,0-14.9-6.7-14.9-14.9v-621
			c0-10.1,10.3-16.9,19.6-12.9l0.2,0.1c15,5.9,31.3,8.8,47.6,8.2c16.2-0.6,32.3-4.6,46.8-11.8c14.6-7.1,27.6-17,38.3-29
			c10.6-12,18.9-25.6,25.4-39.9c10.2-23.9,15.2-49.3,16.7-74.5h569.2c0,0,0,0,0.1,0h18.6c8.2,0,14.8,6.7,14.8,14.9v81.8
			c0,8.7-8.6,14.8-16.8,11.9l-72.2-25.2l-30.7-10.8l-15.3-5.3l-7.7-2.7c-1.1-0.4-2.7-0.8-4.1-1.3c-1.6-0.5-3.1-1-4.7-1.3
			c-12.6-2.9-25.9-2.7-38.5,0.5c-12.4,3.4-24,9.7-33.5,18.4c-9.4,8.8-16.7,19.9-21,32c-4.2,12.2-5.3,25.4-3.5,38.1
			c2,12.7,7.2,24.8,14.7,35.2c7.7,10.3,18,18.7,29.5,24.2c2.9,1.3,6,2.5,8.8,3.6l7.7,2.7l15.4,5.3l30.7,10.6l61.4,21.2
			c4.8,1.6,5.8,8,1.7,11c-16.6,12.1-28,30.4-31.4,51.9c-1.7,11-1,22.3,2.1,33.1c5.5,18.7,17,34,32.3,44.2c0.3,0.2,0.6,0.4,1,0.6
			c6.4,3.7,7.3,12.5,2.1,17.7l-0.1,0.1c-17.6,14.4-28.4,36.9-28.6,59.7c-0.1,12.8,2.7,25.6,8.7,36.9c5.9,11.3,14.3,21.4,24.9,28.6
			c2.7,1.8,5.3,3.6,8.2,5c1.4,0.8,2.8,1.6,4.3,2.2l4.4,1.8l2.2,0.9l1.9,0.7l3.8,1.3l7.7,2.7l12.4,4.3c13,4.5,21.8,16.8,21.8,30.6
			v90.6c-2.1,5.7-7.5,9.7-13.9,9.7h-83.7C2168.6,2199.6,2163.3,2205,2163.3,2211.6z M2367.4,2223.5c8.2,0,14.9,6.7,14.9,14.9v165.4
			c0,8.2-6.7,14.9-14.9,14.9h-14.7c-1.5-0.7-3.1-1.1-4.9-1.1s-3.4,0.4-4.9,1.1h-140.9c-8.2,0-14.9-6.7-14.9-14.9v-165.4
			c0-8.2,6.7-14.9,14.9-14.9H2367.4z M2804.6,1802.2l-0.3,3.7l-0.6,7.4c-0.2,2.5-0.8,4.9-1.2,7.3c-0.5,2.4-0.9,4.9-1.4,7.3l-2.1,7.1
			l-1,3.6c-0.3,1.2-0.7,2.4-1.2,3.7l-2.7,7.7l-5.3,15.3l-42.6,122.8l-21.3,61.4c-3.6,9.6-7.3,19-12.3,27.5
			c-4.9,8.6-10.6,16.8-17.4,23.8c-6.7,7-14.2,13.3-22.6,18.3c-8.4,5-17.4,8.9-26.9,11.9c-19,5.8-39.6,7.7-60.3,7.1
			c-20.7-0.6-41.6-3.4-62.3-7.5c-20.8-4.1-41.4-9.5-61.9-15.6c-20.5-6.1-40.7-12.9-61.2-20.1l-61.4-21.3l-61.4-21.3l-30.7-10.7
			l-7.7-2.7l-3.8-1.3l-1.9-0.7l-1.5-0.6l-3.1-1.3c-1.1-0.4-2-1-3-1.5c-2-1-3.9-2.2-5.7-3.5c-7.3-4.9-13.2-12-17.3-19.8
			c-4.2-7.8-6.1-16.8-6.1-25.6c0.2-17.7,9.5-35.3,24.5-44.9c7.3-5,16-7.9,24.8-8.8c2.2-0.4,4.4-0.2,6.6-0.3c2.2,0.1,4.4,0.3,6.6,0.6
			c2.2,0.5,4.4,0.7,6.5,1.4l3.2,0.9l3.8,1.3l61.4,21.2c41,14,82.1,27.6,123.7,39.9c4.6,1.3,9.7-1.2,11.1-6c1.4-4.5-1.3-9.3-5.7-11.1
			c-40.1-16.1-80.6-30.8-121.3-45.2l-61.4-21.4l-3.9-1.3l-0.2-0.1l-52.9-18.4c-18.4-6.4-32-21.7-36-41.8c-0.9-4.5-1.2-9.2-0.8-13.8
			c1.7-20.3,13.4-37.1,30.9-45.5c13-6.3,27.6-7.2,41.3-2.6l57.3,19.7c20.5,7,41.1,13.8,61.7,20.4c20.6,6.7,41.3,13.3,62,19.5
			c4.6,1.4,9.7-1.2,11.2-6c1.4-4.5-1.3-9.3-5.8-11.1c-20-7.9-40.1-15.5-60.3-22.9c-20.3-7.6-40.7-15-61.1-22.2l-122.7-43l-61.4-21.5
			l-30.7-10.7l-15.3-5.4l-7.7-2.7c-2.3-0.9-4.2-1.6-6.2-2.6c-7.9-3.9-14.9-9.6-20.1-16.7c-5.1-7.2-8.7-15.5-10-24.2
			c-1.2-8.7-0.4-17.6,2.5-26c3-8.3,7.9-15.8,14.3-21.8c6.4-6,14.4-10.3,22.8-12.7c8.5-2.2,17.5-2.4,26.1-0.5
			c1.1,0.2,2.1,0.6,3.2,0.9c1.1,0.4,2,0.5,3.3,1l23,7.9l30.7,10.6l122.9,42.4l61.4,21.2l61.5,20.9c18.2,6.2,36.5,12.2,54.8,18.2
			c2.3,2.3,5.4,3.5,8.4,3.5c0.6,0,1.2,0,1.8-0.1c9.2,3,18.4,6,27.6,8.9l31,9.8c4.7,1.5,9.9-1.1,11.3-6c1.4-4.6-1.4-9.4-5.9-11.1
			l-29.9-11.4c-0.1,0-0.2-0.1-0.3-0.1c-18.4-7-34.9-17.9-48.5-32.1c-8.1-8.5-16.9-17.8-22.6-24.7c-13.6-16.1-25.9-33.1-35.5-51.1
			c-9.6-18.1-16.3-37.3-18-57c-0.8-9.7-0.5-19.3,1.6-28.2c2.1-8.9,6.2-16.9,12-23.2c5.8-6.4,13.3-11.1,21.7-13.8
			c8.3-2.8,17.9-3.4,26.6-2.3c16.1,1.8,30,16.5,42.8,32.9c12.9,16.6,25.5,34.8,40,51.8c14.4,17.1,30.7,33.1,48.8,46.7
			c8.9,6.8,18.7,13.3,28.8,18.7c10,5.5,20.3,10.1,30.7,14.3c20.7,8.5,41.6,15,61.6,22.2l7.5,2.7c2.3,0.9,4.6,2,6.9,2.9
			c2.2,1,4.6,1.9,6.8,3l6.5,3.6c8.6,4.8,16.5,10.9,23.9,17.4c14.6,13.4,25.8,30.3,33.1,48.7c2.1,4.5,3.2,9.4,4.8,14.1
			c0.8,2.3,1.2,4.8,1.7,7.2l1.5,7.3l0.8,7.4c0.2,2.5,0.7,4.9,0.6,7.4l0.1,7.4C2804.6,1799.7,2804.6,1801,2804.6,1802.2z"/>
		<path d="M1418.6,448.1l22.5,12.3c28.3,15.5,51.4,38.6,66.8,66.8l12.3,22.5c2.1,3.8,6.1,6.2,10.5,6.2c4.4,0,8.4-2.4,10.5-6.2
			l12.3-22.5c15.5-28.3,38.5-51.3,66.8-66.8l22.5-12.3c3.8-2.1,6.2-6.1,6.2-10.5c0-4.4-2.4-8.4-6.2-10.5l-22.5-12.3
			c-28.2-15.5-51.3-38.6-66.8-66.8l-12.3-22.5c-2.1-3.8-6.1-6.2-10.5-6.2c-4.4,0-8.4,2.4-10.5,6.2l-12.3,22.5
			c-15.5,28.3-38.6,51.4-66.8,66.8l-22.5,12.3c-3.8,2.1-6.2,6.1-6.2,10.5C1412.4,442,1414.7,446,1418.6,448.1z"/>
		<path d="M182.8,1610.9l22.5,12.3c28.3,15.5,51.4,38.6,66.8,66.8l12.3,22.5c2.1,3.8,6.1,6.2,10.5,6.2c4.4,0,8.4-2.4,10.5-6.2
			l12.3-22.5c15.5-28.3,38.5-51.3,66.8-66.8l22.5-12.3c3.8-2.1,6.2-6.1,6.2-10.5c0-4.4-2.4-8.4-6.2-10.5l-22.5-12.3
			c-28.2-15.5-51.3-38.6-66.8-66.8l-12.3-22.5c-2.1-3.8-6.1-6.2-10.5-6.2c-4.4,0-8.4,2.4-10.5,6.2l-12.3,22.5
			c-15.5,28.3-38.6,51.4-66.8,66.8l-22.5,12.3c-3.8,2.1-6.2,6.1-6.2,10.5C176.6,1604.7,179,1608.8,182.8,1610.9z"/>
		<path d="M2027.6,2643.6l-22.5-12.3c-28.2-15.5-51.3-38.6-66.8-66.8l-12.3-22.5c-2.1-3.8-6.1-6.2-10.5-6.2c-4.4,0-8.4,2.4-10.5,6.2
			l-12.3,22.5c-15.5,28.3-38.6,51.4-66.8,66.8l-22.5,12.3c-3.8,2.1-6.2,6.1-6.2,10.5c0,4.4,2.4,8.4,6.2,10.5l22.5,12.3
			c28.3,15.5,51.4,38.6,66.8,66.8l12.3,22.5c2.1,3.8,6.1,6.2,10.5,6.2c4.4,0,8.4-2.4,10.5-6.2l12.3-22.5
			c15.5-28.3,38.5-51.3,66.8-66.8l22.5-12.3c3.8-2.1,6.2-6.1,6.2-10.5C2033.8,2649.7,2031.5,2645.7,2027.6,2643.6z"/>
		<circle cx="399.6" cy="1085.5" r="37.1"/>
		<circle cx="653.4" cy="2648.1" r="48"/>
		<circle cx="2645.2" cy="1348.7" r="48"/>
		<circle cx="2598.9" cy="2515.2" r="37.1"/>
		<circle cx="283.4" cy="2370.1" r="25.7"/>
		<circle cx="1605.6" cy="2452.4" r="25.7"/>
		<circle cx="258.4" cy="652.1" r="25.7"/>
		<circle cx="2598.9" cy="709.4" r="25.7"/>
		<circle cx="2187.2" cy="356.6" r="37.1"/>
	</g>
</g>
</svg>
