<?xml version="1.0" encoding="utf-8"?>
<!-- Generator: Adobe Illustrator 21.1.0, SVG Export Plug-In . SVG Version: 6.00 Build 0)  -->
<svg version="1.1" xmlns="http://www.w3.org/2000/svg" xmlns:xlink="http://www.w3.org/1999/xlink" x="0px" y="0px"
	 viewBox="0 0 3000 3000" style="enable-background:new 0 0 3000 3000;" xml:space="preserve">
<g id="fill">
	<g>
		<path style="fill:#FF4370;" d="M2258.4,840.1h-129.2c-6.3,0-11.4-5.1-11.4-11.4V704.1c0-8.5-6.9-15.4-15.4-15.4h-611.9
			c-8.5,0-15.4,6.9-15.4,15.4v265.2c0,29,10.7,57.4,30,79.9c28.8,33.5,54.5,70.1,76.3,108.7c29,51.4,51.3,106.5,66.2,163.8
			c13.9,53,21.5,108.1,22.5,163.8l0,0.5h588.4c8.5,0,15.4-6.9,15.4-15.4V855.5C2273.9,847,2266.9,840.1,2258.4,840.1z
			 M1803.1,1282.4c2.3-5.6,5.6-10.6,9.8-14.8c5-5.1,6.6-12.6,3.9-18.9l-0.2-0.7c-15.7-38.1-44-69.4-79.8-88.3
			c-44-23.2-78.7-61.4-97.8-107.6c-21.5-52.1-21.6-109.6-0.3-161.8c21.2-52.1,61.3-93.1,112.9-115.5c52.2-22.6,110.4-23.4,163.8-2.1
			c26.6,10.6,50.2,25.8,70.4,45.3c20.1,19.5,35.9,42.6,47.1,68.6c19.9,46.5,22.7,98.7,7.9,146.9c-12.2,39.7-10.4,82.3,5.1,120
			l0.3,0.7c2.6,6.4,9,10.6,16.2,10.7c9.1,0.1,17.8,2.8,25.3,7.8c7.7,5.2,13.7,12.4,17.2,21c4.8,11.6,4.7,24.2-0.1,35.7
			c-0.2,0.5-0.4,1.1-0.7,1.6c-3.7,8-3.3,17.4,0.9,25.9l0,0.1c0.4,0.8,0.7,1.6,1,2.4l7,17.1c7.8,19.1-1.3,41-20.4,48.8
			c-12.4,5.1-21.8,15.4-25.8,28.2c-6.4,20.4-21.4,36.7-41.2,44.9l-22.7,9.3c-19.7,8.1-41.9,7.1-60.8-2.9c-6.5-3.4-13.8-5.2-21.1-5.2
			c-5.9,0-11.6,1.1-17.1,3.4c-4.6,1.9-9.3,2.8-14.2,2.8c-6.1,0-12-1.5-17.5-4.4c-7.7-4-13.9-11-17.5-19.7l-6.7-16.2
			c-0.3-0.8-0.6-1.7-0.9-2.5c-3-9-9.4-16-17.7-19.1c-0.5-0.2-1.1-0.4-1.6-0.6c-11.5-4.8-20.4-13.8-25.2-25.3
			C1798.2,1306.5,1798.3,1293.8,1803.1,1282.4z"/>
		<path style="fill:#FF4370;" d="M1424.6,1583.2c-0.9-2.1-1.6-4.4-2.4-6.5l-0.1-0.4c-0.5-1.3-0.9-2.7-1.4-4l-0.6-1.9
			c-0.4-1-0.8-2.3-1.2-3.5l-1.4-5.7c-0.3-1.1-0.6-2.3-0.9-3.5c-0.6-2.4-1.3-5.1-1.7-7.6l-1.7-11.4c-0.1-0.6-0.2-1.1-0.2-1.7
			l-0.1-0.6c-0.2-1.2-0.4-2.3-0.4-3.3l-0.4-5.7c-0.4-9.9-8.6-17.6-18.5-17.6H668.8c-9.6,0-17.3,7.8-17.3,17.4V1801c0,4.6,2,9,5.5,12
			c3.5,3,8,4.3,12.5,3.6c4.4-0.7,8.9-1.1,13.4-1.3c16.3-0.7,32.5,2.4,46.9,8.7c14.5,6.3,27.8,16.2,38.3,28.6
			c8.9,10.4,19.4,18.3,31.1,23.5c11.7,5.2,24.9,7.7,38.2,7.3c12.9-0.4,25.9-3.4,38.7-9.1c12-5.3,23.4-12.8,34-22.2
			c12.1-10.8,25.2-19.3,38.9-25.3c15.1-6.6,30.5-10.1,45.8-10.4c15.9-0.2,31.9,3.2,46,9.8c13.6,6.4,26.1,16.1,36.2,28.1
			c2.4,2.8,2.4,6.9,0,9.2c-2.6,2.5-6.6,2.5-9.2-0.1c-10.3-10.4-21.5-18.1-33.4-22.9c-12.2-5.1-25.8-7.4-39.1-6.7
			c-13,0.6-26.1,3.9-38.7,9.8c-11.5,5.3-22.8,13-33.7,22.7c-12.1,10.9-25.1,19.5-38.9,25.7c-14.9,6.7-30.4,10.5-45.9,11.1
			c-16.3,0.7-32.5-2.4-47-8.7c-14.7-6.4-27.9-16.3-38.3-28.6c-8.6-10.3-19.4-18.4-31.1-23.5c-11.7-5.2-24.9-7.7-38.3-7.3
			c-2,0.1-4.2,0.2-6.3,0.4c-14.7,1.4-25.8,13.7-25.8,28.6v120l0.2,0.5c1.5,3.2,4.3,5.6,7.7,6.7c3.4,1.1,7,0.8,10.2-1
			c3.5-1.9,6.6-3.4,9.5-4.6c15.3-6.7,30.7-10.2,45.7-10.4c15.8-0.2,31.7,3.1,45.9,9.7c13.6,6.4,26.2,16.1,36.2,27.9
			c2.4,2.8,2.4,6.9,0,9.2c-1.3,1.2-2.9,1.9-4.6,1.9c-1.7,0-3.3-0.7-4.5-2l-0.2-0.1c-10.3-10.5-21.5-18.2-33.2-22.9
			c-12.2-5.1-25.8-7.5-39.2-6.8c-13.3,0.7-26.4,4-38.7,9.8c-3.9,1.8-9,4.9-15.3,9.1c-12.1,8.3-19.3,22-19.3,36.7l-0.5,141.1l0.1,0.4
			c2.3,7.4,8.9,12.3,16.6,12.3h83.4c5.2,0,9.4,4.2,9.4,9.4v82.7c0,9.6,7.8,17.4,17.4,17.4h658.3c9.6,0,17.4-7.8,17.4-17.4v-86.2
			c0-9.6-7.8-17.4-17.4-17.4H907.8c-4.5,0-8.4-3.2-9.3-7.7c-0.7-3.7-16.6-92.3,37-153c33.8-38.3,87.3-56.3,158.9-53.4l1.9,0.1
			l0.6-1.9c12.1-41.5,36.7-77.3,71-103.7c33.4-25.7,75.6-41.8,118.7-45.3c58.5-4.8,111.1,12.4,148.2,48.3c3.3,3.2,8,4.1,12.3,2.3
			c4.3-1.8,7-5.9,7-10.6v-168.8c0-35.3-8.5-70.7-24.5-102.2L1424.6,1583.2z M1341.2,1701c-0.2,2-1.1,3.8-2.6,5.1
			c-3,2.5-7.4,2.3-10.1-0.5l-0.1-0.1c-10.2-10.4-21.3-18.1-33-22.8c-12.1-5.1-25.5-7.4-38.8-6.7c-13.3,0.7-26.2,4-38.4,9.7
			c-11.6,5.4-22.9,13-33.5,22.7c-12.1,10.9-25.2,19.6-39.1,25.8c-15,6.8-30.6,10.6-46.2,11.2c-16.4,0.7-32.8-2.4-47.4-8.8
			c-14.6-6.3-27.9-16.3-38.7-28.9c-8.5-10.1-19.1-18.1-30.7-23.2c-10.7-4.8-22.7-7.3-34.9-7.3c-1,0-1.9,0-2.9,0
			c-12.8,0.4-25.7,3.4-38.3,9c-11.9,5.2-23.2,12.6-33.7,22c-12.4,10.9-25.6,19.4-39.2,25.4c-15.4,6.8-30.9,10.3-46.1,10.4
			c-16.1,0.2-32.1-3.2-46.4-9.8c-13.9-6.6-26.7-16.5-37-28.7c-1.3-1.5-1.9-3.4-1.7-5.4c0.2-2,1.1-3.8,2.6-5.1
			c3-2.5,7.4-2.3,10.1,0.5l0.1,0.1c10.2,10.4,21.3,18.1,33,22.8c12.2,5.1,25.6,7.4,38.8,6.7c13.3-0.7,26.2-4,38.4-9.7
			c11.6-5.3,22.8-13,33.5-22.6c12.1-10.9,25.3-19.6,39.1-25.8c15.1-6.8,30.6-10.6,46.2-11.1c16.4-0.7,32.8,2.4,47.4,8.8
			c14.7,6.3,28,16.3,38.7,28.8c8.5,10.1,19.1,18.2,30.7,23.3c11.6,5.2,24.7,7.7,37.8,7.2c12.9-0.4,25.8-3.5,38.3-9
			c11.8-5.3,23.2-12.7,33.7-22c12.4-10.9,25.6-19.4,39.2-25.4c15.4-6.8,30.9-10.3,46.1-10.4c16.1-0.2,32.1,3.2,46.4,9.8
			c13.9,6.5,26.7,16.4,37,28.6C1340.7,1697,1341.4,1699,1341.2,1701z"/>
	</g>
	<g>
		<path style="fill:#008CFF;" d="M2050.5,1594c9.2-8.5,20.6-14.8,33.1-18.2c12.4-3.2,25.6-3.4,38.1-0.5c1.3,0.3,2.6,0.7,3.8,1.1
			l0.8,0.3c0.5,0.1,0.9,0.3,1.4,0.4c0.9,0.3,1.9,0.6,2.6,0.8l23,8l102.9,36c4.2,1.5,8.7,0.8,12.4-1.8c3.6-2.6,5.7-6.6,5.7-11.1
			v-81.8c0-8.8-7.1-15.9-15.9-15.9h-589.2l-0.1,0.9c-1.5,27-7.1,52-16.6,74.2c-7,15.2-15.5,28.5-25.3,39.6
			c-10.5,11.8-23.6,21.8-38,28.8c-14.5,7.1-30.5,11.1-46.4,11.7c-15.9,0.6-32.2-2.2-47.2-8.1l-0.2-0.1c-4.7-2-10-1.5-14.2,1.3
			c-4.2,2.8-6.8,7.5-6.8,12.6v621.4c0,8.8,7.1,15.9,15.9,15.9h611.9c8.8,0,15.9-7.1,15.9-15.9v-40.9c0-6,4.9-10.9,10.9-10.9h25.5
			c5.5,0,10-4.5,10-10V2212c0-6,4.9-11,10.9-11h83.7c6.6,0,12.6-4.2,14.9-10.4l0.1-0.2v-90.9c0-14.2-9-26.9-22.5-31.6l-20.1-7
			l-5.8-2l-6.6-2.7c-1-0.4-2-1-3.1-1.5c-0.4-0.2-0.8-0.4-1.2-0.6c-2.8-1.3-5.5-3.2-8-4.9c-10-6.8-18.5-16.5-24.6-28.3
			c-5.7-10.7-8.6-23.4-8.6-36.5c0.2-22.6,10.8-44.6,28.2-58.9l0.1-0.1c2.8-2.7,4-6.5,3.5-10.4c-0.5-3.7-2.6-7-5.8-8.8l-0.4-0.2
			c-0.2-0.1-0.4-0.2-0.5-0.4c-15.6-10.3-26.6-25.4-32-43.7c-3.1-10.6-3.8-21.8-2.1-32.6c3.3-20.9,14.3-39.1,31-51.3
			c2.2-1.6,3.3-4.3,2.9-7c-0.4-2.7-2.2-4.9-4.9-5.8l-61.5-21.2l-53.8-18.5c-2.9-1.1-5.9-2.3-8.7-3.6c-11.5-5.5-21.6-13.8-29.2-23.9
			c-7.6-10.5-12.7-22.5-14.6-34.8c-1.9-12.7-0.7-25.7,3.4-37.6C2034,1613.6,2041.1,1602.7,2050.5,1594z M1980.6,1978.2
			c-0.1,19.7-0.4,39.7-0.6,59.1l-0.1,8.4c-0.3,23.3-0.6,46-1,67.5l-1.4,67c-0.1,4.5-3.4,8.1-7.6,8.3c-2.2,0.1-4.2-0.7-5.8-2.1
			c-1.6-1.5-2.5-3.5-2.5-5.6l-1.4-67.5c-0.4-21.1-0.7-43.2-1-67.5l-0.1-10.9c-0.2-18.5-0.5-37.7-0.6-56.5c-0.1-12.4-0.1-25.9,0-42.3
			c0.1-8.2-5-15.5-12.7-18c-31.5-10.3-52.7-39.6-52.7-72.7c0-33.6,21.5-62.9,53.6-73c7.4-2.3,12.5-9.3,12.8-17.3l2.2-68.9
			c0.1-4.4,3.5-8,7.6-8.2c0.1,0,0.3,0,0.4,0c2,0,3.9,0.7,5.4,2.1c1.6,1.5,2.5,3.5,2.6,5.6l2.2,69.3c0.2,8,5.4,15,12.8,17.3
			c32,10.1,53.5,39.4,53.5,73c0,33.1-21.2,62.3-52.6,72.7c-7.6,2.5-12.8,9.7-12.7,18C1980.7,1952.4,1980.7,1965.8,1980.6,1978.2z
			 M1754.6,1900.8c0.1-24.8,0.4-50.1,0.7-71.7c0.5-43.7,1.3-90.5,2.5-143c0.1-4.4,3.5-8.1,7.6-8.3c0.1,0,0.3,0,0.4,0
			c2,0,3.9,0.8,5.4,2.1c1.6,1.5,2.5,3.5,2.5,5.6c1.2,52.2,2,99.2,2.5,143.5c0.3,25.5,0.6,48.4,0.7,71.7c0.1,16.5,0.1,31.7,0,46.6
			c0,8.3,5.1,15.5,12.7,18c31.5,10.3,52.7,39.5,52.7,72.7c0,33.6-21.6,63-53.6,73h0c-7.4,2.3-12.6,9.3-12.9,17.3l-2,51.7
			c-0.2,4.4-3.5,8-7.6,8.1c-2.2,0.1-4.2-0.7-5.8-2.1c-1.6-1.4-2.5-3.4-2.5-5.5l-2-52.2c-0.3-8-5.5-15-12.9-17.3
			c-32.1-10.1-53.6-39.4-53.6-73c0-33.1,21.2-62.3,52.7-72.7c7.7-2.5,12.8-9.7,12.7-18C1754.5,1929.2,1754.5,1914.4,1754.6,1900.8z"
			/>
		<path style="fill:#008CFF;" d="M1436.8,688.2h-69c-3.4,0-6.6,1.5-8.7,4.1c-2.1,2.6-3,6-2.3,9.3c2.2,10.7,3.4,18.4,3.7,22.9
			c2.8,38.6-7.8,76.1-30.7,108.3c-19.3,27.1-46,47.4-77.2,58.8c-18.7,6.8-38,10.2-57.5,10.2c-33.7,0-66.5-10.4-94.7-30
			c-28.2-19.6-49.9-48.2-61.2-80.6c-9.9-28.5-12-58.9-6.1-87.9c0.8-3.7-0.2-7.5-2.6-10.5c-2.4-2.9-5.9-4.6-9.7-4.6H778.5
			c-8.8,0-15.9,7.1-15.9,15.9v82.7c0,6-4.9,10.9-10.9,10.9h-25.5c-5.5,0-10,4.5-10,10v20.9c0,6-4.9,10.9-10.9,10.9h-36.3
			c-8.8,0-15.9,7.1-15.9,15.9v615.1c0,8.8,7.1,15.9,15.8,15.9h110.8l0.3-0.2c8.6-6.5,16.2-14.1,14.4-26.1c0-0.2,0-0.3-0.1-0.5
			c0-0.1,0-0.1,0-0.2l0-0.2l-0.1-0.3c-1.7-4.3-3.2-8.7-4.5-13.6c-0.7-1.8-1.4-4-1.9-6.3c-0.6-2.8-1-5.9-1.2-9.4
			c-0.8-5.5-1.3-11.3-1.6-17.7c-0.6-13.7,0.2-28.4,2.5-46.2c3.6-27,10.1-55.1,20.6-88.3c8.7-27.2,19-54.7,31.8-84.1
			c23.3-53.8,51.4-107.1,83.6-158.6c16.6-26.4,33.7-51.3,50.9-74c20.4-26.8,39.8-49.2,59.3-68.4c2.1-2,4.8-3.1,7.7-3.1
			c2.9,0.1,5.6,1.2,7.6,3.4l0.4,0.4c18.1,20,38.2,35.4,59.9,45.9c22.3,11,47.5,17.7,72.8,19.4c25.2,1.7,51.2-1.4,75-9
			c12.3-3.9,24-8.9,34.6-14.9c11.3-6.4,21.2-13.9,29.5-22.2l0.3-0.3c3.4-3.3,8.5-3.9,12.7-1.7c32.8,17.7,64.6,39.4,94.5,64.2
			c4.5,3.7,10.5,4.5,15.7,2c5.2-2.4,8.4-7.5,8.4-13.3V704.1C1452.7,695.3,1445.6,688.2,1436.8,688.2z"/>
	</g>
</g>
<g id="outline">
	<g>
		<path style="fill:#FFFFFF;" d="M2830.3,1799l-0.1-8.8c0.1-3-0.4-5.9-0.7-8.8l-0.9-8.7l-1.8-8.7c-0.6-2.9-1-5.8-2-8.6
			c-1.8-5.6-3.2-11.3-5.6-16.7c-8.7-21.8-22.1-41.8-39.4-57.9c-8.8-7.8-18.1-15.1-28.4-20.8l-7.7-4.3c-2.6-1.3-5.3-2.4-8-3.6
			c-2.7-1.1-5.4-2.4-8.1-3.5l-7.8-2.8c-20.7-7.5-41.2-13.9-60.6-21.9c-9.7-3.9-19.1-8.3-28.1-13.2c-9-4.9-17.3-10.4-25.6-16.7
			c-16.5-12.4-31.3-26.9-44.9-42.9c-13.7-15.9-25.8-33.3-39.6-50.9c-3.5-4.4-7-8.8-11-13.1c-3.9-4.3-8.1-8.6-12.9-12.5
			c-4.7-4-10.1-7.7-16-10.6c-5.9-3-12.6-5-19.2-5.9l-2.5-0.3l-2.3-0.1l-4.7-0.2c-3.1-0.1-6.3,0.2-9.4,0.3c-3.1,0.3-6.3,0.8-9.4,1.3
			c-3.1,0.8-6.2,1.4-9.3,2.4c-12.2,3.9-23.6,11.1-32.4,20.8c-8.8,9.7-14.7,21.7-17.6,33.9c-3,12.2-3.2,24.5-2.1,36.3
			c2.2,23.6,10.2,46,21,66.1c8.1,15,17.6,29,27.8,42.2l0.1,0.1c5.6,7.2-1.6,17.3-10.2,14.2c-20.1-7.2-42.3-15-42.3-15l-52.2-18.3
			c-11.4-4-19-14.7-19-26.8V855.5c0-8.2,6.7-14.9,14.9-14.9h36.3c6.6,0,11.9-5.3,11.9-11.9v-20.9c0-5,4-9,9-9h25.5
			c6.6,0,11.9-5.3,11.9-11.9V567.6c0-6.6-5.3-11.9-11.9-11.9h-219.2c-6.6,0-11.9,5.3-11.9,11.9v20.9c0,5-4,9-9,9h-25.5
			c-6.6,0-11.9,5.3-11.9,11.9v40.9c0,8.2-6.7,14.9-14.9,14.9h-638.6c0,0-0.1,0-0.1,0c-0.1,0-0.1,0-0.1,0h-99.9
			c-10.4,0-20-5.7-25.3-14.7c-14.2-23.9-34.3-43.9-59-58.2c-79.3-46.3-181.5-19.4-227.7,59.9l-0.3,0.5c-4.3,7.7-12.5,12.5-21.3,12.5
			H778.5c-8.3,0-14.9-6.7-14.9-14.9v-82.7c0-6.6-5.3-11.9-11.9-11.9H532.4c-6.6,0-11.9,5.3-11.9,11.9v20.9c0,5-4,9-9,9H486
			c-6.6,0-11.9,5.3-11.9,11.9v219.2c0,6.6,5.3,11.9,11.9,11.9h129.2c8.2,0,14.9,6.7,14.9,14.9v821.2v100c0,27.5-11.7,53.7-32.2,72.1
			l-1.3,1.2c-10,9.1-21,16.8-33.1,22.4c-12,5.6-24.8,8.9-37.8,9.6c-13,0.7-26-1.6-38.1-6.6c-12.2-4.9-23.1-12.8-32.5-22.5l-0.1-0.1
			c-3.4-3.5-9.1-3.6-12.7-0.1c-3.4,3.4-3.3,9-0.1,12.7c10.1,11.8,22.7,21.8,37.1,28.6c14.6,6.8,30.9,10.2,47,10
			c16.2-0.1,32.1-4.2,46.7-10.6c14.6-6.4,27.9-15.4,39.6-25.7l0.2-0.1c6.7-5.9,17.3-1.2,17.3,7.8v122.8c-2.5,14-11.5,26.2-24.7,32.1
			c-0.1,0.1-0.1,0.1-0.2,0.1c-12,5.3-24.9,8.5-37.8,8.9c-12.8,0.4-25.6-1.9-37.2-7.1c-11.6-5.1-21.9-13-30.2-22.9
			c-10.6-12.4-24.1-22.7-39.2-29.3c-15.1-6.6-31.8-9.6-48-8.9c-16.3,0.6-32.2,4.7-46.8,11.3c-14.6,6.6-27.8,15.6-39.5,26.1
			c-10,9.1-21.1,16.8-33.1,22.4c-12,5.6-24.9,8.9-37.8,9.6c-13,0.7-26.1-1.5-38.1-6.6c-12.2-4.9-23.1-12.8-32.5-22.4l-0.1-0.1
			c-3.4-3.5-9.1-3.6-12.7-0.1c-3.5,3.4-3.3,9-0.1,12.6c10.1,11.8,22.7,21.8,37.1,28.6c14.6,6.8,30.9,10.2,47.1,10
			c16.2-0.1,32.1-4.2,46.7-10.5c14.6-6.4,27.9-15.4,39.6-25.7c10.1-8.9,21.3-16.4,33.3-21.7c12-5.3,24.9-8.5,37.8-8.9
			c12.8-0.4,25.6,2,37.2,7.1c11.6,5.1,21.9,13,30.2,22.9c10.6,12.4,24.1,22.7,39.2,29.3c15.1,6.6,31.8,9.6,48,8.9
			c16.3-0.6,32.2-4.7,46.8-11.3l0.3-0.1c6.9-3.1,14.8,1.9,14.8,9.5v126.4c-1.9,6.2-7.5,10.6-14.2,10.6h-83.4
			c-6.6,0-11.9,5.4-11.9,11.9v20.9c0,5-4,9-9,9H486c-6.6,0-11.9,5.4-11.9,11.9V2472c0,6.6,5.3,11.9,11.9,11.9h219.2
			c6.6,0,11.9-5.3,11.9-11.9v-20.9c0-5,4-9,9-9h25.5c6.6,0,11.9-5.3,11.9-11.9v-82.8c0-8.2,6.7-14.9,14.9-14.9h684.8
			c0.1,0,0.2,0,0.3,0c0.1,0,0.2,0,0.3,0h638.4c8.2,0,14.9,6.7,14.9,14.9V2472c0,6.6,5.3,11.9,11.9,11.9h219.2
			c6.6,0,11.9-5.3,11.9-11.9v-19.8c0-5,4-9,9-9h25.5c6.6,0,11.9-5.3,11.9-11.9V2212c0-6.6-5.3-11.9-11.9-11.9h-83.7
			c-6.4,0-11.9-4.1-14-9.9v-80.5c0-12.1,11.9-20.6,23.4-16.6l10.6,3.7l61.4,21.3c20.4,7.1,41.3,14.3,62.2,20.5
			c21,6.3,42.3,11.9,64.1,16.2c21.7,4.4,43.9,7.4,66.5,8.1c22.5,0.6,45.7-1.3,68.2-8.2c11.2-3.5,22.2-8.2,32.4-14.3
			c10.2-6.1,19.6-13.8,27.8-22.4c16.6-17.3,27.6-38.6,35.2-60.1l21.3-61.4l42.7-122.8l5.3-15.3l2.7-7.7c0.4-1.2,0.9-2.6,1.3-4
			l1.2-4.2l2.5-8.5c0.6-2.9,1.1-5.8,1.7-8.7c0.5-2.9,1.2-5.7,1.5-8.7l0.8-8.8l0.4-4.4C2830.4,1802,2830.3,1800.5,2830.3,1799z
			 M2187.6,594.5c0-8.2,6.7-14.9,14.9-14.9H2368c8.2,0,14.9,6.7,14.9,14.9V760c0,8.2-6.7,14.9-14.9,14.9h-165.5
			c-8.2,0-14.9-6.7-14.9-14.9V594.5z M1475.6,704.1c0-8.2,6.7-14.9,14.9-14.9h611.9c8.2,0,14.9,6.7,14.9,14.9v124.5
			c0,6.6,5.3,11.9,11.9,11.9h129.2c8.2,0,14.9,6.7,14.9,14.9v615.1c0,8.2-6.7,14.9-14.9,14.9h-1.3c0,0-0.1,0-0.1,0h-141.8h-57.5
			H1892h-6.2h-190.7c-13.5,0-24.7-10.6-25.4-24.1c-2.5-47.2-9.7-94.1-21.7-139.8c-14.9-57.2-37.3-112.4-66.3-163.9
			c-21.8-38.7-47.4-75.2-76.3-108.8c-19.1-22.2-29.9-50.3-29.9-79.5V704.1z M1094.6,800.7h0.3c40.7,0,67.9-25.6,92.7-49.1
			c13.2-12.4,25.7-24.2,39.7-32.8c57.7-35.3,125.4,29.8,91.7,88.5c-0.1,0.3-0.3,0.5-0.4,0.8c-21.1,36.2-56.4,61-98.2,68.6
			c-28.3,5.1-57.2,1.6-83.4-10.3c-21.7-9.9-40.1-24.4-54.1-42.3C1075.5,814.5,1082.6,800.7,1094.6,800.7z M763.5,786.8v-82.7
			c0-8.2,6.7-14.9,14.9-14.9h242.5c7.3,0,12.7,6.7,11.3,13.9c-5.9,29-4,59.3,6.2,88.5c11.4,32.8,33.1,61.3,61.5,81.1
			c28.7,19.9,61.7,30.2,95.3,30.2c19.3,0,38.9-3.4,57.8-10.3c31.2-11.4,58.4-32.1,77.7-59.1c23.1-32.5,33.7-70.6,30.9-108.9
			c-0.4-5.6-2.2-15.3-3.8-23c-1.3-6.3,3.6-12.2,10-12.2h69c8.2,0,14.9,6.7,14.9,14.9v259.1c0,11.6-13.6,17.9-22.5,10.5
			c-29.3-24.4-61-46.1-94.7-64.3c-4.4-2.4-10-1.8-13.9,1.8l-0.3,0.3c-8.5,8.5-18.5,15.9-29.3,22c-10.8,6.1-22.5,11.1-34.4,14.8
			c-24,7.6-49.5,10.6-74.7,8.9s-49.9-8.2-72.4-19.3c-22.6-11-42.6-27-59.6-45.7l-0.1-0.1l-0.3-0.3c-4.5-4.7-12-4.9-16.7-0.3
			c-21.8,21.4-41.2,44.6-59.4,68.5c-18.2,23.9-35.1,48.7-51,74.1c-31.7,50.8-59.8,103.7-83.6,158.7c-11.9,27.5-22.7,55.5-31.8,84.2
			c-9,28.7-16.6,58.1-20.6,88.5c-2,15.2-3.2,30.6-2.5,46.4c0.3,5.9,0.7,11.8,1.6,17.8c0.2,3.2,0.6,6.3,1.2,9.5
			c0.5,2.2,1.2,4.4,2,6.5c1.2,4.6,2.7,9.1,4.5,13.7c0,0.1,0.1,0.1,0.1,0.2c0,0.2,0.1,0.4,0.1,0.7c1.8,11.5-5.7,18.9-14,25.2H668.8
			c-8.2,0-14.8-6.7-14.8-14.9V855.5c0-8.2,6.7-14.9,14.9-14.9h36.3c6.6,0,11.9-5.3,11.9-11.9v-20.9c0-5,4-9,9-9h25.5
			C758.2,798.8,763.5,793.4,763.5,786.8z M559.3,774.9c-8.3,0-14.9-6.7-14.9-14.9V594.5c0-8.2,6.7-14.9,14.9-14.9h165.5
			c8.2,0,14.9,6.7,14.9,14.9V760c0,8.2-6.7,14.9-14.9,14.9H559.3z M739.7,2403.3c0,8.3-6.7,14.9-14.9,14.9H559.3
			c-8.3,0-14.9-6.7-14.9-14.9v-165.5c0-8.2,6.7-14.9,14.9-14.9h80.1c0.9,0.2,1.9,0.4,2.9,0.3c0.9,0,1.7-0.1,2.5-0.3h80
			c8.2,0,14.9,6.7,14.9,14.9V2403.3z M1451.7,2153.8c0,8.2-6.7,14.9-14.9,14.9H918.3c-2.3-23.3-3.8-83.4,33.4-125.2
			c30.8-34.7,81.6-50.1,151.1-45.6c5.8,0.3,11-3.5,12.4-9.1c23.4-96.5,107.9-136.9,173.2-142.2c1.8-0.1,3.7-0.3,5.5-0.4
			c86.1-4.5,157.8,65.7,157.8,152V2153.8z M1451.7,1865.2c0,7.9-9.5,12-15.1,6.5c-36.9-35.7-90.2-53.9-150.2-49
			c-43.6,3.5-86.3,19.8-120.1,45.8c-34.9,26.8-59.5,62.9-71.8,105c-72.4-2.8-126.5,15.4-160.8,54.3
			c-54.5,61.6-38.3,151.3-37.6,155.1c1,5.6,6,9.7,11.7,9.7h528.9c8.2,0,14.9,6.7,14.9,14.9v86.2c0,8.2-6.7,14.9-14.9,14.9H778.5
			c-8.3,0-14.9-6.7-14.9-14.9V2211c0-6.6-5.3-11.9-11.9-11.9h-83.4c-6.7,0-12.3-4.4-14.2-10.5l0.5-140.8c0-13.8,6.8-26.8,18.2-34.7
			c5.2-3.6,10.6-7,14.9-8.9c12-5.6,24.9-8.9,37.8-9.6c13-0.7,26.1,1.5,38.1,6.6c12.2,4.9,23.1,12.8,32.5,22.5l0.1,0.1
			c3.4,3.5,9.1,3.6,12.7,0.1c3.5-3.4,3.3-9,0.1-12.6c-10.1-11.8-22.7-21.8-37.1-28.6c-14.6-6.8-30.9-10.2-47.1-10
			c-16.2,0.1-32.1,4.1-46.7,10.6c-3.3,1.4-6.5,3-9.6,4.7c-5.5,3-12,0.5-14.5-4.6v-119.4c0-13.5,10.2-24.8,23.6-26.2
			c2-0.2,4.1-0.4,6.1-0.4c12.8-0.4,25.6,2,37.2,7.1c11.6,5.1,21.9,13,30.2,22.9c10.5,12.5,24,22.7,39.2,29.3
			c15.2,6.7,31.8,9.6,48.1,8.9c16.3-0.6,32.2-4.7,46.8-11.3c14.6-6.6,27.9-15.6,39.5-26.1c10.1-9,21.1-16.7,33.1-22.3
			c12-5.6,24.8-9,37.8-9.5c12.9-0.7,26,1.5,38,6.5c12.1,4.9,23.1,12.7,32.5,22.3l0.1,0.1c3.4,3.4,9,3.6,12.7,0.1
			c3.4-3.4,3.3-9,0.1-12.6c-10-11.8-22.6-21.9-37-28.7c-14.6-6.8-30.9-10.3-47.1-10.1c-16.2,0.3-32.2,4.2-46.8,10.6
			c-14.6,6.4-27.9,15.3-39.6,25.8c-10.1,8.9-21.3,16.4-33.3,21.7c-12,5.3-24.9,8.5-37.7,8.9c-12.8,0.4-25.6-1.9-37.1-7.1
			c-11.6-5.1-21.8-13-30.2-22.8c-10.6-12.4-24.1-22.7-39.2-29.3c-15.1-6.7-31.8-9.6-48-8.9c-4.6,0.2-9.2,0.6-13.7,1.3
			c-8,1.3-15.1-5-15.1-13.1v-124.2v-149.5c0-8.2,6.7-14.9,14.8-14.9h114.4h21.4h176.1c0,0,0.1,0,0.1,0h166.5h24.5h157.6
			c0,0,0,0,0.1,0h64.2c8.5,0,15.6,6.7,16,15.3l0.4,5.7c0.1,1.9,0.5,3.8,0.8,5.7l1.7,11.5c0.7,3.8,1.8,7.6,2.7,11.3l1.4,5.7
			c0.6,1.9,1.3,3.7,1.9,5.6c1.3,3.7,2.4,7.4,3.9,11l4.9,10.7l0.2,0.4c15.9,31.3,24.3,66,24.3,101.2V1865.2z M1449.2,1583.9l-4.2-9
			c-1.3-3.1-2.2-6.3-3.4-9.4c-0.5-1.6-1.1-3.1-1.6-4.7l-1.2-4.9c-0.8-3.3-1.7-6.5-2.4-9.8l-1.5-10.1c-0.2-1.7-0.6-3.3-0.7-5
			l-0.4-5.1l-0.7-10.2l0.1-10.3l0.3-21.7l0.2-11.2c0.1-3.7,0.2-7.5-0.1-11.2l-1.3-22.4l-0.2-2.8l-0.4-2.8l-0.7-5.6l-1.5-11.2
			c-4.5-29.7-12.8-59.2-26.7-86.4c-1.6-3.5-3.6-6.7-5.5-10c-2-3.3-3.8-6.6-6-9.8l-6.7-9.4c-2.2-3.1-4.9-6-7.3-9
			c-1.3-1.4-2.4-3-3.8-4.4l-4.1-4.1c-1.4-1.4-2.7-2.8-4.1-4.1l-4.4-3.9c-2.8-2.6-6-4.9-9.1-7.3c-3.3-2.3-6.3-4.4-10.4-6.6
			c-4.1-2.2-9.3-0.9-11.9,3.3c-2.4,4-1.1,9.1,2.6,11.9l0.4,0.3c2.1,1.6,4.8,4,7.3,6.1c2.4,2.3,4.9,4.5,7.2,7.1l3.5,3.7
			c1.2,1.3,2.3,2.7,3.4,4c2.1,2.5,4.3,5,6.2,7.6c2,2.9,4.3,5.5,6.1,8.5l5.6,8.6c1.9,2.9,3.3,6,5.1,8.9c1.7,3,3.5,5.9,4.8,9.1
			c12.2,24.7,19.9,51.6,24,79.3l1.3,10.4l0.7,5.2l0.1,0.9c1.4,16.5-9.6,45.1-31.5,33.9c-9.2-4.7-13.1-18.2-15.9-30.5
			c-1.7-14.7-5.5-29.3-11.2-43c-13.9-32.2-38.4-59.5-69.1-76.5c-15.4-8.4-32.1-14.2-49.4-17.2l-6.5-1c-2.1-0.3-4.3-0.7-6.5-0.8
			l-13.1-0.7l-24.3,0h-59.2c-11.6,0-20.2-10.8-17.5-22.1l18.3-77.6c1.1-4.8-1.9-9.7-6.9-10.8c-4.7-1-9.3,2.1-10.6,6.7l-32.7,112.6
			c-0.3,1-0.5,2.2-0.5,3.3c0,6.5,5.3,11.7,11.7,11.7h97.3l24.2,0l11.1,0.6c1.9,0,3.7,0.4,5.5,0.7l5.5,0.8
			c14.6,2.6,28.8,7.5,41.8,14.6c26,14.4,46.8,37.7,58.6,65c5.7,13.7,9.1,28.3,10.2,43.1l0.3,5.6c0.1,1.9,0.2,3.6,0.2,5.7l0,0
			c0,13.8-11.2,25-25,25h-141.2h-24.5H965.3c0,0-0.1,0-0.1,0H859.1c-7.6-1.3-14.8-3.6-21-7.3c-5.2-3.1-9.7-7-13.6-11.6
			c-3.8-4.7-6.8-10.2-9.3-16.1c-4.8-11.9-6.9-25.6-7.5-39.4c-0.6-13.9,0.5-28.1,2.3-42.3c3.8-28.4,11-56.6,19.7-84.4
			c8.8-27.8,19.3-55.1,30.9-82c23.3-53.8,50.9-105.8,82-155.5c15.6-24.8,32.1-49.1,49.7-72.3c12.1-15.9,24.8-31.5,38.2-46.2
			c5.5-6,14.8-6.5,20.9-1.1c14.3,12.7,30.2,23.7,47.5,32.1c25.4,12.5,53.3,19.8,81.4,21.7c28.1,1.9,56.5-1.5,83.5-10
			c20.9-6.7,41.2-16.4,59-30.2c4.9-3.8,11.6-4.3,17-1.1c43.3,25.7,82.9,57.6,118.2,93.7c39.8,40.7,74,86.9,101.8,136.5
			c27.9,49.6,49.4,102.9,63.8,157.9c14.4,55.1,21.6,112,21.7,169c-0.1,27.7-4.5,55.2-14.9,79.9c-5.6,12.1-12.4,23.4-21,33.3
			c-8.6,9.8-19.1,17.6-30.5,23.3c-11.5,5.6-24.1,8.9-36.8,9.4c-12.7,0.5-25.6-1.7-37.5-6.4c-11.9-4.7-23-11.7-32.3-20.8
			C1462.9,1606.5,1455.3,1595.7,1449.2,1583.9z M2163.7,2212v19.8c0,4.9-4,9-9,9h-25.5c-6.6,0-11.9,5.3-11.9,11.9v40.9
			c0,8.2-6.7,14.9-14.9,14.9h-611.9c-8.2,0-14.9-6.7-14.9-14.9v-621.4c0-10.1,10.3-16.9,19.6-12.9l0.2,0.1c15,5.9,31.3,8.8,47.6,8.2
			c16.2-0.6,32.3-4.7,46.8-11.8c14.6-7.1,27.7-17,38.3-29c10.6-12,18.9-25.6,25.4-39.9c7.3-17,11.9-34.8,14.5-52.7
			c1.8-12.5,12.5-21.9,25.2-21.9h192.6h6.2h165.8h57.5h124.5c0,0,0,0,0.1,0h18.6c8.2,0,14.9,6.7,14.9,14.9v81.8
			c0,8.7-8.6,14.8-16.8,11.9l-72.2-25.3l-30.7-10.7l-15.3-5.3l-7.7-2.7c-1.1-0.4-2.7-0.8-4.1-1.3c-1.6-0.5-3.1-1-4.7-1.3
			c-12.6-2.9-26-2.7-38.5,0.5c-12.4,3.4-24,9.7-33.5,18.5c-9.4,8.8-16.7,19.9-21,32c-4.2,12.2-5.3,25.4-3.5,38.1
			c2,12.7,7.2,24.9,14.7,35.3c7.7,10.3,18,18.7,29.6,24.2c2.9,1.3,6,2.5,8.8,3.6l7.7,2.7l15.4,5.3l30.7,10.6l61.5,21.2
			c4.8,1.6,5.8,8,1.7,11c-16.6,12.1-28,30.4-31.4,51.9c-1.7,11-1,22.4,2.1,33.1c5.5,18.7,17,34.1,32.4,44.2c0.3,0.2,0.6,0.4,1,0.6
			c6.4,3.7,7.3,12.5,2.1,17.7l-0.1,0.1c-17.6,14.5-28.4,36.9-28.6,59.7c-0.1,12.8,2.7,25.6,8.7,37c5.9,11.3,14.3,21.4,24.9,28.6
			c2.7,1.8,5.3,3.6,8.2,5c1.4,0.7,2.8,1.6,4.3,2.2l4.4,1.8l2.2,0.9l1.9,0.7l3.9,1.3l7.7,2.7l12.4,4.3c13,4.5,21.8,16.8,21.8,30.7
			v90.7c-2.1,5.7-7.6,9.7-13.9,9.7h-83.7C2169.1,2200.1,2163.7,2205.4,2163.7,2212z M2368,2224c8.2,0,14.9,6.7,14.9,14.9v165.5
			c0,8.2-6.7,14.9-14.9,14.9h-14.7c-1.5-0.7-3.1-1.1-4.9-1.1c-1.7,0-3.4,0.4-4.9,1.1h-141c-8.2,0-14.9-6.7-14.9-14.9v-165.5
			c0-8.2,6.7-14.9,14.9-14.9H2368z M2805.4,1802.4l-0.3,3.7l-0.7,7.4c-0.1,2.5-0.8,4.9-1.2,7.3c-0.5,2.4-0.9,4.9-1.4,7.3l-2.1,7.1
			l-1,3.6c-0.3,1.2-0.7,2.4-1.2,3.7l-2.7,7.7l-5.3,15.3l-42.6,122.8l-21.3,61.4c-3.6,9.6-7.3,19-12.4,27.5
			c-4.9,8.6-10.6,16.8-17.4,23.8c-6.7,7-14.2,13.3-22.6,18.3c-8.4,5-17.4,8.9-26.9,11.9c-19,5.8-39.6,7.7-60.3,7.1
			c-20.7-0.6-41.6-3.4-62.4-7.5c-20.8-4.1-41.4-9.5-61.9-15.6c-20.5-6.1-40.7-13-61.2-20.1l-61.4-21.3l-61.4-21.3l-30.7-10.7
			l-7.7-2.7l-3.9-1.3l-1.9-0.7l-1.5-0.6l-3.1-1.3c-1-0.4-2-1-3-1.5c-2-1-3.9-2.2-5.7-3.5c-7.3-4.9-13.2-12-17.3-19.9
			c-4.2-7.9-6.1-16.8-6.1-25.6c0.2-17.7,9.5-35.3,24.5-44.9c7.3-5,16-7.9,24.9-8.8c2.2-0.4,4.4-0.1,6.6-0.3c2.2,0.1,4.4,0.3,6.6,0.6
			c2.2,0.5,4.4,0.7,6.5,1.4l3.2,0.9l3.8,1.3l61.4,21.2c41,14,82.1,27.6,123.8,39.9c4.6,1.3,9.7-1.2,11.1-6c1.4-4.5-1.3-9.3-5.7-11.1
			c-40.1-16.1-80.7-30.8-121.4-45.2l-61.4-21.4l-3.9-1.3l-0.2-0.1l-53-18.4c-18.4-6.4-32-21.7-36-41.8c-0.9-4.5-1.2-9.2-0.8-13.8
			c1.7-20.3,13.4-37.1,30.9-45.6c13-6.3,27.6-7.2,41.3-2.6l57.4,19.7c20.5,7,41.1,13.8,61.7,20.5c20.6,6.7,41.3,13.3,62.1,19.5
			c4.6,1.4,9.7-1.2,11.2-6c1.4-4.5-1.3-9.3-5.8-11.1c-20-7.9-40.2-15.5-60.3-23c-20.3-7.6-40.7-15-61.1-22.2l-122.8-43l-61.4-21.5
			l-30.7-10.7l-15.3-5.4l-7.7-2.7c-2.3-0.9-4.2-1.6-6.2-2.6c-7.9-3.9-14.9-9.6-20.2-16.7c-5.1-7.2-8.7-15.5-10-24.2
			c-1.2-8.7-0.4-17.6,2.5-26c3-8.3,7.9-15.8,14.3-21.9c6.4-6,14.4-10.3,22.8-12.7c8.5-2.2,17.5-2.4,26.1-0.5
			c1.1,0.2,2.1,0.6,3.2,0.9c1.1,0.4,2,0.5,3.3,1l23,7.9l30.7,10.6l123,42.4l61.5,21.2l61.6,20.9c18.2,6.2,36.5,12.2,54.8,18.2
			c2.3,2.3,5.4,3.5,8.4,3.5c0.6,0,1.2,0,1.8-0.1c9.2,3,18.4,6,27.6,8.9l31,9.8c4.7,1.5,9.9-1.1,11.3-6c1.4-4.6-1.4-9.4-5.9-11.1
			l-29.9-11.4c-0.1,0-0.2-0.1-0.3-0.1c-18.4-7-34.9-17.9-48.5-32.1c-8.2-8.5-16.9-17.9-22.6-24.7c-13.6-16.1-25.9-33.1-35.5-51.2
			c-9.6-18.1-16.3-37.3-18-57c-0.8-9.7-0.5-19.3,1.6-28.2s6.2-16.9,12-23.2c5.8-6.4,13.3-11.1,21.7-13.8c8.3-2.8,17.9-3.4,26.6-2.3
			c16.2,1.8,30,16.5,42.8,33c12.9,16.6,25.5,34.8,40,51.8c14.4,17.1,30.7,33.1,48.8,46.7c9,6.8,18.7,13.3,28.8,18.7
			c10,5.5,20.3,10.2,30.7,14.4c20.7,8.4,41.6,15,61.6,22.2l7.5,2.7c2.4,1,4.6,2,6.9,3c2.2,1,4.6,1.9,6.8,3l6.5,3.6
			c8.7,4.8,16.5,10.9,23.9,17.4c14.6,13.4,25.8,30.3,33.2,48.7c2.1,4.5,3.2,9.4,4.7,14.1c0.8,2.4,1.2,4.8,1.7,7.2l1.5,7.3l0.8,7.4
			c0.2,2.5,0.7,4.9,0.6,7.4l0.1,7.4C2805.4,1799.9,2805.5,1801.2,2805.4,1802.4z"/>
		<path style="fill:#FFFFFF;" d="M1303.1,1665.5c-14.6-6.8-30.9-10.2-47.1-10c-16.2,0.1-32.1,4.1-46.7,10.5
			c-14.6,6.4-27.9,15.4-39.6,25.7c-10.1,8.9-21.3,16.4-33.3,21.7c-12,5.3-24.9,8.5-37.8,8.9c-12.8,0.4-25.6-2-37.2-7.1
			c-11.6-5.1-21.9-13-30.2-22.9c-10.6-12.4-24.1-22.7-39.2-29.3c-15.1-6.7-31.8-9.6-48-8.9c-16.3,0.6-32.2,4.7-46.8,11.3
			c-14.6,6.6-27.8,15.6-39.5,26.1c-10,9.1-21,16.8-33.1,22.4c-12,5.6-24.8,8.9-37.8,9.6c-13,0.7-26-1.6-38.1-6.6
			c-12.2-4.9-23.1-12.8-32.5-22.5l-0.1-0.1c-3.3-3.3-8.5-3.6-12.2-0.5c-3.8,3.2-4.2,8.9-1,12.6c10.1,12,22.9,22.2,37.5,29
			c14.6,6.8,30.9,10.2,47,10c16.2-0.1,32.1-4.2,46.7-10.6c14.6-6.4,27.9-15.3,39.6-25.7c10.1-8.9,21.3-16.4,33.3-21.7
			c12-5.3,24.9-8.5,37.7-8.9c12.8-0.4,25.6,1.9,37.2,7.1c11.6,5.1,21.9,13,30.2,22.8c10.6,12.4,24.1,22.7,39.2,29.3
			c15.1,6.6,31.8,9.6,48.1,8.9c16.3-0.6,32.2-4.7,46.8-11.3c14.6-6.6,27.8-15.6,39.5-26.1c10-9.1,21.1-16.8,33.1-22.4
			c12-5.6,24.9-8.9,37.8-9.6c13-0.7,26.1,1.6,38.1,6.6c12.2,4.9,23,12.8,32.5,22.5l0.1,0.1c3.3,3.3,8.6,3.6,12.2,0.5
			c3.8-3.2,4.3-8.8,1.1-12.6C1330.4,1682.6,1317.7,1672.4,1303.1,1665.5z"/>
		<path style="fill:#FFFFFF;" d="M1992.7,1771.2c-7.1-2.2-11.9-9-12.1-16.4l-2.2-69.3c-0.2-4.9-4.3-8.9-9.4-8.7
			c-4.8,0.2-8.4,4.4-8.6,9.1l-2.2,68.8c-0.2,7.4-5,14.2-12.1,16.4c-31.4,9.9-54.3,39.3-54.3,73.9c0,34.3,22.4,63.5,53.4,73.7
			c7.3,2.4,12.1,9.4,12,17c-0.1,14.1-0.1,28.2,0,42.4c0.1,22.5,0.4,45,0.7,67.5c0.3,22.5,0.6,45,1,67.5l1.4,67.5
			c0.1,5,4.3,9,9.4,8.7c4.8-0.2,8.4-4.4,8.5-9.3l1.4-67c0.4-22.5,0.7-45,1-67.5c0.3-22.5,0.6-45,0.7-67.5c0.1-14.1,0.1-28.2,0-42.4
			c0-7.7,4.7-14.7,12-17c30.9-10.2,53.3-39.4,53.3-73.7C2047,1810.5,2024.1,1781.1,1992.7,1771.2z M1969.5,1898.8
			c-29.6,0-53.6-24-53.6-53.6c0-28.8,22.8-52.3,51.3-53.5c0.9,0.2,1.8,0.3,2.7,0.3c0.7,0,1.3-0.1,1.9-0.3
			c28.5,1.2,51.3,24.7,51.3,53.5C2023.1,1874.7,1999.1,1898.8,1969.5,1898.8z"/>
		<path style="fill:#FFFFFF;" d="M1789.9,1964.4c-7.3-2.4-12-9.4-12-17c0.1-15.5,0.1-31.1,0-46.6c-0.1-23.9-0.4-47.8-0.7-71.7
			c-0.5-47.8-1.4-95.7-2.5-143.5c-0.1-5-4.3-9-9.4-8.7c-4.8,0.2-8.4,4.4-8.5,9.3c-1.1,47.7-1.9,95.3-2.4,143
			c-0.3,23.9-0.6,47.8-0.7,71.7c-0.1,15.6-0.1,31.1,0,46.6c0.1,7.7-4.7,14.7-12,17c-31,10.2-53.4,39.4-53.4,73.7
			c0,34.7,22.9,64.1,54.3,74c7.1,2.2,11.9,8.9,12.2,16.4l2,52.2c0.2,4.9,4.3,8.8,9.3,8.6c4.7-0.2,8.4-4.4,8.6-9.1l2-51.7
			c0.3-7.5,5.1-14.2,12.2-16.4c31.5-9.9,54.3-39.3,54.3-74C1843.3,2003.8,1820.9,1974.6,1789.9,1964.4z M1768.4,2091.6
			c-1-0.2-2-0.4-3.1-0.4c-0.8,0-1.6,0.1-2.3,0.3c-28.3-1.5-50.8-24.8-50.8-53.5c0-29.6,24.1-53.6,53.6-53.6s53.6,24,53.6,53.6
			C1819.4,2066.8,1796.7,2090.2,1768.4,2091.6z"/>
		<path style="fill:#FFFFFF;" d="M877.5,320.9l15.1,8.3c18.4,10,33.4,25.1,43.4,43.4l8.3,15.1c2.1,3.8,6.1,6.2,10.5,6.2
			c4.4,0,8.4-2.4,10.5-6.2l8.3-15.1c10-18.4,25.1-33.4,43.4-43.4l15.1-8.3c3.8-2.1,6.2-6.1,6.2-10.5c0-4.4-2.4-8.4-6.2-10.5
			l-15.1-8.3c-18.4-10-33.4-25.1-43.4-43.4l-8.3-15.1c-2.1-3.8-6.1-6.2-10.5-6.2c-4.4,0-8.4,2.4-10.5,6.2l-8.3,15.1
			c-10,18.4-25.1,33.4-43.4,43.4l-15.1,8.3c-3.8,2.1-6.2,6.1-6.2,10.5C871.3,314.7,873.7,318.8,877.5,320.9z"/>
		<path style="fill:#FFFFFF;" d="M2485.1,976.9l15.1,8.3c18.4,10,33.4,25.1,43.4,43.4l8.3,15.1c2.1,3.8,6.1,6.2,10.5,6.2
			c4.4,0,8.4-2.4,10.5-6.2l8.3-15.1c10.1-18.4,25.1-33.4,43.4-43.4l15.1-8.3c3.8-2.1,6.2-6.1,6.2-10.5s-2.4-8.4-6.2-10.5l-15.1-8.3
			c-18.4-10-33.4-25.1-43.4-43.4l-8.3-15.1c-2.1-3.8-6.1-6.2-10.5-6.2c-4.4,0-8.4,2.4-10.5,6.2l-8.3,15.1
			c-10,18.4-25.1,33.4-43.4,43.4l-15.1,8.3c-3.8,2.1-6.2,6.1-6.2,10.5S2481.3,974.8,2485.1,976.9z"/>
		<path style="fill:#FFFFFF;" d="M1305.9,2526.1l-15.1-8.3c-18.4-10-33.4-25.1-43.4-43.4l-8.3-15.1c-2.1-3.8-6.1-6.2-10.5-6.2
			c-4.4,0-8.4,2.4-10.5,6.2l-8.3,15.1c-10,18.4-25.1,33.4-43.4,43.4l-15.1,8.3c-3.8,2.1-6.2,6.1-6.2,10.5s2.4,8.4,6.2,10.5l15.1,8.3
			c18.4,10,33.4,25.1,43.4,43.4l8.3,15.1c2.1,3.8,6.1,6.2,10.5,6.2c4.4,0,8.4-2.4,10.5-6.2l8.3-15.1c10.1-18.4,25.1-33.4,43.4-43.4
			l15.1-8.3c3.8-2.1,6.2-6.1,6.2-10.5S1309.7,2528.2,1305.9,2526.1z"/>
		<path style="fill:#FFFFFF;" d="M1736.6,1160.1c35.7,18.8,63.9,50.1,79.6,88l0.2,0.7c2.6,6.3,1,13.5-3.8,18.4
			c-4.2,4.2-7.6,9.3-9.9,15c-4.9,11.6-4.9,24.4-0.1,36.1c4.8,11.6,13.8,20.7,25.4,25.6c0.5,0.2,1.1,0.4,1.6,0.6
			c8.4,3.2,14.5,10.2,17.4,18.7c0.3,0.8,0.6,1.7,0.9,2.5l6.7,16.2c3.5,8.4,9.6,15.7,17.7,20c5.6,3,11.7,4.4,17.7,4.4
			c4.9,0,9.8-1,14.4-2.9c5.4-2.2,11.1-3.3,16.9-3.3c7.2,0,14.4,1.7,20.9,5.2c18.6,9.8,41,11.3,61.2,2.9l11.3-4.7l11.3-4.7
			c20.3-8.4,35.1-25.2,41.4-45.2c4-12.6,13.3-22.8,25.5-27.9c19.3-8,28.6-30.2,20.6-49.5l-7-17.1c-0.3-0.8-0.7-1.7-1.1-2.5
			c-4-8-4.6-17.3-0.9-25.5c0.2-0.5,0.5-1,0.7-1.6c4.9-11.6,4.9-24.4,0.1-36.1c-3.7-9-9.9-16.2-17.4-21.2c-7.5-5-16.4-7.8-25.6-7.9
			c-6.9-0.1-13.2-4-15.8-10.4l-0.3-0.7c-15.5-37.6-17.3-80.1-5.1-119.7c14.9-48.3,12.1-100.6-7.9-147.2
			c-11.2-26.2-27.3-49.4-47.2-68.7s-43.8-34.8-70.5-45.4c-53.5-21.3-111.8-20.6-164.2,2.1c-51.7,22.4-91.9,63.5-113.2,115.8
			c-21.3,52.3-21.2,109.9,0.3,162.1C1657.6,1098.5,1692.4,1136.8,1736.6,1160.1z M2091.5,1285.4c3,7.1-0.5,15.3-7.6,18.3
			l-188.7,77.6c-3.4,1.4-7.3,1.4-10.7,0c-3.5-1.4-6.2-4.1-7.6-7.6l-7-17.1c-1.4-3.5-1.4-7.3,0-10.7c1.4-3.5,4.1-6.2,7.6-7.6
			l188.7-77.7c1.7-0.7,3.5-1,5.3-1s3.6,0.4,5.4,1.1c3.5,1.4,6.2,4.2,7.6,7.6L2091.5,1285.4z M2052.9,1190c2.9-1.2,5.9-1.7,8.8-1.7
			c9.1,0,17.8,5.4,21.5,14.4c1.2,2.9,1.8,5.9,1.8,8.9c0,3-0.6,6.1-1.8,9c-2.4,5.7-6.8,10.2-12.6,12.5l-89.9,37l-112.2,46.2
			l-13.5,5.6c-5.7,2.4-12.1,2.4-17.8-0.1c-5.7-2.4-10.2-6.9-12.6-12.6c-2.4-5.7-2.3-12.1,0.1-17.8c2.4-5.7,6.8-10.2,12.6-12.5
			l3.8-1.6c0,0,0,0,0,0l58.8-24.2L2052.9,1190z M1760.9,796.3c23.9-10.4,49.4-15.6,74.8-15.6c23.9,0,47.9,4.6,71,13.7
			c47.6,18.9,84.7,54.9,104.6,101.4c10.2,23.9,15.4,49.4,15.4,75.1c0,18.8-2.8,37.6-8.4,55.8c-13.2,42.9-11.9,88.9,3.7,130.2
			c0.1,3.9-0.5,7.9-2.3,11.6c-3.7,7.6-11,12.6-18.4,16.9l-112,46.1c-6.7,1.8-13.1,4.5-19.9,7c-18.8,6.8-29.2-1.6-39.2-16.3
			c-18.6-35.5-47.4-64.7-82.6-83.2c-39.2-20.7-70.2-54.7-87.1-95.8C1621.5,948,1666.4,837.2,1760.9,796.3z"/>
		<path style="fill:#FFFFFF;" d="M1713.3,1022.3l53.6,24.8c0.1,0,0.2,0.1,0.3,0.1c5.8,2.5,12.4-0.1,14.9-5.9l0.2-0.5l15.5-35.9
			c1.9-4.4,7.1-6.6,11.6-4.7l36.2,14.6c6,2.4,12.8-0.4,15.4-6.3l15.5-35.9c1.9-4.5,7-6.6,11.6-4.8l36.3,14.6l0.6,0.2l0.2,0.1
			c5.8,2.2,12.4-0.7,14.6-6.6l20.9-55.9c1.6-4.5-0.5-9.7-5.2-11.5c-4.4-1.7-9.4,0.6-11.5,4.8l-17.3,35.1c-2.1,4.2-7,6.1-11.4,4.4
			l-37.2-15c-6-2.4-12.9,0.4-15.4,6.4l-15.5,35.9c-1.9,4.4-7,6.6-11.6,4.7l-36.2-14.6c-6-2.4-12.9,0.4-15.4,6.3l-15.9,36.8
			c-1.9,4.3-6.7,6.4-11.1,4.9l-37.4-12.9c-4.5-1.6-9.7,0.7-11.4,5.5C1706.5,1015.4,1709,1020.3,1713.3,1022.3z"/>
		<path style="fill:#FFFFFF;" d="M1418.5,447.5l22.5,12.3c28.3,15.5,51.4,38.6,66.8,66.8l12.3,22.5c2.1,3.8,6.1,6.2,10.5,6.2
			c4.4,0,8.4-2.4,10.5-6.2l12.3-22.5c15.5-28.3,38.6-51.4,66.8-66.8l22.5-12.3c3.8-2.1,6.2-6.1,6.2-10.5c0-4.4-2.4-8.4-6.2-10.5
			l-22.5-12.3c-28.3-15.5-51.4-38.6-66.8-66.8l-12.3-22.5c-2.1-3.8-6.1-6.2-10.5-6.2c-4.4,0-8.4,2.4-10.5,6.2l-12.3,22.5
			c-15.5,28.3-38.6,51.4-66.8,66.8l-22.5,12.3c-3.8,2.1-6.2,6.1-6.2,10.5C1412.3,441.3,1414.7,445.4,1418.5,447.5z"/>
		<path style="fill:#FFFFFF;" d="M181.9,1610.9l22.5,12.3c28.3,15.5,51.4,38.6,66.8,66.8l12.3,22.5c2.1,3.8,6.1,6.2,10.5,6.2
			c4.4,0,8.4-2.4,10.5-6.2l12.3-22.5c15.5-28.3,38.6-51.4,66.8-66.8l22.5-12.3c3.8-2.1,6.2-6.1,6.2-10.5c0-4.4-2.4-8.4-6.2-10.5
			l-22.5-12.3c-28.3-15.5-51.4-38.6-66.8-66.8l-12.3-22.5c-2.1-3.8-6.1-6.2-10.5-6.2c-4.4,0-8.4,2.4-10.5,6.2l-12.3,22.5
			c-15.5,28.3-38.6,51.4-66.8,66.8l-22.5,12.3c-3.8,2.1-6.2,6.1-6.2,10.5C175.7,1604.8,178.1,1608.8,181.9,1610.9z"/>
		<path style="fill:#FFFFFF;" d="M2028,2644.4l-22.5-12.3c-28.3-15.5-51.4-38.6-66.8-66.8l-12.3-22.5c-2.1-3.8-6.1-6.2-10.5-6.2
			c-4.4,0-8.4,2.4-10.5,6.2l-12.3,22.5c-15.5,28.3-38.6,51.4-66.8,66.8l-22.5,12.3c-3.8,2.1-6.2,6.1-6.2,10.5
			c0,4.4,2.4,8.4,6.2,10.5l22.5,12.3c28.3,15.5,51.4,38.6,66.8,66.8l12.3,22.5c2.1,3.8,6.1,6.2,10.5,6.2c4.4,0,8.4-2.4,10.5-6.2
			l12.3-22.5c15.5-28.3,38.6-51.4,66.8-66.8l22.5-12.3c3.8-2.1,6.2-6.1,6.2-10.5C2034.2,2650.5,2031.8,2646.5,2028,2644.4z"/>
		<circle style="fill:#FFFFFF;" cx="398.8" cy="1085.3" r="37.2"/>
		<circle style="fill:#FFFFFF;" cx="652.8" cy="2648.9" r="48"/>
		<circle style="fill:#FFFFFF;" cx="2646" cy="1348.6" r="48"/>
		<circle style="fill:#FFFFFF;" cx="2599.6" cy="2515.9" r="37.2"/>
		<circle style="fill:#FFFFFF;" cx="282.6" cy="2370.7" r="25.7"/>
		<circle style="fill:#FFFFFF;" cx="1605.7" cy="2453" r="25.7"/>
		<circle style="fill:#FFFFFF;" cx="257.6" cy="651.5" r="25.7"/>
		<circle style="fill:#FFFFFF;" cx="2599.6" cy="708.8" r="25.7"/>
		<circle style="fill:#FFFFFF;" cx="2187.6" cy="355.8" r="37.2"/>
	</g>
</g>
</svg>
