<?xml version="1.0" encoding="utf-8"?>
<!-- Generator: Adobe Illustrator 21.1.0, SVG Export Plug-In . SVG Version: 6.00 Build 0)  -->
<svg version="1.1" xmlns="http://www.w3.org/2000/svg" xmlns:xlink="http://www.w3.org/1999/xlink" x="0px" y="0px"
	 viewBox="0 0 3000 3000" style="enable-background:new 0 0 3000 3000;" xml:space="preserve">
<g id="fill">
	<g>
		<path style="fill:#FF4370;" d="M2445.1,1387.1h-425.4c-17.5,0-31.8,14.3-31.8,31.8v345.7c0.1,17.5,14.4,31.7,31.8,31.7h425.4
			c17.6,0,31.9-14.3,31.9-31.9v-345.4C2476.9,1401.4,2462.6,1387.1,2445.1,1387.1z M2416.2,1503.1v177.1c0,28.8-23.5,52.3-52.3,52.3
			h-264c-28.8,0-52.3-23.5-52.3-52.3v-177.1c0-28.8,23.5-52.3,52.3-52.3h264C2392.7,1450.8,2416.2,1474.2,2416.2,1503.1z"/>
		<path style="fill:#FF4370;" d="M1094,1568H517.6c-17.6,0-31.9,14.3-31.9,31.9v576.4c0,17.6,14.3,31.9,31.9,31.9H1094
			c17.6,0,31.9-14.3,31.9-31.9v-576.4C1125.9,1582.3,1111.6,1568,1094,1568z M863.7,2170.9c0,7.2-5.8,13-13,13c-7.2,0-13-5.8-13-13
			c0-7.2,5.8-13,13-13C857.8,2157.9,863.7,2163.8,863.7,2170.9z M807.6,2170.9c0,7.2-5.8,13-13,13c-7.2,0-13-5.8-13-13
			c0-7.2,5.8-13,13-13C801.7,2157.9,807.6,2163.8,807.6,2170.9z M751.5,2170.9c0,7.2-5.8,13-13,13c-7.2,0-13-5.8-13-13
			c0-7.2,5.8-13,13-13C745.6,2157.9,751.5,2163.8,751.5,2170.9z M1041.5,1704.5v367c0,31.7-23.5,57.5-52.3,57.5H617.3
			c-28.8,0-52.3-23.5-52.3-52.3v-377.5c0-28.8,23.5-52.3,52.3-52.3h371.9C1018,1647,1041.5,1672.8,1041.5,1704.5z"/>
		<path style="fill:#FF4370;" d="M1864.8,550.9h-686.6c-17.6,0-31.9,14.3-31.9,31.9v507.9c0,17.5,14.2,31.8,31.7,31.9h686.7
			c17.6,0,31.9-14.3,31.9-31.9V582.7C1896.6,565.2,1882.3,550.9,1864.8,550.9z M1221.8,994.5V678.9c0-28.8,23.5-52.3,52.3-52.3H1767
			c28.8,0,52.3,25.1,52.3,56v308.3c0,30.9-23.5,56-52.3,56h-492.9C1245.3,1046.8,1221.8,1023.3,1221.8,994.5z"/>
	</g>
	<g>
		<path style="fill:#F99EB1;" d="M1124.9,880.4c0-0.6,0-1.2-0.1-1.9C1124.8,879.2,1124.9,879.8,1124.9,880.4z"/>
	</g>
	<g>
		<path style="fill:#F99EB1;" d="M1124.8,1517.5c0-0.6,0.1-1.2,0.1-1.9C1124.9,1516.3,1124.8,1516.9,1124.8,1517.5z"/>
	</g>
	<g>
		<path style="fill:#F99EB1;" d="M1122.1,1528.4c0.3-0.7,0.6-1.4,0.8-2.1C1122.7,1527,1122.4,1527.7,1122.1,1528.4z"/>
	</g>
	<g>
		<path style="fill:#F99EB1;" d="M1122.1,867.8c-0.2-0.3-0.3-0.7-0.5-1C1121.8,867.1,1122,867.4,1122.1,867.8z"/>
	</g>
	<g>
		<path style="fill:#F99EB1;" d="M1121.1,1530.4c0.4-0.7,0.7-1.3,1-2C1121.8,1529.1,1121.5,1529.7,1121.1,1530.4z"/>
	</g>
	<g>
		<path style="fill:#F99EB1;" d="M1119.6,863.2c-0.4-0.6-0.8-1.1-1.2-1.6C1118.8,862.1,1119.2,862.7,1119.6,863.2z"/>
	</g>
	<g>
		<path style="fill:#F99EB1;" d="M1118.3,1534.7c0.4-0.6,0.9-1.2,1.3-1.8C1119.2,1533.5,1118.7,1534.2,1118.3,1534.7z"/>
	</g>
	<g>
		<path style="fill:#F99EB1;" d="M1117.6,1535.6c0.3-0.3,0.5-0.6,0.7-0.9C1118,1535,1117.8,1535.3,1117.6,1535.6z"/>
	</g>
	<g>
		<path style="fill:#F99EB1;" d="M1118.1,861.2c-0.4-0.5-0.8-1-1.3-1.5C1117.3,860.2,1117.7,860.7,1118.1,861.2z"/>
	</g>
	<g>
		<path style="fill:#F99EB1;" d="M1115.8,858.6c0.3,0.3,0.7,0.7,1,1.1C1116.5,859.3,1116.1,859,1115.8,858.6z"/>
	</g>
	<g>
		<path style="fill:#F99EB1;" d="M1116.8,1536.5c-0.5,0.5-1,1.1-1.5,1.6C1115.8,1537.5,1116.3,1537,1116.8,1536.5z"/>
	</g>
	<g>
		<path style="fill:#F99EB1;" d="M1108.7,1542.8c0.8-0.4,1.5-0.9,2.2-1.3C1110.2,1542,1109.5,1542.4,1108.7,1542.8z"/>
	</g>
	<g>
		<path style="fill:#F99EB1;" d="M1101.7,1545.6c1-0.3,1.9-0.6,2.9-0.9C1103.6,1545,1102.7,1545.3,1101.7,1545.6z"/>
	</g>
	<g>
		<path style="fill:#F99EB1;" d="M1099.8,1546c0.6-0.1,1.3-0.3,1.9-0.4C1101.1,1545.7,1100.5,1545.9,1099.8,1546z"/>
	</g>
	<g>
		<path style="fill:#F99EB1;" d="M1094,1546.6c0.6,0,1.2,0,1.8-0.1C1095.2,1546.5,1094.6,1546.6,1094,1546.6z"/>
	</g>
	<g>
		<path style="fill:#F99EB1;" d="M661.5,1546.5c0.6,0,1.3,0.1,1.9,0.1C662.8,1546.6,662.1,1546.5,661.5,1546.5z"/>
	</g>
	<g>
		<path style="fill:#F99EB1;" d="M655.7,1545.6c0.6,0.2,1.2,0.3,1.9,0.4C656.9,1545.9,656.3,1545.7,655.7,1545.6z"/>
	</g>
	<g>
		<path style="fill:#F99EB1;" d="M652.8,1544.7c1,0.3,1.9,0.6,2.9,0.9C654.7,1545.3,653.7,1545,652.8,1544.7z"/>
	</g>
	<g>
		<path style="fill:#F99EB1;" d="M649.7,1543.4c0.3,0.2,0.7,0.3,1,0.5C650.4,1543.7,650,1543.5,649.7,1543.4z"/>
	</g>
	<g>
		<path style="fill:#F99EB1;" d="M646.7,1541.7c0.6,0.4,1.3,0.8,1.9,1.2C648,1542.5,647.4,1542.1,646.7,1541.7z"/>
	</g>
	<g>
		<path style="fill:#F99EB1;" d="M644.9,1540.4c0.6,0.4,1.2,0.8,1.8,1.2C646.1,1541.3,645.5,1540.9,644.9,1540.4z"/>
	</g>
	<g>
		<path style="fill:#F99EB1;" d="M643.2,1539c0.6,0.5,1.1,1,1.7,1.4C644.3,1540,643.7,1539.5,643.2,1539z"/>
	</g>
	<g>
		<path style="fill:#F99EB1;" d="M640.3,1536.1c0.4,0.5,0.8,0.9,1.3,1.3C641.1,1537,640.7,1536.6,640.3,1536.1z"/>
	</g>
	<g>
		<path style="fill:#F99EB1;" d="M639.1,1534.7c0.4,0.5,0.8,1,1.2,1.4C639.8,1535.7,639.5,1535.2,639.1,1534.7z"/>
	</g>
	<g>
		<path style="fill:#F99EB1;" d="M638,1533.2c0.4,0.5,0.7,1,1.1,1.5C638.7,1534.2,638.3,1533.7,638,1533.2z"/>
	</g>
	<g>
		<path style="fill:#F99EB1;" d="M633.8,1524.3c0.1,0.4,0.3,0.9,0.4,1.3C634,1525.2,633.9,1524.8,633.8,1524.3z"/>
	</g>
	<g>
		<path style="fill:#F99EB1;" d="M632.5,1515.7c0,0.6,0,1.2,0.1,1.8C632.6,1516.9,632.5,1516.3,632.5,1515.7z"/>
	</g>
	<g>
		<path style="fill:#008CFF;" d="M2551.6,1962.6L2551.6,1962.6c-0.4-0.4-0.9-0.7-1.3-1.1c-0.4-0.4-0.9-0.7-1.3-1.1
			c-17.4-14.2-39.4-22-61.9-22h-301.3c-4.5,0-8.4,2.5-10.2,6.6c-1.8,4.1-1.1,8.7,1.9,12c0.2,0.2,0.3,0.4,0.5,0.5
			c1.1,1.2,2.1,2.4,3,3.5c0.1,0.2,0.3,0.3,0.3,0.4c1.1,1.4,2.1,2.6,2.9,3.7l0.1,0.2c0.7,0.9,1.4,1.8,2,2.8c0.4,0.5,0.8,1,1.2,1.7
			c0.2,0.2,0.4,0.5,0.5,0.8l0.1,0.1c0.7,1,1.4,2,2.1,3.2c0.1,0.1,0.2,0.2,0.2,0.4l0.1,0.1c0.8,1.3,1.7,2.7,2.4,4.1l0,0.2l0.2,0.2
			c0.9,1.6,1.7,3.1,2.4,4.6c0.9,1.8,1.7,3.4,2.3,4.9c0.6,1.3,1.2,2.8,1.9,4.4c0.1,0.3,0.3,0.7,0.4,1c0.1,0.3,0.3,0.7,0.4,1
			c0.4,1,0.7,2,1.1,3c0.7,2.1,1.4,4.3,2.1,6.8c0.3,1.1,0.6,2.3,0.9,3.4c0.3,1,0.5,2.1,0.8,3.5l0,0.1c0,0,0,0.1,0,0.2l0.6,3.2
			c0.1,0.4,0.1,0.7,0.2,1.1c0.1,0.4,0.1,0.7,0.2,1.1c0.1,0.8,0.3,1.6,0.4,2.3c0.4,2.8,0.7,5.7,1,9.1c0,0.3,0,0.6,0.1,0.9
			c0,0.3,0,0.7,0.1,1.1c0,0.7,0.1,1.5,0.1,2.2l0,0.6c0,1.1,0.1,2.3,0.1,3.4v618.1c0,17.8,6.9,34.5,19.5,47
			c12.6,12.6,29.2,19.5,47,19.5c0.5,0,0.9,0,1.4,0c35.9-0.7,65.1-31.2,65.1-68v-26.5c0-3.6,0.6-7.2,1.8-10.5
			c0.3-0.9,0.7-1.7,1.1-2.6l0.1-0.1c0.5-1,1-1.9,1.4-2.6c0.4-0.7,1-1.6,1.7-2.4l0.1-0.2c0.7-0.8,1.2-1.5,1.7-2.1l0.1-0.1
			c0.6-0.6,1.2-1.2,1.8-1.8l0.2-0.2c0.6-0.5,1.2-1.1,2-1.7l0.3-0.2c0.8-0.6,1.7-1.2,2.4-1.6c0.9-0.5,1.8-1,2.7-1.4
			c0.9-0.5,1.9-0.8,2.7-1.2c3.4-1.2,6.9-1.9,10.5-1.9h183.8c16.4,0,29.7-13.3,29.7-29.7v-529.7
			C2585.4,2008.2,2573.1,1981.3,2551.6,1962.6z M2271.5,2292.4c6.5-1,13.3-1.7,22.1-2.2c7.7-0.5,15.5-0.6,22.1-0.6
			c6.7,0.1,14.5,0.2,22.1,0.6c6.1,0.3,14.1,0.9,22.1,2.2c2,0.3,3.7,1.3,4.9,3c1.2,1.6,1.7,3.6,1.4,5.6c-0.5,3.2-3,5.8-6.2,6.3
			c-8,1.3-16,1.8-22.1,2.2c-7.6,0.5-15.4,0.6-22.1,0.6c-6.6,0-14.4-0.1-22.1-0.6c-8.7-0.5-15.7-1.2-22.1-2.2
			c-4.1-0.7-6.9-4.5-6.2-8.6C2265.8,2295.4,2268.3,2292.9,2271.5,2292.4z M2264.6,2223.4c0.3-3.6,3.2-6.5,6.8-6.8
			c12.4-1,25.9-1.7,42.7-2.2c14.9-0.5,30-0.6,42.7-0.6c12.9,0.1,27.9,0.2,42.7,0.6c11.7,0.3,27.1,0.9,42.7,2.2
			c2,0.2,3.8,1.1,5.1,2.6c1.3,1.5,1.9,3.4,1.7,5.4l0,0c-0.3,3.7-3.2,6.5-6.8,6.8c-15.5,1.3-30.9,1.8-42.7,2.2
			c-14.8,0.5-29.8,0.6-42.7,0.6c-12.7,0-27.7-0.1-42.7-0.6c-17-0.5-30.2-1.2-42.7-2.2c-2-0.2-3.8-1.1-5.1-2.6
			C2265.1,2227.3,2264.5,2225.3,2264.6,2223.4z M2264.8,2374.8c0.4-3.5,3.2-6.3,6.6-6.6l0,0c9.6-1,19.8-1.7,33.1-2.2
			c9.6-0.4,20.1-0.6,33.1-0.6c10.4,0,21.7,0.2,33.1,0.6c13,0.5,23.5,1.2,33.1,2.2c2,0.2,3.8,1.2,5,2.7c1.2,1.5,1.8,3.5,1.6,5.5
			c-0.4,3.5-3.1,6.3-6.6,6.6c-12.1,1.3-24,1.8-33.1,2.2c-12,0.5-24,0.6-33.1,0.6c-10.4,0-21.7-0.2-33.1-0.6
			c-13-0.5-23.5-1.2-33.1-2.2C2267.4,2382.6,2264.4,2378.9,2264.8,2374.8z M2518.1,2307.2c-10.4,1.3-20.7,1.8-28.5,2.2
			c-9.9,0.5-19.9,0.6-28.5,0.6c-8.5,0-18.6-0.1-28.5-0.6c-11.2-0.5-20.2-1.2-28.5-2.2c-2-0.3-3.8-1.3-5-2.8
			c-1.2-1.6-1.8-3.5-1.5-5.5c0.4-3.4,3.1-6.1,6.5-6.5c8.3-1,17.1-1.7,28.5-2.2c10-0.5,20-0.6,28.5-0.6c8.6,0.1,18.7,0.2,28.5,0.6
			c7.8,0.3,18.2,0.9,28.5,2.2c2,0.2,3.8,1.2,5,2.8c1.2,1.6,1.8,3.5,1.5,5.5C2524.3,2304.1,2521.6,2306.8,2518.1,2307.2z
			 M2525.2,2148.5L2525.2,2148.5c-0.2,3.8-3.2,6.8-7,7c-44.2,2.3-87.2,2.7-123.4,2.8c-24.1,0-43.7-0.2-61.7-0.6
			c-19.8-0.3-40.6-1.1-61.7-2.2c-4.1-0.2-7.2-3.7-7-7.8c0.2-3.8,3.2-6.8,7-7c20.5-1.1,41.3-1.8,61.7-2.2c19.6-0.4,38.8-0.6,61.7-0.6
			c36.9,0.1,80.4,0.5,123.4,2.8C2522.3,2141,2525.5,2144.5,2525.2,2148.5z M2264.8,2071.6c0.4-3.5,3.2-6.3,6.6-6.7
			c12.1-1.3,24-1.8,33.1-2.2c11-0.4,21.9-0.6,33.1-0.6l16.6,0.1c2,0.1,4,0.1,6,0.2c3.4,0.1,7,0.2,10.5,0.3
			c12.6,0.4,23.2,1.1,33.1,2.2c2,0.2,3.7,1.2,5,2.7c1.2,1.6,1.8,3.5,1.6,5.5v0c-0.4,3.5-3.1,6.2-6.6,6.6c-9.7,1.1-19.9,1.7-33.1,2.2
			c-3.5,0.2-7.1,0.2-10.5,0.3c-2,0-4,0.1-6,0.2l-16.6,0.1c-9.1,0-21.1-0.2-33.1-0.6c-9.1-0.3-21-0.9-33.1-2.2
			C2267.4,2079.3,2264.4,2075.7,2264.8,2071.6z M2523.8,2074c-0.6,2.9-2.9,5.2-5.8,5.8c-4.7,1-9.8,1.7-16.5,2.2
			c-5.9,0.4-11.3,0.6-16.6,0.5c-5.9,0-11.3-0.3-16.6-0.7c-6.7-0.5-11.8-1.1-16.6-2.1c-2-0.4-3.7-1.5-4.8-3.2
			c-1.1-1.7-1.5-3.7-1.1-5.7c0.6-3,2.9-5.4,6-6c4.8-0.9,9.9-1.6,16.6-2.1c5.3-0.4,10.7-0.6,16.6-0.7c0.9,0,1.8,0,2.7,0
			c4.4,0,9,0.2,13.9,0.5c6.7,0.5,11.8,1.2,16.5,2.2C2522.1,2065.8,2524.7,2069.9,2523.8,2074z M2489,1997c-0.2,3.7-3.2,6.7-7,6.9
			c-36.6,2.3-73.8,2.7-105.3,2.8c-15.9-0.1-34.4-0.2-52.7-0.6c-17.7-0.4-35.4-1.1-52.7-2.2c-4.1-0.2-7.2-3.8-6.9-7.9
			c0.2-3.7,3.2-6.7,6.9-6.9c18-1.1,35.7-1.9,52.7-2.2c15.3-0.4,32.1-0.6,52.7-0.6c30.9,0.1,67.6,0.5,105.3,2.8c2,0.1,3.8,1,5.1,2.5
			C2488.5,1993.1,2489.2,1995,2489,1997z M2271.4,2443.2c21.2-1.1,41.9-1.9,61.7-2.2c18-0.4,37.6-0.6,61.7-0.6
			c36.4,0.1,79.5,0.5,123.4,2.8c4.1,0.2,7.2,3.7,7,7.8c-0.2,3.8-3.2,6.8-7,7c-42.9,2.3-86.5,2.7-123.4,2.8
			c-18.6-0.1-40.3-0.2-61.7-0.6c-20.4-0.4-41.2-1.1-61.7-2.2c-4.1-0.2-7.2-3.7-7-7.8C2264.6,2446.5,2267.6,2443.5,2271.4,2443.2z
			 M2266.3,2524.4c0.7-2.6,2.7-4.6,5.3-5.3c3.5-1,7.4-1.7,12.1-2.1c4.1-0.4,8.2-0.6,12.1-0.6c0.2,0,0.5,0,0.7,0
			c3.7,0,7.4,0.2,11.4,0.6c4.7,0.5,8.6,1.1,12,2.1c4.1,1.2,6.5,5.5,5.3,9.6c-0.7,2.5-2.8,4.6-5.3,5.3c-3.4,1-7.3,1.7-12,2.2
			c-4.2,0.4-8.2,0.6-12.1,0.6c-4,0-8-0.2-12.1-0.6c-4.7-0.4-8.5-1.1-12.1-2.1C2267.5,2532.7,2265.1,2528.5,2266.3,2524.4z
			 M2359.3,2526.4c0.3-3.6,3.2-6.4,6.8-6.7c11.2-1,23.3-1.7,38-2.2c13.5-0.5,26.8-0.6,38.1-0.6c15.2,0,27,0.2,38.1,0.6
			c14.8,0.5,26.9,1.2,38,2.2c4.1,0.4,7.1,4,6.7,8.1v0c-0.3,3.6-3.1,6.4-6.7,6.7c-11.2,1-23.3,1.7-38,2.2
			c-11.1,0.4-22.8,0.6-38.1,0.6c-15.3-0.1-27-0.3-38.1-0.6c-14.9-0.5-27-1.2-38-2.2c-2-0.2-3.8-1.1-5.1-2.7
			C2359.8,2530.3,2359.2,2528.4,2359.3,2526.4z"/>
		<path style="fill:#008CFF;" d="M1123,867.4l-0.2-0.4c-0.1-0.2-0.2-0.5-0.3-0.7c-0.6-1.2-1.3-2.4-2.1-3.7c-0.4-0.6-0.8-1.2-1.2-1.7
			l-0.1-0.1c0-0.1-0.1-0.1-0.1-0.2l-0.3-0.4c-0.4-0.4-0.7-0.8-1.1-1.3c-0.2-0.2-0.4-0.4-0.5-0.6c-0.1-0.1-0.3-0.3-0.4-0.4l-0.2-0.2
			c-6-6-14-9.3-22.5-9.3H663.4c-17.6,0-31.8,14.3-31.8,31.9v635.2c0,0.5,0,0.9,0,1.4l0,0.4c0.1,2.3,0.5,4.7,1.2,7
			c0.1,0.5,0.3,1,0.4,1.4c0.2,0.7,0.5,1.5,0.9,2.4c0.2,0.4,0.3,0.7,0.5,1.1c0.8,1.5,1.6,3,2.5,4.3c0.4,0.5,0.7,1,1.1,1.5
			c0.2,0.3,0.4,0.5,0.6,0.8c0.2,0.3,0.4,0.5,0.6,0.7c0.4,0.5,0.9,1,1.3,1.4c0.6,0.6,1.2,1.2,1.7,1.6l0.2,0.2c0.5,0.4,1,0.8,1.5,1.2
			l1.5,1.1c0.1,0.1,0.2,0.1,0.3,0.2l0.2,0.1c0.6,0.4,1.3,0.8,1.9,1.2c0.2,0.1,0.5,0.3,0.8,0.4l0.3,0.2c0.4,0.2,0.7,0.4,1,0.5
			c0.8,0.4,1.5,0.6,2.2,0.9c1.1,0.4,2.1,0.7,3,0.9c0.7,0.2,1.3,0.3,2,0.4c1.3,0.3,2.7,0.4,4.1,0.5c0.6,0,1.3,0.1,1.9,0.1H1094
			c0.6,0,1.1,0,1.7-0.1l0.2,0c1.4-0.1,2.8-0.3,4.1-0.5c0.7-0.1,1.3-0.3,2-0.4c0.9-0.2,1.9-0.5,3-0.9c1.4-0.5,2.8-1.1,4.3-1.9
			c0.7-0.4,1.5-0.9,2.3-1.4c1.6-1,3.1-2.2,4.5-3.6c0.5-0.5,1-1,1.6-1.6l0.1-0.2c0.2-0.2,0.4-0.5,0.6-0.7c0.3-0.3,0.5-0.6,0.7-0.9
			l0,0c0.2-0.2,0.3-0.4,0.5-0.7l0.8-1.2c0.5-0.8,1-1.6,1.6-2.6c0.4-0.7,0.8-1.4,1-2.1c0.3-0.6,0.6-1.3,0.9-2.1c1.1-2.9,1.7-6,1.9-9
			c0-0.6,0.1-1.3,0.1-1.9V880.5c0-0.6,0-1.3-0.1-1.9C1125.6,874.6,1124.6,870.9,1123,867.4z M855,1439c0,6.6-0.2,12.5-0.6,17.8l0,0
			c-0.4,6.8-1.2,12.4-2.2,17.7c-0.8,4.1-4.8,6.7-8.9,5.9c-3-0.6-5.3-2.9-5.9-5.9c-1-5.3-1.8-11.1-2.2-17.7
			c-0.4-5.3-0.6-11.1-0.6-17.8c0-4.9,0.2-11.4,0.6-17.8c0.3-4.8,0.9-11.2,2.1-17.7c0.4-2,1.5-3.7,3.2-4.9c1.3-0.9,2.7-1.3,4.2-1.3
			c0.5,0,1,0,1.4,0.1c3.1,0.6,5.4,2.9,6,6c1.2,6.4,1.8,12.8,2.1,17.7C854.9,1427.6,855,1434.1,855,1439z M790.1,1439
			c0.1,6-0.1,12-0.5,17.8l0,0c-0.5,6.9-1.2,12.5-2.3,17.7c-0.9,4.1-4.9,6.7-9,5.9c-3-0.6-5.3-2.9-5.9-5.9
			c-1.1-5.3-1.8-10.9-2.3-17.7c-0.4-5.9-0.6-11.9-0.5-17.8c0.1-7,0.3-12.6,0.7-17.8c0.5-7.1,1.1-12.6,2.1-17.7
			c0.4-2,1.5-3.7,3.1-4.9c1.3-0.9,2.7-1.3,4.3-1.3c0.5,0,0.9,0,1.4,0.1c3,0.6,5.5,3,6.1,6.1c1.2,6.4,1.7,12.8,2.1,17.7
			C789.8,1426.4,790.1,1432,790.1,1439z M958.8,1496.1c-28.3-2.8-49.6-26.4-49.6-54.8c0-28.4,21.3-52,49.6-54.8l0.9-0.1v-0.2h43.9
			c30.4,0,55.1,24.7,55.1,55.1c0,30.4-24.7,55.1-55.1,55.1h-43.9v-0.2L958.8,1496.1z M1062.3,960.5v322.3
			c0,28.8-22.1,52.3-49.2,52.3H743.2c-28.8,0-52.3-23.5-52.3-52.3V960.5c0-28.8,23.5-52.3,52.3-52.3H1013
			C1040.2,908.2,1062.3,931.7,1062.3,960.5z M725.3,1439c0,6.6-0.2,12.5-0.6,17.8l0,0c-0.4,6.8-1.2,12.5-2.2,17.7
			c-0.4,2-1.5,3.7-3.2,4.8s-3.7,1.5-5.7,1.1c-3-0.6-5.3-2.9-5.9-5.9c-1-5.3-1.7-10.9-2.2-17.7c-0.4-5.3-0.6-11.1-0.6-17.8
			c0.1-5.3,0.2-11.5,0.6-17.8c0.3-4.8,0.9-11.2,2.1-17.7c0.4-2,1.5-3.7,3.2-4.8c1.3-0.9,2.7-1.3,4.2-1.3c0.5,0,1,0,1.4,0.1
			c3.1,0.6,5.4,2.9,6,6c1.2,6.4,1.8,12.8,2.1,17.7C725.1,1427.6,725.2,1434.1,725.3,1439z"/>
		<path style="fill:#008CFF;" d="M1003.6,1476c19.1,0,34.7-15.5,34.7-34.7c0-19.1-15.5-34.7-34.7-34.7c-19.1,0-34.7,15.5-34.7,34.7
			C968.9,1460.4,984.4,1476,1003.6,1476z"/>
		<path style="fill:#008CFF;" d="M1935.5,1387.1h-757.3c-17.6,0-31.9,14.3-31.9,31.9v757.3c0,17.6,14.3,31.9,31.9,31.9h757.3
			c17.6,0,31.9-14.3,31.9-31.9v-757.3C1967.3,1401.4,1953,1387.1,1935.5,1387.1z M1447,2092.7c-7.2,0-13-5.8-13-13
			c0-7.2,5.8-13,13-13c7.2,0,13,5.8,13,13C1460,2086.9,1454.2,2092.7,1447,2092.7z M1447,2119.4c7.2,0,13,5.8,13,13
			c0,7.2-5.8,13-13,13c-7.2,0-13-5.8-13-13C1434,2125.3,1439.8,2119.4,1447,2119.4z M1388.4,2092.7c-7.2,0-13-5.8-13-13
			c0-7.2,5.8-13,13-13c7.2,0,13,5.8,13,13C1401.4,2086.9,1395.5,2092.7,1388.4,2092.7z M1388.4,2119.4c7.2,0,13,5.8,13,13
			c0,7.2-5.8,13-13,13c-7.2,0-13-5.8-13-13C1375.3,2125.3,1381.2,2119.4,1388.4,2119.4z M1551.8,2053.9h260.7
			c28.8,0,52.2,23.4,52.2,52.2c0,28.8-23.4,52.2-52.2,52.2h-260.7c-28.8,0-52.2-23.4-52.2-52.2
			C1499.5,2077.3,1523,2053.9,1551.8,2053.9z M1245.6,2072.9c0-5.6,4.6-10.2,10.2-10.2h66.3c5.6,0,10.2,4.6,10.2,10.2v66.3
			c0,5.6-4.6,10.2-10.2,10.2h-66.3c-5.6,0-10.2-4.6-10.2-10.2V2072.9z M1873.1,1523.5v425.3c0,28.8-23.5,52.3-52.3,52.3h-538
			c-28.8,0-52.3-23.5-52.3-52.3v-425.3c0-28.8,23.5-52.3,52.3-52.3h538C1849.6,1471.3,1873.1,1494.7,1873.1,1523.5z"/>
	</g>
</g>
<g id="outline">
	<g>
		<path style="fill:#FFFFFF;" d="M2083.6,1610.6c4.4-4.1,7.1-9.9,7.1-16.4v-21.9c0-22,18.5-39.9,40.8-38.8c20.8,1,36.9,19,36.9,39.9
			v73.9c0,9.3,7.7,17.4,17,17.1c9-0.3,16-7.5,16-16.3v-109.4c0-22,18.5-39.9,40.8-38.8c20.8,1,36.9,19,36.9,39.9v74.6
			c0,9,7.3,16.4,16.4,16.4h0.7c9,0,16.4-7.3,16.4-16.4V1592c0-19.8,13-36.6,30.8-42.3c7.9-2.5,13.2-9.8,13.2-18.1v-28.6
			c0-17-13.8-30.9-30.8-30.9h-225.8c-17.1,0-30.9,13.8-30.9,30.9v101.2C2069,1611.9,2078.1,1615.8,2083.6,1610.6z"/>
		<path style="fill:#FFFFFF;" d="M2099.8,1711h225.8c17,0,30.8-13.8,30.8-30.9v-98.1c0-7.2-8.5-11.4-14-6.8c-4.7,4-7.7,10-7.7,16.7
			v22.4c0,21.4-17.4,38.8-38.8,38.8h-0.7c-21.4,0-38.8-17.4-38.8-38.8v-75.7c0-9.7-8.6-17.5-18.5-16.2c-8.2,1-14.2,8.5-14.2,16.8
			v107.7c0,21.9-17.9,40.6-39.9,40c-21.1-0.6-38-17.8-38-38.8v-75.7c0-9.7-8.6-17.5-18.5-16.2c-8.3,1-14.2,8.5-14.2,16.8v21.3
			c0,18.7-11.5,34.8-27.8,41.5c-9.8,4.1-16.4,13.5-16.4,24.2v20.3C2069,1697.2,2082.8,1711,2099.8,1711z"/>
		<path style="fill:#FFFFFF;" d="M2758.7,2617.2L2758.7,2617.2c-0.3-1-0.6-2-1.1-2.9c0,0,0,0,0,0c-1.8-4.2-4.5-8-7.8-11.1
			c0,0,0,0,0,0c-0.8-0.7-1.5-1.3-2.3-1.9h0c-0.8-0.6-1.6-1.2-2.5-1.7c-0.9-0.5-1.8-1-2.7-1.5c-0.9-0.4-1.9-0.8-2.8-1.2
			c-3.4-1.2-7.1-1.9-10.9-1.9h-93c-15.9,0-28.7-12.8-28.7-28.7v-458.4c0-13.5,11-24.5,24.5-24.5h40.7c14.7,0,28-6,37.7-15.6
			c1.2-1.2,2.4-2.5,3.5-3.8c1.6-2,3.1-4.1,4.5-6.3c1.4-2.2,2.5-4.5,3.5-6.9c0.3-0.8,0.6-1.6,0.9-2.4c0.6-1.6,1.1-3.3,1.5-5
			c1.1-4.3,1.7-8.7,1.7-13.3v-181.7c0-4.6-0.6-9.1-1.7-13.3c-0.4-1.7-0.9-3.4-1.5-5c-0.3-0.8-0.6-1.6-0.9-2.4
			c-1-2.4-2.2-4.7-3.5-6.9c-1.4-2.2-2.8-4.3-4.5-6.3c-1.1-1.3-2.2-2.6-3.5-3.8c-9.6-9.7-23-15.6-37.7-15.6h-143.9
			c-16.7,0-29.7-13.7-29.7-30.3v-346c0-29.4-23.9-53.3-53.3-53.3h-148.7c-16.6,0-29.7-13.7-29.7-30.3v-160.6c0-2.8-0.2-5.5-0.6-8.1
			c-0.3-1.8-0.6-3.5-1.1-5.2c0,0,0,0,0,0c-0.4-1.7-0.9-3.4-1.5-5c-0.3-0.8-0.6-1.6-0.9-2.4c-0.7-1.6-1.4-3.1-2.3-4.6
			c-0.4-0.8-0.8-1.5-1.3-2.2c-2.2-3.7-4.9-7.1-7.9-10c-9.6-9.7-23-15.6-37.7-15.6h-265.6c-16.6,0-29.7-13.7-29.7-30.3V582.7
			c0-14.7-6-28-15.6-37.7c-1.2-1.2-2.5-2.4-3.8-3.5c-2-1.6-4.1-3.1-6.3-4.5c-2.2-1.3-4.5-2.5-6.9-3.5c-0.8-0.3-1.6-0.6-2.4-1
			c-1.6-0.6-3.3-1.1-5-1.5c-4.3-1.1-8.7-1.7-13.3-1.7h-161.2c-18,0-35.3-6.3-49.2-17.7c-0.3-0.2-0.5-0.4-0.8-0.6
			c-1.5-1.2-2.9-2.3-4.4-3.5c-1.7-1.4-3.5-2.7-5.3-4c-1.6-1.2-3.2-2.3-4.8-3.5c-4-2.8-8.1-5.6-12.2-8.2c-1.4-0.9-2.9-1.8-4.3-2.7
			c-2.2-1.3-4.4-2.6-6.6-3.9c-1.8-1-3.5-2-5.3-2.9c-7.7-4.2-15.5-8-23.6-11.5c-2-0.8-4-1.7-6-2.5c-1.8-0.7-3.5-1.4-5.3-2.1
			c-1.4-0.5-2.8-1.1-4.2-1.5c-1.4-0.5-2.8-1-4.2-1.5c-1.5-0.5-3.1-1.1-4.7-1.6c-6.8-2.2-10.6-9.3-8.5-16.1l11.3-35.3
			c1.9-5.5,8.2-8,13.3-5.2l16.1,8.8l0.4,0.2c0.4,0.2,0.8,0.4,1.2,0.6c0.3,0.1,0.7,0.2,1,0.3c0.5,0.1,1,0.3,1.5,0.3
			c0.5,0.1,0.9,0.1,1.4,0.1c0.3,0,0.6,0,1,0c0.9-0.1,1.8-0.3,2.6-0.6c0.4-0.1,0.8-0.3,1.2-0.5c2.6-1.3,4.6-3.6,5.7-6.4
			c0.1-0.1,0.1-0.1,0.1-0.2c0-0.1,0.1-0.2,0.1-0.3l0.1-0.4l22.9-80.8c0.2-0.8,0.3-1.5,0.3-2.3c0-0.4,0-0.9-0.1-1.3
			c0-0.3-0.1-0.7-0.2-1c0-0.1-0.1-0.3-0.1-0.4c-0.1-0.3-0.3-0.7-0.4-1c-0.1-0.3-0.3-0.7-0.5-1c-0.1-0.1-0.2-0.3-0.3-0.4
			c-0.2-0.3-0.4-0.5-0.6-0.7c-0.2-0.3-0.5-0.5-0.8-0.7c-0.2-0.2-0.4-0.3-0.6-0.4c-0.2-0.2-0.5-0.3-0.7-0.4c-0.4-0.2-0.8-0.4-1.1-0.5
			c0,0-0.1,0-0.1,0c-0.5-0.2-0.9-0.3-1.4-0.4c-0.1,0-0.3-0.1-0.4-0.1c-0.5,0-1,0-1.5,0c-3.1,0.3-5.9,2.4-7.3,5.3
			c-0.1,0.2-0.2,0.4-0.3,0.7l-20,56c-2,5.4-8.3,7.8-13.3,5l-16.8-9.2c-0.6-0.3-1.3-0.7-2-0.9c-5.9-1.9-12.2,1.4-14.1,7.3l-20,62.6
			c-1.9,6-7.9,9.7-14.2,8.8c-0.8-0.1-1.5-0.2-2.3-0.3c-1.7-0.3-3.4-0.5-5.1-0.7c-0.9-0.1-1.8-0.2-2.7-0.3
			c-5.6-0.6-11.2-1.1-16.9-1.4c-1.1-0.1-2.1-0.1-3.2-0.2c-1.4-0.1-2.7-0.1-4.1-0.1c-2.6-0.1-5.3-0.1-8-0.1c-2.6,0-5.3,0-7.9,0.1
			c-1.4,0-2.8,0.1-4.1,0.1c-1,0.1-2,0.1-3,0.2c-5.8,0.3-11.5,0.8-17.2,1.4c-0.8,0.1-1.5,0.2-2.3,0.3c-1.8,0.2-3.6,0.5-5.3,0.7
			c-0.8,0.1-1.5,0.2-2.3,0.3c-6.3,0.9-12.2-2.8-14.2-8.8l-30.7-96c-0.2-0.6-0.5-1.3-0.9-2c-3-5.5-9.8-7.4-15.2-4.5l-32.3,17.7
			c-5.1,2.8-11.5,0.3-13.4-5.1l-31-89.6c-1.2-3.5-4.4-5.7-8-5.7c-0.3,0-0.7,0-1,0.1c-0.4,0-0.8,0.1-1.2,0.2c-0.1,0-0.3,0.1-0.5,0.1
			c-0.2,0-0.3,0.1-0.5,0.2c-0.3,0.1-0.6,0.3-0.9,0.4c-0.1,0-0.2,0.1-0.2,0.1c-3.3,2-4.8,6.2-3.7,10l33.6,114.2
			c0.2,0.7,0.5,1.5,0.9,2.2c2.9,5.3,9.6,7.3,14.9,4.3l0.2-0.1l31.9-17.5c5.2-2.7,11.5-0.1,13.3,5.4l21.9,68.5
			c2.2,6.8-1.6,14-8.4,16.2c-1.6,0.5-3.1,1-4.7,1.6c-1.3,0.4-2.6,0.9-3.9,1.3c-1.5,0.6-3.1,1.1-4.6,1.7c-1.8,0.7-3.5,1.4-5.3,2.1
			c-1.9,0.7-3.7,1.5-5.6,2.3c-0.2,0.1-0.4,0.2-0.6,0.3c-1.7,0.7-3.4,1.4-5.1,2.2c-0.3,0.1-0.5,0.3-0.8,0.4c-1.5,0.7-3,1.4-4.4,2.1
			c-1,0.5-1.9,0.9-2.9,1.4c-3.6,1.8-7.1,3.6-10.7,5.5c-1.6,0.8-3.1,1.7-4.6,2.6c-2.3,1.3-4.5,2.6-6.7,4c-1.7,1-3.4,2.1-5,3.1
			c-3.9,2.5-7.7,5-11.5,7.8c-1.6,1.2-3.2,2.3-4.8,3.5c-1.8,1.3-3.5,2.6-5.3,4c-1.7,1.3-3.5,2.7-5.2,4.1c-0.1,0.1-0.2,0.2-0.3,0.3
			c-13.9,11.2-31.1,17.4-48.9,17.4H984.6c-4.6,0-9.1,0.6-13.3,1.7c-1.7,0.4-3.3,1-5,1.5c-0.8,0.3-1.6,0.6-2.4,1
			c-2.4,1-4.7,2.2-6.9,3.5h0c-2.2,1.4-4.3,2.8-6.3,4.5c-1.3,1.1-2.6,2.3-3.8,3.5c-9.6,9.6-15.6,23-15.6,37.7v213.5
			c0,17.1-13.8,30.9-30.9,30.9H469.8c-14.7,0-28,6-37.7,15.6c-3,3-5.7,6.4-7.9,10.1c-0.5,0.7-0.9,1.5-1.3,2.2
			c-0.9,1.5-1.6,3.1-2.3,4.6c-0.3,0.8-0.6,1.6-1,2.4c-0.6,1.6-1.1,3.3-1.5,5c0,0,0,0,0,0c-0.4,1.7-0.8,3.4-1.1,5.2
			c-0.4,2.6-0.6,5.4-0.6,8.1v635.8c0,16.6-13.1,30.3-29.7,30.3H324c-29.4,0-53.3,23.9-53.3,53.3v576.4c0,29.4,23.9,53.3,53.3,53.3
			H544c16.6,0,29.7,13.7,29.7,30.3v265.6c0,29.4,23.9,53.3,53.3,53.3h1308.5c29.4,0,53.3-23.9,53.3-53.3v-412.3
			c0-16.6,13.7-29.7,30.3-29.7h143.3c13.5,0,24.5,10.9,24.5,24.5v546.8c0,23.5,9.1,45.6,25.8,62.2c16.6,16.7,38.6,25.8,62.1,25.8
			h397.5l17.7-1.8c1.4-0.3,2.8-0.6,4.2-1l12.3-4.2c1.3-0.6,2.6-1.1,3.9-1.8l3.8-1.9c1.2-0.7,2.5-1.4,3.7-2.1l4.3-2.8
			c0.9-0.7,1.8-1.3,2.7-2c1-0.7,1.9-1.5,2.8-2.2l1.1-0.9c0.9-0.7,1.7-1.5,2.6-2.2c1-1,2.1-1.9,3.1-2.9c1-1,2-2,2.9-3.1
			c0.8-0.8,1.5-1.7,2.2-2.6c1.1-1.3,2.1-2.6,3.1-3.9c0.7-0.9,1.3-1.8,2-2.7c0.9-1.4,1.9-2.8,2.8-4.3c0.7-1.2,1.5-2.4,2.1-3.7
			c6.8-12.5,10.6-26.7,10.6-41.9v-28c0-2.2-0.2-4.3-0.6-6.4C2759.3,2619.2,2759,2618.2,2758.7,2617.2z M2445.1,1388.1
			c17,0,30.9,13.9,30.9,30.9v345.4c0,17-13.9,30.9-30.9,30.9h-425.4c-16.9,0-30.7-13.8-30.8-30.7v-345.7c0.1-17,13.9-30.8,30.8-30.8
			H2445.1z M1334.2,512.1c1.4-0.9,2.7-1.8,4.1-2.6c2.6-1.6,5.3-3.2,8-4.7c1.4-0.8,2.9-1.6,4.3-2.4c1.2-0.7,2.5-1.4,3.8-2
			c1.3-0.7,2.6-1.4,3.9-2c2.9-1.5,5.8-2.9,8.8-4.2c1.7-0.8,3.4-1.5,5-2.3c1.2-0.5,2.3-1,3.5-1.5c1.2-0.5,2.5-1,3.7-1.5
			c1-0.4,2-0.8,3.1-1.2c1.2-0.5,2.4-0.9,3.5-1.3c6.6-2.4,13.2-4.5,20-6.4c1.3-0.4,2.7-0.7,4-1.1c0.4-0.1,0.8-0.2,1.3-0.3
			c1.2-0.3,2.4-0.6,3.6-0.9c6.4-1.5,12.8-2.8,19.3-3.8c1.2-0.2,2.4-0.4,3.6-0.5c4.6-0.7,9.3-1.2,14-1.6c1.5-0.1,2.9-0.3,4.4-0.4
			c0.2,0,0.3,0,0.5,0c1.5-0.1,3-0.2,4.4-0.3c1.1,0,2.2-0.1,3.4-0.1c1.1-0.1,2.2-0.1,3.3-0.1c1,0,2-0.1,2.9-0.1
			c1.6,0,3.2-0.1,4.8-0.1c1.6,0,3.2,0,4.8,0.1c1,0,2,0,2.9,0.1c1.1,0,2.2,0.1,3.3,0.1c1.1,0,2.2,0.1,3.4,0.1
			c1.5,0.1,2.9,0.2,4.4,0.3c0.1,0,0.3,0,0.4,0c1.5,0.1,3,0.2,4.5,0.4c7.3,0.6,14.6,1.6,21.8,2.9c1.7,0.3,3.3,0.6,5,0.9
			c5.1,1,10.1,2.1,15.1,3.4c1.2,0.3,2.4,0.6,3.6,1c6.9,1.9,13.7,4.1,20.4,6.5c1.2,0.4,2.4,0.9,3.5,1.3c1.1,0.4,2.1,0.8,3.1,1.2
			c1.3,0.5,2.5,1,3.7,1.5c1.2,0.4,2.3,1,3.5,1.5c1.7,0.7,3.4,1.5,5,2.3c3,1.3,5.9,2.8,8.8,4.2c1.3,0.7,2.6,1.3,3.9,2
			c1.3,0.6,2.5,1.3,3.8,2c1.5,0.8,2.9,1.6,4.4,2.4c2.9,1.6,5.7,3.3,8.5,5.1c1.2,0.7,2.3,1.4,3.4,2.2c0.1,0.1,0.3,0.2,0.4,0.3
			c7.4,5.2,3.6,17.1-5.6,17.1h-271.8C1330.3,529.4,1326.5,517.3,1334.2,512.1z M1147.3,582.7c0-17,13.8-30.9,30.8-30.9h686.6
			c17,0,30.9,13.8,30.9,30.9v507.9c0,17-13.8,30.8-30.9,30.8H1178c-17-0.1-30.7-13.9-30.7-30.8V582.7z M1607.1,1267.9
			c-3.4,3.4-8,5.4-13.2,5.4h-122.7c-10.3,0-18.6-8.3-18.6-18.6c0-5.2,2.1-9.8,5.4-13.2c3.4-3.4,8-5.4,13.2-5.4H1594
			c10.3,0,18.6,8.3,18.6,18.6C1612.6,1259.9,1610.5,1264.6,1607.1,1267.9z M1612.6,1314.4v22.6c0,15.8-12.8,28.6-28.6,28.6h-102.7
			c-15.8,0-28.6-12.8-28.6-28.6v-22.6c0-10.3,8.3-18.6,18.6-18.6H1594C1604.3,1295.8,1612.6,1304.1,1612.6,1314.4z M1594,1213.7
			h-122.7c-10.3,0-18.6-8.3-18.6-18.6v-22.6c0-15.8,12.8-28.6,28.6-28.6H1584c15.8,0,28.6,12.8,28.6,28.6v22.6
			C1612.6,1205.4,1604.3,1213.7,1594,1213.7z M1147.3,1174.8c0-8.5,3.4-16.2,9-21.8c0.5-0.5,1.1-1,1.6-1.5c0.9-0.8,1.8-1.5,2.8-2.1
			c0.8-0.6,1.7-1.2,2.7-1.7h0c1.3-0.7,2.7-1.3,4.1-1.8c0.9-0.4,1.9-0.6,2.9-0.9c2.5-0.7,5.1-1,7.7-1h223.5
			c15.8,0,28.6,12.8,28.6,28.6V1337c0,15.8-12.8,28.6-28.6,28.6h-223.5c0,0,0,0-0.1,0c-16.9,0.8-30.8-12.3-30.8-29.3V1174.8z
			 M953.7,582.7c0-17,13.9-30.9,30.9-30.9h110.6c16.7,0,29.8,13.8,29.7,30.5v215c0,16.7-13.8,29.8-30.5,29.7H984.6
			c-17.1,0-30.9-13.8-30.9-30.9V582.7z M632.5,880.5c0-17,13.8-30.9,30.8-30.9H1094c8.5,0,16.2,3.5,21.8,9c0.2,0.2,0.3,0.3,0.5,0.5
			c0.2,0.2,0.3,0.4,0.5,0.5c0.4,0.5,0.9,1,1.3,1.5c0.1,0.1,0.2,0.3,0.3,0.4c0.4,0.5,0.8,1.1,1.2,1.6c0.8,1.1,1.5,2.3,2.1,3.6
			c0.2,0.3,0.3,0.7,0.5,1c1.5,3.3,2.4,7,2.7,10.8c0,0.6,0,1.2,0,1.9v635.2c0,0.6,0,1.2,0,1.9c-0.2,3-0.8,6-1.8,8.8
			c-0.3,0.7-0.5,1.4-0.8,2.1c-0.3,0.7-0.6,1.4-1,2c-0.5,0.9-1,1.7-1.5,2.6c-0.2,0.3-0.4,0.6-0.6,0.9l0,0c-0.2,0.3-0.4,0.6-0.7,0.9
			l0,0c-0.2,0.3-0.4,0.6-0.7,0.9c-0.2,0.3-0.5,0.6-0.7,0.8c-0.5,0.5-1,1.1-1.5,1.6c-1.4,1.3-2.8,2.4-4.4,3.4c-0.7,0.5-1.5,1-2.2,1.4
			c-1.3,0.7-2.7,1.3-4.1,1.8c-0.9,0.4-1.9,0.7-2.9,0.9c-0.6,0.2-1.2,0.3-1.9,0.4c-1.3,0.3-2.6,0.4-4,0.5c-0.6,0-1.2,0.1-1.8,0.1
			H663.4c-0.6,0-1.3,0-1.9-0.1c-1.3-0.1-2.7-0.3-4-0.5c-0.6-0.1-1.3-0.3-1.9-0.4c-1-0.3-2-0.5-2.9-0.9c-0.7-0.3-1.4-0.5-2.1-0.8
			c-0.3-0.1-0.7-0.3-1-0.5c-0.3-0.2-0.7-0.3-1-0.5c-0.6-0.3-1.3-0.7-1.9-1.2c-0.2-0.1-0.3-0.2-0.5-0.3c-0.3-0.2-0.6-0.4-0.9-0.6
			c-0.2-0.1-0.3-0.2-0.4-0.3c0,0,0,0,0,0c-0.6-0.4-1.2-0.9-1.7-1.4c-0.6-0.5-1.1-1-1.6-1.5c-0.5-0.4-0.9-0.9-1.3-1.3
			c-0.2-0.2-0.4-0.5-0.6-0.7c-0.2-0.2-0.4-0.5-0.6-0.7c-0.4-0.5-0.8-1-1.1-1.5c-0.9-1.3-1.7-2.7-2.4-4.2c-0.2-0.4-0.4-0.7-0.5-1.2
			c-0.3-0.7-0.6-1.5-0.8-2.3c-0.2-0.4-0.3-0.9-0.4-1.3c-0.6-2.2-1.1-4.5-1.2-6.9c0-0.6,0-1.2,0-1.8V880.5z M464.3,2176.6
			c0.1,16.7-13,30.5-29.7,30.5H324c-17,0-30.9-13.9-30.9-30.9v-576.4c0-17,13.9-30.9,30.9-30.9h110.5c16.7,0,29.8,13.8,29.7,30.5
			V2176.6z M439,1515.7V880.5c0-17.1,13.8-30.9,30.9-30.9h110.5c16.7,0,29.8,13.8,29.7,30.5V1516c0.1,16.7-13,30.5-29.7,30.5H469.8
			C452.8,1546.6,439,1532.7,439,1515.7z M517.6,2207.1c-17,0-30.9-13.9-30.9-30.9v-576.4c0-17,13.8-30.9,30.9-30.9H1094
			c17,0,30.8,13.8,30.8,30.9v576.4c0,17-13.8,30.9-30.8,30.9H517.6z M767.2,2525.8c0.1,16.7-13,30.5-29.7,30.5H626.9
			c-17,0-30.8-13.9-30.8-30.9v-265.1c0-17,13.9-30.9,30.8-30.9h110.5c16.7,0,29.8,13.8,29.7,30.5V2525.8z M1966.3,2525.5
			c0,17-13.8,30.9-30.9,30.9H820.4c-17-0.1-30.8-13.9-30.8-30.9v-265.1c0-17,13.8-30.8,30.8-30.9h388.3c16.8,0,30.4,13.6,30.4,30.3
			V2366c0,24.8,20.1,44.9,44.9,44.9h539.7c12.4,0,23.6-5,31.7-13.2c2-2,3.9-4.2,5.5-6.6c0,0,0,0,0,0c0.8-1.2,1.5-2.4,2.2-3.7
			c3.4-6.4,5.4-13.7,5.4-21.4v-106.1c0-16.8,13.6-30.3,30.4-30.3h36.6c0,0,0,0,0,0c0.6,0,1.1-0.1,1.6-0.1
			c16.2,0,29.2,12.9,29.2,29.3V2525.5z M1263.7,2375.8c-0.1-0.3-0.3-0.7-0.4-1c-0.3-0.7-0.5-1.3-0.8-2.1c-0.6-2.1-1-4.4-1-6.7
			v-105.1c0-16.8,13.6-30.3,30.4-30.3h523.8c16.8,0,30.4,13.6,30.4,30.3V2366c0,6.2-2.5,11.8-6.6,15.8c-0.8,0.8-1.6,1.5-2.4,2.1
			c-1.2,0.8-2.4,1.6-3.7,2.3c-0.3,0.1-0.7,0.3-1,0.4c-0.7,0.3-1.4,0.5-2.1,0.8c-2.1,0.6-4.4,1-6.7,1h-539.7c-2.3,0-4.6-0.4-6.7-1
			c-0.7-0.2-1.4-0.5-2.1-0.8c-0.3-0.1-0.7-0.3-1-0.4c-1.3-0.6-2.5-1.3-3.7-2.3h0c-1.7-1.3-3.3-2.8-4.6-4.5v0
			C1265,2378.3,1264.3,2377,1263.7,2375.8z M1966.3,2176.3c0,17-13.8,30.9-30.9,30.9h-757.3c-17,0-30.8-13.9-30.8-30.9v-757.4
			c0-17,13.8-30.9,30.8-30.9h757.3c17,0,30.9,13.9,30.9,30.9V2176.3z M1663.6,1365.6c-15.8,0-28.6-12.8-28.6-28.6v-164.5
			c0-15.8,12.8-28.6,28.6-28.6h549.7c2.7,0,5.2,0.3,7.7,1c1,0.3,2,0.5,2.9,0.9c1.4,0.5,2.8,1.1,4.1,1.8c0,0,0,0,0,0
			c0.6,0.4,1.3,0.8,1.9,1.2c1.3,0.8,2.4,1.7,3.6,2.7c0.6,0.5,1.1,1,1.6,1.5c5.6,5.6,9,13.3,9,21.8v160c0,17-13.8,30.9-30.8,30.9
			H1663.6z M2179.7,2053.9c-4.4,4.4-10.5,7.1-17.3,7.1h-142.8c-8.5,0-16.2-3.5-21.8-9c-0.3-0.3-0.7-0.7-1-1.1
			c-1-1.1-1.9-2.3-2.8-3.5c-0.6-0.8-1.1-1.7-1.5-2.5c-0.7-1.3-1.4-2.7-1.9-4.1c-1.2-3.3-1.9-6.9-1.9-10.6v-181.7
			c0-3.7,0.7-7.3,1.9-10.6c0.5-1.4,1.1-2.8,1.9-4.1c0.5-0.9,1-1.7,1.5-2.6c0.8-1.2,1.7-2.4,2.8-3.5c0.3-0.4,0.7-0.7,1-1.1
			c5.6-5.6,13.3-9,21.8-9h652.3c17.1,0,30.9,13.8,30.9,30.8v181.7c0,17.1-13.8,30.9-30.9,30.9h-40.7c-13.5,0-24.5-10.9-24.5-24.5
			c0-0.8,0-1.5,0-2.3v-0.2c-0.3-58.3-34.6-111.8-88.3-134.7c-27.5-11.7-62.5-19.5-107-19.5c-179.7,0-266.5,0-266.5,0
			c-24.8,0-46,15.3-54.9,36.9h-0.5v1.2c-2.5,6.6-4,13.7-4,21.2c0,15.9,6.2,30.8,17.4,42c11.2,11.2,26.1,17.4,41.9,17.4h11.2
			c15.2,0,28,11.2,30,26.2c0.1,0.6,0.1,1.2,0.2,1.8c0.1,0.8,0.2,1.6,0.2,2.4c0.2,2.5,0.3,5,0.3,7.5
			C2186.9,2043.3,2184.1,2049.4,2179.7,2053.9z M2348.4,2605.4c-0.7,0.8-1.3,1.5-1.9,2.3v0c-0.6,0.8-1.1,1.6-1.7,2.5
			c-0.5,0.9-1,1.8-1.5,2.7c-0.4,0.9-0.8,1.9-1.2,2.8c-1.2,3.4-1.9,7.1-1.9,10.9v26.5c0,36.3-28.8,66.3-64.1,67
			c-18,0.4-34.9-6.4-47.6-19.2c-12.3-12.3-19.2-28.8-19.2-46.3v-618.1c0-1.2,0-2.4-0.1-3.5c0-1-0.1-1.9-0.1-2.8c0-0.7-0.1-1.4-0.1-2
			c-0.2-3.1-0.5-6.2-1-9.2c-0.1-0.8-0.3-1.6-0.4-2.4c-0.1-0.7-0.3-1.5-0.4-2.2c-0.2-1.1-0.4-2.2-0.7-3.3c0-0.1,0-0.1-0.1-0.2
			c-0.3-1.2-0.5-2.3-0.8-3.5c-0.3-1.2-0.6-2.3-0.9-3.5c-0.7-2.3-1.4-4.6-2.1-6.8c-0.4-1-0.7-2.1-1.1-3.1c-0.3-0.7-0.5-1.3-0.8-2
			c-0.6-1.5-1.2-3-1.9-4.4c-0.7-1.7-1.5-3.3-2.3-4.9c-0.8-1.6-1.7-3.2-2.6-4.8c0,0,0,0,0-0.1c-0.8-1.5-1.7-2.9-2.6-4.3
			c-0.1-0.2-0.2-0.3-0.3-0.5c-0.7-1.1-1.4-2.2-2.1-3.2c-0.2-0.3-0.4-0.6-0.6-0.9c-0.4-0.6-0.8-1.1-1.1-1.6c-0.7-1-1.5-2.1-2.2-3
			c-1-1.3-1.9-2.5-3-3.7c-0.1-0.1-0.2-0.3-0.3-0.4c-1-1.2-2-2.4-3.1-3.6c-0.2-0.2-0.3-0.3-0.4-0.5c-5.9-6.5-1.3-16.9,7.5-16.9h301.3
			c23.2,0,44.5,8.2,61.2,21.8c0.9,0.7,1.7,1.5,2.6,2.2c20.4,17.8,33.4,44.1,33.4,73.3v529.7c0,15.8-12.8,28.7-28.7,28.7h-183.8
			c-3.8,0-7.5,0.7-10.9,1.9c-0.9,0.4-1.9,0.8-2.8,1.2c-0.9,0.5-1.8,1-2.7,1.5c-0.9,0.6-1.7,1.1-2.5,1.7h0c-0.8,0.6-1.6,1.3-2.3,1.9
			c0,0,0,0,0,0C2349.8,2603.9,2349.1,2604.6,2348.4,2605.4C2348.4,2605.4,2348.4,2605.4,2348.4,2605.4z M2737.7,2654.7
			c0,36.2-29.3,65.5-65.5,65.5h-308.9c-11.4,0-18.3-12.4-12.6-22.3c7.6-13.2,11.9-28.5,11.9-44.7v-26.5c0-5.1,4.1-9.2,9.2-9.2h356.7
			c5.1,0,9.2,4.1,9.2,9.2V2654.7z"/>
		<path style="fill:#FFFFFF;" d="M743.2,1313.6h223.9c17,0,30.9-13.9,30.9-30.8V960.5c0-17-13.9-30.8-30.9-30.8H743.2
			c-17,0-30.9,13.8-30.9,30.8v322.3C712.3,1299.8,726.2,1313.6,743.2,1313.6z M754.8,1036c2.8-6.7,6.1-13.2,10.2-19.2
			c4.1-6,8.8-11.7,14.1-16.8c10.7-10.1,23.6-18,37.5-22.7c13.9-4.7,28.6-6.6,43.1-5.6c14.5,0.9,28.8,4.6,42.1,10.9
			c6.6,3.2,13,7.1,18.7,11.7c5.8,4.6,11.2,9.7,15.8,15.5c4.6,5.8,8.8,11.9,12.1,18.5c1.8,3.3,3.1,6.7,4.5,10l1.8,5.2
			c0.6,1.7,1.2,3.4,1.6,5.2c3.9,14,5.3,28.5,4.7,42.6c-1.2,27.6-7.7,54.8-17.7,80.1c-2.5,6.3-5.1,12.5-7.9,18.6l-4.2,9.1l-4.7,9.3
			c-6.5,12.2-14.4,23.9-23.9,34.6c-9.6,10.5-20.9,20-34.5,26.5c-6.8,3.2-14.2,5.6-22,6.8c-7.7,1.1-15.5,1-23.2-0.3
			c-7.7-1.5-15.1-4.1-21.9-7.9c-3.4-1.9-6.6-4.1-9.7-6.5l-4.4-3.9c-1.4-1.3-2.7-2.8-4-4.2c-5.1-5.8-9.1-12.5-11.9-19.6
			c-2.6-7.1-4.1-14.5-4.3-21.9c-0.1-4.7,3.5-8.6,8.2-8.7c3.8-0.1,7.1,2.3,8.3,5.7l0.2,0.6c1.9,5.6,4,10.8,6.6,15.7
			c2.7,4.8,6,9.1,9.6,13c7.3,7.8,17,13,27.4,14.9c5.2,0.9,10.6,0.8,15.8,0.1c5.1-0.8,10.3-2.5,15.3-4.9c10-4.9,19.1-12.4,27-21.3
			c7.8-9,14.6-19.1,20.4-30l4.1-8.2l4-8.7c2.6-5.8,5.1-11.6,7.4-17.5c9.2-23.4,14.9-47.8,15.9-72.4c0.7-12.1-0.5-23.9-3.5-35.1
			c-0.3-1.4-0.8-2.8-1.2-4.2l-1.4-4.1c-1.2-2.6-2.1-5.4-3.5-7.9c-2.5-5.2-5.6-9.9-9.2-14.3c-3.5-4.5-7.6-8.4-12.1-12
			c-4.4-3.6-9.2-6.6-14.4-9.1c-10.3-5.1-21.7-8.1-33.3-8.9c-23.2-1.8-46.8,5.8-63.5,21.5c-4.1,4-7.8,8.4-11.1,13.1
			c-3.2,4.8-6,9.9-8.6,15.2c-4.8,10.7-8.3,22.3-11.1,34.5l0,0.2c-1.1,4.6-5.6,7.3-10.2,6.3c-3.9-0.9-6.5-4.4-6.5-8.2
			C747,1063.5,749.6,1049.4,754.8,1036z M857,1059.6c0.1,0,0.1,0,0.1,0c4.3,3.1,8.2,6.8,11.5,10.9c11.3,13.9,16,32.3,13.8,49.6
			c-1.1,8.6-3.8,17.1-8.2,24.8c-4.3,7.7-10.4,14.5-17.5,19.6c-7.1,5.1-15.2,8.7-23.4,10.4c-8,1.8-16.1,2.1-23.9,1.3
			c-4.1-0.4-7.7-3.6-8-7.7c-0.4-4.7,3-8.5,7.2-9.1l0.5-0.1c6.6-0.9,12.9-2.2,18.7-4.2c5.8-2,11.1-4.9,15.6-8.4
			c4.5-3.6,8.3-7.9,11-12.9c2.7-5,4.4-10.6,5-16.4c1.1-11.4-1.9-23.4-9-32.1c-3.5-4.3-7.9-7.9-12.9-10.5c-1.1-0.6-2.6-1.2-4.3-1.8
			c-8.2-2.8-17.1,2.7-17.9,11.4v0.1c-0.6,7.2,0.2,14.8,1.8,22.7l0.1,0.3c0.7,3.4-0.7,7.1-3.7,8.9c-4.6,2.8-9.9,0.9-12.1-3.2
			c-6.9-13-10.1-29.3-6.5-45.3c1.7-7.9,5.3-15.5,10.1-22.3c4.9-6.7,11.2-12.4,18.4-16.4c14.4-8.3,32.3-10.2,47.8-4.9
			c7.7,2.5,14.8,6.6,20.7,11.7c5.8,4.9,10.6,10.8,14.5,16.9c2.3,3.6,1.8,8.4-1.3,11.2c-3.6,3.2-8.8,2.6-11.8-0.6l-0.3-0.3
			c-4.1-4.5-8.4-8.4-13.1-11.5c-4.7-3.1-9.6-5.4-14.8-6.6c-0.5-0.1-1-0.2-1.5-0.3C854.7,1043,849.8,1054.4,857,1059.6z"/>
		<path style="fill:#FFFFFF;" d="M570.3,923.5c-0.6-3.4-3.3-6.3-6.9-6.9c-4.6-0.8-9.1,2.2-9.9,6.9c-1.7,9.3-2.3,18.6-2.7,27.8
			c-0.3,9.3-0.6,18.6-0.6,27.9c0,9.3,0.2,18.5,0.4,27.8c0.3,9.3,0.9,18.5,2.9,27.8c0.7,3.2,3.2,5.8,6.6,6.6c4.6,1,9.2-1.9,10.2-6.6
			c2-9.3,2.6-18.5,2.9-27.8c0.3-9.3,0.5-18.6,0.5-27.8c-0.1-9.3-0.3-18.6-0.6-27.9C572.7,942.1,572,932.8,570.3,923.5z"/>
		<path style="fill:#FFFFFF;" d="M490.8,923.5c-0.6-3.4-3.3-6.3-6.9-6.9c-4.6-0.8-9.1,2.2-9.9,6.9c-1.7,9.3-2.3,18.6-2.7,27.8
			c-0.3,9.3-0.6,18.6-0.6,27.9c0,9.3,0.2,18.5,0.5,27.8c0.3,9.3,0.8,18.5,2.9,27.8c0.7,3.2,3.2,5.8,6.6,6.6c4.6,1,9.2-1.9,10.3-6.6
			c2-9.3,2.6-18.5,2.9-27.8c0.3-9.3,0.5-18.6,0.4-27.8c-0.1-9.3-0.3-18.6-0.6-27.9C493.1,942.1,492.5,932.8,490.8,923.5z"/>
		<path style="fill:#FFFFFF;" d="M427.3,1903.3c-7.8-1.2-15.6-1.8-23.4-2.2c-7.8-0.4-15.6-0.6-23.4-0.6c-7.8,0.1-15.6,0.2-23.4,0.6
			c-7.8,0.4-15.6,1-23.4,2.2c-3.6,0.5-6.6,3.4-7.2,7.2c-0.7,4.7,2.5,9,7.2,9.7c7.8,1.2,15.6,1.8,23.4,2.2c7.8,0.4,15.6,0.6,23.4,0.6
			c7.8-0.1,15.6-0.2,23.4-0.6c7.8-0.4,15.6-1,23.4-2.2c3.6-0.5,6.6-3.4,7.2-7.2C435.2,1908.3,432,1904,427.3,1903.3z"/>
		<path style="fill:#FFFFFF;" d="M333.8,1986.4c7.8,1.1,15.6,1.7,23.4,2.1c7.8,0.4,15.6,0.6,23.4,0.7c7.8,0,15.6-0.1,23.4-0.6
			c7.8-0.4,15.6-1,23.4-2.2c3.6-0.5,6.5-3.3,7.1-7.1c0.7-4.7-2.5-9-7.1-9.7c-7.8-1.2-15.6-1.8-23.4-2.2c-7.8-0.4-15.6-0.6-23.4-0.6
			c-7.8,0.1-15.6,0.2-23.4,0.6c-7.8,0.4-15.6,1-23.4,2.1c-3.6,0.5-6.7,3.4-7.2,7.2C325.9,1981.5,329.1,1985.8,333.8,1986.4z"/>
		<path style="fill:#FFFFFF;" d="M333.8,2052.8c7.8,1.1,15.6,1.7,23.4,2.1c7.8,0.4,15.6,0.6,23.4,0.6c7.8,0,15.6-0.1,23.4-0.6
			c7.8-0.4,15.6-1,23.4-2.2c3.6-0.6,6.5-3.4,7.1-7.1c0.7-4.7-2.5-9-7.1-9.7c-7.8-1.2-15.6-1.9-23.4-2.2c-7.8-0.4-15.6-0.6-23.4-0.6
			c-7.8,0.1-15.6,0.2-23.4,0.7c-7.8,0.4-15.6,1-23.4,2.1c-3.6,0.5-6.7,3.4-7.2,7.2C325.9,2047.8,329.1,2052.1,333.8,2052.8z"/>
		<path style="fill:#FFFFFF;" d="M427.3,2102.3c-7.8-1.2-15.6-1.8-23.4-2.2c-3.9-0.3-7.8-0.3-11.7-0.5l-11.7-0.1
			c-7.8,0.1-15.6,0.2-23.4,0.6c-7.8,0.4-15.6,1-23.4,2.2c-3.6,0.5-6.6,3.4-7.2,7.2c-0.7,4.7,2.6,9,7.2,9.6
			c7.8,1.1,15.6,1.7,23.4,2.1c7.8,0.4,15.6,0.6,23.4,0.6l11.7-0.1c3.9-0.2,7.8-0.2,11.7-0.5c7.8-0.4,15.6-1,23.4-2.2
			c3.6-0.6,6.6-3.4,7.1-7.1C435.2,2107.4,432,2103,427.3,2102.3z"/>
		<circle style="fill:#FFFFFF;" cx="2652.2" cy="1910.5" r="14"/>
		<circle style="fill:#FFFFFF;" cx="2652.2" cy="1963.3" r="14"/>
		<path style="fill:#FFFFFF;" d="M2527.1,1351.2c9.2-7.2,17.9-14.8,26.6-22.6c8.7-7.7,17.1-15.6,25.5-23.6l12.5-12.1
			c4.1-4.1,8.2-8.2,12.2-12.4c8.1-8.3,16-16.8,23.6-25.7c2.6-3,2.7-7.5,0.2-10.7c-2.9-3.7-8.2-4.3-11.9-1.5
			c-9.2,7.2-18,14.8-26.6,22.5c-4.3,3.8-8.6,7.8-12.8,11.7l-12.6,11.9c-8.3,8.1-16.6,16.2-24.7,24.6c-8.1,8.3-16,16.8-23.6,25.6
			c-2.6,3-2.8,7.5-0.2,10.7C2518.1,1353.5,2523.4,1354.1,2527.1,1351.2z"/>
		<path style="fill:#FFFFFF;" d="M2600.5,1396.6c-5-0.4-10-0.6-15-0.6c-5,0-10,0.2-15,0.6c-5,0.4-10,1-15,2.2
			c-3.1,0.7-5.7,3.1-6.5,6.5c-1.1,4.7,1.9,9.3,6.5,10.4c5,1.2,10,1.7,15,2.2s10,0.6,15,0.6s10-0.2,15-0.6c5-0.4,10-1,15-2.2
			c3.1-0.7,5.7-3.1,6.4-6.4c1.1-4.7-1.8-9.3-6.4-10.4C2610.5,1397.7,2605.5,1397,2600.5,1396.6z"/>
		<path style="fill:#FFFFFF;" d="M2518.3,2459.1c4.2-0.3,7.7-3.6,8-8c0.3-4.7-3.3-8.6-8-8.9c-41.2-2.2-82.3-2.7-123.4-2.8
			c-20.6,0-41.2,0.2-61.7,0.6c-20.6,0.4-41.2,1.1-61.8,2.2c-4.2,0.2-7.7,3.6-8,8c-0.2,4.6,3.3,8.6,8,8.9c20.6,1.1,41.2,1.8,61.8,2.2
			c20.6,0.4,41.1,0.6,61.7,0.6C2435.9,2461.8,2477.1,2461.2,2518.3,2459.1z"/>
		<path style="fill:#FFFFFF;" d="M2271.3,2156.5c20.6,1.1,41.2,1.8,61.8,2.2c20.6,0.4,41.1,0.6,61.7,0.6
			c41.1-0.1,82.3-0.6,123.4-2.8c4.2-0.2,7.7-3.6,8-8c0.3-4.7-3.3-8.6-8-8.9c-41.2-2.2-82.3-2.7-123.4-2.8
			c-20.6,0.1-41.2,0.2-61.7,0.6c-20.6,0.4-41.2,1.1-61.8,2.2c-4.2,0.3-7.7,3.6-8,8C2263.2,2152.3,2266.7,2156.3,2271.3,2156.5z"/>
		<path style="fill:#FFFFFF;" d="M2518.4,2518.7c-12.7-1.2-25.4-1.8-38.1-2.2c-12.7-0.4-25.4-0.6-38.1-0.6
			c-12.7,0.1-25.4,0.2-38.1,0.6c-12.7,0.4-25.4,1-38.1,2.2c-4,0.4-7.3,3.5-7.7,7.7c-0.4,4.6,3,8.8,7.7,9.2
			c12.7,1.2,25.4,1.8,38.1,2.2c12.7,0.4,25.4,0.6,38.1,0.6c12.7,0,25.4-0.2,38.1-0.6c12.7-0.4,25.4-1,38.1-2.2
			c4-0.4,7.3-3.5,7.6-7.6C2526.5,2523.2,2523.1,2519.1,2518.4,2518.7z"/>
		<path style="fill:#FFFFFF;" d="M2461.1,2311c9.5-0.1,19.1-0.2,28.6-0.6c9.5-0.4,19.1-1,28.6-2.2c3.8-0.5,6.9-3.4,7.4-7.4
			c0.6-4.7-2.7-8.9-7.4-9.4c-9.5-1.2-19.1-1.8-28.6-2.2c-9.5-0.4-19.1-0.6-28.6-0.6c-9.5,0-19.1,0.1-28.6,0.6
			c-9.5,0.4-19,1-28.6,2.2c-3.8,0.4-6.9,3.4-7.4,7.4c-0.6,4.6,2.7,8.9,7.4,9.4c9.5,1.1,19.1,1.8,28.6,2.2
			C2442.1,2310.8,2451.6,2311,2461.1,2311z"/>
		<path style="fill:#FFFFFF;" d="M2484.9,2061.1c-5.5,0-11.1,0.2-16.6,0.7c-5.6,0.4-11.1,1-16.7,2.1c-3.3,0.7-6.1,3.3-6.8,6.8
			c-0.9,4.6,2.1,9.1,6.8,10.1c5.5,1.1,11.1,1.7,16.7,2.1c5.5,0.4,11.1,0.6,16.6,0.7c5.6,0.1,11.1-0.1,16.7-0.5
			c5.5-0.4,11.1-1,16.7-2.3c3.2-0.7,5.8-3.2,6.6-6.6c1-4.6-1.9-9.2-6.6-10.3c-5.5-1.2-11.1-1.8-16.7-2.3
			C2496,2061.3,2490.5,2061.1,2484.9,2061.1z"/>
		<path style="fill:#FFFFFF;" d="M2271.3,2004.9c17.6,1.1,35.1,1.8,52.7,2.2c17.6,0.4,35.1,0.6,52.7,0.6
			c35.1-0.1,70.2-0.6,105.4-2.8c4.2-0.3,7.6-3.6,7.9-7.9c0.3-4.7-3.3-8.7-7.9-8.9c-35.1-2.2-70.2-2.7-105.4-2.8
			c-17.6,0-35.1,0.2-52.7,0.6c-17.6,0.4-35.1,1.1-52.7,2.2c-4.2,0.3-7.6,3.6-7.9,7.9C2263.2,2000.6,2266.7,2004.6,2271.3,2004.9z"/>
		<path style="fill:#FFFFFF;" d="M2442.3,2232.4c4.1-0.3,7.4-3.5,7.7-7.7c0.4-4.7-3.1-8.7-7.7-9.1c-14.2-1.1-28.5-1.7-42.7-2.2
			c-14.2-0.4-28.5-0.6-42.7-0.6c-14.2,0-28.5,0.1-42.7,0.6c-14.2,0.4-28.5,1-42.7,2.2c-4,0.3-7.4,3.6-7.7,7.7
			c-0.4,4.6,3.1,8.7,7.7,9.1c14.3,1.2,28.5,1.8,42.7,2.2c14.3,0.4,28.5,0.6,42.7,0.6c14.3-0.1,28.5-0.2,42.7-0.6
			C2413.8,2234.1,2428,2233.5,2442.3,2232.4z"/>
		<path style="fill:#FFFFFF;" d="M2271.3,2384c11.1,1.2,22.1,1.8,33.2,2.2c11,0.4,22.1,0.6,33.1,0.6c11.1-0.1,22.1-0.2,33.1-0.6
			c11.1-0.4,22.1-1,33.2-2.2c3.9-0.4,7.1-3.5,7.5-7.5c0.5-4.7-2.9-8.8-7.5-9.3c-11.1-1.1-22.1-1.8-33.2-2.2
			c-11-0.4-22.1-0.6-33.1-0.6c-11,0-22.1,0.2-33.1,0.6c-11.1,0.4-22.1,1-33.2,2.2c-3.9,0.4-7.1,3.5-7.5,7.5
			C2263.4,2379.4,2266.7,2383.5,2271.3,2384z"/>
		<path style="fill:#FFFFFF;" d="M2370.8,2061.7c-5.5-0.3-11-0.3-16.6-0.5l-16.6-0.1c-11,0.1-22.1,0.2-33.1,0.6
			c-11.1,0.4-22.1,1-33.2,2.2c-3.9,0.4-7.1,3.5-7.5,7.5c-0.5,4.7,2.9,8.8,7.5,9.3c11.1,1.1,22.1,1.7,33.2,2.2
			c11,0.4,22.1,0.6,33.1,0.6l16.6-0.1c5.5-0.2,11-0.2,16.6-0.5c11.1-0.4,22.1-1,33.2-2.2c3.9-0.4,7.1-3.5,7.5-7.5
			c0.5-4.6-2.9-8.8-7.5-9.3C2392.9,2062.7,2381.9,2062.1,2370.8,2061.7z"/>
		<path style="fill:#FFFFFF;" d="M2337.9,2289.2c-7.4-0.4-14.8-0.6-22.2-0.6c-7.4,0-14.8,0.1-22.2,0.6c-7.4,0.4-14.8,1-22.2,2.2
			c-3.5,0.6-6.5,3.3-7.1,7.1c-0.7,4.7,2.4,9,7.1,9.8c7.4,1.1,14.8,1.8,22.2,2.2c7.4,0.4,14.8,0.6,22.2,0.6
			c7.4-0.1,14.8-0.2,22.2-0.6c7.4-0.4,14.8-1,22.2-2.2c3.6-0.6,6.5-3.4,7.1-7.1c0.7-4.6-2.4-9-7.1-9.7
			C2352.7,2290.2,2345.3,2289.6,2337.9,2289.2z"/>
		<path style="fill:#FFFFFF;" d="M2320.3,2518.1c-4.1-1.2-8.2-1.8-12.2-2.2c-4.1-0.4-8.2-0.6-12.2-0.6c-4.1,0-8.2,0.2-12.2,0.6
			c-4.1,0.4-8.2,1-12.2,2.2c-2.8,0.8-5.2,3-6,6c-1.3,4.7,1.4,9.5,6,10.8c4.1,1.1,8.2,1.8,12.2,2.2c4.1,0.4,8.2,0.6,12.2,0.6
			c4.1,0,8.2-0.2,12.2-0.6c4.1-0.4,8.2-1,12.2-2.2c2.8-0.8,5.1-3,6-6C2327.6,2524.3,2324.9,2519.4,2320.3,2518.1z"/>
		<path style="fill:#FFFFFF;" d="M2449,1311.9c0.8,3,3.1,5.4,6.3,6.3c4.7,1.2,9.4-1.6,10.6-6.3c1.3-5,1.9-10,2.3-15
			c0.4-5,0.5-10,0.5-15c-0.1-5-0.3-10-0.7-15c-0.4-5-1-10-2.1-15c-0.7-3.2-3.2-5.9-6.6-6.6c-4.6-1-9.2,1.9-10.2,6.6
			c-1.1,5-1.7,10-2.1,15c-0.4,5-0.6,10-0.7,15c-0.1,5,0.1,10,0.5,15C2447.1,1301.9,2447.7,1306.9,2449,1311.9z"/>
		<path style="fill:#FFFFFF;" d="M2015.9,847.1c-7.9,15.4-12.3,32.4-13.7,49.4c-1.3,17,0.3,34,4.2,50.3c3.9,16.3,9.8,31.9,17.5,46.5
			c7.7,14.5,17.3,28,28.3,39.8c2.6,2.8,7,3.6,10.5,1.5c4-2.3,5.4-7.5,3-11.6l-0.1-0.1c-7.8-13.3-15.3-26.3-21.8-39.8
			c-3.3-6.7-6.2-13.6-8.9-20.5c-2.6-6.9-4.7-14-6.4-21.2c-3.4-14.3-4.7-28.9-3.6-43.2c1.1-14.3,4.9-28.3,11.4-40.8
			c6.4-12.6,15.5-23.7,26.5-32.4c11-8.7,24-15,37.7-18.6c11.5-3,23.6-4.1,35.6-3.5c3.8,0.2,6.8,3.4,6.6,7.3c0,0.8-0.1,1.5-0.1,2.1
			c-0.8,34.5,11.6,67.7,29.1,95.4c4.3,6.9,8.9,13.7,13.8,20.3c4.9,6.6,10,13,15.7,19.2c11.2,12.3,23.8,23.7,39.2,32.3
			c7.7,4.3,16.2,7.8,25.5,9.6c9.3,1.9,19.8,1.7,29.9-2.2c5-1.9,9.7-4.9,13.7-8.7c4-3.8,7.1-8.2,9.4-13c4.6-9.5,5.7-19.6,5.1-28.9
			c-1.3-18.7-8.5-35-17.3-49.5c-8.9-14.5-19.7-27.2-31.4-38.7c-5.8-5.8-11.9-11.3-18.2-16.5c-6.3-5.2-12.7-10.1-19.5-14.9
			c-6.7-4.7-13.7-9.1-20.9-13.2c-7.3-4-14.8-7.6-22.5-10.8c-5.5-2.2-11-4.2-16.7-5.9c-3.8-1.2-5.9-5.3-4.5-9
			c0.8-2.1,1.6-4.2,2.5-6.3c5.6-12.9,13.9-24.6,24.3-34.2c17.3-16.1,40.2-26.2,63.8-28.6c3.4-0.4,6.5,1.9,7.1,5.2
			c2.8,14.9,8.7,28.7,16.2,41.2c4.4,7.2,9.3,14.1,14.7,20.5c5.3,6.4,11.3,12.7,18.1,18.2c6.8,5.5,14.3,10.5,22.8,14
			c8.5,3.5,18.1,5.8,28.5,4.8c5.2-0.5,10.5-1.9,15.5-4.6c5-2.7,9.6-6.7,12.9-11.8c3.3-5,5-10.9,5.4-16.4c0.4-5.6-0.4-10.9-1.8-15.8
			c-2.9-9.7-7.9-17.6-13.6-24.5c-2.8-3.5-5.8-6.6-9-9.6c-3.1-2.9-6.1-5.7-9.4-8.4c-12.8-10.7-27.3-19.9-43-26.4
			c-9.3-3.8-19.1-6.7-29.1-8.5c-3.8-0.7-6.1-4.6-5-8.3c1.3-4.4,3.2-8.6,5.6-12.5c6.8-10.9,17.9-18.4,30.8-22.1
			c12.9-3.8,27.4-3.9,41.9-1.9h0.1c4,0.5,7.8-1.8,9.1-5.7c1.5-4.4-0.9-9.2-5.3-10.7c-15.9-5.3-33.8-7-51.4-2.8
			c-8.8,2-17.3,5.8-25,11.1c-7.6,5.3-14.2,12.2-19.2,20.1c-2.5,3.9-4.6,8.1-6.3,12.4c-1.7,4.3-3,8.8-3.9,13.2
			c-0.6,3-3.1,5.2-6.1,5.4c-29.7,2.3-58.6,14.4-80.7,34.8c-12.7,11.7-23.1,26.1-30,42c-1.5,3.3-2.8,6.7-3.9,10.2
			c-1.6,4.8-6.3,7.9-11.4,7.7c-10.1-0.5-27.3-0.4-43.7,4.2c-16.6,4.7-32.6,12.1-46.1,23C2034.9,817.8,2023.7,831.6,2015.9,847.1z
			 M2303.4,711.8c19.2,4.9,37.4,14.8,53,27.9c2.8,2.3,5.6,4.9,8.2,7.3c2.6,2.4,4.9,5,7.1,7.6c4.3,5.2,7.7,10.9,9.3,16.3
			c1.6,5.4,1.1,10.2-0.9,13.2c-1.9,3.1-5.9,5.4-11.3,5.9c-5.3,0.5-11.5-0.7-17.4-3.2c-6-2.5-11.8-6.1-17.2-10.5
			c-5.4-4.4-10.3-9.5-15-15.1c-4.7-5.6-9-11.6-12.7-17.7c-4.5-7.5-8.3-15.3-10.8-23.4C2294,715.2,2298.4,710.6,2303.4,711.8z
			 M2166.5,817.4c0-4.7,4.7-8,9.1-6.5c3.3,1.1,6.5,2.3,9.8,3.6c6.8,2.8,13.4,6.1,19.9,9.7c6.4,3.7,12.8,7.6,18.9,11.9
			c6.1,4.3,12.1,8.9,17.9,13.8c5.8,4.8,11.4,9.9,16.7,15.2c10.7,10.5,20.3,21.9,27.8,34.3c7.5,12.3,13,25.8,13.7,38.5
			c0.4,6.3-0.5,12.3-2.8,17.1c-2.3,4.7-5.8,8-10.4,9.8c-4.6,1.8-10.5,2.2-16.6,0.9c-6.1-1.2-12.4-3.7-18.4-7
			c-12.1-6.8-23.1-16.6-33-27.5c-5-5.5-9.6-11.3-14.1-17.3c-4.5-6-8.7-12.3-12.6-18.7c-4.1-6.4-7.6-12.8-10.8-19.4
			c-3.3-6.6-5.1-13.7-8.2-20.3C2167.4,842.8,2166.4,827.1,2166.5,817.4z"/>
		<path style="fill:#FFFFFF;" d="M2139.8,1195.4h-45.3c-0.1,0-0.2,0-0.3,0h-344.5h-14.4c-21.2,0-38.5,17.3-38.5,38.5v41.8
			c0,21.2,17.3,38.5,38.5,38.5h14.4v0h344.5c0,0,0.1,0,0.1,0h45.4c21.2,0,38.5-17.3,38.5-38.5v-41.8
			C2178.3,1212.6,2161,1195.4,2139.8,1195.4z M2112.5,1273.4c0,10-8.1,18.2-18.1,18.3h-359.1c-8.8,0-16-7.2-16-16v-41.8
			c0-8.8,7.2-16,16-16h359.2c10,0.1,18,8.3,18,18.3V1273.4z"/>
		<path style="fill:#FFFFFF;" d="M2064.7,1247.1c-49.7-2.2-99.3-2.7-149-2.8c-24.8,0-49.7,0.1-74.5,0.6c-24.8,0.4-49.7,1.1-74.5,2.2
			c-4.3,0.2-7.8,3.6-8,8c-0.2,4.7,3.4,8.6,8,8.8c24.9,1.1,49.7,1.8,74.5,2.2c24.9,0.4,49.7,0.6,74.5,0.6c49.7-0.1,99.3-0.6,149-2.8
			c4.3-0.2,7.9-3.7,8-8.1C2072.9,1251.3,2069.3,1247.3,2064.7,1247.1z"/>
		<path style="fill:#FFFFFF;" d="M1950.3,517.6c9.2-7.2,18-14.8,26.6-22.5c4.3-3.8,8.6-7.8,12.8-11.7l12.6-11.9
			c8.3-8.1,16.6-16.2,24.7-24.6c8.1-8.3,16-16.8,23.6-25.6c2.6-3,2.7-7.5,0.2-10.7c-2.9-3.7-8.2-4.3-11.9-1.4
			c-9.1,7.2-17.9,14.8-26.6,22.6c-8.7,7.7-17.1,15.6-25.5,23.6l-12.5,12.1c-4.1,4.1-8.2,8.2-12.2,12.4c-8.1,8.3-16,16.8-23.5,25.7
			c-2.6,3-2.7,7.5-0.2,10.7C1941.3,519.8,1946.6,520.5,1950.3,517.6z"/>
		<path style="fill:#FFFFFF;" d="M2023.7,584.3c5-0.4,10-1,15-2.2c3-0.8,5.6-3.1,6.4-6.4c1.1-4.7-1.7-9.3-6.4-10.5
			c-5-1.2-10-1.9-15-2.3s-10-0.6-15-0.5c-5,0.1-10,0.3-15,0.7s-10,1-15,2.1c-3.2,0.7-5.8,3.2-6.5,6.5c-1,4.7,1.9,9.3,6.5,10.3
			c5,1.1,10,1.7,15,2.1c5,0.4,10,0.6,15,0.7C2013.7,584.9,2018.7,584.7,2023.7,584.3z"/>
		<path style="fill:#FFFFFF;" d="M1872.2,478.3c0.8,3,3.1,5.5,6.3,6.3c4.7,1.2,9.4-1.7,10.5-6.3c1.3-5,1.9-10,2.3-15
			c0.4-5,0.6-10,0.5-15c-0.1-5-0.3-10-0.7-15c-0.4-5-1-10-2.1-15c-0.7-3.2-3.2-5.9-6.6-6.6c-4.7-1-9.2,1.9-10.2,6.6
			c-1.1,5-1.7,10-2.1,15c-0.4,5-0.6,10-0.7,15c-0.1,5,0.1,10,0.5,15C1870.3,468.3,1870.9,473.3,1872.2,478.3z"/>
		<path style="fill:#FFFFFF;" d="M1769.1,1492.7h-486.4c-17,0-30.9,13.9-30.9,30.9v425.3c0,17,13.8,30.9,30.9,30.9h486.4
			c17,0,30.9-13.9,30.9-30.9v-425.3C1800,1506.5,1786.1,1492.7,1769.1,1492.7z M1490.2,1751.4c0.4-4.8,4-8.6,8.6-9.5l0.7-0.1
			c7.5-1.4,13.7-5.5,17.7-10.9c2-2.7,3.5-5.7,4.3-8.8c0.4-1.6,0.6-3.2,0.8-4.8l0.1-2.4l0-3.8c0-10.4,0.4-20.7,1-31.1
			c0.6-10.4,1.5-20.7,2.9-31c0.8-5.8,6.1-9.9,12-9.1c4.8,0.6,8.4,4.5,9.1,9.1c1.4,10.4,2.3,20.7,2.9,31c0.6,10.4,1.1,20.7,1,31.1
			l-0.1,4c-0.1,1.8-0.1,3.6-0.4,5.4c-0.5,3.5-1.3,7-2.6,10.4c-2.4,6.7-6.3,12.8-11.2,17.8c-4.9,5-10.8,8.9-17.2,11.4
			c-6.4,2.5-13.3,3.5-19.9,2.9C1494.1,1762.3,1489.7,1757.2,1490.2,1751.4z M1334.4,1595.8c0.1-4.9,1.1-9.8,3-14.4
			c1.9-4.6,4.8-8.7,8.2-12.3c7-7,16.9-11.2,26.7-11.2c1.4,0,2,0,2.8,0l2.4,0.1l4.7,0.2l9.5,0.4c12.6,0.7,25.2,1.5,37.8,2.8
			c5.8,0.6,10,5.8,9.5,11.6c-0.5,5.1-4.6,8.9-9.5,9.4c-12.6,1.3-25.2,2.2-37.8,2.8l-18.5,0.8c-2.8,0.3-5.2,1.5-7.2,3.4
			c-2,1.9-3.3,4.4-3.5,7.2l-0.9,18.4c-0.7,12.6-1.5,25.2-2.7,37.8c-0.6,5.8-5.8,10.1-11.6,9.5c-5.1-0.5-9-4.5-9.5-9.5
			c-1.2-12.6-2-25.2-2.7-37.8l-0.4-9.4l-0.2-4.7l-0.1-2.4l0-1.2C1334.3,1597.2,1334.4,1596.3,1334.4,1595.8z M1437.8,1676.9
			c-0.5,3.5-1.3,7.1-3,10.6c-2.9,5.8-9.9,8.2-15.7,5.3c-2.4-1.2-4.2-3.1-5.3-5.3c-1.8-3.5-2.6-7.1-3.1-10.6c-0.5-3.5-0.5-7-0.4-10.6
			c0.1-3.5,0.4-7.1,1-10.6c0.6-3.5,1.2-7.1,2.5-10.6c2-5.8,8.4-8.8,14.2-6.8c3.3,1.2,5.7,3.8,6.8,6.8c1.2,3.5,1.9,7.1,2.5,10.6
			c0.5,3.5,0.8,7,1,10.6S1438.3,1673.4,1437.8,1676.9z M1438.9,1901.4c-0.5,5.1-4.6,9-9.5,9.5c-12.6,1.2-25.2,2-37.8,2.7l-9.5,0.4
			l-4.7,0.2l-2.4,0.1c-0.8,0-1.4,0.1-2.8,0c-4.9-0.1-9.8-1-14.4-2.9c-4.6-1.9-8.8-4.7-12.3-8.2c-3.5-3.5-6.3-7.7-8.2-12.3
			c-1.9-4.6-2.9-9.5-3-14.4c0-0.6,0-1.4,0-1.7l0-1.2l0.1-2.4l0.2-4.7l0.4-9.5c0.7-12.6,1.5-25.2,2.7-37.8c0.6-5.8,5.8-10.1,11.6-9.5
			c5.1,0.5,9,4.5,9.5,9.5c1.2,12.6,2,25.2,2.7,37.8l0.9,18.4c0.3,2.8,1.6,5.3,3.5,7.2c1.9,1.9,4.4,3.2,7.2,3.5l18.5,0.9
			c12.6,0.7,25.2,1.5,37.8,2.7C1435.3,1890.4,1439.5,1895.6,1438.9,1901.4z M1575,1839.6c-7.9,4.1-16.4,7.3-25.1,9.5
			c-8.8,2.1-17.8,3.2-26.7,3.2c-9-0.1-18-1.1-26.7-3.3c-8.7-2.2-17.2-5.4-25.1-9.5c-15.8-8.3-29.5-20.8-38.2-36
			c-2.9-5.1-1.2-11.6,4-14.5c4.1-2.4,9.1-1.6,12.5,1.4l0.3,0.3c5.2,4.9,10.6,9.4,16.2,13.4c5.7,3.9,11.6,7.4,17.8,10.2
			c6.1,2.9,12.6,5,19.2,6.4c6.6,1.4,13.4,2.2,20.1,2.1c13.5,0,27-2.9,39.3-8.6c12.3-5.8,23.4-13.9,34.1-23.5l0.3-0.3
			c4.3-3.9,11.1-3.6,15,0.8c3.1,3.5,3.5,8.4,1.4,12.2C1604.8,1819,1590.9,1831.4,1575,1839.6z M1606.9,1666.3
			c0.1-3.5,0.4-7.1,0.9-10.6c0.6-3.5,1.2-7.1,2.6-10.6c2.2-5.8,8.6-8.8,14.4-6.6c3.2,1.2,5.5,3.7,6.6,6.6c1.3,3.5,2,7.1,2.6,10.6
			c0.5,3.5,0.8,7,0.9,10.6c0.1,3.5,0,7.1-0.5,10.6c-0.6,3.5-1.3,7.1-3,10.6c-2.7,5.8-9.7,8.3-15.5,5.5c-2.6-1.2-4.5-3.2-5.6-5.5
			c-1.7-3.5-2.4-7.1-3-10.6C1606.9,1673.4,1606.8,1669.9,1606.9,1666.3z M1710.8,1879.2c-0.1,4.9-1,9.8-2.9,14.4
			c-1.9,4.6-4.7,8.8-8.2,12.3c-3.5,3.5-7.7,6.3-12.3,8.2c-4.6,1.9-9.5,2.9-14.4,3c-0.6,0-1.3,0-1.7,0l-1.2,0l-2.4-0.1l-4.7-0.2
			l-9.5-0.4c-12.6-0.7-25.2-1.5-37.8-2.7c-5.8-0.6-10-5.8-9.5-11.6c0.5-5.1,4.6-9,9.5-9.5c12.6-1.2,25.2-2,37.8-2.7l18.4-0.9
			c2.8-0.3,5.3-1.6,7.2-3.5c1.9-1.9,3.2-4.4,3.5-7.2l0.9-18.5c0.7-12.6,1.5-25.2,2.7-37.8c0.6-5.8,5.7-10.1,11.6-9.5
			c5.1,0.5,9,4.6,9.5,9.5c1.2,12.6,2,25.2,2.7,37.8l0.4,9.5l0.2,4.7l0.1,2.4C1710.8,1877.1,1710.8,1877.7,1710.8,1879.2z
			 M1710.8,1596.1l-0.1,2.4l-0.2,4.7l-0.4,9.5c-0.7,12.6-1.5,25.2-2.7,37.8c-0.6,5.8-5.7,10-11.5,9.5c-5.1-0.5-9-4.6-9.5-9.5
			c-1.2-12.6-2-25.2-2.7-37.8l-0.9-18.5c-0.3-2.8-1.6-5.3-3.5-7.2c-1.9-2-4.4-3.2-7.2-3.5l-18.4-0.9c-12.6-0.7-25.2-1.5-37.8-2.7
			c-5.8-0.6-10-5.7-9.5-11.5c0.5-5.1,4.6-9,9.5-9.5c12.6-1.2,25.2-2,37.8-2.7l9.5-0.4l4.7-0.2l2.4-0.1l1.2-0.1c0.3,0,1.1,0,1.7,0
			c4.9,0.1,9.8,1.1,14.4,3c4.6,2,8.8,4.8,12.3,8.2c3.5,3.5,6.3,7.7,8.2,12.3c1.9,4.6,2.9,9.5,2.9,14.4
			C1710.8,1594.7,1710.8,1595.2,1710.8,1596.1z"/>
		<path style="fill:#FFFFFF;" d="M1768.1,2075.3h-216.3c-17,0-30.8,13.8-30.8,30.8c0,16.9,13.8,30.7,30.8,30.7h88.5
			c0.1,0,0.1,0,0.1,0H1768c8.2,0,16-3.2,21.8-9c5.8-5.8,9-13.5,9-21.7C1798.8,2089.1,1785,2075.3,1768.1,2075.3z"/>
		<path style="fill:#FFFFFF;" d="M1725.1,2347.4c1.7,1,3.7,1.5,5.6,1.5s3.9-0.5,5.6-1.5l48.7-28.1c3.5-2,5.6-5.7,5.6-9.7
			s-2.1-7.7-5.6-9.7l-48.7-28.1c-3.5-2-7.7-2-11.2,0c-3.5,2-5.6,5.7-5.6,9.7v56.3C1719.5,2341.7,1721.6,2345.4,1725.1,2347.4z"/>
		<path style="fill:#FFFFFF;" d="M1274.1,1025.3h443.7c17-0.1,30.8-13.9,30.8-30.9V678.9c0-17-13.8-30.8-30.8-30.9h-443.7
			c-17,0-30.9,13.8-30.9,30.9v315.6C1243.3,1011.5,1257.1,1025.3,1274.1,1025.3z M1670.8,893.1c-2.5,3.4-61.8,84.7-174.9,84.7
			c-113.1,0-172.4-81.3-174.9-84.7c-2.8-3.9-2.8-9.2,0-13c2.5-3.5,61.9-84.8,174.9-84.8c113.1,0,172.5,81.3,174.9,84.8
			C1673.6,883.9,1673.6,889.2,1670.8,893.1z M1633.8,790.7c3.7-8.3,7.8-16.3,12.2-24.2c4.4-7.9,8.9-15.6,13.7-23.3
			c4.8-7.6,9.6-15.2,14.7-22.6c5-7.4,10.3-14.8,15.9-21.9c2.9-3.7,8.3-4.3,11.9-1.3c3.1,2.5,4,6.7,2.4,10.1
			c-3.8,8.3-8,16.2-12.3,24.1c-4.3,7.9-8.9,15.7-13.6,23.3c-4.7,7.7-9.5,15.3-14.6,22.7c-5,7.5-10.3,14.8-16,21.8
			c-3,3.6-8.3,4.2-12,1.2C1633.1,798.3,1632.3,794.1,1633.8,790.7z M1567.7,743.9c1-5.2,2.3-10.2,3.7-15.3c1.5-5,3-10,4.9-15
			c1.8-4.9,3.8-9.8,6.2-14.6c2.2-4.2,7.4-5.9,11.6-3.7c3.1,1.6,4.9,4.9,4.7,8.2c-0.3,5.3-1.2,10.6-2.2,15.7
			c-1,5.2-2.2,10.2-3.5,15.3c-1.3,5-2.9,10-4.6,15c-1.8,4.9-3.8,9.8-6.4,14.5c-2.3,4.2-7.6,5.7-11.8,3.4c-2.9-1.6-4.6-4.7-4.5-7.9
			C1565.9,754.2,1566.7,749,1567.7,743.9z M1485.6,728.2c0-4.4,0.3-8.8,0.7-13.2c0.4-4.4,1-8.8,2-13.2c1.1-4.7,5.7-7.5,10.3-6.5
			c3.3,0.8,5.8,3.4,6.5,6.5c1,4.4,1.5,8.8,2,13.2c0.4,4.4,0.7,8.8,0.8,13.2c0.1,4.4,0.1,8.8-0.3,13.2c-0.5,4.4-1,8.8-2.4,13.2
			c-1.5,4.6-6.5,7.2-11.1,5.7c-2.8-0.9-4.9-3.1-5.7-5.7c-1.4-4.4-2-8.8-2.4-13.2C1485.4,736.9,1485.4,732.6,1485.6,728.2z
			 M1402.8,694.5c3.5-0.3,6.7,1.7,8.2,4.6c2.4,4.8,4.4,9.7,6.2,14.6c1.8,4.9,3.4,9.9,4.9,15c1.5,5,2.7,10.1,3.7,15.3
			c1,5.2,1.8,10.3,2,15.7c0.2,4.8-3.6,8.8-8.4,8.9c-3.4,0.1-6.3-1.7-7.8-4.5c-2.6-4.7-4.6-9.6-6.4-14.5c-1.7-5-3.3-10-4.7-15
			c-1.3-5.1-2.5-10.2-3.5-15.3c-1-5.2-1.8-10.4-2.2-15.7C1394.4,698.8,1398,694.8,1402.8,694.5z M1293,696.3
			c3.6-1.7,7.8-0.5,10.2,2.4c5.7,7.1,10.9,14.5,15.9,21.9s9.9,15,14.7,22.6c4.7,7.7,9.3,15.4,13.7,23.3c4.4,7.9,8.5,15.9,12.2,24.2
			c1.9,4.3,0,9.3-4.3,11.2c-3.6,1.6-7.7,0.5-10-2.4c-5.8-7-11-14.4-16.1-21.8c-5.1-7.4-9.9-15-14.6-22.7
			c-4.7-7.7-9.2-15.4-13.6-23.3c-4.3-7.9-8.6-15.9-12.3-24.1C1286.9,703.3,1288.8,698.2,1293,696.3z"/>
		<path style="fill:#FFFFFF;" d="M1588.3,840.6c-7.6-4-16.2,3.7-12.7,11.6c4.6,10.5,7.1,22.2,7.1,34.4c0,12.3-2.5,24-7.2,34.5
			c-3.4,7.9,5.1,15.6,12.7,11.6c20.9-11,36.9-24,47.7-34.3c6.7-6.4,6.7-17.2,0-23.6C1625.1,864.5,1609.1,851.5,1588.3,840.6z"/>
		<path style="fill:#FFFFFF;" d="M1495.9,872.2c-7.9,0-14.3,6.4-14.3,14.3c0,7.9,6.4,14.3,14.3,14.3c7.9,0,14.3-6.4,14.3-14.3
			C1510.2,878.6,1503.8,872.2,1495.9,872.2z"/>
		<path style="fill:#FFFFFF;" d="M1495.9,822.3c-35.4,0-64.3,28.8-64.3,64.3c0,35.5,28.8,64.3,64.3,64.3c35.5,0,64.3-28.8,64.3-64.3
			C1560.2,851.1,1531.4,822.3,1495.9,822.3z M1495.9,923.3c-20.3,0-36.8-16.5-36.8-36.8c0-20.3,16.5-36.7,36.8-36.7
			c20.3,0,36.7,16.5,36.7,36.7C1532.7,906.8,1516.2,923.3,1495.9,923.3z"/>
		<path style="fill:#FFFFFF;" d="M1403.7,840.4c-20.9,10.9-36.9,23.9-47.7,34.3c-6.7,6.4-6.7,17.2,0,23.6
			c10.8,10.3,26.8,23.3,47.6,34.2c7.6,4,16.2-3.7,12.7-11.6c-4.6-10.5-7.1-22.2-7.1-34.4c0-12.3,2.6-23.9,7.2-34.5
			C1419.8,844.1,1411.3,836.4,1403.7,840.4z"/>
		<path style="fill:#FFFFFF;" d="M1637.5,2348.9h15.7c6.2,0,11.2-5,11.2-11.2v-56.3c0-6.2-5-11.2-11.2-11.2h-15.7
			c-6.2,0-11.2,5-11.2,11.2v56.3C1626.3,2343.9,1631.4,2348.9,1637.5,2348.9z"/>
		<path style="fill:#FFFFFF;" d="M1582.7,2348.9h15.7c6.2,0,11.2-5,11.2-11.2v-56.3c0-6.2-5-11.2-11.2-11.2h-15.7
			c-6.2,0-11.2,5-11.2,11.2v56.3C1571.5,2343.9,1576.5,2348.9,1582.7,2348.9z"/>
		<path style="fill:#FFFFFF;" d="M1766.2,2452.2h-159c-18.1,0-32.9,14.8-32.9,32.9s14.8,32.9,32.9,32.9h159
			c18.1,0,32.9-14.8,32.9-32.9S1784.3,2452.2,1766.2,2452.2z M1766.2,2495.6h-159c-5.8,0-10.5-4.7-10.5-10.5s4.7-10.5,10.5-10.5h159
			c5.8,0,10.5,4.7,10.5,10.5S1771.9,2495.6,1766.2,2495.6z"/>
		<path style="fill:#FFFFFF;" d="M1500.3,2452.2h-159c-18.1,0-32.9,14.8-32.9,32.9s14.8,32.9,32.9,32.9h159
			c18.1,0,32.9-14.8,32.9-32.9S1518.4,2452.2,1500.3,2452.2z M1500.3,2495.6h-159c-5.8,0-10.5-4.7-10.5-10.5s4.7-10.5,10.5-10.5h159
			c5.8,0,10.5,4.7,10.5,10.5S1506,2495.6,1500.3,2495.6z"/>
		<path style="fill:#FFFFFF;" d="M1319.6,2289.8c15.8,1.1,31.7,1.8,47.5,2.2c15.8,0.4,31.7,0.6,47.5,0.6c31.7-0.1,63.4-0.6,95.1-2.8
			c4.2-0.3,7.5-3.6,7.9-7.8c0.3-4.7-3.2-8.7-7.9-9c-31.7-2.2-63.4-2.7-95.1-2.8c-15.8,0-31.7,0.2-47.5,0.6
			c-15.8,0.4-31.7,1.1-47.5,2.2c-4.2,0.3-7.5,3.6-7.9,7.8C1311.5,2285.4,1315,2289.5,1319.6,2289.8z"/>
		<path style="fill:#FFFFFF;" d="M1506.5,2329.2c-31.1-2.2-62.3-2.7-93.4-2.8c-15.6,0-31.1,0.2-46.7,0.6
			c-15.6,0.4-31.1,1.1-46.7,2.2c-4.2,0.3-7.5,3.6-7.8,7.8c-0.3,4.7,3.2,8.7,7.8,9c15.6,1.1,31.1,1.8,46.7,2.2
			c15.6,0.4,31.1,0.6,46.7,0.6c31.1-0.1,62.3-0.6,93.4-2.8c4.1-0.3,7.5-3.6,7.8-7.8C1514.6,2333.6,1511.1,2329.6,1506.5,2329.2z"/>
		<path style="fill:#FFFFFF;" d="M1270.1,1322.1h39c0,0,0.1,0,0.1,0c37.1,0,67.3-30.2,67.3-67.3s-30.2-67.3-67.3-67.3h-39.1
			c-37.1,0-67.3,30.2-67.3,67.3S1233,1322.1,1270.1,1322.1z M1352.9,1244.6c0.8,3.3,1.2,6.7,1.2,10.2c0,24.7-20.1,44.9-44.9,44.9
			h-0.1c-0.1,0-0.1,0-0.2,0c-8.2-0.1-12.6-9.8-7.5-16.2l33.9-42.8C1340.5,1234.1,1351,1236.5,1352.9,1244.6z M1265,1247.1
			c3.1-18.2,17.4-32.8,35.5-36.3c3.5-0.7,6.9-1,10.3-0.8c8.2,0.3,12.6,9.8,7.5,16.2l-34.9,44c-5.1,6.5-15.3,4.3-17.5-3.6
			C1264.2,1260.4,1263.8,1253.9,1265,1247.1z"/>
		<path style="fill:#FFFFFF;" d="M943.8,1668.5H617.3c-17,0-30.9,13.9-30.9,30.9v377.5c0,17,13.8,30.8,30.9,30.8h326.8
			c16.9-0.1,30.6-13.9,30.6-30.8v-377.5C974.6,1682.3,960.8,1668.5,943.8,1668.5z M672.8,1873.1l-0.1,23.8c0,8-0.2,16-0.3,24
			c-0.1,16-0.5,32-3.5,48.1c-0.9,4.6-5.4,7.7-10,6.8c-3.6-0.7-6.2-3.5-6.8-6.8c-3-16-3.3-32-3.5-48.1c-0.1-8-0.3-16-0.3-24l0-12v-6
			c0-2,0-3.9,0.1-6.2c0.2-8.8,1.3-17.6,3.3-26.2c2-8.6,4.9-16.9,8.6-24.9c7.3-15.9,18.2-30.3,32.2-40.4c3.8-2.8,9.1-1.9,11.8,1.9
			c2.3,3.1,2.1,7.3-0.2,10.2l-0.1,0.1c-9.3,11.8-17.3,24-22.9,37.4C675.7,1844.3,672.8,1858.6,672.8,1873.1z M717.9,1990.1
			c-0.5,2.4-1,4.7-2.2,7.1c-2.3,4.6-7.8,6.6-12.5,4.4c-2-1-3.5-2.5-4.4-4.4c-1.1-2.3-1.7-4.7-2.2-7.1c-0.4-2.3-0.6-4.7-0.6-7.1
			c0-2.3,0.1-4.7,0.6-7.1c0.4-2.4,1-4.7,2.3-7.1c2.4-4.7,8.1-6.5,12.7-4.1c1.8,0.9,3.2,2.4,4.1,4.1c1.2,2.4,1.8,4.7,2.2,7.1
			c0.4,2.3,0.6,4.7,0.6,7.1C718.5,1985.4,718.3,1987.8,717.9,1990.1z M728.7,1841.9c-3,4.9-5.4,10.2-7,15.7
			c-1.5,5.5-2.4,11.1-2.5,17.1l-0.4,20.6c-0.3,13.8-0.5,27.5-3.1,41.3c-0.9,4.6-5.3,7.7-10,6.9c-3.6-0.7-6.3-3.5-6.9-6.9
			c-2.6-13.8-2.8-27.5-3.1-41.3l-0.5-20.6c0-7.8,0.8-16,2.9-23.7c2.2-7.7,5.5-15.1,9.7-21.9c4.2-6.9,9.6-12.9,15.6-18.2
			c1.5-1.3,3-2.6,4.6-3.8c1.6-1.2,3.2-2.5,4.9-3.5l5.2-3l5.4-2.4c7.4-2.9,15.2-4.7,23-4.6c4.7,0.1,8.5,4,8.4,8.7
			c0,3.4-2.1,6.3-5,7.7l-0.6,0.3c-5.7,2.6-11.1,5.1-16.1,8.1c-5,2.9-9.7,6.4-13.9,10.3C735.3,1832.4,731.6,1836.9,728.7,1841.9z
			 M765.8,1994.8c-0.5,9.3-1.2,18.7-2.4,28c-0.6,4.6-4.8,8-9.4,7.4c-4-0.5-7-3.6-7.4-7.4c-1.1-9.3-1.9-18.7-2.4-28
			c-0.5-9.3-0.9-18.7-0.8-28c0.1-9.3,0.5-18.7,1-28c0.6-9.3,1.2-18.7,2.2-28c0.5-4.7,4.7-8,9.3-7.5c4,0.5,7.1,3.7,7.5,7.5
			c1,9.3,1.7,18.7,2.2,28c0.5,9.3,0.9,18.6,1,28C766.6,1976.1,766.3,1985.5,765.8,1994.8z M816.7,2011.6c-0.4,3.7-1,7.4-2.3,11.2
			c-1.5,4.6-6.5,7.2-11.2,5.7c-2.8-0.9-4.8-3.1-5.7-5.7c-1.2-3.7-1.9-7.5-2.3-11.2c-0.4-3.7-0.6-7.5-0.5-11.2
			c0-3.7,0.2-7.5,0.7-11.2c0.4-3.7,1-7.4,2.1-11.2c1.4-4.7,6.3-7.3,10.9-5.9c2.9,0.9,5.1,3.2,5.9,5.9c1.1,3.7,1.7,7.5,2.1,11.2
			c0.4,3.7,0.6,7.5,0.7,11.2C817.3,2004.1,817.1,2007.9,816.7,2011.6z M817.8,1878.9l-0.1,9.4l-0.4,18.8
			c-0.3,12.6-0.8,25.1-2.9,37.7c-0.7,4.7-5.1,7.8-9.8,7.1c-3.7-0.6-6.5-3.5-7.1-7.1c-2-12.6-2.6-25.1-2.9-37.7l-0.4-18.8l0-9.4
			l-0.1-4.7c0-0.4-0.1-0.9-0.1-1.3l-0.2-1.3c-0.6-3.3-2.5-6.4-5.1-8.6c-2.7-2.2-6.1-3.3-9.7-3.1c-7.1,0.2-14.1,5.8-15.8,14.3
			l-0.1,0.8c-0.9,4.6-5.3,7.6-9.9,6.7c-3.7-0.7-6.4-3.8-6.8-7.4c-0.8-8.3,1.8-17.3,7.5-24.1c5.6-6.8,14-11.4,23-12.4
			c8.9-1.1,18.4,1.5,25.7,6.9c7.4,5.4,12.6,13.7,14.3,22.7c0.2,1.1,0.4,2.3,0.5,3.4c0.1,1.2,0.1,2.3,0.2,3.4L817.8,1878.9z
			 M865.9,1917.7l-0.3,26.5c-0.1,17.7-0.5,35.3-3.5,53c-0.8,4.6-5.2,7.8-9.8,7c-3.7-0.6-6.4-3.5-7-7c-3-17.7-3.3-35.3-3.5-53
			l-0.3-26.5l0-26.5l0.1-13.2l0-3.3c0-1.1,0-1.9,0-2.9l-0.1-2.8l-0.3-2.8c-0.8-7.3-2.9-14.6-6.3-21.2c-3.4-6.6-7.9-12.7-13.4-18
			c-5.4-5.3-11.6-9.8-18.5-13.8l-0.3-0.2c-4-2.3-5.4-7.5-3.1-11.6c1.9-3.3,5.8-4.8,9.3-4c9.7,2.3,18.8,7,26.7,13.3
			c8,6.3,14.4,14.4,19.4,23.3c5,8.9,8.3,18.8,9.7,29l0.5,3.8l0.2,3.8c0.1,1.3,0.2,2.7,0.2,3.8l0,3.3l0.1,13.2L865.9,1917.7z
			 M888.6,1847c-0.9-1.9-1.8-3.8-2.6-5.6l-1.2-2.8l-1.4-2.7c-1-1.8-1.8-3.6-2.7-5.5c-1.1-1.7-2-3.5-3-5.2l-1.5-2.6l-1.7-2.6l-3.3-5
			c-2.5-3.1-4.6-6.5-7.4-9.4c-5.1-6.2-11.2-11.4-17.5-16.3c-3.3-2.3-6.4-4.7-9.9-6.6c-1.7-1-3.4-2.1-5.2-2.9l-5.3-2.6
			c-7.2-3.2-14.7-6-22.5-7.6c-7.7-1.9-15.7-2.6-23.6-2.8c-16-0.1-31.7,3.1-47.7,7.5l-0.2,0.1c-4.5,1.3-9.2-1.4-10.5-5.9
			c-1-3.6,0.5-7.3,3.4-9.3c15.8-10.9,35.5-15.9,54.8-16.1c19.4-0.3,39,3.8,56.6,12.1c4.4,2.2,8.7,4.4,12.8,7c4.2,2.4,8,5.4,12,8.3
			c7.5,6.2,14.6,12.8,20.5,20.5c3.2,3.7,5.7,7.8,8.5,11.7c1.3,2.1,2.4,4.2,3.6,6.3l1.8,3.1l1.5,3.3c1,2.2,1.9,4.4,2.8,6.7
			c0.8,2.3,1.5,4.6,2.2,6.9l1,3.4l0.7,3.5c0.5,2.3,0.8,4.7,1.2,7.1c0.7,4.6-2.5,8.9-7.1,9.6c-3.7,0.5-7.2-1.4-8.8-4.6L888.6,1847z
			 M911.1,1947.1c-0.4,7.3-1,14.6-2.3,21.9c-0.8,4.6-5.2,7.8-9.8,7c-3.7-0.6-6.4-3.5-7-7c-1.2-7.3-1.8-14.6-2.2-21.9
			c-0.4-7.3-0.6-14.5-0.5-21.8c0.1-7.3,0.2-14.6,0.7-21.9c0.4-7.3,1-14.6,2.1-21.8c0.7-4.7,5.1-7.9,9.7-7.1c3.8,0.6,6.6,3.5,7.1,7.1
			c1.1,7.3,1.7,14.5,2.1,21.8c0.5,7.3,0.6,14.6,0.7,21.9C911.7,1932.5,911.5,1939.8,911.1,1947.1z"/>
		<path style="fill:#FFFFFF;" d="M1167.6,2386.3c-7-4.8-11.6-12.4-11.8-20.9l-2.1-71.5c-0.1-4.6-4-8.4-8.8-8.2
			c-4.5,0.2-7.9,4.2-8,8.6l-2,71c-0.3,8.5-4.8,16.1-11.8,20.9c-10.3,7.1-17.1,19-17.1,32.4c0,13.5,6.8,25.4,17.2,32.5
			c7.1,4.9,11.8,12.5,12.4,21.1l1.4,23c0.3,4.5,4.1,8.1,8.8,7.9c4.4-0.2,7.9-3.9,8.1-8.3l1.4-22.6c0.5-8.6,5.3-16.2,12.4-21.1
			c10.4-7.1,17.2-19,17.2-32.5C1184.6,2405.3,1177.9,2393.4,1167.6,2386.3z M1145.2,2435.7c-9.3,0-16.9-7.6-16.9-16.9
			c0-8.6,6.5-15.8,14.9-16.8c0.8,0.1,1.6,0.2,2.4,0.2c0.6,0,1.1-0.1,1.6-0.2c8.4,1,15,8.1,15,16.8
			C1162.2,2428.1,1154.6,2435.7,1145.2,2435.7z"/>
		<path style="fill:#FFFFFF;" d="M1039.9,2338c-7.1-4.9-11.9-12.5-12.4-21.1l-1.4-23c-0.3-4.5-4-8.1-8.8-7.9
			c-4.4,0.2-7.8,3.9-8.1,8.3l-1.4,22.6c-0.5,8.6-5.3,16.2-12.4,21.1c-10.4,7.1-17.1,19-17.1,32.5c0,13.4,6.8,25.3,17.1,32.4
			c7,4.8,11.6,12.4,11.8,20.9l2.1,71.5c0.1,4.6,4,8.4,8.8,8.2c4.5-0.2,7.9-4.2,8.1-8.6l2-71c0.3-8.5,4.8-16.1,11.8-20.9
			c10.3-7.1,17.1-19,17.1-32.4C1057,2357,1050.2,2345.1,1039.9,2338z M1019.7,2387.2c-0.8-0.1-1.6-0.2-2.4-0.2
			c-0.6,0-1.1,0.1-1.7,0.2c-8.4-1-15-8.1-15-16.8c0-9.3,7.6-16.9,16.9-16.9c9.3,0,16.9,7.6,16.9,16.9
			C1034.6,2379.1,1028.1,2386.2,1019.7,2387.2z"/>
		<path style="fill:#FFFFFF;" d="M912.3,2386.3c-7-4.8-11.6-12.4-11.8-20.9l-2.1-71.5c-0.1-4.6-4-8.4-8.8-8.2
			c-4.5,0.2-7.9,4.2-8.1,8.6l-2,71c-0.3,8.5-4.8,16.1-11.8,20.9c-10.3,7.1-17.1,19-17.1,32.4c0,13.5,6.8,25.4,17.2,32.5
			c7.1,4.9,11.9,12.5,12.4,21.1l1.4,23c0.3,4.5,4,8.1,8.8,7.9c4.4-0.2,7.8-3.9,8.1-8.3l1.4-22.6c0.5-8.6,5.3-16.2,12.4-21.1
			c10.4-7.1,17.1-19,17.1-32.5C929.4,2405.3,922.6,2393.4,912.3,2386.3z M890,2435.7c-9.3,0-16.9-7.6-16.9-16.9
			c0-8.6,6.5-15.8,14.9-16.8c0.8,0.1,1.6,0.2,2.4,0.2c0.6,0,1.1-0.1,1.7-0.2c8.4,1,15,8.1,15,16.8
			C907,2428.1,899.4,2435.7,890,2435.7z"/>
		<path style="fill:#FFFFFF;" d="M544.2,529.6L544.2,529.6c15.9-10.7,32.1-20.3,49.1-26.9l3.2-1.3l3.2-1l6.5-2.1
			c4.4-0.9,8.7-2.2,13.1-2.7c4.4-0.8,8.8-0.9,13.2-1.1l6.5,0.3c2.2,0.1,4.3,0.5,6.5,0.8c17,2.6,32.7,11.1,43.1,24.3
			c2.9,3.7,5.4,7.7,7.4,12c1.3,2.8-0.1,6.1-2.9,7.2c-10.2,3.9-33.6,13.8-54.2,30.4c-4.1,3.3-7.9,6.8-11.8,10.3
			c-3.7,3.5-7.4,7.1-11,10.7c-7.2,7.4-14,15.1-20.3,23.4c-6.3,8.3-12.2,17.1-17.1,26.8c-4.9,9.6-9,20.1-10.4,32.1
			c-0.6,6-0.6,12.4,1.1,19c1.7,6.6,5.3,13.7,11.3,18.7c2.9,2.5,6.3,4.5,9.7,5.9c3.5,1.3,7,2.1,10.4,2.5c6.8,0.6,13.2-0.2,19-1.8
			c11.6-3.2,21.4-8.8,30.2-15.1c8.8-6.4,16.6-13.6,23.7-21.3c7.1-7.7,13.6-15.8,19.6-24.2c3-4.2,5.8-8.5,8.6-12.8l4-6.8
			c1.3-2.3,2.7-4.5,3.8-6.9l3.6-7.1c1.2-2.4,2.1-4.9,3.1-7.3c2.2-4.9,3.7-10.1,5.3-15.1c2.8-10.4,4.7-21.2,5-32.1
			c0-2.4,0-4.8-0.1-7.3c-0.2-3,2.3-5.5,5.3-5.5c6.3,0,16.3,0.2,21.9,1.1c8.6,1.8,16.8,4.7,24.5,8.7c7.6,4.2,14.4,9.5,20.4,15.7
			c6,6.2,10.7,13.6,14.6,21.4l2.7,6c0.8,2,1.4,4.2,2.1,6.3c0.3,1,0.7,2.1,1,3.1l0.7,3.3c0.4,2.2,1,4.3,1.4,6.5
			c2.8,17.6,1.2,35.9-3.4,53.8c-4.7,17.8-11.9,35.2-20.1,52.5l-0.1,0.1c-1.7,3.6-0.7,7.9,2.6,10.4c3.7,2.8,9,2,11.8-1.7
			c12.2-16.4,21.7-35.1,27.6-55.4c5.7-20.2,7.5-42,4.2-63.5c-0.4-2.7-1.1-5.3-1.7-8l-0.9-4c-0.4-1.3-0.8-2.6-1.2-3.9
			c-0.9-2.6-1.7-5.2-2.6-7.8l-3.3-7.6c-4.9-9.8-10.8-19.3-18.6-27.3c-7.7-8-16.5-15-26.2-20.3c-9.8-5.2-20.3-8.9-31.1-11.2
			c-6.5-1.1-18.1-1.4-26.6-1.4c-6.2,0-11.7-3.6-14.3-9.2c-2.9-6.2-6.5-12.1-10.8-17.4c-7.1-8.9-16-16.3-25.9-21.8
			c-9.9-5.5-20.8-9-31.8-10.6c-2.7-0.3-5.5-0.8-8.2-0.9l-8.3-0.3c-5.4,0.3-10.9,0.4-16.3,1.4c-5.4,0.6-10.6,2.1-15.8,3.3l-7.6,2.5
			l-3.8,1.3l-3.7,1.6c-19.6,8.1-37.1,20.1-51.6,34.6c-2.8,2.8-3.3,7.3-1,10.7C535.1,531.1,540.3,532.2,544.2,529.6z M703.4,567.7
			C703.4,567.7,703.4,567.8,703.4,567.7c-0.8,35.5-22.3,69.2-47.2,96.7c-6.4,6.7-13.1,12.9-20.4,18.1c-7.2,5.1-14.9,9.3-22.4,11.3
			c-3.7,1-7.3,1.3-10.3,1c-1.5-0.2-2.8-0.5-4-1c-1.1-0.5-2.1-1.1-2.9-1.8c-1.6-1.3-2.8-3.5-3.6-6.4c-0.8-2.9-0.8-6.5-0.4-10.3
			c0.8-7.7,3.8-16,7.9-23.9c4-8,9.1-15.7,14.6-23.1c5.6-7.4,11.8-14.5,18.4-21.3c3.3-3.4,6.7-6.7,10.1-10c3.5-3.2,6.8-6.4,10.5-9.2
			c19.4-15,34.2-22,42.4-25.2C699.7,561.3,703.5,564,703.4,567.7z"/>
		<path style="fill:#FFFFFF;" d="M482.7,2347.5c-12.9-9.1-27.8-16.2-44.2-19.4c-8.2-1.5-16.6-2-25.1-1.4c-8.5,0.8-16.9,2.8-24.9,5.9
			c-16.1,6.4-29.8,18.1-39.3,32.3c-3.2,4.8-7.3,14.5-9.7,20.6c-1.3,3.3-4.3,5.7-7.8,6.2c-11.3,1.7-22.4,5.4-32.5,10.6
			c-29.6,15.5-51.4,44.7-57.3,77.6c-0.5,2-0.7,4.1-0.9,6.1c-0.2,2.1-0.5,4.1-0.7,6.2l-0.1,6.2l-0.1,3.1l0.2,3.1l0.4,6.2
			c0.2,2,0.6,4.1,1,6.1c0.6,4.1,1.7,8.1,2.7,12c4.5,15.7,12.5,30.1,22.6,42.3c2.6,3.2,7.2,4,10.8,1.9c4-2.4,5.3-7.6,2.9-11.6l0-0.1
			c-7.2-12.1-12.7-24.9-15.6-38c-2.9-13.1-3.6-26.6-1-39.5c4.8-26,22.4-49.2,45.8-61.2c5.5-2.8,11.2-5,17.1-6.4
			c3.6-0.9,7,1.7,7.2,5.4c0.2,5.5,0.8,10.9,2,16.2l0.6,3.1l0.8,3c0.6,2,1.1,4,1.7,6c1.4,3.9,2.6,7.9,4.4,11.6
			c0.8,1.9,1.6,3.8,2.6,5.6l2.9,5.4l1.5,2.7l1.6,2.6l3.2,5.1c4.6,6.7,9.5,13.3,15.7,19.2c6,5.9,12.8,11.4,21.1,15.4
			c8.2,4,17.8,6.6,28.1,5.5c1.3-0.2,2.6-0.3,3.8-0.5l3.8-1l1.9-0.5l1.9-0.8c1.2-0.5,2.4-1.1,3.6-1.6c4.7-2.6,9.1-6,12.4-10.3
			c6.8-8.4,9.3-19.2,9-28.8c-0.3-9.8-3.3-18.7-7.3-26.5c-4.1-7.8-9.1-14.7-14.8-20.8c-1.3-1.6-2.9-2.9-4.3-4.4
			c-1.5-1.4-2.9-2.9-4.4-4.2c-3.1-2.6-6.1-5.4-9.3-7.7c-3.2-2.4-6.4-4.9-9.9-7l-5.2-3.3c-1.8-1-3.7-1.9-5.5-2.9
			c-7.3-4-15.2-6.7-23.3-9c-1.3-0.3-2.6-0.6-3.9-0.8c-3.7-0.7-5.7-4.7-4.1-8.1c1.2-2.5,2.5-4.9,4.1-7.2c7-10.5,16.9-19.1,28.6-23.8
			c5.8-2.4,12-4,18.3-4.8c6.4-0.7,12.9-0.6,19.4,0.1c13.1,1.8,26.2,6.3,38.9,12.5l0.1,0.1c3.6,1.8,8.2,0.7,10.6-2.7
			C487.4,2355.5,486.5,2350.2,482.7,2347.5z M364.8,2416.3c7,1.6,13.8,4.2,20.2,7.7c1.5,0.8,2.9,1.5,4.4,2.4l4.2,2.7
			c2.8,1.7,5.6,3.9,8.3,5.9c2.8,2,5.2,4.4,7.9,6.6c1.3,1.1,2.4,2.3,3.6,3.5c1.1,1.2,2.4,2.3,3.5,3.6c4.5,4.9,8.2,10.2,11,15.6
			c2.8,5.4,4.4,11.1,4.6,16.2c0.3,10.4-5.4,18-14.7,18.8c-4.6,0.6-10-0.6-15.2-3.1c-5.2-2.5-10.2-6.4-14.8-10.9
			c-9.2-8.9-17-21-22.4-33c-1.5-3-2.4-6.2-3.6-9.3l-1.3-4.8l-0.7-2.4l-0.4-2.4c-0.8-3.7-1.3-7.4-1.6-11.2
			C357.5,2418.4,361.1,2415.4,364.8,2416.3z"/>
		<path style="fill:#FFFFFF;" d="M310.1,733.4c8.1,8.4,16.3,16.5,24.6,24.6l12.6,12c4.3,3.9,8.5,7.9,12.9,11.7
			c8.6,7.7,17.4,15.3,26.6,22.5c3.7,2.9,9,2.2,11.9-1.5c2.5-3.2,2.3-7.7-0.2-10.7c-7.5-8.9-15.5-17.4-23.5-25.7
			c-4-4.2-8.2-8.3-12.2-12.4l-12.5-12.1c-8.4-8-16.9-15.9-25.5-23.6c-8.7-7.7-17.4-15.3-26.6-22.6c-3.7-2.9-9-2.3-11.9,1.4
			c-2.5,3.2-2.4,7.7,0.2,10.7C294.1,716.6,302.1,725.1,310.1,733.4z"/>
		<path style="fill:#FFFFFF;" d="M448.2,764.9c1.2,4.6,5.9,7.5,10.5,6.3c3.2-0.8,5.5-3.3,6.3-6.3c1.3-5,1.9-10,2.3-15
			c0.4-5,0.6-10,0.5-15c-0.1-5-0.3-10-0.7-15c-0.4-5-1-10-2.1-15c-1-4.6-5.6-7.6-10.2-6.6c-3.4,0.7-5.9,3.4-6.6,6.6
			c-1.1,5-1.7,10-2.1,15c-0.4,5-0.6,10-0.7,15c-0.1,5,0.1,10,0.5,15C446.3,754.9,446.9,759.9,448.2,764.9z"/>
		<path style="fill:#FFFFFF;" d="M328.5,871.4c5-0.1,10-0.2,15-0.7c5-0.4,10-1,15-2.1c4.6-1,7.6-5.6,6.6-10.3
			c-0.7-3.4-3.4-5.9-6.6-6.6c-5-1.1-10-1.7-15-2.1c-5-0.4-10-0.6-15-0.7c-5-0.1-10,0.1-15,0.5c-5,0.4-10,1-15,2.3
			c-4.6,1.1-7.5,5.8-6.3,10.5c0.8,3.2,3.3,5.6,6.3,6.3c5,1.2,10,1.9,15,2.3C318.5,871.3,323.5,871.5,328.5,871.4z"/>
		<path style="fill:#FFFFFF;" d="M251.6,1522.8c2.5-3.2,2.3-7.7-0.2-10.7c-7.5-8.9-15.5-17.4-23.5-25.7c-4-4.2-8.2-8.3-12.2-12.4
			l-12.5-12.1c-8.4-8-16.9-15.9-25.5-23.6c-8.7-7.7-17.4-15.3-26.6-22.6c-3.7-2.9-9-2.3-11.9,1.4c-2.5,3.2-2.4,7.7,0.2,10.7
			c7.6,8.8,15.5,17.3,23.6,25.6c8.1,8.4,16.3,16.5,24.6,24.6l12.6,12c4.3,3.9,8.5,7.9,12.9,11.7c8.6,7.7,17.4,15.3,26.6,22.5
			C243.4,1527.1,248.7,1526.5,251.6,1522.8z"/>
		<path style="fill:#FFFFFF;" d="M317.8,1425c-1-4.6-5.6-7.6-10.2-6.6c-3.4,0.7-5.9,3.4-6.6,6.6c-1.1,5-1.7,10-2.1,15
			c-0.4,5-0.6,10-0.7,15c-0.1,5,0.1,10,0.5,15c0.4,5,1,10,2.3,15c1.2,4.6,5.9,7.5,10.5,6.3c3.2-0.8,5.5-3.3,6.3-6.3
			c1.3-5,1.9-10,2.3-15c0.4-5,0.6-10,0.5-15c-0.1-5-0.3-10-0.7-15C319.5,1435,318.9,1430,317.8,1425z"/>
		<path style="fill:#FFFFFF;" d="M211.3,1571.8c-5-1.1-10-1.7-15-2.1c-5-0.4-10-0.6-15-0.7c-5-0.1-10,0.1-15,0.5c-5,0.4-10,1-15,2.3
			c-4.6,1.1-7.5,5.8-6.3,10.5c0.8,3.2,3.3,5.6,6.3,6.3c5,1.2,10,1.9,15,2.3c5,0.4,10,0.6,15,0.5c5-0.1,10-0.2,15-0.7
			c5-0.4,10-1,15-2.1c4.6-1,7.6-5.6,6.6-10.3C217.1,1575,214.5,1572.5,211.3,1571.8z"/>
		<path style="fill:#FFFFFF;" d="M2860.9,1666.8c-2.9-3.7-8.2-4.3-11.9-1.4c-9.1,7.2-17.9,14.8-26.6,22.6
			c-8.7,7.7-17.1,15.6-25.5,23.6l-12.5,12.1c-4.1,4.1-8.2,8.2-12.2,12.4c-8.1,8.3-16,16.8-23.5,25.7c-2.5,3-2.7,7.5-0.2,10.7
			c2.9,3.7,8.2,4.3,11.9,1.5c9.2-7.2,18-14.8,26.6-22.5c4.4-3.8,8.6-7.8,12.9-11.7l12.6-12c8.3-8.1,16.6-16.2,24.6-24.6
			c8.1-8.3,16-16.8,23.6-25.6C2863.3,1674.5,2863.4,1670,2860.9,1666.8z"/>
		<path style="fill:#FFFFFF;" d="M2682.2,1734.6c0.8,3,3.1,5.5,6.3,6.3c4.6,1.2,9.4-1.6,10.5-6.3c1.3-5,1.9-10,2.3-15
			c0.4-5,0.6-10,0.5-15c-0.1-5-0.3-10-0.7-15c-0.4-5-1-10-2.1-15c-0.7-3.2-3.2-5.9-6.6-6.6c-4.6-1-9.2,1.9-10.2,6.6
			c-1.1,5-1.7,10-2.1,15c-0.4,5-0.6,10-0.7,15c-0.1,5,0.1,10,0.5,15C2680.3,1724.6,2680.9,1729.6,2682.2,1734.6z"/>
		<path style="fill:#FFFFFF;" d="M2848.7,1821.5c-5-1.2-10-1.9-15-2.3c-5-0.4-10-0.6-15-0.5c-5,0.1-10,0.2-15,0.7
			c-5,0.4-10,1-15,2.1c-3.2,0.7-5.8,3.2-6.6,6.6c-1,4.6,1.9,9.2,6.6,10.3c5,1.1,10,1.7,15,2.1c5,0.4,10,0.6,15,0.7
			c5,0.1,10-0.1,15-0.5c5-0.4,10-1,15-2.3c3-0.7,5.6-3.1,6.3-6.3C2856.2,1827.4,2853.3,1822.7,2848.7,1821.5z"/>
	</g>
</g>
</svg>
