<svg width="150" height="150" viewBox="0 0 150 150" fill="none" xmlns="http://www.w3.org/2000/svg">
<circle cx="75" cy="75" r="75" fill="#FFD900"/>
<path fill-rule="evenodd" clip-rule="evenodd" d="M35.3868 43L36.9792 59.2318C38.2488 59.1579 39.5454 59.1165 40.8698 59.1135L40.8748 43H38.1993H35.3868Z" fill="#66B24C"/>
<path fill-rule="evenodd" clip-rule="evenodd" d="M35.3794 43L33.7612 59.5394C34.8088 59.4251 35.8813 59.3344 36.9747 59.2683L35.3804 43H35.3794V43Z" fill="#FFD900"/>
<path fill-rule="evenodd" clip-rule="evenodd" d="M21 43L21.008 62.6407C24.3858 61.1778 28.7843 60.0875 33.7615 59.5414L35.3797 43.002V43H21Z" fill="#004FB6"/>
<path fill-rule="evenodd" clip-rule="evenodd" d="M116.589 43V43.5067C117.104 43.6141 118.226 43.9237 117.771 44.9242L111.413 59.0337H114.773L116.761 54.6352H123.807L125.549 59.0337H129.972L123.655 43H116.589ZM120.522 46.3369L123.02 52.6439H117.665L120.522 46.3369Z" fill="#004FB6"/>
<path fill-rule="evenodd" clip-rule="evenodd" d="M108.8 43L103.854 54.7572L99.1463 43H93.1525V43.5057C93.8447 43.6378 94.6215 43.9326 94.9761 44.8199L100.666 59.0338H105.246L111.991 43H108.8V43Z" fill="#004FB6"/>
<path fill-rule="evenodd" clip-rule="evenodd" d="M84.7344 43V43.5057C85.0859 43.5688 86.3457 43.9326 86.3457 44.8199V59.0338H90.6111V43H84.7344V43Z" fill="#004FB6"/>
<path fill-rule="evenodd" clip-rule="evenodd" d="M79.2347 43L74.2892 54.7572L69.5816 43H63.5884V43.5057C64.2815 43.6378 65.0573 43.9326 65.4128 44.8199L71.1003 59.0338H75.6804L82.4265 43H79.2347Z" fill="#004FB6"/>
<path fill-rule="evenodd" clip-rule="evenodd" d="M51.1978 43V43.5057C51.7136 43.6132 52.834 43.9227 52.3799 44.9234L46.0201 59.0338H49.3803L51.372 54.6349H58.4179L60.1597 59.0338H64.5785L58.2666 43H51.1978ZM55.1315 46.3361L57.6292 52.6435H52.2743L55.1315 46.3361Z" fill="#004FB6"/>
<path fill-rule="evenodd" clip-rule="evenodd" d="M85.4306 75.7872H79.5209V106.006H86.7327V87.5679C88.6108 83.0388 91.4405 81.4053 93.9195 81.4053C94.998 81.365 96.0751 81.5159 97.0997 81.8508L98.4019 75.6882C97.2766 75.2601 96.0763 75.0581 94.8711 75.0942C91.5657 75.0942 88.3855 77.1979 86.1318 81.1578H85.9064L85.4306 75.7872ZM68.3274 88.0382C68.3274 83.3853 66.3241 80.5886 62.0672 80.5886C58.4112 80.5886 55.3311 83.2616 54.7552 88.0382H68.3274ZM47.7938 90.9586C47.7938 81.1579 54.7552 75.0943 61.942 75.0943C70.2055 75.0943 74.5626 81.0341 74.5626 89.4489C74.5626 90.8349 74.4625 92.1219 74.2121 92.9386H54.7552C55.3311 98.3092 58.887 101.353 63.8451 101.353C66.4243 101.353 68.678 100.537 70.9067 99.1259L73.3857 103.556C70.4309 105.437 66.7749 106.83 62.8935 106.83C54.4046 106.83 47.7938 101.007 47.7938 90.9586ZM21 102.27L35.5238 81.4057H22.6527V75.7876H44.4885V79.5248L30.0899 100.413H44.9642V106.13H21V102.27ZM130 90.9605C130 99.7226 122.813 106.826 113.948 106.826C105.083 106.826 97.8959 99.7226 97.8959 90.9605C97.8959 82.1985 105.083 75.0954 113.948 75.0954C122.813 75.0954 130 82.1985 130 90.9605ZM110.393 101.613C110.29 96.2636 112.939 91.8194 116.049 89.0792C111.547 91.0767 108.45 95.4872 107.531 99.7245C107.44 100.145 106.896 100.282 106.668 99.9183C103.154 94.3241 104.971 87.8116 110.975 85.5234C111.217 85.4397 111.467 85.3544 111.721 85.2674C115.048 84.1307 119.234 82.7006 119.234 80.9083C122.474 83.797 122.74 91.2595 120.622 94.389C119.216 96.4679 117.147 97.8259 114.931 99.2803C113.692 100.094 112.406 100.937 111.166 101.954C110.861 102.203 110.401 102.01 110.393 101.613Z" fill="#005A6C"/>
</svg>
